M48
; DRILL file {KiCad 5.1.10-88a1d61d58~88~ubuntu20.04.1} date Mon Jul 12 21:50:56 2021
; FORMAT={-:-/ absolute / inch / decimal}
; #@! TF.CreationDate,2021-07-12T21:50:56+02:00
; #@! TF.GenerationSoftware,Kicad,Pcbnew,5.1.10-88a1d61d58~88~ubuntu20.04.1
FMAT,2
INCH
T1C0.0157
T2C0.0197
T3C0.0236
T4C0.0335
T5C0.0394
T6C0.0512
T7C0.1260
%
G90
G05
T1
X4.9Y-4.12
X4.96Y-4.28
X4.96Y-4.84
X5.0078Y-4.6278
X5.1Y-5.02
X5.1Y-5.22
X5.1Y-5.52
X5.1Y-5.7354
X5.1Y-6.02
X5.1Y-6.22
X5.16Y-4.98
X5.22Y-4.1
X5.22Y-4.18
X5.22Y-4.64
X5.22Y-4.72
X5.26Y-4.96
X5.275Y-5.5
X5.275Y-6.0
X5.3041Y-5.32
X5.32Y-5.82
X5.32Y-6.32
X5.325Y-6.45
X5.372Y-4.7952
X5.425Y-6.425
X5.46Y-5.44
X5.475Y-5.2
X5.475Y-5.25
X5.475Y-5.375
X5.475Y-5.7
X5.475Y-5.75
X5.475Y-5.875
X5.475Y-6.2
X5.475Y-6.25
X5.48Y-5.06
X5.54Y-5.4685
X5.5701Y-5.38
X5.5987Y-5.4787
X5.62Y-5.54
X5.625Y-5.5854
X5.7Y-5.4685
X5.7Y-6.0
X5.7Y-6.075
X5.748Y-5.252
X5.775Y-6.225
X5.9Y-6.0
X5.9Y-6.275
X5.95Y-4.325
X5.95Y-6.275
X5.9695Y-5.9513
X5.975Y-4.55
X5.975Y-5.875
X5.98Y-5.04
X5.9894Y-6.275
X6.0Y-4.325
X6.0Y-4.575
X6.0078Y-5.9422
X6.025Y-4.55
X6.05Y-4.325
X6.05Y-5.975
X6.05Y-6.275
X6.08Y-4.84
X6.08Y-5.28
X6.08Y-5.72
X6.1Y-4.56
X6.1Y-5.8
X6.12Y-4.18
X6.12Y-4.24
X6.1215Y-6.025
X6.16Y-5.1
X6.2Y-4.04
X6.225Y-4.665
X6.26Y-5.28
X6.28Y-4.78
X6.28Y-4.84
X6.32Y-4.68
X6.34Y-5.6
X6.35Y-5.8
X6.35Y-6.1
X6.35Y-6.15
X6.3504Y-4.7244
X6.36Y-5.5
X6.375Y-6.0087
X6.38Y-4.68
X6.38Y-5.1
X6.4Y-5.36
X6.42Y-5.5433
X6.45Y-5.925
X6.45Y-6.025
X6.52Y-4.7
X6.52Y-5.66
X6.5512Y-4.7402
X6.58Y-4.7
X6.6Y-5.48
X6.6632Y-5.8215
X6.6715Y-5.9
X6.675Y-6.15
X6.675Y-6.1972
X6.7Y-5.8
X6.7285Y-5.64
X6.7376Y-4.9024
X6.7376Y-5.0024
X6.7376Y-5.0976
X6.7376Y-5.2024
X6.8Y-5.66
X6.92Y-4.74
X6.975Y-6.025
X6.98Y-4.74
X7.0Y-4.5
X7.1Y-5.44
X7.12Y-4.7
X7.1248Y-4.0752
X7.1248Y-4.1752
X7.1248Y-4.2752
X7.16Y-5.44
X7.2Y-6.225
X7.2992Y-4.6535
X7.34Y-4.66
X7.34Y-5.6433
X7.38Y-4.66
X7.5Y-4.66
X7.5Y-6.1
X7.5Y-6.175
X7.54Y-4.66
X7.56Y-5.78
X7.58Y-4.66
X7.625Y-4.75
X7.66Y-4.58
X7.66Y-4.64
X7.675Y-4.75
X7.725Y-4.75
X7.74Y-5.2
X7.76Y-5.12
X7.76Y-5.52
X7.76Y-5.72
X7.78Y-5.16
X7.78Y-6.12
X7.78Y-6.2
X7.8Y-4.7
X7.8Y-4.75
X7.8Y-5.24
X7.8Y-5.3
X7.8Y-5.76
X7.8Y-5.84
X7.8Y-6.26
X7.825Y-4.875
X7.825Y-4.925
X7.85Y-4.025
X7.85Y-4.075
X7.875Y-4.9
X7.8898Y-4.0472
X7.9Y-6.4
X7.94Y-5.4
X8.04Y-4.58
X8.04Y-5.12
X8.04Y-5.62
X8.04Y-6.14
X8.12Y-4.76
X8.12Y-5.28
X8.12Y-5.8
X8.12Y-6.32
X8.18Y-4.56
X8.2085Y-4.7115
T2
X5.5305Y-4.1
X5.5305Y-6.35
X5.5582Y-4.0332
X5.5582Y-4.1668
X5.5582Y-6.2832
X5.5582Y-6.4168
X5.625Y-4.0055
X5.625Y-4.1945
X5.625Y-6.2555
X5.625Y-6.4445
X5.6918Y-4.0332
X5.6918Y-4.1668
X5.6918Y-6.2832
X5.6918Y-6.4168
X5.7195Y-4.1
X5.7195Y-6.35
X7.5555Y-6.35
X7.5832Y-6.2832
X7.5832Y-6.4168
X7.65Y-6.2555
X7.65Y-6.4445
X7.7168Y-6.2832
X7.7168Y-6.4168
X7.7445Y-6.35
X8.0655Y-4.1
X8.0932Y-4.0332
X8.0932Y-4.1668
X8.16Y-4.0055
X8.16Y-4.1945
X8.2268Y-4.0332
X8.2268Y-4.1668
X8.2545Y-4.1
T4
X5.8766Y-6.3437
X6.0734Y-6.3437
T6
X4.945Y-5.175
X4.945Y-5.375
X4.945Y-5.675
X4.945Y-5.875
X4.945Y-6.175
X4.945Y-6.375
T7
X5.625Y-4.1
X5.625Y-6.35
X7.65Y-6.35
X8.16Y-4.1
T3
G00X5.8372Y-6.4638
M15
G01X5.8372Y-6.4362
M16
G05
G00X6.1128Y-6.4362
M15
G01X6.1128Y-6.4638
M16
G05
T5
G00X7.29Y-4.3425
M15
G01X7.29Y-4.4213
M16
G05
G00X7.5144Y-4.2638
M15
G01X7.4356Y-4.2638
M16
G05
G00X7.5144Y-4.5
M15
G01X7.4356Y-4.5
M16
G05
T0
M30
