%TF.GenerationSoftware,KiCad,Pcbnew,5.1.10-88a1d61d58~88~ubuntu20.04.1*%
%TF.CreationDate,2021-07-12T21:51:17+02:00*%
%TF.ProjectId,Tang_v1-1,54616e67-5f76-4312-9d31-2e6b69636164,rev?*%
%TF.SameCoordinates,Original*%
%TF.FileFunction,Legend,Top*%
%TF.FilePolarity,Positive*%
%FSLAX46Y46*%
G04 Gerber Fmt 4.6, Leading zero omitted, Abs format (unit mm)*
G04 Created by KiCad (PCBNEW 5.1.10-88a1d61d58~88~ubuntu20.04.1) date 2021-07-12 21:51:17*
%MOMM*%
%LPD*%
G01*
G04 APERTURE LIST*
%ADD10C,0.150000*%
%ADD11C,0.400000*%
%ADD12C,0.120000*%
%ADD13C,0.100000*%
G04 APERTURE END LIST*
D10*
X147761904Y-101452380D02*
X147761904Y-102166666D01*
X147714285Y-102309523D01*
X147619047Y-102404761D01*
X147476190Y-102452380D01*
X147380952Y-102452380D01*
X148666666Y-101785714D02*
X148666666Y-102452380D01*
X148238095Y-101785714D02*
X148238095Y-102309523D01*
X148285714Y-102404761D01*
X148380952Y-102452380D01*
X148523809Y-102452380D01*
X148619047Y-102404761D01*
X148666666Y-102357142D01*
X149285714Y-102452380D02*
X149190476Y-102404761D01*
X149142857Y-102309523D01*
X149142857Y-101452380D01*
X149571428Y-101785714D02*
X149809523Y-102452380D01*
X150047619Y-101785714D02*
X149809523Y-102452380D01*
X149714285Y-102690476D01*
X149666666Y-102738095D01*
X149571428Y-102785714D01*
X151142857Y-101547619D02*
X151190476Y-101500000D01*
X151285714Y-101452380D01*
X151523809Y-101452380D01*
X151619047Y-101500000D01*
X151666666Y-101547619D01*
X151714285Y-101642857D01*
X151714285Y-101738095D01*
X151666666Y-101880952D01*
X151095238Y-102452380D01*
X151714285Y-102452380D01*
X152333333Y-101452380D02*
X152428571Y-101452380D01*
X152523809Y-101500000D01*
X152571428Y-101547619D01*
X152619047Y-101642857D01*
X152666666Y-101833333D01*
X152666666Y-102071428D01*
X152619047Y-102261904D01*
X152571428Y-102357142D01*
X152523809Y-102404761D01*
X152428571Y-102452380D01*
X152333333Y-102452380D01*
X152238095Y-102404761D01*
X152190476Y-102357142D01*
X152142857Y-102261904D01*
X152095238Y-102071428D01*
X152095238Y-101833333D01*
X152142857Y-101642857D01*
X152190476Y-101547619D01*
X152238095Y-101500000D01*
X152333333Y-101452380D01*
X153047619Y-101547619D02*
X153095238Y-101500000D01*
X153190476Y-101452380D01*
X153428571Y-101452380D01*
X153523809Y-101500000D01*
X153571428Y-101547619D01*
X153619047Y-101642857D01*
X153619047Y-101738095D01*
X153571428Y-101880952D01*
X153000000Y-102452380D01*
X153619047Y-102452380D01*
X154571428Y-102452380D02*
X154000000Y-102452380D01*
X154285714Y-102452380D02*
X154285714Y-101452380D01*
X154190476Y-101595238D01*
X154095238Y-101690476D01*
X154000000Y-101738095D01*
D11*
X140306142Y-125744952D02*
X140306142Y-124602095D01*
X143306142Y-125173523D02*
X140306142Y-125173523D01*
X142449000Y-124030666D02*
X142449000Y-123078285D01*
X143306142Y-124221142D02*
X140306142Y-123554476D01*
X143306142Y-122887809D01*
X143306142Y-122221142D02*
X140306142Y-122221142D01*
X143306142Y-121078285D01*
X140306142Y-121078285D01*
X140449000Y-119078285D02*
X140306142Y-119268761D01*
X140306142Y-119554476D01*
X140449000Y-119840190D01*
X140734714Y-120030666D01*
X141020428Y-120125904D01*
X141591857Y-120221142D01*
X142020428Y-120221142D01*
X142591857Y-120125904D01*
X142877571Y-120030666D01*
X143163285Y-119840190D01*
X143306142Y-119554476D01*
X143306142Y-119364000D01*
X143163285Y-119078285D01*
X143020428Y-118983047D01*
X142020428Y-118983047D01*
X142020428Y-119364000D01*
X141306142Y-116792571D02*
X143306142Y-116316380D01*
X141306142Y-115840190D01*
X143306142Y-114030666D02*
X143306142Y-115173523D01*
X143306142Y-114602095D02*
X140306142Y-114602095D01*
X140734714Y-114792571D01*
X141020428Y-114983047D01*
X141163285Y-115173523D01*
X143020428Y-113173523D02*
X143163285Y-113078285D01*
X143306142Y-113173523D01*
X143163285Y-113268761D01*
X143020428Y-113173523D01*
X143306142Y-113173523D01*
X143306142Y-111173523D02*
X143306142Y-112316380D01*
X143306142Y-111744952D02*
X140306142Y-111744952D01*
X140734714Y-111935428D01*
X141020428Y-112125904D01*
X141163285Y-112316380D01*
X146634714Y-127268761D02*
X146634714Y-126602095D01*
X148206142Y-126316380D02*
X148206142Y-127268761D01*
X145206142Y-127268761D01*
X145206142Y-126316380D01*
X148063285Y-125554476D02*
X148206142Y-125268761D01*
X148206142Y-124792571D01*
X148063285Y-124602095D01*
X147920428Y-124506857D01*
X147634714Y-124411619D01*
X147349000Y-124411619D01*
X147063285Y-124506857D01*
X146920428Y-124602095D01*
X146777571Y-124792571D01*
X146634714Y-125173523D01*
X146491857Y-125364000D01*
X146349000Y-125459238D01*
X146063285Y-125554476D01*
X145777571Y-125554476D01*
X145491857Y-125459238D01*
X145349000Y-125364000D01*
X145206142Y-125173523D01*
X145206142Y-124697333D01*
X145349000Y-124411619D01*
X148206142Y-123554476D02*
X145206142Y-123554476D01*
X145206142Y-122792571D01*
X145349000Y-122602095D01*
X145491857Y-122506857D01*
X145777571Y-122411619D01*
X146206142Y-122411619D01*
X146491857Y-122506857D01*
X146634714Y-122602095D01*
X146777571Y-122792571D01*
X146777571Y-123554476D01*
X145206142Y-121744952D02*
X145206142Y-120506857D01*
X146349000Y-121173523D01*
X146349000Y-120887809D01*
X146491857Y-120697333D01*
X146634714Y-120602095D01*
X146920428Y-120506857D01*
X147634714Y-120506857D01*
X147920428Y-120602095D01*
X148063285Y-120697333D01*
X148206142Y-120887809D01*
X148206142Y-121459238D01*
X148063285Y-121649714D01*
X147920428Y-121744952D01*
X145491857Y-119744952D02*
X145349000Y-119649714D01*
X145206142Y-119459238D01*
X145206142Y-118983047D01*
X145349000Y-118792571D01*
X145491857Y-118697333D01*
X145777571Y-118602095D01*
X146063285Y-118602095D01*
X146491857Y-118697333D01*
X148206142Y-119840190D01*
X148206142Y-118602095D01*
X146206142Y-116221142D02*
X149206142Y-116221142D01*
X147777571Y-115268761D02*
X148063285Y-115173523D01*
X148206142Y-114983047D01*
X147777571Y-116221142D02*
X148063285Y-116125904D01*
X148206142Y-115935428D01*
X148206142Y-115554476D01*
X148063285Y-115364000D01*
X147777571Y-115268761D01*
X146206142Y-115268761D01*
X148206142Y-114125904D02*
X145206142Y-114125904D01*
X145206142Y-113364000D01*
X145349000Y-113173523D01*
X145491857Y-113078285D01*
X145777571Y-112983047D01*
X146206142Y-112983047D01*
X146491857Y-113078285D01*
X146634714Y-113173523D01*
X146777571Y-113364000D01*
X146777571Y-114125904D01*
X148206142Y-111173523D02*
X148206142Y-112125904D01*
X145206142Y-112125904D01*
X147920428Y-109364000D02*
X148063285Y-109459238D01*
X148206142Y-109744952D01*
X148206142Y-109935428D01*
X148063285Y-110221142D01*
X147777571Y-110411619D01*
X147491857Y-110506857D01*
X146920428Y-110602095D01*
X146491857Y-110602095D01*
X145920428Y-110506857D01*
X145634714Y-110411619D01*
X145349000Y-110221142D01*
X145206142Y-109935428D01*
X145206142Y-109744952D01*
X145349000Y-109459238D01*
X145491857Y-109364000D01*
D10*
X171980952Y-145152380D02*
X171980952Y-145866666D01*
X171933333Y-146009523D01*
X171838095Y-146104761D01*
X171695238Y-146152380D01*
X171600000Y-146152380D01*
X172933333Y-146152380D02*
X172457142Y-146152380D01*
X172457142Y-145152380D01*
X173838095Y-146057142D02*
X173790476Y-146104761D01*
X173647619Y-146152380D01*
X173552380Y-146152380D01*
X173409523Y-146104761D01*
X173314285Y-146009523D01*
X173266666Y-145914285D01*
X173219047Y-145723809D01*
X173219047Y-145580952D01*
X173266666Y-145390476D01*
X173314285Y-145295238D01*
X173409523Y-145200000D01*
X173552380Y-145152380D01*
X173647619Y-145152380D01*
X173790476Y-145200000D01*
X173838095Y-145247619D01*
X174552380Y-145152380D02*
X174552380Y-145866666D01*
X174504761Y-146009523D01*
X174409523Y-146104761D01*
X174266666Y-146152380D01*
X174171428Y-146152380D01*
X175504761Y-146152380D02*
X175028571Y-146152380D01*
X175028571Y-145152380D01*
X176409523Y-146057142D02*
X176361904Y-146104761D01*
X176219047Y-146152380D01*
X176123809Y-146152380D01*
X175980952Y-146104761D01*
X175885714Y-146009523D01*
X175838095Y-145914285D01*
X175790476Y-145723809D01*
X175790476Y-145580952D01*
X175838095Y-145390476D01*
X175885714Y-145295238D01*
X175980952Y-145200000D01*
X176123809Y-145152380D01*
X176219047Y-145152380D01*
X176361904Y-145200000D01*
X176409523Y-145247619D01*
X177123809Y-145152380D02*
X177123809Y-145866666D01*
X177076190Y-146009523D01*
X176980952Y-146104761D01*
X176838095Y-146152380D01*
X176742857Y-146152380D01*
X178076190Y-146152380D02*
X177600000Y-146152380D01*
X177600000Y-145152380D01*
X178980952Y-146057142D02*
X178933333Y-146104761D01*
X178790476Y-146152380D01*
X178695238Y-146152380D01*
X178552380Y-146104761D01*
X178457142Y-146009523D01*
X178409523Y-145914285D01*
X178361904Y-145723809D01*
X178361904Y-145580952D01*
X178409523Y-145390476D01*
X178457142Y-145295238D01*
X178552380Y-145200000D01*
X178695238Y-145152380D01*
X178790476Y-145152380D01*
X178933333Y-145200000D01*
X178980952Y-145247619D01*
X179695238Y-145152380D02*
X179695238Y-145866666D01*
X179647619Y-146009523D01*
X179552380Y-146104761D01*
X179409523Y-146152380D01*
X179314285Y-146152380D01*
X180647619Y-146152380D02*
X180171428Y-146152380D01*
X180171428Y-145152380D01*
X181552380Y-146057142D02*
X181504761Y-146104761D01*
X181361904Y-146152380D01*
X181266666Y-146152380D01*
X181123809Y-146104761D01*
X181028571Y-146009523D01*
X180980952Y-145914285D01*
X180933333Y-145723809D01*
X180933333Y-145580952D01*
X180980952Y-145390476D01*
X181028571Y-145295238D01*
X181123809Y-145200000D01*
X181266666Y-145152380D01*
X181361904Y-145152380D01*
X181504761Y-145200000D01*
X181552380Y-145247619D01*
D12*
X163800000Y-111900000D02*
X163800000Y-109300000D01*
X175300000Y-111900000D02*
X163800000Y-111900000D01*
X175300000Y-109300000D02*
X175300000Y-111900000D01*
X175300000Y-101700000D02*
X175300000Y-104100000D01*
X163800000Y-101700000D02*
X175300000Y-101700000D01*
X163800000Y-104100000D02*
X163800000Y-101700000D01*
X189200000Y-135800000D02*
X189200000Y-133400000D01*
X177800000Y-135800000D02*
X189200000Y-135800000D01*
X177800000Y-133400000D02*
X177800000Y-135800000D01*
X189200000Y-125600000D02*
X189200000Y-128200000D01*
X177800000Y-125600000D02*
X189200000Y-125600000D01*
X177800000Y-128200000D02*
X177800000Y-125600000D01*
D10*
X151312571Y-134786476D02*
X151312571Y-135119809D01*
X151836380Y-135119809D02*
X150836380Y-135119809D01*
X150836380Y-134643619D01*
X151836380Y-133786476D02*
X151836380Y-134262666D01*
X150836380Y-134262666D01*
X151550666Y-133500761D02*
X151550666Y-133024571D01*
X151836380Y-133596000D02*
X150836380Y-133262666D01*
X151836380Y-132929333D01*
X151788761Y-132643619D02*
X151836380Y-132500761D01*
X151836380Y-132262666D01*
X151788761Y-132167428D01*
X151741142Y-132119809D01*
X151645904Y-132072190D01*
X151550666Y-132072190D01*
X151455428Y-132119809D01*
X151407809Y-132167428D01*
X151360190Y-132262666D01*
X151312571Y-132453142D01*
X151264952Y-132548380D01*
X151217333Y-132596000D01*
X151122095Y-132643619D01*
X151026857Y-132643619D01*
X150931619Y-132596000D01*
X150884000Y-132548380D01*
X150836380Y-132453142D01*
X150836380Y-132215047D01*
X150884000Y-132072190D01*
X151836380Y-131643619D02*
X150836380Y-131643619D01*
X151312571Y-131643619D02*
X151312571Y-131072190D01*
X151836380Y-131072190D02*
X150836380Y-131072190D01*
X162504380Y-134548380D02*
X162028190Y-134881714D01*
X162504380Y-135119809D02*
X161504380Y-135119809D01*
X161504380Y-134738857D01*
X161552000Y-134643619D01*
X161599619Y-134596000D01*
X161694857Y-134548380D01*
X161837714Y-134548380D01*
X161932952Y-134596000D01*
X161980571Y-134643619D01*
X162028190Y-134738857D01*
X162028190Y-135119809D01*
X161980571Y-134119809D02*
X161980571Y-133786476D01*
X162504380Y-133643619D02*
X162504380Y-134119809D01*
X161504380Y-134119809D01*
X161504380Y-133643619D01*
X162456761Y-133262666D02*
X162504380Y-133119809D01*
X162504380Y-132881714D01*
X162456761Y-132786476D01*
X162409142Y-132738857D01*
X162313904Y-132691238D01*
X162218666Y-132691238D01*
X162123428Y-132738857D01*
X162075809Y-132786476D01*
X162028190Y-132881714D01*
X161980571Y-133072190D01*
X161932952Y-133167428D01*
X161885333Y-133215047D01*
X161790095Y-133262666D01*
X161694857Y-133262666D01*
X161599619Y-133215047D01*
X161552000Y-133167428D01*
X161504380Y-133072190D01*
X161504380Y-132834095D01*
X161552000Y-132691238D01*
X161980571Y-132262666D02*
X161980571Y-131929333D01*
X162504380Y-131786476D02*
X162504380Y-132262666D01*
X161504380Y-132262666D01*
X161504380Y-131786476D01*
X161504380Y-131500761D02*
X161504380Y-130929333D01*
X162504380Y-131215047D02*
X161504380Y-131215047D01*
D12*
X161837357Y-102927698D02*
G75*
G03*
X161837357Y-102927698I-68338J0D01*
G01*
X191180856Y-134364861D02*
G75*
G03*
X191180856Y-134364861I-68338J0D01*
G01*
X154222228Y-152203643D02*
G75*
G03*
X154222228Y-152203643I-68338J0D01*
G01*
X185996338Y-156972000D02*
G75*
G03*
X185996338Y-156972000I-68338J0D01*
G01*
%TO.C,C6*%
X162065580Y-101090000D02*
X161784420Y-101090000D01*
X162065580Y-102110000D02*
X161784420Y-102110000D01*
%TO.C,C7*%
X190994420Y-136400000D02*
X191275580Y-136400000D01*
X190994420Y-135380000D02*
X191275580Y-135380000D01*
%TO.C,C8*%
X155700000Y-116485580D02*
X155700000Y-116204420D01*
X156720000Y-116485580D02*
X156720000Y-116204420D01*
%TO.C,C9*%
X182739420Y-117985000D02*
X183020580Y-117985000D01*
X182739420Y-116965000D02*
X183020580Y-116965000D01*
%TO.C,C10*%
X180281252Y-101500000D02*
X179758748Y-101500000D01*
X180281252Y-102970000D02*
X179758748Y-102970000D01*
%TO.C,C11*%
X171823748Y-123925000D02*
X172346252Y-123925000D01*
X171823748Y-122455000D02*
X172346252Y-122455000D01*
%TO.C,C13*%
X178294420Y-116965000D02*
X178575580Y-116965000D01*
X178294420Y-117985000D02*
X178575580Y-117985000D01*
%TO.C,C14*%
X180286252Y-105510000D02*
X179763748Y-105510000D01*
X180286252Y-104040000D02*
X179763748Y-104040000D01*
%TO.C,C15*%
X171823748Y-132615000D02*
X172346252Y-132615000D01*
X171823748Y-134085000D02*
X172346252Y-134085000D01*
%TO.C,C16*%
X154815000Y-120930580D02*
X154815000Y-120649420D01*
X153795000Y-120930580D02*
X153795000Y-120649420D01*
%TO.C,C17*%
X178294420Y-116080000D02*
X178575580Y-116080000D01*
X178294420Y-115060000D02*
X178575580Y-115060000D01*
%TO.C,C18*%
X180281252Y-106580000D02*
X179758748Y-106580000D01*
X180281252Y-108050000D02*
X179758748Y-108050000D01*
%TO.C,C19*%
X171823748Y-129005000D02*
X172346252Y-129005000D01*
X171823748Y-127535000D02*
X172346252Y-127535000D01*
%TO.C,C20*%
X180281252Y-110590000D02*
X179758748Y-110590000D01*
X180281252Y-109120000D02*
X179758748Y-109120000D01*
%TO.C,C21*%
X171823748Y-124995000D02*
X172346252Y-124995000D01*
X171823748Y-126465000D02*
X172346252Y-126465000D01*
%TO.C,C22*%
X171823748Y-130075000D02*
X172346252Y-130075000D01*
X171823748Y-131545000D02*
X172346252Y-131545000D01*
%TO.C,C24*%
X187959420Y-155450000D02*
X188240580Y-155450000D01*
X187959420Y-154430000D02*
X188240580Y-154430000D01*
%TO.C,C25*%
X147460580Y-151890000D02*
X147179420Y-151890000D01*
X147460580Y-152910000D02*
X147179420Y-152910000D01*
%TO.C,C27*%
X151005000Y-150354420D02*
X151005000Y-150635580D01*
X149985000Y-150354420D02*
X149985000Y-150635580D01*
%TO.C,D1*%
X198500000Y-101375000D02*
X195200000Y-101375000D01*
X195200000Y-101375000D02*
X195200000Y-106775000D01*
X198500000Y-101375000D02*
X198500000Y-106775000D01*
%TO.C,D2*%
X162940000Y-111535000D02*
X159640000Y-111535000D01*
X159640000Y-111535000D02*
X159640000Y-116935000D01*
X162940000Y-111535000D02*
X162940000Y-116935000D01*
%TO.C,D3*%
X190120000Y-126050000D02*
X190120000Y-120650000D01*
X193420000Y-126050000D02*
X193420000Y-120650000D01*
X190120000Y-126050000D02*
X193420000Y-126050000D01*
%TO.C,D4*%
X169479000Y-112650000D02*
X174879000Y-112650000D01*
X169479000Y-115950000D02*
X174879000Y-115950000D01*
X169479000Y-112650000D02*
X169479000Y-115950000D01*
%TO.C,D5*%
X183645000Y-124840000D02*
X183645000Y-121540000D01*
X183645000Y-121540000D02*
X178245000Y-121540000D01*
X183645000Y-124840000D02*
X178245000Y-124840000D01*
%TO.C,D6*%
X150875000Y-141570000D02*
X147575000Y-141570000D01*
X147575000Y-141570000D02*
X147575000Y-146970000D01*
X150875000Y-141570000D02*
X150875000Y-146970000D01*
%TO.C,D7*%
X135510000Y-144370000D02*
X135510000Y-138970000D01*
X138810000Y-144370000D02*
X138810000Y-138970000D01*
X135510000Y-144370000D02*
X138810000Y-144370000D01*
%TO.C,D8*%
X135510000Y-157070000D02*
X135510000Y-151670000D01*
X138810000Y-157070000D02*
X138810000Y-151670000D01*
X135510000Y-157070000D02*
X138810000Y-157070000D01*
%TO.C,D9*%
X135510000Y-131670000D02*
X138810000Y-131670000D01*
X138810000Y-131670000D02*
X138810000Y-126270000D01*
X135510000Y-131670000D02*
X135510000Y-126270000D01*
%TO.C,D10*%
X134023000Y-148490000D02*
X131738000Y-148490000D01*
X131738000Y-148490000D02*
X131738000Y-149960000D01*
X131738000Y-149960000D02*
X134023000Y-149960000D01*
%TO.C,D11*%
X131738000Y-162660000D02*
X134023000Y-162660000D01*
X131738000Y-161190000D02*
X131738000Y-162660000D01*
X134023000Y-161190000D02*
X131738000Y-161190000D01*
%TO.C,D12*%
X134023000Y-135790000D02*
X131738000Y-135790000D01*
X131738000Y-135790000D02*
X131738000Y-137260000D01*
X131738000Y-137260000D02*
X134023000Y-137260000D01*
%TO.C,D13*%
X134873000Y-141380000D02*
X131573000Y-141380000D01*
X131573000Y-141380000D02*
X131573000Y-146780000D01*
X134873000Y-141380000D02*
X134873000Y-146780000D01*
%TO.C,D14*%
X134873000Y-154080000D02*
X134873000Y-159480000D01*
X131573000Y-154080000D02*
X131573000Y-159480000D01*
X134873000Y-154080000D02*
X131573000Y-154080000D01*
%TO.C,D15*%
X134873000Y-128680000D02*
X134873000Y-134080000D01*
X131573000Y-128680000D02*
X131573000Y-134080000D01*
X134873000Y-128680000D02*
X131573000Y-128680000D01*
%TO.C,F1*%
X198560000Y-110373748D02*
X198560000Y-113146252D01*
X195140000Y-110373748D02*
X195140000Y-113146252D01*
%TO.C,F2*%
X164660000Y-117358752D02*
X164660000Y-114586248D01*
X168080000Y-117358752D02*
X168080000Y-114586248D01*
%TO.C,F3*%
X184980000Y-120301248D02*
X184980000Y-123073752D01*
X188400000Y-120301248D02*
X188400000Y-123073752D01*
%TO.C,J1*%
X193615000Y-115400000D02*
X194665000Y-115400000D01*
X194665000Y-114350000D02*
X194665000Y-115400000D01*
X185265000Y-109300000D02*
X185265000Y-100500000D01*
X185265000Y-100500000D02*
X194465000Y-100500000D01*
X187965000Y-115200000D02*
X185265000Y-115200000D01*
X185265000Y-115200000D02*
X185265000Y-113300000D01*
X194465000Y-100500000D02*
X194465000Y-115200000D01*
X194465000Y-115200000D02*
X191865000Y-115200000D01*
%TO.C,J2*%
X147865000Y-160830000D02*
X148315000Y-160830000D01*
X147865000Y-162680000D02*
X147865000Y-160830000D01*
X155665000Y-165230000D02*
X155665000Y-164980000D01*
X147865000Y-165230000D02*
X147865000Y-164980000D01*
X155665000Y-162680000D02*
X155665000Y-160830000D01*
X155665000Y-160830000D02*
X155215000Y-160830000D01*
X150065000Y-160280000D02*
X150515000Y-160280000D01*
X150065000Y-160280000D02*
X150065000Y-160730000D01*
%TO.C,J6*%
X127283000Y-149225000D02*
G75*
G03*
X127283000Y-149225000I-1680000J0D01*
G01*
X121503000Y-141545000D02*
X121503000Y-151825000D01*
X123003000Y-141545000D02*
X123003000Y-151825000D01*
X127904000Y-141545000D02*
X127904000Y-151825000D01*
X130864000Y-141545000D02*
X130864000Y-151825000D01*
X120943000Y-141545000D02*
X120943000Y-151825000D01*
X130864000Y-141545000D02*
X120943000Y-141545000D01*
X130864000Y-151825000D02*
X120943000Y-151825000D01*
X126672000Y-150500000D02*
X126626000Y-150453000D01*
X124364000Y-148191000D02*
X124329000Y-148156000D01*
X126878000Y-150295000D02*
X126842000Y-150260000D01*
X124580000Y-147998000D02*
X124534000Y-147951000D01*
X121443000Y-141305000D02*
X120703000Y-141305000D01*
X120703000Y-141305000D02*
X120703000Y-141805000D01*
X124068244Y-144828318D02*
G75*
G02*
X123923000Y-144145000I1534756J683318D01*
G01*
X126286042Y-145680426D02*
G75*
G02*
X124919000Y-145680000I-683042J1535426D01*
G01*
X127138426Y-143461958D02*
G75*
G02*
X127138000Y-144829000I-1535426J-683042D01*
G01*
X124919958Y-142609574D02*
G75*
G02*
X126287000Y-142610000I683042J-1535426D01*
G01*
X123922747Y-144173805D02*
G75*
G02*
X124068000Y-143461000I1680253J28805D01*
G01*
%TO.C,J10*%
X120703000Y-154005000D02*
X120703000Y-154505000D01*
X121443000Y-154005000D02*
X120703000Y-154005000D01*
X124580000Y-160698000D02*
X124534000Y-160651000D01*
X126878000Y-162995000D02*
X126842000Y-162960000D01*
X124364000Y-160891000D02*
X124329000Y-160856000D01*
X126672000Y-163200000D02*
X126626000Y-163153000D01*
X130864000Y-164525000D02*
X120943000Y-164525000D01*
X130864000Y-154245000D02*
X120943000Y-154245000D01*
X120943000Y-154245000D02*
X120943000Y-164525000D01*
X130864000Y-154245000D02*
X130864000Y-164525000D01*
X127904000Y-154245000D02*
X127904000Y-164525000D01*
X123003000Y-154245000D02*
X123003000Y-164525000D01*
X121503000Y-154245000D02*
X121503000Y-164525000D01*
X127283000Y-161925000D02*
G75*
G03*
X127283000Y-161925000I-1680000J0D01*
G01*
X123922747Y-156873805D02*
G75*
G02*
X124068000Y-156161000I1680253J28805D01*
G01*
X124919958Y-155309574D02*
G75*
G02*
X126287000Y-155310000I683042J-1535426D01*
G01*
X127138426Y-156161958D02*
G75*
G02*
X127138000Y-157529000I-1535426J-683042D01*
G01*
X126286042Y-158380426D02*
G75*
G02*
X124919000Y-158380000I-683042J1535426D01*
G01*
X124068244Y-157528318D02*
G75*
G02*
X123923000Y-156845000I1534756J683318D01*
G01*
%TO.C,J11*%
X127283000Y-136525000D02*
G75*
G03*
X127283000Y-136525000I-1680000J0D01*
G01*
X121503000Y-128845000D02*
X121503000Y-139125000D01*
X123003000Y-128845000D02*
X123003000Y-139125000D01*
X127904000Y-128845000D02*
X127904000Y-139125000D01*
X130864000Y-128845000D02*
X130864000Y-139125000D01*
X120943000Y-128845000D02*
X120943000Y-139125000D01*
X130864000Y-128845000D02*
X120943000Y-128845000D01*
X130864000Y-139125000D02*
X120943000Y-139125000D01*
X126672000Y-137800000D02*
X126626000Y-137753000D01*
X124364000Y-135491000D02*
X124329000Y-135456000D01*
X126878000Y-137595000D02*
X126842000Y-137560000D01*
X124580000Y-135298000D02*
X124534000Y-135251000D01*
X121443000Y-128605000D02*
X120703000Y-128605000D01*
X120703000Y-128605000D02*
X120703000Y-129105000D01*
X124068244Y-132128318D02*
G75*
G02*
X123923000Y-131445000I1534756J683318D01*
G01*
X126286042Y-132980426D02*
G75*
G02*
X124919000Y-132980000I-683042J1535426D01*
G01*
X127138426Y-130761958D02*
G75*
G02*
X127138000Y-132129000I-1535426J-683042D01*
G01*
X124919958Y-129909574D02*
G75*
G02*
X126287000Y-129910000I683042J-1535426D01*
G01*
X123922747Y-131473805D02*
G75*
G02*
X124068000Y-130761000I1680253J28805D01*
G01*
%TO.C,Q3*%
X138613000Y-145925000D02*
X137683000Y-145925000D01*
X135453000Y-145925000D02*
X136383000Y-145925000D01*
X135453000Y-145925000D02*
X135453000Y-148085000D01*
X138613000Y-145925000D02*
X138613000Y-147385000D01*
%TO.C,Q4*%
X138613000Y-158625000D02*
X138613000Y-160085000D01*
X135453000Y-158625000D02*
X135453000Y-160785000D01*
X135453000Y-158625000D02*
X136383000Y-158625000D01*
X138613000Y-158625000D02*
X137683000Y-158625000D01*
%TO.C,Q5*%
X138613000Y-133225000D02*
X137683000Y-133225000D01*
X135453000Y-133225000D02*
X136383000Y-133225000D01*
X135453000Y-133225000D02*
X135453000Y-135385000D01*
X138613000Y-133225000D02*
X138613000Y-134685000D01*
%TO.C,R1*%
X157592500Y-116157742D02*
X157592500Y-116632258D01*
X158637500Y-116157742D02*
X158637500Y-116632258D01*
%TO.C,R2*%
X158637500Y-120602742D02*
X158637500Y-121077258D01*
X157592500Y-120602742D02*
X157592500Y-121077258D01*
%TO.C,R3*%
X183117258Y-118857500D02*
X182642742Y-118857500D01*
X183117258Y-119902500D02*
X182642742Y-119902500D01*
%TO.C,R4*%
X178672258Y-119902500D02*
X178197742Y-119902500D01*
X178672258Y-118857500D02*
X178197742Y-118857500D01*
%TO.C,R5*%
X175372500Y-118317742D02*
X175372500Y-118792258D01*
X176417500Y-118317742D02*
X176417500Y-118792258D01*
%TO.C,R6*%
X152512500Y-129142258D02*
X152512500Y-128667742D01*
X153557500Y-129142258D02*
X153557500Y-128667742D01*
%TO.C,R7*%
X158227500Y-129142258D02*
X158227500Y-128667742D01*
X159272500Y-129142258D02*
X159272500Y-128667742D01*
%TO.C,R8*%
X162037500Y-155812258D02*
X162037500Y-155337742D01*
X163082500Y-155812258D02*
X163082500Y-155337742D01*
%TO.C,R9*%
X156957500Y-155337742D02*
X156957500Y-155812258D01*
X158002500Y-155337742D02*
X158002500Y-155812258D01*
%TO.C,R10*%
X154417500Y-128667742D02*
X154417500Y-129142258D01*
X155462500Y-128667742D02*
X155462500Y-129142258D01*
%TO.C,R11*%
X160132500Y-128667742D02*
X160132500Y-129142258D01*
X161177500Y-128667742D02*
X161177500Y-129142258D01*
%TO.C,R12*%
X148477500Y-157242742D02*
X148477500Y-157717258D01*
X147432500Y-157242742D02*
X147432500Y-157717258D01*
%TO.C,R13*%
X156732500Y-150732258D02*
X156732500Y-150257742D01*
X155687500Y-150732258D02*
X155687500Y-150257742D01*
%TO.C,R14*%
X196612742Y-115301500D02*
X197087258Y-115301500D01*
X196612742Y-116346500D02*
X197087258Y-116346500D01*
%TO.C,R15*%
X196612742Y-118378500D02*
X197087258Y-118378500D01*
X196612742Y-117333500D02*
X197087258Y-117333500D01*
%TO.C,R16*%
X196866742Y-141209500D02*
X197341258Y-141209500D01*
X196866742Y-142254500D02*
X197341258Y-142254500D01*
%TO.C,R17*%
X196866742Y-144286500D02*
X197341258Y-144286500D01*
X196866742Y-143241500D02*
X197341258Y-143241500D01*
%TO.C,R18*%
X165622500Y-149907258D02*
X165622500Y-149432742D01*
X164577500Y-149907258D02*
X164577500Y-149432742D01*
%TO.C,R19*%
X164577500Y-155527742D02*
X164577500Y-156002258D01*
X165622500Y-155527742D02*
X165622500Y-156002258D01*
%TO.C,R20*%
X136795742Y-148702500D02*
X137270258Y-148702500D01*
X136795742Y-149747500D02*
X137270258Y-149747500D01*
%TO.C,R21*%
X136795742Y-162447500D02*
X137270258Y-162447500D01*
X136795742Y-161402500D02*
X137270258Y-161402500D01*
%TO.C,R22*%
X136795742Y-136002500D02*
X137270258Y-136002500D01*
X136795742Y-137047500D02*
X137270258Y-137047500D01*
%TO.C,R23*%
X132985742Y-150607500D02*
X133460258Y-150607500D01*
X132985742Y-151652500D02*
X133460258Y-151652500D01*
%TO.C,R24*%
X132985742Y-164352500D02*
X133460258Y-164352500D01*
X132985742Y-163307500D02*
X133460258Y-163307500D01*
%TO.C,R25*%
X132985742Y-137907500D02*
X133460258Y-137907500D01*
X132985742Y-138952500D02*
X133460258Y-138952500D01*
%TO.C,R26*%
X157052742Y-122667500D02*
X157527258Y-122667500D01*
X157052742Y-123712500D02*
X157527258Y-123712500D01*
%TO.C,SW1*%
X152735000Y-131280000D02*
X153035000Y-131280000D01*
X155875000Y-135420000D02*
X155575000Y-135420000D01*
X153035000Y-135420000D02*
X152735000Y-135420000D01*
X155875000Y-131280000D02*
X155875000Y-135420000D01*
X155575000Y-131280000D02*
X155875000Y-131280000D01*
X152735000Y-135420000D02*
X152735000Y-131280000D01*
%TO.C,SW2*%
X157815000Y-135420000D02*
X157815000Y-131280000D01*
X160655000Y-131280000D02*
X160955000Y-131280000D01*
X160955000Y-131280000D02*
X160955000Y-135420000D01*
X158115000Y-135420000D02*
X157815000Y-135420000D01*
X160955000Y-135420000D02*
X160655000Y-135420000D01*
X157815000Y-131280000D02*
X158115000Y-131280000D01*
%TO.C,U1*%
X156190000Y-106680000D02*
X156190000Y-108630000D01*
X156190000Y-106680000D02*
X156190000Y-104730000D01*
X161310000Y-106680000D02*
X161310000Y-108630000D01*
X161310000Y-106680000D02*
X161310000Y-103230000D01*
%TO.C,U2*%
X191610000Y-130775000D02*
X191610000Y-134225000D01*
X191610000Y-130775000D02*
X191610000Y-128825000D01*
X196730000Y-130775000D02*
X196730000Y-132725000D01*
X196730000Y-130775000D02*
X196730000Y-128825000D01*
%TO.C,U3*%
X185285000Y-158550000D02*
X185665000Y-158550000D01*
X185285000Y-164970000D02*
X185285000Y-158550000D01*
X167045000Y-164970000D02*
X167045000Y-158550000D01*
X185285000Y-164970000D02*
X167045000Y-164970000D01*
X167045000Y-139225000D02*
X168045000Y-139225000D01*
X167045000Y-140005000D02*
X167045000Y-139225000D01*
X185285000Y-139225000D02*
X184285000Y-139225000D01*
X185285000Y-140005000D02*
X185285000Y-139225000D01*
%TO.C,U4*%
X157485000Y-146285000D02*
X157485000Y-145025000D01*
X157485000Y-139465000D02*
X157485000Y-140725000D01*
X153725000Y-146285000D02*
X157485000Y-146285000D01*
X151475000Y-139465000D02*
X157485000Y-139465000D01*
D13*
%TO.C,U5*%
X149800000Y-152975000D02*
X150300000Y-152975000D01*
X149800000Y-152975000D02*
X149800000Y-153475000D01*
X149800000Y-158175000D02*
X149800000Y-157675000D01*
X149800000Y-158175000D02*
X150300000Y-158175000D01*
X155000000Y-158175000D02*
X154500000Y-158175000D01*
X155000000Y-158175000D02*
X155000000Y-157675000D01*
X155000000Y-152975000D02*
X154200000Y-152975000D01*
X154200000Y-152975000D02*
X154200000Y-152775000D01*
X155000000Y-152975000D02*
X155000000Y-153475000D01*
D12*
%TO.C,Q1*%
X161600000Y-156720000D02*
X161600000Y-158180000D01*
X158440000Y-156720000D02*
X158440000Y-158880000D01*
X158440000Y-156720000D02*
X159370000Y-156720000D01*
X161600000Y-156720000D02*
X160670000Y-156720000D01*
%TO.C,Q2*%
X158440000Y-154430000D02*
X159370000Y-154430000D01*
X161600000Y-154430000D02*
X160670000Y-154430000D01*
X161600000Y-154430000D02*
X161600000Y-152270000D01*
X158440000Y-154430000D02*
X158440000Y-152970000D01*
%TO.C,C1*%
X187959420Y-157355000D02*
X188240580Y-157355000D01*
X187959420Y-156335000D02*
X188240580Y-156335000D01*
%TO.C,C2*%
X154580000Y-113360252D02*
X154580000Y-111937748D01*
X152760000Y-113360252D02*
X152760000Y-111937748D01*
%TO.C,C3*%
X196721252Y-126005000D02*
X195298748Y-126005000D01*
X196721252Y-124185000D02*
X195298748Y-124185000D01*
%TO.C,C4*%
X150347000Y-113360252D02*
X150347000Y-111937748D01*
X152167000Y-113360252D02*
X152167000Y-111937748D01*
%TO.C,C5*%
X196721252Y-121645000D02*
X195298748Y-121645000D01*
X196721252Y-123465000D02*
X195298748Y-123465000D01*
%TO.C,C23*%
X147581252Y-153570000D02*
X147058748Y-153570000D01*
X147581252Y-155040000D02*
X147058748Y-155040000D01*
%TO.C,C26*%
X152773748Y-148436000D02*
X153296252Y-148436000D01*
X152773748Y-146966000D02*
X153296252Y-146966000D01*
%TO.C,C28*%
X162025000Y-145013748D02*
X162025000Y-145536252D01*
X160555000Y-145013748D02*
X160555000Y-145536252D01*
%TO.C,C12*%
X156945000Y-120911252D02*
X156945000Y-120388748D01*
X155475000Y-120911252D02*
X155475000Y-120388748D01*
%TO.C,C3*%
D10*
X195843333Y-127302142D02*
X195795714Y-127349761D01*
X195652857Y-127397380D01*
X195557619Y-127397380D01*
X195414761Y-127349761D01*
X195319523Y-127254523D01*
X195271904Y-127159285D01*
X195224285Y-126968809D01*
X195224285Y-126825952D01*
X195271904Y-126635476D01*
X195319523Y-126540238D01*
X195414761Y-126445000D01*
X195557619Y-126397380D01*
X195652857Y-126397380D01*
X195795714Y-126445000D01*
X195843333Y-126492619D01*
X196176666Y-126397380D02*
X196795714Y-126397380D01*
X196462380Y-126778333D01*
X196605238Y-126778333D01*
X196700476Y-126825952D01*
X196748095Y-126873571D01*
X196795714Y-126968809D01*
X196795714Y-127206904D01*
X196748095Y-127302142D01*
X196700476Y-127349761D01*
X196605238Y-127397380D01*
X196319523Y-127397380D01*
X196224285Y-127349761D01*
X196176666Y-127302142D01*
%TO.C,C5*%
X195843333Y-124762142D02*
X195795714Y-124809761D01*
X195652857Y-124857380D01*
X195557619Y-124857380D01*
X195414761Y-124809761D01*
X195319523Y-124714523D01*
X195271904Y-124619285D01*
X195224285Y-124428809D01*
X195224285Y-124285952D01*
X195271904Y-124095476D01*
X195319523Y-124000238D01*
X195414761Y-123905000D01*
X195557619Y-123857380D01*
X195652857Y-123857380D01*
X195795714Y-123905000D01*
X195843333Y-123952619D01*
X196748095Y-123857380D02*
X196271904Y-123857380D01*
X196224285Y-124333571D01*
X196271904Y-124285952D01*
X196367142Y-124238333D01*
X196605238Y-124238333D01*
X196700476Y-124285952D01*
X196748095Y-124333571D01*
X196795714Y-124428809D01*
X196795714Y-124666904D01*
X196748095Y-124762142D01*
X196700476Y-124809761D01*
X196605238Y-124857380D01*
X196367142Y-124857380D01*
X196271904Y-124809761D01*
X196224285Y-124762142D01*
%TO.C,C23*%
X146677142Y-156342142D02*
X146629523Y-156389761D01*
X146486666Y-156437380D01*
X146391428Y-156437380D01*
X146248571Y-156389761D01*
X146153333Y-156294523D01*
X146105714Y-156199285D01*
X146058095Y-156008809D01*
X146058095Y-155865952D01*
X146105714Y-155675476D01*
X146153333Y-155580238D01*
X146248571Y-155485000D01*
X146391428Y-155437380D01*
X146486666Y-155437380D01*
X146629523Y-155485000D01*
X146677142Y-155532619D01*
X147058095Y-155532619D02*
X147105714Y-155485000D01*
X147200952Y-155437380D01*
X147439047Y-155437380D01*
X147534285Y-155485000D01*
X147581904Y-155532619D01*
X147629523Y-155627857D01*
X147629523Y-155723095D01*
X147581904Y-155865952D01*
X147010476Y-156437380D01*
X147629523Y-156437380D01*
X147962857Y-155437380D02*
X148581904Y-155437380D01*
X148248571Y-155818333D01*
X148391428Y-155818333D01*
X148486666Y-155865952D01*
X148534285Y-155913571D01*
X148581904Y-156008809D01*
X148581904Y-156246904D01*
X148534285Y-156342142D01*
X148486666Y-156389761D01*
X148391428Y-156437380D01*
X148105714Y-156437380D01*
X148010476Y-156389761D01*
X147962857Y-156342142D01*
%TO.C,C28*%
X163327142Y-145917857D02*
X163374761Y-145965476D01*
X163422380Y-146108333D01*
X163422380Y-146203571D01*
X163374761Y-146346428D01*
X163279523Y-146441666D01*
X163184285Y-146489285D01*
X162993809Y-146536904D01*
X162850952Y-146536904D01*
X162660476Y-146489285D01*
X162565238Y-146441666D01*
X162470000Y-146346428D01*
X162422380Y-146203571D01*
X162422380Y-146108333D01*
X162470000Y-145965476D01*
X162517619Y-145917857D01*
X162517619Y-145536904D02*
X162470000Y-145489285D01*
X162422380Y-145394047D01*
X162422380Y-145155952D01*
X162470000Y-145060714D01*
X162517619Y-145013095D01*
X162612857Y-144965476D01*
X162708095Y-144965476D01*
X162850952Y-145013095D01*
X163422380Y-145584523D01*
X163422380Y-144965476D01*
X162850952Y-144394047D02*
X162803333Y-144489285D01*
X162755714Y-144536904D01*
X162660476Y-144584523D01*
X162612857Y-144584523D01*
X162517619Y-144536904D01*
X162470000Y-144489285D01*
X162422380Y-144394047D01*
X162422380Y-144203571D01*
X162470000Y-144108333D01*
X162517619Y-144060714D01*
X162612857Y-144013095D01*
X162660476Y-144013095D01*
X162755714Y-144060714D01*
X162803333Y-144108333D01*
X162850952Y-144203571D01*
X162850952Y-144394047D01*
X162898571Y-144489285D01*
X162946190Y-144536904D01*
X163041428Y-144584523D01*
X163231904Y-144584523D01*
X163327142Y-144536904D01*
X163374761Y-144489285D01*
X163422380Y-144394047D01*
X163422380Y-144203571D01*
X163374761Y-144108333D01*
X163327142Y-144060714D01*
X163231904Y-144013095D01*
X163041428Y-144013095D01*
X162946190Y-144060714D01*
X162898571Y-144108333D01*
X162850952Y-144203571D01*
%TO.C,C12*%
X154887142Y-121292857D02*
X154934761Y-121340476D01*
X154982380Y-121483333D01*
X154982380Y-121578571D01*
X154934761Y-121721428D01*
X154839523Y-121816666D01*
X154744285Y-121864285D01*
X154553809Y-121911904D01*
X154410952Y-121911904D01*
X154220476Y-121864285D01*
X154125238Y-121816666D01*
X154030000Y-121721428D01*
X153982380Y-121578571D01*
X153982380Y-121483333D01*
X154030000Y-121340476D01*
X154077619Y-121292857D01*
X154982380Y-120340476D02*
X154982380Y-120911904D01*
X154982380Y-120626190D02*
X153982380Y-120626190D01*
X154125238Y-120721428D01*
X154220476Y-120816666D01*
X154268095Y-120911904D01*
X154077619Y-119959523D02*
X154030000Y-119911904D01*
X153982380Y-119816666D01*
X153982380Y-119578571D01*
X154030000Y-119483333D01*
X154077619Y-119435714D01*
X154172857Y-119388095D01*
X154268095Y-119388095D01*
X154410952Y-119435714D01*
X154982380Y-120007142D01*
X154982380Y-119388095D01*
%TD*%
M02*
