%TF.GenerationSoftware,KiCad,Pcbnew,5.1.10-88a1d61d58~88~ubuntu20.04.1*%
%TF.CreationDate,2021-07-12T21:51:17+02:00*%
%TF.ProjectId,Tang_v1-1,54616e67-5f76-4312-9d31-2e6b69636164,rev?*%
%TF.SameCoordinates,Original*%
%TF.FileFunction,Copper,L1,Top*%
%TF.FilePolarity,Positive*%
%FSLAX46Y46*%
G04 Gerber Fmt 4.6, Leading zero omitted, Abs format (unit mm)*
G04 Created by KiCad (PCBNEW 5.1.10-88a1d61d58~88~ubuntu20.04.1) date 2021-07-12 21:51:17*
%MOMM*%
%LPD*%
G01*
G04 APERTURE LIST*
%TA.AperFunction,SMDPad,CuDef*%
%ADD10R,1.800000X2.500000*%
%TD*%
%TA.AperFunction,SMDPad,CuDef*%
%ADD11R,2.500000X1.800000*%
%TD*%
%TA.AperFunction,ComponentPad*%
%ADD12C,6.400000*%
%TD*%
%TA.AperFunction,ComponentPad*%
%ADD13C,0.800000*%
%TD*%
%TA.AperFunction,ComponentPad*%
%ADD14R,3.500000X3.500000*%
%TD*%
%TA.AperFunction,SMDPad,CuDef*%
%ADD15R,1.500000X1.900000*%
%TD*%
%TA.AperFunction,ComponentPad*%
%ADD16C,1.450000*%
%TD*%
%TA.AperFunction,SMDPad,CuDef*%
%ADD17R,0.400000X1.350000*%
%TD*%
%TA.AperFunction,ComponentPad*%
%ADD18O,1.200000X1.900000*%
%TD*%
%TA.AperFunction,SMDPad,CuDef*%
%ADD19R,1.200000X1.900000*%
%TD*%
%TA.AperFunction,SMDPad,CuDef*%
%ADD20R,4.000000X1.500000*%
%TD*%
%TA.AperFunction,SMDPad,CuDef*%
%ADD21R,3.400000X1.000000*%
%TD*%
%TA.AperFunction,ComponentPad*%
%ADD22R,2.600000X2.600000*%
%TD*%
%TA.AperFunction,ComponentPad*%
%ADD23C,2.600000*%
%TD*%
%TA.AperFunction,SMDPad,CuDef*%
%ADD24R,4.100000X4.100000*%
%TD*%
%TA.AperFunction,SMDPad,CuDef*%
%ADD25R,0.800000X0.900000*%
%TD*%
%TA.AperFunction,SMDPad,CuDef*%
%ADD26R,3.100000X2.410000*%
%TD*%
%TA.AperFunction,SMDPad,CuDef*%
%ADD27R,2.000000X0.900000*%
%TD*%
%TA.AperFunction,SMDPad,CuDef*%
%ADD28R,0.900000X2.000000*%
%TD*%
%TA.AperFunction,SMDPad,CuDef*%
%ADD29R,5.000000X5.000000*%
%TD*%
%TA.AperFunction,SMDPad,CuDef*%
%ADD30R,2.000000X3.800000*%
%TD*%
%TA.AperFunction,SMDPad,CuDef*%
%ADD31R,2.000000X1.500000*%
%TD*%
%TA.AperFunction,SMDPad,CuDef*%
%ADD32R,1.000000X0.300000*%
%TD*%
%TA.AperFunction,SMDPad,CuDef*%
%ADD33R,0.300000X1.000000*%
%TD*%
%TA.AperFunction,SMDPad,CuDef*%
%ADD34R,3.400000X3.400000*%
%TD*%
%TA.AperFunction,ViaPad*%
%ADD35C,0.800000*%
%TD*%
%TA.AperFunction,Conductor*%
%ADD36C,0.250000*%
%TD*%
%TA.AperFunction,Conductor*%
%ADD37C,0.500000*%
%TD*%
%TA.AperFunction,Conductor*%
%ADD38C,1.000000*%
%TD*%
%TA.AperFunction,Conductor*%
%ADD39C,1.500000*%
%TD*%
G04 APERTURE END LIST*
%TO.P,C6,2*%
%TO.N,Net-(C6-Pad2)*%
%TA.AperFunction,SMDPad,CuDef*%
G36*
G01*
X161600000Y-101350000D02*
X161600000Y-101850000D01*
G75*
G02*
X161375000Y-102075000I-225000J0D01*
G01*
X160925000Y-102075000D01*
G75*
G02*
X160700000Y-101850000I0J225000D01*
G01*
X160700000Y-101350000D01*
G75*
G02*
X160925000Y-101125000I225000J0D01*
G01*
X161375000Y-101125000D01*
G75*
G02*
X161600000Y-101350000I0J-225000D01*
G01*
G37*
%TD.AperFunction*%
%TO.P,C6,1*%
%TO.N,Net-(C6-Pad1)*%
%TA.AperFunction,SMDPad,CuDef*%
G36*
G01*
X163150000Y-101350000D02*
X163150000Y-101850000D01*
G75*
G02*
X162925000Y-102075000I-225000J0D01*
G01*
X162475000Y-102075000D01*
G75*
G02*
X162250000Y-101850000I0J225000D01*
G01*
X162250000Y-101350000D01*
G75*
G02*
X162475000Y-101125000I225000J0D01*
G01*
X162925000Y-101125000D01*
G75*
G02*
X163150000Y-101350000I0J-225000D01*
G01*
G37*
%TD.AperFunction*%
%TD*%
%TO.P,C7,2*%
%TO.N,Net-(C7-Pad2)*%
%TA.AperFunction,SMDPad,CuDef*%
G36*
G01*
X191460000Y-136140000D02*
X191460000Y-135640000D01*
G75*
G02*
X191685000Y-135415000I225000J0D01*
G01*
X192135000Y-135415000D01*
G75*
G02*
X192360000Y-135640000I0J-225000D01*
G01*
X192360000Y-136140000D01*
G75*
G02*
X192135000Y-136365000I-225000J0D01*
G01*
X191685000Y-136365000D01*
G75*
G02*
X191460000Y-136140000I0J225000D01*
G01*
G37*
%TD.AperFunction*%
%TO.P,C7,1*%
%TO.N,Net-(C7-Pad1)*%
%TA.AperFunction,SMDPad,CuDef*%
G36*
G01*
X189910000Y-136140000D02*
X189910000Y-135640000D01*
G75*
G02*
X190135000Y-135415000I225000J0D01*
G01*
X190585000Y-135415000D01*
G75*
G02*
X190810000Y-135640000I0J-225000D01*
G01*
X190810000Y-136140000D01*
G75*
G02*
X190585000Y-136365000I-225000J0D01*
G01*
X190135000Y-136365000D01*
G75*
G02*
X189910000Y-136140000I0J225000D01*
G01*
G37*
%TD.AperFunction*%
%TD*%
%TO.P,C8,1*%
%TO.N,Net-(C12-Pad2)*%
%TA.AperFunction,SMDPad,CuDef*%
G36*
G01*
X156460000Y-117570000D02*
X155960000Y-117570000D01*
G75*
G02*
X155735000Y-117345000I0J225000D01*
G01*
X155735000Y-116895000D01*
G75*
G02*
X155960000Y-116670000I225000J0D01*
G01*
X156460000Y-116670000D01*
G75*
G02*
X156685000Y-116895000I0J-225000D01*
G01*
X156685000Y-117345000D01*
G75*
G02*
X156460000Y-117570000I-225000J0D01*
G01*
G37*
%TD.AperFunction*%
%TO.P,C8,2*%
%TO.N,+12V*%
%TA.AperFunction,SMDPad,CuDef*%
G36*
G01*
X156460000Y-116020000D02*
X155960000Y-116020000D01*
G75*
G02*
X155735000Y-115795000I0J225000D01*
G01*
X155735000Y-115345000D01*
G75*
G02*
X155960000Y-115120000I225000J0D01*
G01*
X156460000Y-115120000D01*
G75*
G02*
X156685000Y-115345000I0J-225000D01*
G01*
X156685000Y-115795000D01*
G75*
G02*
X156460000Y-116020000I-225000J0D01*
G01*
G37*
%TD.AperFunction*%
%TD*%
%TO.P,C9,2*%
%TO.N,+5V*%
%TA.AperFunction,SMDPad,CuDef*%
G36*
G01*
X183205000Y-117725000D02*
X183205000Y-117225000D01*
G75*
G02*
X183430000Y-117000000I225000J0D01*
G01*
X183880000Y-117000000D01*
G75*
G02*
X184105000Y-117225000I0J-225000D01*
G01*
X184105000Y-117725000D01*
G75*
G02*
X183880000Y-117950000I-225000J0D01*
G01*
X183430000Y-117950000D01*
G75*
G02*
X183205000Y-117725000I0J225000D01*
G01*
G37*
%TD.AperFunction*%
%TO.P,C9,1*%
%TO.N,Net-(C13-Pad2)*%
%TA.AperFunction,SMDPad,CuDef*%
G36*
G01*
X181655000Y-117725000D02*
X181655000Y-117225000D01*
G75*
G02*
X181880000Y-117000000I225000J0D01*
G01*
X182330000Y-117000000D01*
G75*
G02*
X182555000Y-117225000I0J-225000D01*
G01*
X182555000Y-117725000D01*
G75*
G02*
X182330000Y-117950000I-225000J0D01*
G01*
X181880000Y-117950000D01*
G75*
G02*
X181655000Y-117725000I0J225000D01*
G01*
G37*
%TD.AperFunction*%
%TD*%
%TO.P,C10,2*%
%TO.N,Net-(C10-Pad2)*%
%TA.AperFunction,SMDPad,CuDef*%
G36*
G01*
X179570000Y-101760000D02*
X179570000Y-102710000D01*
G75*
G02*
X179320000Y-102960000I-250000J0D01*
G01*
X178820000Y-102960000D01*
G75*
G02*
X178570000Y-102710000I0J250000D01*
G01*
X178570000Y-101760000D01*
G75*
G02*
X178820000Y-101510000I250000J0D01*
G01*
X179320000Y-101510000D01*
G75*
G02*
X179570000Y-101760000I0J-250000D01*
G01*
G37*
%TD.AperFunction*%
%TO.P,C10,1*%
%TO.N,GND*%
%TA.AperFunction,SMDPad,CuDef*%
G36*
G01*
X181470000Y-101760000D02*
X181470000Y-102710000D01*
G75*
G02*
X181220000Y-102960000I-250000J0D01*
G01*
X180720000Y-102960000D01*
G75*
G02*
X180470000Y-102710000I0J250000D01*
G01*
X180470000Y-101760000D01*
G75*
G02*
X180720000Y-101510000I250000J0D01*
G01*
X181220000Y-101510000D01*
G75*
G02*
X181470000Y-101760000I0J-250000D01*
G01*
G37*
%TD.AperFunction*%
%TD*%
%TO.P,C11,2*%
%TO.N,Net-(C11-Pad2)*%
%TA.AperFunction,SMDPad,CuDef*%
G36*
G01*
X172535000Y-123665000D02*
X172535000Y-122715000D01*
G75*
G02*
X172785000Y-122465000I250000J0D01*
G01*
X173285000Y-122465000D01*
G75*
G02*
X173535000Y-122715000I0J-250000D01*
G01*
X173535000Y-123665000D01*
G75*
G02*
X173285000Y-123915000I-250000J0D01*
G01*
X172785000Y-123915000D01*
G75*
G02*
X172535000Y-123665000I0J250000D01*
G01*
G37*
%TD.AperFunction*%
%TO.P,C11,1*%
%TO.N,GND*%
%TA.AperFunction,SMDPad,CuDef*%
G36*
G01*
X170635000Y-123665000D02*
X170635000Y-122715000D01*
G75*
G02*
X170885000Y-122465000I250000J0D01*
G01*
X171385000Y-122465000D01*
G75*
G02*
X171635000Y-122715000I0J-250000D01*
G01*
X171635000Y-123665000D01*
G75*
G02*
X171385000Y-123915000I-250000J0D01*
G01*
X170885000Y-123915000D01*
G75*
G02*
X170635000Y-123665000I0J250000D01*
G01*
G37*
%TD.AperFunction*%
%TD*%
%TO.P,C13,1*%
%TO.N,Net-(C13-Pad1)*%
%TA.AperFunction,SMDPad,CuDef*%
G36*
G01*
X177210000Y-117725000D02*
X177210000Y-117225000D01*
G75*
G02*
X177435000Y-117000000I225000J0D01*
G01*
X177885000Y-117000000D01*
G75*
G02*
X178110000Y-117225000I0J-225000D01*
G01*
X178110000Y-117725000D01*
G75*
G02*
X177885000Y-117950000I-225000J0D01*
G01*
X177435000Y-117950000D01*
G75*
G02*
X177210000Y-117725000I0J225000D01*
G01*
G37*
%TD.AperFunction*%
%TO.P,C13,2*%
%TO.N,Net-(C13-Pad2)*%
%TA.AperFunction,SMDPad,CuDef*%
G36*
G01*
X178760000Y-117725000D02*
X178760000Y-117225000D01*
G75*
G02*
X178985000Y-117000000I225000J0D01*
G01*
X179435000Y-117000000D01*
G75*
G02*
X179660000Y-117225000I0J-225000D01*
G01*
X179660000Y-117725000D01*
G75*
G02*
X179435000Y-117950000I-225000J0D01*
G01*
X178985000Y-117950000D01*
G75*
G02*
X178760000Y-117725000I0J225000D01*
G01*
G37*
%TD.AperFunction*%
%TD*%
%TO.P,C14,1*%
%TO.N,GND*%
%TA.AperFunction,SMDPad,CuDef*%
G36*
G01*
X181475000Y-104300000D02*
X181475000Y-105250000D01*
G75*
G02*
X181225000Y-105500000I-250000J0D01*
G01*
X180725000Y-105500000D01*
G75*
G02*
X180475000Y-105250000I0J250000D01*
G01*
X180475000Y-104300000D01*
G75*
G02*
X180725000Y-104050000I250000J0D01*
G01*
X181225000Y-104050000D01*
G75*
G02*
X181475000Y-104300000I0J-250000D01*
G01*
G37*
%TD.AperFunction*%
%TO.P,C14,2*%
%TO.N,Net-(C10-Pad2)*%
%TA.AperFunction,SMDPad,CuDef*%
G36*
G01*
X179575000Y-104300000D02*
X179575000Y-105250000D01*
G75*
G02*
X179325000Y-105500000I-250000J0D01*
G01*
X178825000Y-105500000D01*
G75*
G02*
X178575000Y-105250000I0J250000D01*
G01*
X178575000Y-104300000D01*
G75*
G02*
X178825000Y-104050000I250000J0D01*
G01*
X179325000Y-104050000D01*
G75*
G02*
X179575000Y-104300000I0J-250000D01*
G01*
G37*
%TD.AperFunction*%
%TD*%
%TO.P,C15,1*%
%TO.N,GND*%
%TA.AperFunction,SMDPad,CuDef*%
G36*
G01*
X170635000Y-133825000D02*
X170635000Y-132875000D01*
G75*
G02*
X170885000Y-132625000I250000J0D01*
G01*
X171385000Y-132625000D01*
G75*
G02*
X171635000Y-132875000I0J-250000D01*
G01*
X171635000Y-133825000D01*
G75*
G02*
X171385000Y-134075000I-250000J0D01*
G01*
X170885000Y-134075000D01*
G75*
G02*
X170635000Y-133825000I0J250000D01*
G01*
G37*
%TD.AperFunction*%
%TO.P,C15,2*%
%TO.N,Net-(C11-Pad2)*%
%TA.AperFunction,SMDPad,CuDef*%
G36*
G01*
X172535000Y-133825000D02*
X172535000Y-132875000D01*
G75*
G02*
X172785000Y-132625000I250000J0D01*
G01*
X173285000Y-132625000D01*
G75*
G02*
X173535000Y-132875000I0J-250000D01*
G01*
X173535000Y-133825000D01*
G75*
G02*
X173285000Y-134075000I-250000J0D01*
G01*
X172785000Y-134075000D01*
G75*
G02*
X172535000Y-133825000I0J250000D01*
G01*
G37*
%TD.AperFunction*%
%TD*%
%TO.P,C16,2*%
%TO.N,Net-(C12-Pad2)*%
%TA.AperFunction,SMDPad,CuDef*%
G36*
G01*
X154555000Y-120465000D02*
X154055000Y-120465000D01*
G75*
G02*
X153830000Y-120240000I0J225000D01*
G01*
X153830000Y-119790000D01*
G75*
G02*
X154055000Y-119565000I225000J0D01*
G01*
X154555000Y-119565000D01*
G75*
G02*
X154780000Y-119790000I0J-225000D01*
G01*
X154780000Y-120240000D01*
G75*
G02*
X154555000Y-120465000I-225000J0D01*
G01*
G37*
%TD.AperFunction*%
%TO.P,C16,1*%
%TO.N,GND*%
%TA.AperFunction,SMDPad,CuDef*%
G36*
G01*
X154555000Y-122015000D02*
X154055000Y-122015000D01*
G75*
G02*
X153830000Y-121790000I0J225000D01*
G01*
X153830000Y-121340000D01*
G75*
G02*
X154055000Y-121115000I225000J0D01*
G01*
X154555000Y-121115000D01*
G75*
G02*
X154780000Y-121340000I0J-225000D01*
G01*
X154780000Y-121790000D01*
G75*
G02*
X154555000Y-122015000I-225000J0D01*
G01*
G37*
%TD.AperFunction*%
%TD*%
%TO.P,C17,2*%
%TO.N,Net-(C13-Pad2)*%
%TA.AperFunction,SMDPad,CuDef*%
G36*
G01*
X178760000Y-115820000D02*
X178760000Y-115320000D01*
G75*
G02*
X178985000Y-115095000I225000J0D01*
G01*
X179435000Y-115095000D01*
G75*
G02*
X179660000Y-115320000I0J-225000D01*
G01*
X179660000Y-115820000D01*
G75*
G02*
X179435000Y-116045000I-225000J0D01*
G01*
X178985000Y-116045000D01*
G75*
G02*
X178760000Y-115820000I0J225000D01*
G01*
G37*
%TD.AperFunction*%
%TO.P,C17,1*%
%TO.N,GND*%
%TA.AperFunction,SMDPad,CuDef*%
G36*
G01*
X177210000Y-115820000D02*
X177210000Y-115320000D01*
G75*
G02*
X177435000Y-115095000I225000J0D01*
G01*
X177885000Y-115095000D01*
G75*
G02*
X178110000Y-115320000I0J-225000D01*
G01*
X178110000Y-115820000D01*
G75*
G02*
X177885000Y-116045000I-225000J0D01*
G01*
X177435000Y-116045000D01*
G75*
G02*
X177210000Y-115820000I0J225000D01*
G01*
G37*
%TD.AperFunction*%
%TD*%
%TO.P,C18,2*%
%TO.N,Net-(C10-Pad2)*%
%TA.AperFunction,SMDPad,CuDef*%
G36*
G01*
X179570000Y-106840000D02*
X179570000Y-107790000D01*
G75*
G02*
X179320000Y-108040000I-250000J0D01*
G01*
X178820000Y-108040000D01*
G75*
G02*
X178570000Y-107790000I0J250000D01*
G01*
X178570000Y-106840000D01*
G75*
G02*
X178820000Y-106590000I250000J0D01*
G01*
X179320000Y-106590000D01*
G75*
G02*
X179570000Y-106840000I0J-250000D01*
G01*
G37*
%TD.AperFunction*%
%TO.P,C18,1*%
%TO.N,GND*%
%TA.AperFunction,SMDPad,CuDef*%
G36*
G01*
X181470000Y-106840000D02*
X181470000Y-107790000D01*
G75*
G02*
X181220000Y-108040000I-250000J0D01*
G01*
X180720000Y-108040000D01*
G75*
G02*
X180470000Y-107790000I0J250000D01*
G01*
X180470000Y-106840000D01*
G75*
G02*
X180720000Y-106590000I250000J0D01*
G01*
X181220000Y-106590000D01*
G75*
G02*
X181470000Y-106840000I0J-250000D01*
G01*
G37*
%TD.AperFunction*%
%TD*%
%TO.P,C19,2*%
%TO.N,Net-(C11-Pad2)*%
%TA.AperFunction,SMDPad,CuDef*%
G36*
G01*
X172535000Y-128745000D02*
X172535000Y-127795000D01*
G75*
G02*
X172785000Y-127545000I250000J0D01*
G01*
X173285000Y-127545000D01*
G75*
G02*
X173535000Y-127795000I0J-250000D01*
G01*
X173535000Y-128745000D01*
G75*
G02*
X173285000Y-128995000I-250000J0D01*
G01*
X172785000Y-128995000D01*
G75*
G02*
X172535000Y-128745000I0J250000D01*
G01*
G37*
%TD.AperFunction*%
%TO.P,C19,1*%
%TO.N,GND*%
%TA.AperFunction,SMDPad,CuDef*%
G36*
G01*
X170635000Y-128745000D02*
X170635000Y-127795000D01*
G75*
G02*
X170885000Y-127545000I250000J0D01*
G01*
X171385000Y-127545000D01*
G75*
G02*
X171635000Y-127795000I0J-250000D01*
G01*
X171635000Y-128745000D01*
G75*
G02*
X171385000Y-128995000I-250000J0D01*
G01*
X170885000Y-128995000D01*
G75*
G02*
X170635000Y-128745000I0J250000D01*
G01*
G37*
%TD.AperFunction*%
%TD*%
%TO.P,C20,1*%
%TO.N,GND*%
%TA.AperFunction,SMDPad,CuDef*%
G36*
G01*
X181470000Y-109380000D02*
X181470000Y-110330000D01*
G75*
G02*
X181220000Y-110580000I-250000J0D01*
G01*
X180720000Y-110580000D01*
G75*
G02*
X180470000Y-110330000I0J250000D01*
G01*
X180470000Y-109380000D01*
G75*
G02*
X180720000Y-109130000I250000J0D01*
G01*
X181220000Y-109130000D01*
G75*
G02*
X181470000Y-109380000I0J-250000D01*
G01*
G37*
%TD.AperFunction*%
%TO.P,C20,2*%
%TO.N,Net-(C10-Pad2)*%
%TA.AperFunction,SMDPad,CuDef*%
G36*
G01*
X179570000Y-109380000D02*
X179570000Y-110330000D01*
G75*
G02*
X179320000Y-110580000I-250000J0D01*
G01*
X178820000Y-110580000D01*
G75*
G02*
X178570000Y-110330000I0J250000D01*
G01*
X178570000Y-109380000D01*
G75*
G02*
X178820000Y-109130000I250000J0D01*
G01*
X179320000Y-109130000D01*
G75*
G02*
X179570000Y-109380000I0J-250000D01*
G01*
G37*
%TD.AperFunction*%
%TD*%
%TO.P,C21,1*%
%TO.N,GND*%
%TA.AperFunction,SMDPad,CuDef*%
G36*
G01*
X170635000Y-126205000D02*
X170635000Y-125255000D01*
G75*
G02*
X170885000Y-125005000I250000J0D01*
G01*
X171385000Y-125005000D01*
G75*
G02*
X171635000Y-125255000I0J-250000D01*
G01*
X171635000Y-126205000D01*
G75*
G02*
X171385000Y-126455000I-250000J0D01*
G01*
X170885000Y-126455000D01*
G75*
G02*
X170635000Y-126205000I0J250000D01*
G01*
G37*
%TD.AperFunction*%
%TO.P,C21,2*%
%TO.N,Net-(C11-Pad2)*%
%TA.AperFunction,SMDPad,CuDef*%
G36*
G01*
X172535000Y-126205000D02*
X172535000Y-125255000D01*
G75*
G02*
X172785000Y-125005000I250000J0D01*
G01*
X173285000Y-125005000D01*
G75*
G02*
X173535000Y-125255000I0J-250000D01*
G01*
X173535000Y-126205000D01*
G75*
G02*
X173285000Y-126455000I-250000J0D01*
G01*
X172785000Y-126455000D01*
G75*
G02*
X172535000Y-126205000I0J250000D01*
G01*
G37*
%TD.AperFunction*%
%TD*%
%TO.P,C22,1*%
%TO.N,GND*%
%TA.AperFunction,SMDPad,CuDef*%
G36*
G01*
X170635000Y-131285000D02*
X170635000Y-130335000D01*
G75*
G02*
X170885000Y-130085000I250000J0D01*
G01*
X171385000Y-130085000D01*
G75*
G02*
X171635000Y-130335000I0J-250000D01*
G01*
X171635000Y-131285000D01*
G75*
G02*
X171385000Y-131535000I-250000J0D01*
G01*
X170885000Y-131535000D01*
G75*
G02*
X170635000Y-131285000I0J250000D01*
G01*
G37*
%TD.AperFunction*%
%TO.P,C22,2*%
%TO.N,Net-(C11-Pad2)*%
%TA.AperFunction,SMDPad,CuDef*%
G36*
G01*
X172535000Y-131285000D02*
X172535000Y-130335000D01*
G75*
G02*
X172785000Y-130085000I250000J0D01*
G01*
X173285000Y-130085000D01*
G75*
G02*
X173535000Y-130335000I0J-250000D01*
G01*
X173535000Y-131285000D01*
G75*
G02*
X173285000Y-131535000I-250000J0D01*
G01*
X172785000Y-131535000D01*
G75*
G02*
X172535000Y-131285000I0J250000D01*
G01*
G37*
%TD.AperFunction*%
%TD*%
%TO.P,C24,2*%
%TO.N,GND*%
%TA.AperFunction,SMDPad,CuDef*%
G36*
G01*
X188425000Y-155190000D02*
X188425000Y-154690000D01*
G75*
G02*
X188650000Y-154465000I225000J0D01*
G01*
X189100000Y-154465000D01*
G75*
G02*
X189325000Y-154690000I0J-225000D01*
G01*
X189325000Y-155190000D01*
G75*
G02*
X189100000Y-155415000I-225000J0D01*
G01*
X188650000Y-155415000D01*
G75*
G02*
X188425000Y-155190000I0J225000D01*
G01*
G37*
%TD.AperFunction*%
%TO.P,C24,1*%
%TO.N,EN*%
%TA.AperFunction,SMDPad,CuDef*%
G36*
G01*
X186875000Y-155190000D02*
X186875000Y-154690000D01*
G75*
G02*
X187100000Y-154465000I225000J0D01*
G01*
X187550000Y-154465000D01*
G75*
G02*
X187775000Y-154690000I0J-225000D01*
G01*
X187775000Y-155190000D01*
G75*
G02*
X187550000Y-155415000I-225000J0D01*
G01*
X187100000Y-155415000D01*
G75*
G02*
X186875000Y-155190000I0J225000D01*
G01*
G37*
%TD.AperFunction*%
%TD*%
%TO.P,C25,2*%
%TO.N,GND*%
%TA.AperFunction,SMDPad,CuDef*%
G36*
G01*
X146995000Y-152150000D02*
X146995000Y-152650000D01*
G75*
G02*
X146770000Y-152875000I-225000J0D01*
G01*
X146320000Y-152875000D01*
G75*
G02*
X146095000Y-152650000I0J225000D01*
G01*
X146095000Y-152150000D01*
G75*
G02*
X146320000Y-151925000I225000J0D01*
G01*
X146770000Y-151925000D01*
G75*
G02*
X146995000Y-152150000I0J-225000D01*
G01*
G37*
%TD.AperFunction*%
%TO.P,C25,1*%
%TO.N,5V_USB*%
%TA.AperFunction,SMDPad,CuDef*%
G36*
G01*
X148545000Y-152150000D02*
X148545000Y-152650000D01*
G75*
G02*
X148320000Y-152875000I-225000J0D01*
G01*
X147870000Y-152875000D01*
G75*
G02*
X147645000Y-152650000I0J225000D01*
G01*
X147645000Y-152150000D01*
G75*
G02*
X147870000Y-151925000I225000J0D01*
G01*
X148320000Y-151925000D01*
G75*
G02*
X148545000Y-152150000I0J-225000D01*
G01*
G37*
%TD.AperFunction*%
%TD*%
%TO.P,C27,1*%
%TO.N,GND*%
%TA.AperFunction,SMDPad,CuDef*%
G36*
G01*
X150245000Y-149270000D02*
X150745000Y-149270000D01*
G75*
G02*
X150970000Y-149495000I0J-225000D01*
G01*
X150970000Y-149945000D01*
G75*
G02*
X150745000Y-150170000I-225000J0D01*
G01*
X150245000Y-150170000D01*
G75*
G02*
X150020000Y-149945000I0J225000D01*
G01*
X150020000Y-149495000D01*
G75*
G02*
X150245000Y-149270000I225000J0D01*
G01*
G37*
%TD.AperFunction*%
%TO.P,C27,2*%
%TO.N,Net-(C27-Pad2)*%
%TA.AperFunction,SMDPad,CuDef*%
G36*
G01*
X150245000Y-150820000D02*
X150745000Y-150820000D01*
G75*
G02*
X150970000Y-151045000I0J-225000D01*
G01*
X150970000Y-151495000D01*
G75*
G02*
X150745000Y-151720000I-225000J0D01*
G01*
X150245000Y-151720000D01*
G75*
G02*
X150020000Y-151495000I0J225000D01*
G01*
X150020000Y-151045000D01*
G75*
G02*
X150245000Y-150820000I225000J0D01*
G01*
G37*
%TD.AperFunction*%
%TD*%
D10*
%TO.P,D1,1*%
%TO.N,+24V*%
X196850000Y-102775000D03*
%TO.P,D1,2*%
%TO.N,Net-(D1-Pad2)*%
X196850000Y-106775000D03*
%TD*%
%TO.P,D2,1*%
%TO.N,Net-(C6-Pad1)*%
X161290000Y-112935000D03*
%TO.P,D2,2*%
%TO.N,GND*%
X161290000Y-116935000D03*
%TD*%
%TO.P,D3,2*%
%TO.N,GND*%
X191770000Y-120650000D03*
%TO.P,D3,1*%
%TO.N,Net-(C7-Pad1)*%
X191770000Y-124650000D03*
%TD*%
D11*
%TO.P,D4,2*%
%TO.N,Net-(C10-Pad2)*%
X174879000Y-114300000D03*
%TO.P,D4,1*%
%TO.N,Net-(D4-Pad1)*%
X170879000Y-114300000D03*
%TD*%
%TO.P,D5,1*%
%TO.N,Net-(D5-Pad1)*%
X182245000Y-123190000D03*
%TO.P,D5,2*%
%TO.N,Net-(C11-Pad2)*%
X178245000Y-123190000D03*
%TD*%
D10*
%TO.P,D6,1*%
%TO.N,+5V*%
X149225000Y-142970000D03*
%TO.P,D6,2*%
%TO.N,5V_USB*%
X149225000Y-146970000D03*
%TD*%
%TO.P,D7,2*%
%TO.N,+5V*%
X137160000Y-138970000D03*
%TO.P,D7,1*%
%TO.N,LOAD1_POS*%
X137160000Y-142970000D03*
%TD*%
%TO.P,D8,2*%
%TO.N,+5V*%
X137160000Y-151670000D03*
%TO.P,D8,1*%
%TO.N,LOAD2_POS*%
X137160000Y-155670000D03*
%TD*%
%TO.P,D9,1*%
%TO.N,LOAD3_POS*%
X137160000Y-130270000D03*
%TO.P,D9,2*%
%TO.N,+5V*%
X137160000Y-126270000D03*
%TD*%
%TO.P,D10,1*%
%TO.N,Net-(D10-Pad1)*%
%TA.AperFunction,SMDPad,CuDef*%
G36*
G01*
X131998000Y-149481250D02*
X131998000Y-148968750D01*
G75*
G02*
X132216750Y-148750000I218750J0D01*
G01*
X132654250Y-148750000D01*
G75*
G02*
X132873000Y-148968750I0J-218750D01*
G01*
X132873000Y-149481250D01*
G75*
G02*
X132654250Y-149700000I-218750J0D01*
G01*
X132216750Y-149700000D01*
G75*
G02*
X131998000Y-149481250I0J218750D01*
G01*
G37*
%TD.AperFunction*%
%TO.P,D10,2*%
%TO.N,TER1*%
%TA.AperFunction,SMDPad,CuDef*%
G36*
G01*
X133573000Y-149481250D02*
X133573000Y-148968750D01*
G75*
G02*
X133791750Y-148750000I218750J0D01*
G01*
X134229250Y-148750000D01*
G75*
G02*
X134448000Y-148968750I0J-218750D01*
G01*
X134448000Y-149481250D01*
G75*
G02*
X134229250Y-149700000I-218750J0D01*
G01*
X133791750Y-149700000D01*
G75*
G02*
X133573000Y-149481250I0J218750D01*
G01*
G37*
%TD.AperFunction*%
%TD*%
%TO.P,D11,2*%
%TO.N,TER2*%
%TA.AperFunction,SMDPad,CuDef*%
G36*
G01*
X133573000Y-162181250D02*
X133573000Y-161668750D01*
G75*
G02*
X133791750Y-161450000I218750J0D01*
G01*
X134229250Y-161450000D01*
G75*
G02*
X134448000Y-161668750I0J-218750D01*
G01*
X134448000Y-162181250D01*
G75*
G02*
X134229250Y-162400000I-218750J0D01*
G01*
X133791750Y-162400000D01*
G75*
G02*
X133573000Y-162181250I0J218750D01*
G01*
G37*
%TD.AperFunction*%
%TO.P,D11,1*%
%TO.N,Net-(D11-Pad1)*%
%TA.AperFunction,SMDPad,CuDef*%
G36*
G01*
X131998000Y-162181250D02*
X131998000Y-161668750D01*
G75*
G02*
X132216750Y-161450000I218750J0D01*
G01*
X132654250Y-161450000D01*
G75*
G02*
X132873000Y-161668750I0J-218750D01*
G01*
X132873000Y-162181250D01*
G75*
G02*
X132654250Y-162400000I-218750J0D01*
G01*
X132216750Y-162400000D01*
G75*
G02*
X131998000Y-162181250I0J218750D01*
G01*
G37*
%TD.AperFunction*%
%TD*%
%TO.P,D12,1*%
%TO.N,Net-(D12-Pad1)*%
%TA.AperFunction,SMDPad,CuDef*%
G36*
G01*
X131998000Y-136781250D02*
X131998000Y-136268750D01*
G75*
G02*
X132216750Y-136050000I218750J0D01*
G01*
X132654250Y-136050000D01*
G75*
G02*
X132873000Y-136268750I0J-218750D01*
G01*
X132873000Y-136781250D01*
G75*
G02*
X132654250Y-137000000I-218750J0D01*
G01*
X132216750Y-137000000D01*
G75*
G02*
X131998000Y-136781250I0J218750D01*
G01*
G37*
%TD.AperFunction*%
%TO.P,D12,2*%
%TO.N,TER3*%
%TA.AperFunction,SMDPad,CuDef*%
G36*
G01*
X133573000Y-136781250D02*
X133573000Y-136268750D01*
G75*
G02*
X133791750Y-136050000I218750J0D01*
G01*
X134229250Y-136050000D01*
G75*
G02*
X134448000Y-136268750I0J-218750D01*
G01*
X134448000Y-136781250D01*
G75*
G02*
X134229250Y-137000000I-218750J0D01*
G01*
X133791750Y-137000000D01*
G75*
G02*
X133573000Y-136781250I0J218750D01*
G01*
G37*
%TD.AperFunction*%
%TD*%
%TO.P,D13,1*%
%TO.N,LOAD1_POS*%
X133223000Y-142780000D03*
%TO.P,D13,2*%
%TO.N,LOAD1_NEG*%
X133223000Y-146780000D03*
%TD*%
%TO.P,D14,2*%
%TO.N,LOAD2_NEG*%
X133223000Y-159480000D03*
%TO.P,D14,1*%
%TO.N,LOAD2_POS*%
X133223000Y-155480000D03*
%TD*%
%TO.P,D15,2*%
%TO.N,LOAD3_NEG*%
X133223000Y-134080000D03*
%TO.P,D15,1*%
%TO.N,LOAD3_POS*%
X133223000Y-130080000D03*
%TD*%
%TO.P,F1,1*%
%TO.N,Net-(D1-Pad2)*%
%TA.AperFunction,SMDPad,CuDef*%
G36*
G01*
X195399999Y-109060000D02*
X198300001Y-109060000D01*
G75*
G02*
X198550000Y-109309999I0J-249999D01*
G01*
X198550000Y-109935001D01*
G75*
G02*
X198300001Y-110185000I-249999J0D01*
G01*
X195399999Y-110185000D01*
G75*
G02*
X195150000Y-109935001I0J249999D01*
G01*
X195150000Y-109309999D01*
G75*
G02*
X195399999Y-109060000I249999J0D01*
G01*
G37*
%TD.AperFunction*%
%TO.P,F1,2*%
%TO.N,Net-(F1-Pad2)*%
%TA.AperFunction,SMDPad,CuDef*%
G36*
G01*
X195399999Y-113335000D02*
X198300001Y-113335000D01*
G75*
G02*
X198550000Y-113584999I0J-249999D01*
G01*
X198550000Y-114210001D01*
G75*
G02*
X198300001Y-114460000I-249999J0D01*
G01*
X195399999Y-114460000D01*
G75*
G02*
X195150000Y-114210001I0J249999D01*
G01*
X195150000Y-113584999D01*
G75*
G02*
X195399999Y-113335000I249999J0D01*
G01*
G37*
%TD.AperFunction*%
%TD*%
%TO.P,F2,1*%
%TO.N,+12V*%
%TA.AperFunction,SMDPad,CuDef*%
G36*
G01*
X167820001Y-118672500D02*
X164919999Y-118672500D01*
G75*
G02*
X164670000Y-118422501I0J249999D01*
G01*
X164670000Y-117797499D01*
G75*
G02*
X164919999Y-117547500I249999J0D01*
G01*
X167820001Y-117547500D01*
G75*
G02*
X168070000Y-117797499I0J-249999D01*
G01*
X168070000Y-118422501D01*
G75*
G02*
X167820001Y-118672500I-249999J0D01*
G01*
G37*
%TD.AperFunction*%
%TO.P,F2,2*%
%TO.N,Net-(D4-Pad1)*%
%TA.AperFunction,SMDPad,CuDef*%
G36*
G01*
X167820001Y-114397500D02*
X164919999Y-114397500D01*
G75*
G02*
X164670000Y-114147501I0J249999D01*
G01*
X164670000Y-113522499D01*
G75*
G02*
X164919999Y-113272500I249999J0D01*
G01*
X167820001Y-113272500D01*
G75*
G02*
X168070000Y-113522499I0J-249999D01*
G01*
X168070000Y-114147501D01*
G75*
G02*
X167820001Y-114397500I-249999J0D01*
G01*
G37*
%TD.AperFunction*%
%TD*%
%TO.P,F3,2*%
%TO.N,Net-(D5-Pad1)*%
%TA.AperFunction,SMDPad,CuDef*%
G36*
G01*
X185239999Y-123262500D02*
X188140001Y-123262500D01*
G75*
G02*
X188390000Y-123512499I0J-249999D01*
G01*
X188390000Y-124137501D01*
G75*
G02*
X188140001Y-124387500I-249999J0D01*
G01*
X185239999Y-124387500D01*
G75*
G02*
X184990000Y-124137501I0J249999D01*
G01*
X184990000Y-123512499D01*
G75*
G02*
X185239999Y-123262500I249999J0D01*
G01*
G37*
%TD.AperFunction*%
%TO.P,F3,1*%
%TO.N,+5V*%
%TA.AperFunction,SMDPad,CuDef*%
G36*
G01*
X185239999Y-118987500D02*
X188140001Y-118987500D01*
G75*
G02*
X188390000Y-119237499I0J-249999D01*
G01*
X188390000Y-119862501D01*
G75*
G02*
X188140001Y-120112500I-249999J0D01*
G01*
X185239999Y-120112500D01*
G75*
G02*
X184990000Y-119862501I0J249999D01*
G01*
X184990000Y-119237499D01*
G75*
G02*
X185239999Y-118987500I249999J0D01*
G01*
G37*
%TD.AperFunction*%
%TD*%
D12*
%TO.P,H1,1*%
%TO.N,GND*%
X142875000Y-104140000D03*
D13*
X145275000Y-104140000D03*
X144572056Y-105837056D03*
X142875000Y-106540000D03*
X141177944Y-105837056D03*
X140475000Y-104140000D03*
X141177944Y-102442944D03*
X142875000Y-101740000D03*
X144572056Y-102442944D03*
%TD*%
%TO.P,H2,1*%
%TO.N,GND*%
X208961056Y-102442944D03*
X207264000Y-101740000D03*
X205566944Y-102442944D03*
X204864000Y-104140000D03*
X205566944Y-105837056D03*
X207264000Y-106540000D03*
X208961056Y-105837056D03*
X209664000Y-104140000D03*
D12*
X207264000Y-104140000D03*
%TD*%
%TO.P,H3,1*%
%TO.N,GND*%
X142875000Y-161290000D03*
D13*
X145275000Y-161290000D03*
X144572056Y-162987056D03*
X142875000Y-163690000D03*
X141177944Y-162987056D03*
X140475000Y-161290000D03*
X141177944Y-159592944D03*
X142875000Y-158890000D03*
X144572056Y-159592944D03*
%TD*%
%TO.P,H4,1*%
%TO.N,GND*%
X196007056Y-159592944D03*
X194310000Y-158890000D03*
X192612944Y-159592944D03*
X191910000Y-161290000D03*
X192612944Y-162987056D03*
X194310000Y-163690000D03*
X196007056Y-162987056D03*
X196710000Y-161290000D03*
D12*
X194310000Y-161290000D03*
%TD*%
D14*
%TO.P,J1,1*%
%TO.N,Net-(F1-Pad2)*%
X189865000Y-114300000D03*
%TO.P,J1,2*%
%TO.N,GND*%
%TA.AperFunction,ComponentPad*%
G36*
G01*
X188865000Y-106800000D02*
X190865000Y-106800000D01*
G75*
G02*
X191615000Y-107550000I0J-750000D01*
G01*
X191615000Y-109050000D01*
G75*
G02*
X190865000Y-109800000I-750000J0D01*
G01*
X188865000Y-109800000D01*
G75*
G02*
X188115000Y-109050000I0J750000D01*
G01*
X188115000Y-107550000D01*
G75*
G02*
X188865000Y-106800000I750000J0D01*
G01*
G37*
%TD.AperFunction*%
%TO.P,J1,3*%
%TO.N,N/C*%
%TA.AperFunction,ComponentPad*%
G36*
G01*
X184290000Y-109550000D02*
X186040000Y-109550000D01*
G75*
G02*
X186915000Y-110425000I0J-875000D01*
G01*
X186915000Y-112175000D01*
G75*
G02*
X186040000Y-113050000I-875000J0D01*
G01*
X184290000Y-113050000D01*
G75*
G02*
X183415000Y-112175000I0J875000D01*
G01*
X183415000Y-110425000D01*
G75*
G02*
X184290000Y-109550000I875000J0D01*
G01*
G37*
%TD.AperFunction*%
%TD*%
D15*
%TO.P,J2,6*%
%TO.N,N/C*%
X152765000Y-163830000D03*
D16*
X149265000Y-161130000D03*
D17*
%TO.P,J2,2*%
%TO.N,Net-(J2-Pad2)*%
X151115000Y-161130000D03*
%TO.P,J2,1*%
%TO.N,5V_USB*%
X150465000Y-161130000D03*
%TO.P,J2,5*%
%TO.N,GND*%
X153065000Y-161130000D03*
%TO.P,J2,4*%
%TO.N,N/C*%
X152415000Y-161130000D03*
%TO.P,J2,3*%
%TO.N,Net-(J2-Pad3)*%
X151765000Y-161130000D03*
D16*
%TO.P,J2,6*%
%TO.N,N/C*%
X154265000Y-161130000D03*
D15*
X150765000Y-163830000D03*
D18*
X148265000Y-163830000D03*
X155265000Y-163830000D03*
D19*
%TO.N,Net-(J2-Pad6)*%
X154665000Y-163830000D03*
%TO.N,N/C*%
X148865000Y-163830000D03*
%TD*%
D20*
%TO.P,J3,6*%
%TO.N,N/C*%
X208160000Y-113080000D03*
%TO.P,J3,5*%
X208160000Y-123680000D03*
D21*
%TO.P,J3,1*%
%TO.N,GRV1-1*%
X200660000Y-115380000D03*
%TO.P,J3,2*%
%TO.N,GRV1-2*%
X200660000Y-117380000D03*
%TO.P,J3,3*%
%TO.N,Net-(J3-Pad3)*%
X200660000Y-119380000D03*
%TO.P,J3,4*%
%TO.N,GND*%
X200660000Y-121380000D03*
%TD*%
D20*
%TO.P,J4,6*%
%TO.N,N/C*%
X208160000Y-126415000D03*
%TO.P,J4,5*%
X208160000Y-137015000D03*
D21*
%TO.P,J4,1*%
%TO.N,GRV2-1*%
X200660000Y-128715000D03*
%TO.P,J4,2*%
%TO.N,GRV2-2*%
X200660000Y-130715000D03*
%TO.P,J4,3*%
%TO.N,Net-(J4-Pad3)*%
X200660000Y-132715000D03*
%TO.P,J4,4*%
%TO.N,GND*%
X200660000Y-134715000D03*
%TD*%
D20*
%TO.P,J5,6*%
%TO.N,N/C*%
X122548000Y-112345000D03*
%TO.P,J5,5*%
X122548000Y-101745000D03*
D21*
%TO.P,J5,1*%
%TO.N,SDA*%
X130048000Y-110045000D03*
%TO.P,J5,2*%
%TO.N,SCL*%
X130048000Y-108045000D03*
%TO.P,J5,3*%
%TO.N,Net-(J5-Pad3)*%
X130048000Y-106045000D03*
%TO.P,J5,4*%
%TO.N,GND*%
X130048000Y-104045000D03*
%TD*%
D22*
%TO.P,J6,1*%
%TO.N,LOAD1_POS*%
X125603000Y-144145000D03*
D23*
%TO.P,J6,2*%
%TO.N,LOAD1_NEG*%
X125603000Y-149225000D03*
%TD*%
D21*
%TO.P,J7,4*%
%TO.N,GND*%
X130048000Y-118015000D03*
%TO.P,J7,3*%
%TO.N,Net-(J7-Pad3)*%
X130048000Y-120015000D03*
%TO.P,J7,2*%
%TO.N,SCL*%
X130048000Y-122015000D03*
%TO.P,J7,1*%
%TO.N,SDA*%
X130048000Y-124015000D03*
D20*
%TO.P,J7,5*%
%TO.N,N/C*%
X122548000Y-115715000D03*
%TO.P,J7,6*%
X122548000Y-126315000D03*
%TD*%
D21*
%TO.P,J8,4*%
%TO.N,GND*%
X200660000Y-148050000D03*
%TO.P,J8,3*%
%TO.N,Net-(J8-Pad3)*%
X200660000Y-146050000D03*
%TO.P,J8,2*%
%TO.N,GRV4-2*%
X200660000Y-144050000D03*
%TO.P,J8,1*%
%TO.N,GRV4-1*%
X200660000Y-142050000D03*
D20*
%TO.P,J8,5*%
%TO.N,N/C*%
X208160000Y-150350000D03*
%TO.P,J8,6*%
X208160000Y-139750000D03*
%TD*%
D21*
%TO.P,J9,4*%
%TO.N,GND*%
X200660000Y-161385000D03*
%TO.P,J9,3*%
%TO.N,Net-(J9-Pad3)*%
X200660000Y-159385000D03*
%TO.P,J9,2*%
%TO.N,GRV5-2*%
X200660000Y-157385000D03*
%TO.P,J9,1*%
%TO.N,GRV5-1*%
X200660000Y-155385000D03*
D20*
%TO.P,J9,5*%
%TO.N,N/C*%
X208160000Y-163685000D03*
%TO.P,J9,6*%
X208160000Y-153085000D03*
%TD*%
D23*
%TO.P,J10,2*%
%TO.N,LOAD2_NEG*%
X125603000Y-161925000D03*
D22*
%TO.P,J10,1*%
%TO.N,LOAD2_POS*%
X125603000Y-156845000D03*
%TD*%
%TO.P,J11,1*%
%TO.N,LOAD3_POS*%
X125603000Y-131445000D03*
D23*
%TO.P,J11,2*%
%TO.N,LOAD3_NEG*%
X125603000Y-136525000D03*
%TD*%
D24*
%TO.P,L1,2*%
%TO.N,Net-(C10-Pad2)*%
X174295000Y-106680000D03*
%TO.P,L1,1*%
%TO.N,Net-(C6-Pad1)*%
X164795000Y-106680000D03*
%TD*%
%TO.P,L2,1*%
%TO.N,Net-(C7-Pad1)*%
X188265000Y-130810000D03*
%TO.P,L2,2*%
%TO.N,Net-(C11-Pad2)*%
X178765000Y-130810000D03*
%TD*%
D25*
%TO.P,Q3,1*%
%TO.N,TER1*%
X136083000Y-147685000D03*
%TO.P,Q3,2*%
%TO.N,GND*%
X137983000Y-147685000D03*
%TO.P,Q3,3*%
%TO.N,LOAD1_NEG*%
X137033000Y-145685000D03*
%TD*%
%TO.P,Q4,3*%
%TO.N,LOAD2_NEG*%
X137033000Y-158385000D03*
%TO.P,Q4,2*%
%TO.N,GND*%
X137983000Y-160385000D03*
%TO.P,Q4,1*%
%TO.N,TER2*%
X136083000Y-160385000D03*
%TD*%
%TO.P,Q5,1*%
%TO.N,TER3*%
X136083000Y-134985000D03*
%TO.P,Q5,2*%
%TO.N,GND*%
X137983000Y-134985000D03*
%TO.P,Q5,3*%
%TO.N,LOAD3_NEG*%
X137033000Y-132985000D03*
%TD*%
%TO.P,R1,2*%
%TO.N,Net-(C12-Pad2)*%
%TA.AperFunction,SMDPad,CuDef*%
G36*
G01*
X157840000Y-116820000D02*
X158390000Y-116820000D01*
G75*
G02*
X158590000Y-117020000I0J-200000D01*
G01*
X158590000Y-117420000D01*
G75*
G02*
X158390000Y-117620000I-200000J0D01*
G01*
X157840000Y-117620000D01*
G75*
G02*
X157640000Y-117420000I0J200000D01*
G01*
X157640000Y-117020000D01*
G75*
G02*
X157840000Y-116820000I200000J0D01*
G01*
G37*
%TD.AperFunction*%
%TO.P,R1,1*%
%TO.N,+12V*%
%TA.AperFunction,SMDPad,CuDef*%
G36*
G01*
X157840000Y-115170000D02*
X158390000Y-115170000D01*
G75*
G02*
X158590000Y-115370000I0J-200000D01*
G01*
X158590000Y-115770000D01*
G75*
G02*
X158390000Y-115970000I-200000J0D01*
G01*
X157840000Y-115970000D01*
G75*
G02*
X157640000Y-115770000I0J200000D01*
G01*
X157640000Y-115370000D01*
G75*
G02*
X157840000Y-115170000I200000J0D01*
G01*
G37*
%TD.AperFunction*%
%TD*%
%TO.P,R2,1*%
%TO.N,Net-(C12-Pad2)*%
%TA.AperFunction,SMDPad,CuDef*%
G36*
G01*
X157840000Y-119615000D02*
X158390000Y-119615000D01*
G75*
G02*
X158590000Y-119815000I0J-200000D01*
G01*
X158590000Y-120215000D01*
G75*
G02*
X158390000Y-120415000I-200000J0D01*
G01*
X157840000Y-120415000D01*
G75*
G02*
X157640000Y-120215000I0J200000D01*
G01*
X157640000Y-119815000D01*
G75*
G02*
X157840000Y-119615000I200000J0D01*
G01*
G37*
%TD.AperFunction*%
%TO.P,R2,2*%
%TO.N,GND*%
%TA.AperFunction,SMDPad,CuDef*%
G36*
G01*
X157840000Y-121265000D02*
X158390000Y-121265000D01*
G75*
G02*
X158590000Y-121465000I0J-200000D01*
G01*
X158590000Y-121865000D01*
G75*
G02*
X158390000Y-122065000I-200000J0D01*
G01*
X157840000Y-122065000D01*
G75*
G02*
X157640000Y-121865000I0J200000D01*
G01*
X157640000Y-121465000D01*
G75*
G02*
X157840000Y-121265000I200000J0D01*
G01*
G37*
%TD.AperFunction*%
%TD*%
%TO.P,R3,2*%
%TO.N,Net-(C13-Pad2)*%
%TA.AperFunction,SMDPad,CuDef*%
G36*
G01*
X182455000Y-119105000D02*
X182455000Y-119655000D01*
G75*
G02*
X182255000Y-119855000I-200000J0D01*
G01*
X181855000Y-119855000D01*
G75*
G02*
X181655000Y-119655000I0J200000D01*
G01*
X181655000Y-119105000D01*
G75*
G02*
X181855000Y-118905000I200000J0D01*
G01*
X182255000Y-118905000D01*
G75*
G02*
X182455000Y-119105000I0J-200000D01*
G01*
G37*
%TD.AperFunction*%
%TO.P,R3,1*%
%TO.N,+5V*%
%TA.AperFunction,SMDPad,CuDef*%
G36*
G01*
X184105000Y-119105000D02*
X184105000Y-119655000D01*
G75*
G02*
X183905000Y-119855000I-200000J0D01*
G01*
X183505000Y-119855000D01*
G75*
G02*
X183305000Y-119655000I0J200000D01*
G01*
X183305000Y-119105000D01*
G75*
G02*
X183505000Y-118905000I200000J0D01*
G01*
X183905000Y-118905000D01*
G75*
G02*
X184105000Y-119105000I0J-200000D01*
G01*
G37*
%TD.AperFunction*%
%TD*%
%TO.P,R4,1*%
%TO.N,Net-(C13-Pad2)*%
%TA.AperFunction,SMDPad,CuDef*%
G36*
G01*
X179660000Y-119105000D02*
X179660000Y-119655000D01*
G75*
G02*
X179460000Y-119855000I-200000J0D01*
G01*
X179060000Y-119855000D01*
G75*
G02*
X178860000Y-119655000I0J200000D01*
G01*
X178860000Y-119105000D01*
G75*
G02*
X179060000Y-118905000I200000J0D01*
G01*
X179460000Y-118905000D01*
G75*
G02*
X179660000Y-119105000I0J-200000D01*
G01*
G37*
%TD.AperFunction*%
%TO.P,R4,2*%
%TO.N,GND*%
%TA.AperFunction,SMDPad,CuDef*%
G36*
G01*
X178010000Y-119105000D02*
X178010000Y-119655000D01*
G75*
G02*
X177810000Y-119855000I-200000J0D01*
G01*
X177410000Y-119855000D01*
G75*
G02*
X177210000Y-119655000I0J200000D01*
G01*
X177210000Y-119105000D01*
G75*
G02*
X177410000Y-118905000I200000J0D01*
G01*
X177810000Y-118905000D01*
G75*
G02*
X178010000Y-119105000I0J-200000D01*
G01*
G37*
%TD.AperFunction*%
%TD*%
%TO.P,R5,2*%
%TO.N,GND*%
%TA.AperFunction,SMDPad,CuDef*%
G36*
G01*
X175620000Y-118980000D02*
X176170000Y-118980000D01*
G75*
G02*
X176370000Y-119180000I0J-200000D01*
G01*
X176370000Y-119580000D01*
G75*
G02*
X176170000Y-119780000I-200000J0D01*
G01*
X175620000Y-119780000D01*
G75*
G02*
X175420000Y-119580000I0J200000D01*
G01*
X175420000Y-119180000D01*
G75*
G02*
X175620000Y-118980000I200000J0D01*
G01*
G37*
%TD.AperFunction*%
%TO.P,R5,1*%
%TO.N,Net-(C13-Pad1)*%
%TA.AperFunction,SMDPad,CuDef*%
G36*
G01*
X175620000Y-117330000D02*
X176170000Y-117330000D01*
G75*
G02*
X176370000Y-117530000I0J-200000D01*
G01*
X176370000Y-117930000D01*
G75*
G02*
X176170000Y-118130000I-200000J0D01*
G01*
X175620000Y-118130000D01*
G75*
G02*
X175420000Y-117930000I0J200000D01*
G01*
X175420000Y-117530000D01*
G75*
G02*
X175620000Y-117330000I200000J0D01*
G01*
G37*
%TD.AperFunction*%
%TD*%
%TO.P,R6,1*%
%TO.N,Net-(R6-Pad1)*%
%TA.AperFunction,SMDPad,CuDef*%
G36*
G01*
X153310000Y-130130000D02*
X152760000Y-130130000D01*
G75*
G02*
X152560000Y-129930000I0J200000D01*
G01*
X152560000Y-129530000D01*
G75*
G02*
X152760000Y-129330000I200000J0D01*
G01*
X153310000Y-129330000D01*
G75*
G02*
X153510000Y-129530000I0J-200000D01*
G01*
X153510000Y-129930000D01*
G75*
G02*
X153310000Y-130130000I-200000J0D01*
G01*
G37*
%TD.AperFunction*%
%TO.P,R6,2*%
%TO.N,IO0*%
%TA.AperFunction,SMDPad,CuDef*%
G36*
G01*
X153310000Y-128480000D02*
X152760000Y-128480000D01*
G75*
G02*
X152560000Y-128280000I0J200000D01*
G01*
X152560000Y-127880000D01*
G75*
G02*
X152760000Y-127680000I200000J0D01*
G01*
X153310000Y-127680000D01*
G75*
G02*
X153510000Y-127880000I0J-200000D01*
G01*
X153510000Y-128280000D01*
G75*
G02*
X153310000Y-128480000I-200000J0D01*
G01*
G37*
%TD.AperFunction*%
%TD*%
%TO.P,R7,1*%
%TO.N,Net-(R7-Pad1)*%
%TA.AperFunction,SMDPad,CuDef*%
G36*
G01*
X159025000Y-130130000D02*
X158475000Y-130130000D01*
G75*
G02*
X158275000Y-129930000I0J200000D01*
G01*
X158275000Y-129530000D01*
G75*
G02*
X158475000Y-129330000I200000J0D01*
G01*
X159025000Y-129330000D01*
G75*
G02*
X159225000Y-129530000I0J-200000D01*
G01*
X159225000Y-129930000D01*
G75*
G02*
X159025000Y-130130000I-200000J0D01*
G01*
G37*
%TD.AperFunction*%
%TO.P,R7,2*%
%TO.N,EN*%
%TA.AperFunction,SMDPad,CuDef*%
G36*
G01*
X159025000Y-128480000D02*
X158475000Y-128480000D01*
G75*
G02*
X158275000Y-128280000I0J200000D01*
G01*
X158275000Y-127880000D01*
G75*
G02*
X158475000Y-127680000I200000J0D01*
G01*
X159025000Y-127680000D01*
G75*
G02*
X159225000Y-127880000I0J-200000D01*
G01*
X159225000Y-128280000D01*
G75*
G02*
X159025000Y-128480000I-200000J0D01*
G01*
G37*
%TD.AperFunction*%
%TD*%
%TO.P,R8,1*%
%TO.N,Net-(Q1-Pad2)*%
%TA.AperFunction,SMDPad,CuDef*%
G36*
G01*
X162835000Y-156800000D02*
X162285000Y-156800000D01*
G75*
G02*
X162085000Y-156600000I0J200000D01*
G01*
X162085000Y-156200000D01*
G75*
G02*
X162285000Y-156000000I200000J0D01*
G01*
X162835000Y-156000000D01*
G75*
G02*
X163035000Y-156200000I0J-200000D01*
G01*
X163035000Y-156600000D01*
G75*
G02*
X162835000Y-156800000I-200000J0D01*
G01*
G37*
%TD.AperFunction*%
%TO.P,R8,2*%
%TO.N,DTR*%
%TA.AperFunction,SMDPad,CuDef*%
G36*
G01*
X162835000Y-155150000D02*
X162285000Y-155150000D01*
G75*
G02*
X162085000Y-154950000I0J200000D01*
G01*
X162085000Y-154550000D01*
G75*
G02*
X162285000Y-154350000I200000J0D01*
G01*
X162835000Y-154350000D01*
G75*
G02*
X163035000Y-154550000I0J-200000D01*
G01*
X163035000Y-154950000D01*
G75*
G02*
X162835000Y-155150000I-200000J0D01*
G01*
G37*
%TD.AperFunction*%
%TD*%
%TO.P,R9,2*%
%TO.N,RTS*%
%TA.AperFunction,SMDPad,CuDef*%
G36*
G01*
X157205000Y-156000000D02*
X157755000Y-156000000D01*
G75*
G02*
X157955000Y-156200000I0J-200000D01*
G01*
X157955000Y-156600000D01*
G75*
G02*
X157755000Y-156800000I-200000J0D01*
G01*
X157205000Y-156800000D01*
G75*
G02*
X157005000Y-156600000I0J200000D01*
G01*
X157005000Y-156200000D01*
G75*
G02*
X157205000Y-156000000I200000J0D01*
G01*
G37*
%TD.AperFunction*%
%TO.P,R9,1*%
%TO.N,Net-(Q2-Pad2)*%
%TA.AperFunction,SMDPad,CuDef*%
G36*
G01*
X157205000Y-154350000D02*
X157755000Y-154350000D01*
G75*
G02*
X157955000Y-154550000I0J-200000D01*
G01*
X157955000Y-154950000D01*
G75*
G02*
X157755000Y-155150000I-200000J0D01*
G01*
X157205000Y-155150000D01*
G75*
G02*
X157005000Y-154950000I0J200000D01*
G01*
X157005000Y-154550000D01*
G75*
G02*
X157205000Y-154350000I200000J0D01*
G01*
G37*
%TD.AperFunction*%
%TD*%
%TO.P,R10,2*%
%TO.N,+3V3*%
%TA.AperFunction,SMDPad,CuDef*%
G36*
G01*
X154665000Y-129330000D02*
X155215000Y-129330000D01*
G75*
G02*
X155415000Y-129530000I0J-200000D01*
G01*
X155415000Y-129930000D01*
G75*
G02*
X155215000Y-130130000I-200000J0D01*
G01*
X154665000Y-130130000D01*
G75*
G02*
X154465000Y-129930000I0J200000D01*
G01*
X154465000Y-129530000D01*
G75*
G02*
X154665000Y-129330000I200000J0D01*
G01*
G37*
%TD.AperFunction*%
%TO.P,R10,1*%
%TO.N,IO0*%
%TA.AperFunction,SMDPad,CuDef*%
G36*
G01*
X154665000Y-127680000D02*
X155215000Y-127680000D01*
G75*
G02*
X155415000Y-127880000I0J-200000D01*
G01*
X155415000Y-128280000D01*
G75*
G02*
X155215000Y-128480000I-200000J0D01*
G01*
X154665000Y-128480000D01*
G75*
G02*
X154465000Y-128280000I0J200000D01*
G01*
X154465000Y-127880000D01*
G75*
G02*
X154665000Y-127680000I200000J0D01*
G01*
G37*
%TD.AperFunction*%
%TD*%
%TO.P,R11,2*%
%TO.N,+3V3*%
%TA.AperFunction,SMDPad,CuDef*%
G36*
G01*
X160380000Y-129330000D02*
X160930000Y-129330000D01*
G75*
G02*
X161130000Y-129530000I0J-200000D01*
G01*
X161130000Y-129930000D01*
G75*
G02*
X160930000Y-130130000I-200000J0D01*
G01*
X160380000Y-130130000D01*
G75*
G02*
X160180000Y-129930000I0J200000D01*
G01*
X160180000Y-129530000D01*
G75*
G02*
X160380000Y-129330000I200000J0D01*
G01*
G37*
%TD.AperFunction*%
%TO.P,R11,1*%
%TO.N,EN*%
%TA.AperFunction,SMDPad,CuDef*%
G36*
G01*
X160380000Y-127680000D02*
X160930000Y-127680000D01*
G75*
G02*
X161130000Y-127880000I0J-200000D01*
G01*
X161130000Y-128280000D01*
G75*
G02*
X160930000Y-128480000I-200000J0D01*
G01*
X160380000Y-128480000D01*
G75*
G02*
X160180000Y-128280000I0J200000D01*
G01*
X160180000Y-127880000D01*
G75*
G02*
X160380000Y-127680000I200000J0D01*
G01*
G37*
%TD.AperFunction*%
%TD*%
%TO.P,R12,1*%
%TO.N,Net-(R12-Pad1)*%
%TA.AperFunction,SMDPad,CuDef*%
G36*
G01*
X147680000Y-156255000D02*
X148230000Y-156255000D01*
G75*
G02*
X148430000Y-156455000I0J-200000D01*
G01*
X148430000Y-156855000D01*
G75*
G02*
X148230000Y-157055000I-200000J0D01*
G01*
X147680000Y-157055000D01*
G75*
G02*
X147480000Y-156855000I0J200000D01*
G01*
X147480000Y-156455000D01*
G75*
G02*
X147680000Y-156255000I200000J0D01*
G01*
G37*
%TD.AperFunction*%
%TO.P,R12,2*%
%TO.N,GND*%
%TA.AperFunction,SMDPad,CuDef*%
G36*
G01*
X147680000Y-157905000D02*
X148230000Y-157905000D01*
G75*
G02*
X148430000Y-158105000I0J-200000D01*
G01*
X148430000Y-158505000D01*
G75*
G02*
X148230000Y-158705000I-200000J0D01*
G01*
X147680000Y-158705000D01*
G75*
G02*
X147480000Y-158505000I0J200000D01*
G01*
X147480000Y-158105000D01*
G75*
G02*
X147680000Y-157905000I200000J0D01*
G01*
G37*
%TD.AperFunction*%
%TD*%
%TO.P,R13,2*%
%TO.N,U0RX*%
%TA.AperFunction,SMDPad,CuDef*%
G36*
G01*
X156485000Y-150070000D02*
X155935000Y-150070000D01*
G75*
G02*
X155735000Y-149870000I0J200000D01*
G01*
X155735000Y-149470000D01*
G75*
G02*
X155935000Y-149270000I200000J0D01*
G01*
X156485000Y-149270000D01*
G75*
G02*
X156685000Y-149470000I0J-200000D01*
G01*
X156685000Y-149870000D01*
G75*
G02*
X156485000Y-150070000I-200000J0D01*
G01*
G37*
%TD.AperFunction*%
%TO.P,R13,1*%
%TO.N,Net-(R13-Pad1)*%
%TA.AperFunction,SMDPad,CuDef*%
G36*
G01*
X156485000Y-151720000D02*
X155935000Y-151720000D01*
G75*
G02*
X155735000Y-151520000I0J200000D01*
G01*
X155735000Y-151120000D01*
G75*
G02*
X155935000Y-150920000I200000J0D01*
G01*
X156485000Y-150920000D01*
G75*
G02*
X156685000Y-151120000I0J-200000D01*
G01*
X156685000Y-151520000D01*
G75*
G02*
X156485000Y-151720000I-200000J0D01*
G01*
G37*
%TD.AperFunction*%
%TD*%
%TO.P,R14,1*%
%TO.N,Net-(JP1-Pad2)*%
%TA.AperFunction,SMDPad,CuDef*%
G36*
G01*
X195625000Y-116099000D02*
X195625000Y-115549000D01*
G75*
G02*
X195825000Y-115349000I200000J0D01*
G01*
X196225000Y-115349000D01*
G75*
G02*
X196425000Y-115549000I0J-200000D01*
G01*
X196425000Y-116099000D01*
G75*
G02*
X196225000Y-116299000I-200000J0D01*
G01*
X195825000Y-116299000D01*
G75*
G02*
X195625000Y-116099000I0J200000D01*
G01*
G37*
%TD.AperFunction*%
%TO.P,R14,2*%
%TO.N,GRV1-1*%
%TA.AperFunction,SMDPad,CuDef*%
G36*
G01*
X197275000Y-116099000D02*
X197275000Y-115549000D01*
G75*
G02*
X197475000Y-115349000I200000J0D01*
G01*
X197875000Y-115349000D01*
G75*
G02*
X198075000Y-115549000I0J-200000D01*
G01*
X198075000Y-116099000D01*
G75*
G02*
X197875000Y-116299000I-200000J0D01*
G01*
X197475000Y-116299000D01*
G75*
G02*
X197275000Y-116099000I0J200000D01*
G01*
G37*
%TD.AperFunction*%
%TD*%
%TO.P,R15,2*%
%TO.N,GRV1-2*%
%TA.AperFunction,SMDPad,CuDef*%
G36*
G01*
X197275000Y-118131000D02*
X197275000Y-117581000D01*
G75*
G02*
X197475000Y-117381000I200000J0D01*
G01*
X197875000Y-117381000D01*
G75*
G02*
X198075000Y-117581000I0J-200000D01*
G01*
X198075000Y-118131000D01*
G75*
G02*
X197875000Y-118331000I-200000J0D01*
G01*
X197475000Y-118331000D01*
G75*
G02*
X197275000Y-118131000I0J200000D01*
G01*
G37*
%TD.AperFunction*%
%TO.P,R15,1*%
%TO.N,Net-(JP2-Pad2)*%
%TA.AperFunction,SMDPad,CuDef*%
G36*
G01*
X195625000Y-118131000D02*
X195625000Y-117581000D01*
G75*
G02*
X195825000Y-117381000I200000J0D01*
G01*
X196225000Y-117381000D01*
G75*
G02*
X196425000Y-117581000I0J-200000D01*
G01*
X196425000Y-118131000D01*
G75*
G02*
X196225000Y-118331000I-200000J0D01*
G01*
X195825000Y-118331000D01*
G75*
G02*
X195625000Y-118131000I0J200000D01*
G01*
G37*
%TD.AperFunction*%
%TD*%
%TO.P,R16,1*%
%TO.N,Net-(JP4-Pad2)*%
%TA.AperFunction,SMDPad,CuDef*%
G36*
G01*
X195879000Y-142007000D02*
X195879000Y-141457000D01*
G75*
G02*
X196079000Y-141257000I200000J0D01*
G01*
X196479000Y-141257000D01*
G75*
G02*
X196679000Y-141457000I0J-200000D01*
G01*
X196679000Y-142007000D01*
G75*
G02*
X196479000Y-142207000I-200000J0D01*
G01*
X196079000Y-142207000D01*
G75*
G02*
X195879000Y-142007000I0J200000D01*
G01*
G37*
%TD.AperFunction*%
%TO.P,R16,2*%
%TO.N,GRV4-1*%
%TA.AperFunction,SMDPad,CuDef*%
G36*
G01*
X197529000Y-142007000D02*
X197529000Y-141457000D01*
G75*
G02*
X197729000Y-141257000I200000J0D01*
G01*
X198129000Y-141257000D01*
G75*
G02*
X198329000Y-141457000I0J-200000D01*
G01*
X198329000Y-142007000D01*
G75*
G02*
X198129000Y-142207000I-200000J0D01*
G01*
X197729000Y-142207000D01*
G75*
G02*
X197529000Y-142007000I0J200000D01*
G01*
G37*
%TD.AperFunction*%
%TD*%
%TO.P,R17,2*%
%TO.N,GRV4-2*%
%TA.AperFunction,SMDPad,CuDef*%
G36*
G01*
X197529000Y-144039000D02*
X197529000Y-143489000D01*
G75*
G02*
X197729000Y-143289000I200000J0D01*
G01*
X198129000Y-143289000D01*
G75*
G02*
X198329000Y-143489000I0J-200000D01*
G01*
X198329000Y-144039000D01*
G75*
G02*
X198129000Y-144239000I-200000J0D01*
G01*
X197729000Y-144239000D01*
G75*
G02*
X197529000Y-144039000I0J200000D01*
G01*
G37*
%TD.AperFunction*%
%TO.P,R17,1*%
%TO.N,Net-(JP5-Pad2)*%
%TA.AperFunction,SMDPad,CuDef*%
G36*
G01*
X195879000Y-144039000D02*
X195879000Y-143489000D01*
G75*
G02*
X196079000Y-143289000I200000J0D01*
G01*
X196479000Y-143289000D01*
G75*
G02*
X196679000Y-143489000I0J-200000D01*
G01*
X196679000Y-144039000D01*
G75*
G02*
X196479000Y-144239000I-200000J0D01*
G01*
X196079000Y-144239000D01*
G75*
G02*
X195879000Y-144039000I0J200000D01*
G01*
G37*
%TD.AperFunction*%
%TD*%
%TO.P,R18,2*%
%TO.N,+3V3*%
%TA.AperFunction,SMDPad,CuDef*%
G36*
G01*
X165375000Y-149245000D02*
X164825000Y-149245000D01*
G75*
G02*
X164625000Y-149045000I0J200000D01*
G01*
X164625000Y-148645000D01*
G75*
G02*
X164825000Y-148445000I200000J0D01*
G01*
X165375000Y-148445000D01*
G75*
G02*
X165575000Y-148645000I0J-200000D01*
G01*
X165575000Y-149045000D01*
G75*
G02*
X165375000Y-149245000I-200000J0D01*
G01*
G37*
%TD.AperFunction*%
%TO.P,R18,1*%
%TO.N,SDA*%
%TA.AperFunction,SMDPad,CuDef*%
G36*
G01*
X165375000Y-150895000D02*
X164825000Y-150895000D01*
G75*
G02*
X164625000Y-150695000I0J200000D01*
G01*
X164625000Y-150295000D01*
G75*
G02*
X164825000Y-150095000I200000J0D01*
G01*
X165375000Y-150095000D01*
G75*
G02*
X165575000Y-150295000I0J-200000D01*
G01*
X165575000Y-150695000D01*
G75*
G02*
X165375000Y-150895000I-200000J0D01*
G01*
G37*
%TD.AperFunction*%
%TD*%
%TO.P,R19,2*%
%TO.N,+3V3*%
%TA.AperFunction,SMDPad,CuDef*%
G36*
G01*
X164825000Y-156190000D02*
X165375000Y-156190000D01*
G75*
G02*
X165575000Y-156390000I0J-200000D01*
G01*
X165575000Y-156790000D01*
G75*
G02*
X165375000Y-156990000I-200000J0D01*
G01*
X164825000Y-156990000D01*
G75*
G02*
X164625000Y-156790000I0J200000D01*
G01*
X164625000Y-156390000D01*
G75*
G02*
X164825000Y-156190000I200000J0D01*
G01*
G37*
%TD.AperFunction*%
%TO.P,R19,1*%
%TO.N,SCL*%
%TA.AperFunction,SMDPad,CuDef*%
G36*
G01*
X164825000Y-154540000D02*
X165375000Y-154540000D01*
G75*
G02*
X165575000Y-154740000I0J-200000D01*
G01*
X165575000Y-155140000D01*
G75*
G02*
X165375000Y-155340000I-200000J0D01*
G01*
X164825000Y-155340000D01*
G75*
G02*
X164625000Y-155140000I0J200000D01*
G01*
X164625000Y-154740000D01*
G75*
G02*
X164825000Y-154540000I200000J0D01*
G01*
G37*
%TD.AperFunction*%
%TD*%
%TO.P,R20,1*%
%TO.N,TER1*%
%TA.AperFunction,SMDPad,CuDef*%
G36*
G01*
X135808000Y-149500000D02*
X135808000Y-148950000D01*
G75*
G02*
X136008000Y-148750000I200000J0D01*
G01*
X136408000Y-148750000D01*
G75*
G02*
X136608000Y-148950000I0J-200000D01*
G01*
X136608000Y-149500000D01*
G75*
G02*
X136408000Y-149700000I-200000J0D01*
G01*
X136008000Y-149700000D01*
G75*
G02*
X135808000Y-149500000I0J200000D01*
G01*
G37*
%TD.AperFunction*%
%TO.P,R20,2*%
%TO.N,GND*%
%TA.AperFunction,SMDPad,CuDef*%
G36*
G01*
X137458000Y-149500000D02*
X137458000Y-148950000D01*
G75*
G02*
X137658000Y-148750000I200000J0D01*
G01*
X138058000Y-148750000D01*
G75*
G02*
X138258000Y-148950000I0J-200000D01*
G01*
X138258000Y-149500000D01*
G75*
G02*
X138058000Y-149700000I-200000J0D01*
G01*
X137658000Y-149700000D01*
G75*
G02*
X137458000Y-149500000I0J200000D01*
G01*
G37*
%TD.AperFunction*%
%TD*%
%TO.P,R21,2*%
%TO.N,GND*%
%TA.AperFunction,SMDPad,CuDef*%
G36*
G01*
X137458000Y-162200000D02*
X137458000Y-161650000D01*
G75*
G02*
X137658000Y-161450000I200000J0D01*
G01*
X138058000Y-161450000D01*
G75*
G02*
X138258000Y-161650000I0J-200000D01*
G01*
X138258000Y-162200000D01*
G75*
G02*
X138058000Y-162400000I-200000J0D01*
G01*
X137658000Y-162400000D01*
G75*
G02*
X137458000Y-162200000I0J200000D01*
G01*
G37*
%TD.AperFunction*%
%TO.P,R21,1*%
%TO.N,TER2*%
%TA.AperFunction,SMDPad,CuDef*%
G36*
G01*
X135808000Y-162200000D02*
X135808000Y-161650000D01*
G75*
G02*
X136008000Y-161450000I200000J0D01*
G01*
X136408000Y-161450000D01*
G75*
G02*
X136608000Y-161650000I0J-200000D01*
G01*
X136608000Y-162200000D01*
G75*
G02*
X136408000Y-162400000I-200000J0D01*
G01*
X136008000Y-162400000D01*
G75*
G02*
X135808000Y-162200000I0J200000D01*
G01*
G37*
%TD.AperFunction*%
%TD*%
%TO.P,R22,1*%
%TO.N,TER3*%
%TA.AperFunction,SMDPad,CuDef*%
G36*
G01*
X135808000Y-136800000D02*
X135808000Y-136250000D01*
G75*
G02*
X136008000Y-136050000I200000J0D01*
G01*
X136408000Y-136050000D01*
G75*
G02*
X136608000Y-136250000I0J-200000D01*
G01*
X136608000Y-136800000D01*
G75*
G02*
X136408000Y-137000000I-200000J0D01*
G01*
X136008000Y-137000000D01*
G75*
G02*
X135808000Y-136800000I0J200000D01*
G01*
G37*
%TD.AperFunction*%
%TO.P,R22,2*%
%TO.N,GND*%
%TA.AperFunction,SMDPad,CuDef*%
G36*
G01*
X137458000Y-136800000D02*
X137458000Y-136250000D01*
G75*
G02*
X137658000Y-136050000I200000J0D01*
G01*
X138058000Y-136050000D01*
G75*
G02*
X138258000Y-136250000I0J-200000D01*
G01*
X138258000Y-136800000D01*
G75*
G02*
X138058000Y-137000000I-200000J0D01*
G01*
X137658000Y-137000000D01*
G75*
G02*
X137458000Y-136800000I0J200000D01*
G01*
G37*
%TD.AperFunction*%
%TD*%
%TO.P,R23,1*%
%TO.N,Net-(D10-Pad1)*%
%TA.AperFunction,SMDPad,CuDef*%
G36*
G01*
X131998000Y-151405000D02*
X131998000Y-150855000D01*
G75*
G02*
X132198000Y-150655000I200000J0D01*
G01*
X132598000Y-150655000D01*
G75*
G02*
X132798000Y-150855000I0J-200000D01*
G01*
X132798000Y-151405000D01*
G75*
G02*
X132598000Y-151605000I-200000J0D01*
G01*
X132198000Y-151605000D01*
G75*
G02*
X131998000Y-151405000I0J200000D01*
G01*
G37*
%TD.AperFunction*%
%TO.P,R23,2*%
%TO.N,GND*%
%TA.AperFunction,SMDPad,CuDef*%
G36*
G01*
X133648000Y-151405000D02*
X133648000Y-150855000D01*
G75*
G02*
X133848000Y-150655000I200000J0D01*
G01*
X134248000Y-150655000D01*
G75*
G02*
X134448000Y-150855000I0J-200000D01*
G01*
X134448000Y-151405000D01*
G75*
G02*
X134248000Y-151605000I-200000J0D01*
G01*
X133848000Y-151605000D01*
G75*
G02*
X133648000Y-151405000I0J200000D01*
G01*
G37*
%TD.AperFunction*%
%TD*%
%TO.P,R24,2*%
%TO.N,GND*%
%TA.AperFunction,SMDPad,CuDef*%
G36*
G01*
X133648000Y-164105000D02*
X133648000Y-163555000D01*
G75*
G02*
X133848000Y-163355000I200000J0D01*
G01*
X134248000Y-163355000D01*
G75*
G02*
X134448000Y-163555000I0J-200000D01*
G01*
X134448000Y-164105000D01*
G75*
G02*
X134248000Y-164305000I-200000J0D01*
G01*
X133848000Y-164305000D01*
G75*
G02*
X133648000Y-164105000I0J200000D01*
G01*
G37*
%TD.AperFunction*%
%TO.P,R24,1*%
%TO.N,Net-(D11-Pad1)*%
%TA.AperFunction,SMDPad,CuDef*%
G36*
G01*
X131998000Y-164105000D02*
X131998000Y-163555000D01*
G75*
G02*
X132198000Y-163355000I200000J0D01*
G01*
X132598000Y-163355000D01*
G75*
G02*
X132798000Y-163555000I0J-200000D01*
G01*
X132798000Y-164105000D01*
G75*
G02*
X132598000Y-164305000I-200000J0D01*
G01*
X132198000Y-164305000D01*
G75*
G02*
X131998000Y-164105000I0J200000D01*
G01*
G37*
%TD.AperFunction*%
%TD*%
%TO.P,R25,1*%
%TO.N,Net-(D12-Pad1)*%
%TA.AperFunction,SMDPad,CuDef*%
G36*
G01*
X131998000Y-138705000D02*
X131998000Y-138155000D01*
G75*
G02*
X132198000Y-137955000I200000J0D01*
G01*
X132598000Y-137955000D01*
G75*
G02*
X132798000Y-138155000I0J-200000D01*
G01*
X132798000Y-138705000D01*
G75*
G02*
X132598000Y-138905000I-200000J0D01*
G01*
X132198000Y-138905000D01*
G75*
G02*
X131998000Y-138705000I0J200000D01*
G01*
G37*
%TD.AperFunction*%
%TO.P,R25,2*%
%TO.N,GND*%
%TA.AperFunction,SMDPad,CuDef*%
G36*
G01*
X133648000Y-138705000D02*
X133648000Y-138155000D01*
G75*
G02*
X133848000Y-137955000I200000J0D01*
G01*
X134248000Y-137955000D01*
G75*
G02*
X134448000Y-138155000I0J-200000D01*
G01*
X134448000Y-138705000D01*
G75*
G02*
X134248000Y-138905000I-200000J0D01*
G01*
X133848000Y-138905000D01*
G75*
G02*
X133648000Y-138705000I0J200000D01*
G01*
G37*
%TD.AperFunction*%
%TD*%
%TO.P,R26,1*%
%TO.N,Net-(C12-Pad1)*%
%TA.AperFunction,SMDPad,CuDef*%
G36*
G01*
X156065000Y-123465000D02*
X156065000Y-122915000D01*
G75*
G02*
X156265000Y-122715000I200000J0D01*
G01*
X156665000Y-122715000D01*
G75*
G02*
X156865000Y-122915000I0J-200000D01*
G01*
X156865000Y-123465000D01*
G75*
G02*
X156665000Y-123665000I-200000J0D01*
G01*
X156265000Y-123665000D01*
G75*
G02*
X156065000Y-123465000I0J200000D01*
G01*
G37*
%TD.AperFunction*%
%TO.P,R26,2*%
%TO.N,GND*%
%TA.AperFunction,SMDPad,CuDef*%
G36*
G01*
X157715000Y-123465000D02*
X157715000Y-122915000D01*
G75*
G02*
X157915000Y-122715000I200000J0D01*
G01*
X158315000Y-122715000D01*
G75*
G02*
X158515000Y-122915000I0J-200000D01*
G01*
X158515000Y-123465000D01*
G75*
G02*
X158315000Y-123665000I-200000J0D01*
G01*
X157915000Y-123665000D01*
G75*
G02*
X157715000Y-123465000I0J200000D01*
G01*
G37*
%TD.AperFunction*%
%TD*%
%TO.P,SW1,1*%
%TO.N,GND*%
%TA.AperFunction,SMDPad,CuDef*%
G36*
G01*
X155105000Y-135850000D02*
X153505000Y-135850000D01*
G75*
G02*
X153305000Y-135650000I0J200000D01*
G01*
X153305000Y-135250000D01*
G75*
G02*
X153505000Y-135050000I200000J0D01*
G01*
X155105000Y-135050000D01*
G75*
G02*
X155305000Y-135250000I0J-200000D01*
G01*
X155305000Y-135650000D01*
G75*
G02*
X155105000Y-135850000I-200000J0D01*
G01*
G37*
%TD.AperFunction*%
%TO.P,SW1,2*%
%TO.N,Net-(R6-Pad1)*%
%TA.AperFunction,SMDPad,CuDef*%
G36*
G01*
X155105000Y-131650000D02*
X153505000Y-131650000D01*
G75*
G02*
X153305000Y-131450000I0J200000D01*
G01*
X153305000Y-131050000D01*
G75*
G02*
X153505000Y-130850000I200000J0D01*
G01*
X155105000Y-130850000D01*
G75*
G02*
X155305000Y-131050000I0J-200000D01*
G01*
X155305000Y-131450000D01*
G75*
G02*
X155105000Y-131650000I-200000J0D01*
G01*
G37*
%TD.AperFunction*%
%TD*%
%TO.P,SW2,2*%
%TO.N,Net-(R7-Pad1)*%
%TA.AperFunction,SMDPad,CuDef*%
G36*
G01*
X160185000Y-131650000D02*
X158585000Y-131650000D01*
G75*
G02*
X158385000Y-131450000I0J200000D01*
G01*
X158385000Y-131050000D01*
G75*
G02*
X158585000Y-130850000I200000J0D01*
G01*
X160185000Y-130850000D01*
G75*
G02*
X160385000Y-131050000I0J-200000D01*
G01*
X160385000Y-131450000D01*
G75*
G02*
X160185000Y-131650000I-200000J0D01*
G01*
G37*
%TD.AperFunction*%
%TO.P,SW2,1*%
%TO.N,GND*%
%TA.AperFunction,SMDPad,CuDef*%
G36*
G01*
X160185000Y-135850000D02*
X158585000Y-135850000D01*
G75*
G02*
X158385000Y-135650000I0J200000D01*
G01*
X158385000Y-135250000D01*
G75*
G02*
X158585000Y-135050000I200000J0D01*
G01*
X160185000Y-135050000D01*
G75*
G02*
X160385000Y-135250000I0J-200000D01*
G01*
X160385000Y-135650000D01*
G75*
G02*
X160185000Y-135850000I-200000J0D01*
G01*
G37*
%TD.AperFunction*%
%TD*%
%TO.P,U1,1*%
%TO.N,Net-(C6-Pad2)*%
%TA.AperFunction,SMDPad,CuDef*%
G36*
G01*
X160505000Y-103230000D02*
X160805000Y-103230000D01*
G75*
G02*
X160955000Y-103380000I0J-150000D01*
G01*
X160955000Y-104680000D01*
G75*
G02*
X160805000Y-104830000I-150000J0D01*
G01*
X160505000Y-104830000D01*
G75*
G02*
X160355000Y-104680000I0J150000D01*
G01*
X160355000Y-103380000D01*
G75*
G02*
X160505000Y-103230000I150000J0D01*
G01*
G37*
%TD.AperFunction*%
%TO.P,U1,2*%
%TO.N,N/C*%
%TA.AperFunction,SMDPad,CuDef*%
G36*
G01*
X159235000Y-103230000D02*
X159535000Y-103230000D01*
G75*
G02*
X159685000Y-103380000I0J-150000D01*
G01*
X159685000Y-104680000D01*
G75*
G02*
X159535000Y-104830000I-150000J0D01*
G01*
X159235000Y-104830000D01*
G75*
G02*
X159085000Y-104680000I0J150000D01*
G01*
X159085000Y-103380000D01*
G75*
G02*
X159235000Y-103230000I150000J0D01*
G01*
G37*
%TD.AperFunction*%
%TO.P,U1,3*%
%TA.AperFunction,SMDPad,CuDef*%
G36*
G01*
X157965000Y-103230000D02*
X158265000Y-103230000D01*
G75*
G02*
X158415000Y-103380000I0J-150000D01*
G01*
X158415000Y-104680000D01*
G75*
G02*
X158265000Y-104830000I-150000J0D01*
G01*
X157965000Y-104830000D01*
G75*
G02*
X157815000Y-104680000I0J150000D01*
G01*
X157815000Y-103380000D01*
G75*
G02*
X157965000Y-103230000I150000J0D01*
G01*
G37*
%TD.AperFunction*%
%TO.P,U1,4*%
%TO.N,Net-(C12-Pad2)*%
%TA.AperFunction,SMDPad,CuDef*%
G36*
G01*
X156695000Y-103230000D02*
X156995000Y-103230000D01*
G75*
G02*
X157145000Y-103380000I0J-150000D01*
G01*
X157145000Y-104680000D01*
G75*
G02*
X156995000Y-104830000I-150000J0D01*
G01*
X156695000Y-104830000D01*
G75*
G02*
X156545000Y-104680000I0J150000D01*
G01*
X156545000Y-103380000D01*
G75*
G02*
X156695000Y-103230000I150000J0D01*
G01*
G37*
%TD.AperFunction*%
%TO.P,U1,5*%
%TO.N,N/C*%
%TA.AperFunction,SMDPad,CuDef*%
G36*
G01*
X156695000Y-108530000D02*
X156995000Y-108530000D01*
G75*
G02*
X157145000Y-108680000I0J-150000D01*
G01*
X157145000Y-109980000D01*
G75*
G02*
X156995000Y-110130000I-150000J0D01*
G01*
X156695000Y-110130000D01*
G75*
G02*
X156545000Y-109980000I0J150000D01*
G01*
X156545000Y-108680000D01*
G75*
G02*
X156695000Y-108530000I150000J0D01*
G01*
G37*
%TD.AperFunction*%
%TO.P,U1,6*%
%TO.N,GND*%
%TA.AperFunction,SMDPad,CuDef*%
G36*
G01*
X157965000Y-108530000D02*
X158265000Y-108530000D01*
G75*
G02*
X158415000Y-108680000I0J-150000D01*
G01*
X158415000Y-109980000D01*
G75*
G02*
X158265000Y-110130000I-150000J0D01*
G01*
X157965000Y-110130000D01*
G75*
G02*
X157815000Y-109980000I0J150000D01*
G01*
X157815000Y-108680000D01*
G75*
G02*
X157965000Y-108530000I150000J0D01*
G01*
G37*
%TD.AperFunction*%
%TO.P,U1,7*%
%TO.N,+24V*%
%TA.AperFunction,SMDPad,CuDef*%
G36*
G01*
X159235000Y-108530000D02*
X159535000Y-108530000D01*
G75*
G02*
X159685000Y-108680000I0J-150000D01*
G01*
X159685000Y-109980000D01*
G75*
G02*
X159535000Y-110130000I-150000J0D01*
G01*
X159235000Y-110130000D01*
G75*
G02*
X159085000Y-109980000I0J150000D01*
G01*
X159085000Y-108680000D01*
G75*
G02*
X159235000Y-108530000I150000J0D01*
G01*
G37*
%TD.AperFunction*%
%TO.P,U1,8*%
%TO.N,Net-(C6-Pad1)*%
%TA.AperFunction,SMDPad,CuDef*%
G36*
G01*
X160505000Y-108530000D02*
X160805000Y-108530000D01*
G75*
G02*
X160955000Y-108680000I0J-150000D01*
G01*
X160955000Y-109980000D01*
G75*
G02*
X160805000Y-110130000I-150000J0D01*
G01*
X160505000Y-110130000D01*
G75*
G02*
X160355000Y-109980000I0J150000D01*
G01*
X160355000Y-108680000D01*
G75*
G02*
X160505000Y-108530000I150000J0D01*
G01*
G37*
%TD.AperFunction*%
D26*
%TO.P,U1,9*%
%TO.N,GND*%
X158750000Y-106680000D03*
%TD*%
%TO.P,U2,9*%
%TO.N,GND*%
X194170000Y-130775000D03*
%TO.P,U2,8*%
%TO.N,Net-(C7-Pad1)*%
%TA.AperFunction,SMDPad,CuDef*%
G36*
G01*
X192415000Y-128925000D02*
X192115000Y-128925000D01*
G75*
G02*
X191965000Y-128775000I0J150000D01*
G01*
X191965000Y-127475000D01*
G75*
G02*
X192115000Y-127325000I150000J0D01*
G01*
X192415000Y-127325000D01*
G75*
G02*
X192565000Y-127475000I0J-150000D01*
G01*
X192565000Y-128775000D01*
G75*
G02*
X192415000Y-128925000I-150000J0D01*
G01*
G37*
%TD.AperFunction*%
%TO.P,U2,7*%
%TO.N,+24V*%
%TA.AperFunction,SMDPad,CuDef*%
G36*
G01*
X193685000Y-128925000D02*
X193385000Y-128925000D01*
G75*
G02*
X193235000Y-128775000I0J150000D01*
G01*
X193235000Y-127475000D01*
G75*
G02*
X193385000Y-127325000I150000J0D01*
G01*
X193685000Y-127325000D01*
G75*
G02*
X193835000Y-127475000I0J-150000D01*
G01*
X193835000Y-128775000D01*
G75*
G02*
X193685000Y-128925000I-150000J0D01*
G01*
G37*
%TD.AperFunction*%
%TO.P,U2,6*%
%TO.N,GND*%
%TA.AperFunction,SMDPad,CuDef*%
G36*
G01*
X194955000Y-128925000D02*
X194655000Y-128925000D01*
G75*
G02*
X194505000Y-128775000I0J150000D01*
G01*
X194505000Y-127475000D01*
G75*
G02*
X194655000Y-127325000I150000J0D01*
G01*
X194955000Y-127325000D01*
G75*
G02*
X195105000Y-127475000I0J-150000D01*
G01*
X195105000Y-128775000D01*
G75*
G02*
X194955000Y-128925000I-150000J0D01*
G01*
G37*
%TD.AperFunction*%
%TO.P,U2,5*%
%TO.N,N/C*%
%TA.AperFunction,SMDPad,CuDef*%
G36*
G01*
X196225000Y-128925000D02*
X195925000Y-128925000D01*
G75*
G02*
X195775000Y-128775000I0J150000D01*
G01*
X195775000Y-127475000D01*
G75*
G02*
X195925000Y-127325000I150000J0D01*
G01*
X196225000Y-127325000D01*
G75*
G02*
X196375000Y-127475000I0J-150000D01*
G01*
X196375000Y-128775000D01*
G75*
G02*
X196225000Y-128925000I-150000J0D01*
G01*
G37*
%TD.AperFunction*%
%TO.P,U2,4*%
%TO.N,Net-(C13-Pad2)*%
%TA.AperFunction,SMDPad,CuDef*%
G36*
G01*
X196225000Y-134225000D02*
X195925000Y-134225000D01*
G75*
G02*
X195775000Y-134075000I0J150000D01*
G01*
X195775000Y-132775000D01*
G75*
G02*
X195925000Y-132625000I150000J0D01*
G01*
X196225000Y-132625000D01*
G75*
G02*
X196375000Y-132775000I0J-150000D01*
G01*
X196375000Y-134075000D01*
G75*
G02*
X196225000Y-134225000I-150000J0D01*
G01*
G37*
%TD.AperFunction*%
%TO.P,U2,3*%
%TO.N,N/C*%
%TA.AperFunction,SMDPad,CuDef*%
G36*
G01*
X194955000Y-134225000D02*
X194655000Y-134225000D01*
G75*
G02*
X194505000Y-134075000I0J150000D01*
G01*
X194505000Y-132775000D01*
G75*
G02*
X194655000Y-132625000I150000J0D01*
G01*
X194955000Y-132625000D01*
G75*
G02*
X195105000Y-132775000I0J-150000D01*
G01*
X195105000Y-134075000D01*
G75*
G02*
X194955000Y-134225000I-150000J0D01*
G01*
G37*
%TD.AperFunction*%
%TO.P,U2,2*%
%TA.AperFunction,SMDPad,CuDef*%
G36*
G01*
X193685000Y-134225000D02*
X193385000Y-134225000D01*
G75*
G02*
X193235000Y-134075000I0J150000D01*
G01*
X193235000Y-132775000D01*
G75*
G02*
X193385000Y-132625000I150000J0D01*
G01*
X193685000Y-132625000D01*
G75*
G02*
X193835000Y-132775000I0J-150000D01*
G01*
X193835000Y-134075000D01*
G75*
G02*
X193685000Y-134225000I-150000J0D01*
G01*
G37*
%TD.AperFunction*%
%TO.P,U2,1*%
%TO.N,Net-(C7-Pad2)*%
%TA.AperFunction,SMDPad,CuDef*%
G36*
G01*
X192415000Y-134225000D02*
X192115000Y-134225000D01*
G75*
G02*
X191965000Y-134075000I0J150000D01*
G01*
X191965000Y-132775000D01*
G75*
G02*
X192115000Y-132625000I150000J0D01*
G01*
X192415000Y-132625000D01*
G75*
G02*
X192565000Y-132775000I0J-150000D01*
G01*
X192565000Y-134075000D01*
G75*
G02*
X192415000Y-134225000I-150000J0D01*
G01*
G37*
%TD.AperFunction*%
%TD*%
D27*
%TO.P,U3,38*%
%TO.N,GND*%
X167665000Y-157360000D03*
%TO.P,U3,37*%
%TO.N,N/C*%
X167665000Y-156090000D03*
%TO.P,U3,36*%
%TO.N,SCL*%
X167665000Y-154820000D03*
%TO.P,U3,35*%
%TO.N,U0TX*%
X167665000Y-153550000D03*
%TO.P,U3,34*%
%TO.N,U0RX*%
X167665000Y-152280000D03*
%TO.P,U3,33*%
%TO.N,SDA*%
X167665000Y-151010000D03*
%TO.P,U3,32*%
%TO.N,N/C*%
X167665000Y-149740000D03*
%TO.P,U3,31*%
X167665000Y-148470000D03*
%TO.P,U3,30*%
X167665000Y-147200000D03*
%TO.P,U3,29*%
X167665000Y-145930000D03*
%TO.P,U3,28*%
%TO.N,TER3*%
X167665000Y-144660000D03*
%TO.P,U3,27*%
%TO.N,TER2*%
X167665000Y-143390000D03*
%TO.P,U3,26*%
%TO.N,N/C*%
X167665000Y-142120000D03*
%TO.P,U3,25*%
%TO.N,IO0*%
X167665000Y-140850000D03*
D28*
%TO.P,U3,24*%
%TO.N,N/C*%
X170450000Y-139850000D03*
%TO.P,U3,23*%
%TO.N,GRV5-2*%
X171720000Y-139850000D03*
%TO.P,U3,22*%
%TO.N,N/C*%
X172990000Y-139850000D03*
%TO.P,U3,21*%
X174260000Y-139850000D03*
%TO.P,U3,20*%
X175530000Y-139850000D03*
%TO.P,U3,19*%
X176800000Y-139850000D03*
%TO.P,U3,18*%
X178070000Y-139850000D03*
%TO.P,U3,17*%
X179340000Y-139850000D03*
%TO.P,U3,16*%
%TO.N,TER1*%
X180610000Y-139850000D03*
%TO.P,U3,15*%
%TO.N,GND*%
X181880000Y-139850000D03*
D27*
%TO.P,U3,14*%
%TO.N,N/C*%
X184665000Y-140850000D03*
%TO.P,U3,13*%
%TO.N,GRV5-1*%
X184665000Y-142120000D03*
%TO.P,U3,12*%
%TO.N,N/C*%
X184665000Y-143390000D03*
%TO.P,U3,11*%
%TO.N,GRV4-2*%
X184665000Y-144660000D03*
%TO.P,U3,10*%
%TO.N,GRV4-1*%
X184665000Y-145930000D03*
%TO.P,U3,9*%
%TO.N,GRV1-2*%
X184665000Y-147200000D03*
%TO.P,U3,8*%
%TO.N,GRV1-1*%
X184665000Y-148470000D03*
%TO.P,U3,7*%
%TO.N,GRV2-2*%
X184665000Y-149740000D03*
%TO.P,U3,6*%
%TO.N,GRV2-1*%
X184665000Y-151010000D03*
%TO.P,U3,5*%
%TO.N,N/C*%
X184665000Y-152280000D03*
%TO.P,U3,4*%
X184665000Y-153550000D03*
%TO.P,U3,3*%
%TO.N,EN*%
X184665000Y-154820000D03*
%TO.P,U3,2*%
%TO.N,+3V3*%
X184665000Y-156090000D03*
%TO.P,U3,1*%
%TO.N,GND*%
X184665000Y-157360000D03*
D29*
%TO.P,U3,39*%
X177165000Y-149860000D03*
%TD*%
D30*
%TO.P,U4,2*%
%TO.N,+3V3*%
X158725000Y-142875000D03*
D31*
X152425000Y-142875000D03*
%TO.P,U4,3*%
%TO.N,+5V*%
X152425000Y-145175000D03*
%TO.P,U4,1*%
%TO.N,GND*%
X152425000Y-140575000D03*
%TD*%
D32*
%TO.P,U5,22*%
%TO.N,N/C*%
X154900000Y-157075000D03*
D33*
%TO.P,U5,15*%
X150900000Y-158075000D03*
D32*
%TO.P,U5,8*%
%TO.N,5V_USB*%
X149900000Y-154075000D03*
D33*
%TO.P,U5,1*%
%TO.N,N/C*%
X153900000Y-153075000D03*
%TO.P,U5,2*%
X153400000Y-153075000D03*
%TO.P,U5,3*%
%TO.N,GND*%
X152900000Y-153075000D03*
%TO.P,U5,4*%
%TO.N,Net-(J2-Pad3)*%
X152400000Y-153075000D03*
%TO.P,U5,5*%
%TO.N,Net-(J2-Pad2)*%
X151900000Y-153075000D03*
%TO.P,U5,6*%
%TO.N,Net-(C27-Pad2)*%
X151400000Y-153075000D03*
%TO.P,U5,7*%
%TO.N,5V_USB*%
X150900000Y-153075000D03*
D32*
%TO.P,U5,9*%
%TO.N,N/C*%
X149900000Y-154575000D03*
%TO.P,U5,10*%
X149900000Y-155075000D03*
%TO.P,U5,11*%
%TO.N,Net-(R12-Pad1)*%
X149900000Y-155575000D03*
%TO.P,U5,12*%
%TO.N,N/C*%
X149900000Y-156075000D03*
%TO.P,U5,13*%
X149900000Y-156575000D03*
%TO.P,U5,14*%
X149900000Y-157075000D03*
D33*
%TO.P,U5,16*%
X151400000Y-158075000D03*
%TO.P,U5,17*%
X151900000Y-158075000D03*
%TO.P,U5,18*%
X152400000Y-158075000D03*
%TO.P,U5,19*%
X152900000Y-158075000D03*
%TO.P,U5,20*%
X153400000Y-158075000D03*
%TO.P,U5,21*%
X153900000Y-158075000D03*
D32*
%TO.P,U5,23*%
X154900000Y-156575000D03*
%TO.P,U5,24*%
%TO.N,RTS*%
X154900000Y-156075000D03*
%TO.P,U5,25*%
%TO.N,U0TX*%
X154900000Y-155575000D03*
%TO.P,U5,26*%
%TO.N,Net-(R13-Pad1)*%
X154900000Y-155075000D03*
%TO.P,U5,27*%
%TO.N,N/C*%
X154900000Y-154575000D03*
%TO.P,U5,28*%
%TO.N,DTR*%
X154900000Y-154075000D03*
D34*
%TO.P,U5,29*%
%TO.N,GND*%
X152400000Y-155575000D03*
%TD*%
D25*
%TO.P,Q1,3*%
%TO.N,EN*%
X160020000Y-156480000D03*
%TO.P,Q1,2*%
%TO.N,Net-(Q1-Pad2)*%
X160970000Y-158480000D03*
%TO.P,Q1,1*%
%TO.N,RTS*%
X159070000Y-158480000D03*
%TD*%
%TO.P,Q2,1*%
%TO.N,DTR*%
X160970000Y-152670000D03*
%TO.P,Q2,2*%
%TO.N,Net-(Q2-Pad2)*%
X159070000Y-152670000D03*
%TO.P,Q2,3*%
%TO.N,IO0*%
X160020000Y-154670000D03*
%TD*%
%TO.P,C1,1*%
%TO.N,+3V3*%
%TA.AperFunction,SMDPad,CuDef*%
G36*
G01*
X186875000Y-157095000D02*
X186875000Y-156595000D01*
G75*
G02*
X187100000Y-156370000I225000J0D01*
G01*
X187550000Y-156370000D01*
G75*
G02*
X187775000Y-156595000I0J-225000D01*
G01*
X187775000Y-157095000D01*
G75*
G02*
X187550000Y-157320000I-225000J0D01*
G01*
X187100000Y-157320000D01*
G75*
G02*
X186875000Y-157095000I0J225000D01*
G01*
G37*
%TD.AperFunction*%
%TO.P,C1,2*%
%TO.N,GND*%
%TA.AperFunction,SMDPad,CuDef*%
G36*
G01*
X188425000Y-157095000D02*
X188425000Y-156595000D01*
G75*
G02*
X188650000Y-156370000I225000J0D01*
G01*
X189100000Y-156370000D01*
G75*
G02*
X189325000Y-156595000I0J-225000D01*
G01*
X189325000Y-157095000D01*
G75*
G02*
X189100000Y-157320000I-225000J0D01*
G01*
X188650000Y-157320000D01*
G75*
G02*
X188425000Y-157095000I0J225000D01*
G01*
G37*
%TD.AperFunction*%
%TD*%
%TO.P,C2,1*%
%TO.N,GND*%
%TA.AperFunction,SMDPad,CuDef*%
G36*
G01*
X154320001Y-114699000D02*
X153019999Y-114699000D01*
G75*
G02*
X152770000Y-114449001I0J249999D01*
G01*
X152770000Y-113798999D01*
G75*
G02*
X153019999Y-113549000I249999J0D01*
G01*
X154320001Y-113549000D01*
G75*
G02*
X154570000Y-113798999I0J-249999D01*
G01*
X154570000Y-114449001D01*
G75*
G02*
X154320001Y-114699000I-249999J0D01*
G01*
G37*
%TD.AperFunction*%
%TO.P,C2,2*%
%TO.N,+24V*%
%TA.AperFunction,SMDPad,CuDef*%
G36*
G01*
X154320001Y-111749000D02*
X153019999Y-111749000D01*
G75*
G02*
X152770000Y-111499001I0J249999D01*
G01*
X152770000Y-110848999D01*
G75*
G02*
X153019999Y-110599000I249999J0D01*
G01*
X154320001Y-110599000D01*
G75*
G02*
X154570000Y-110848999I0J-249999D01*
G01*
X154570000Y-111499001D01*
G75*
G02*
X154320001Y-111749000I-249999J0D01*
G01*
G37*
%TD.AperFunction*%
%TD*%
%TO.P,C3,2*%
%TO.N,+24V*%
%TA.AperFunction,SMDPad,CuDef*%
G36*
G01*
X195110000Y-124444999D02*
X195110000Y-125745001D01*
G75*
G02*
X194860001Y-125995000I-249999J0D01*
G01*
X194209999Y-125995000D01*
G75*
G02*
X193960000Y-125745001I0J249999D01*
G01*
X193960000Y-124444999D01*
G75*
G02*
X194209999Y-124195000I249999J0D01*
G01*
X194860001Y-124195000D01*
G75*
G02*
X195110000Y-124444999I0J-249999D01*
G01*
G37*
%TD.AperFunction*%
%TO.P,C3,1*%
%TO.N,GND*%
%TA.AperFunction,SMDPad,CuDef*%
G36*
G01*
X198060000Y-124444999D02*
X198060000Y-125745001D01*
G75*
G02*
X197810001Y-125995000I-249999J0D01*
G01*
X197159999Y-125995000D01*
G75*
G02*
X196910000Y-125745001I0J249999D01*
G01*
X196910000Y-124444999D01*
G75*
G02*
X197159999Y-124195000I249999J0D01*
G01*
X197810001Y-124195000D01*
G75*
G02*
X198060000Y-124444999I0J-249999D01*
G01*
G37*
%TD.AperFunction*%
%TD*%
%TO.P,C4,2*%
%TO.N,+24V*%
%TA.AperFunction,SMDPad,CuDef*%
G36*
G01*
X151907001Y-111749000D02*
X150606999Y-111749000D01*
G75*
G02*
X150357000Y-111499001I0J249999D01*
G01*
X150357000Y-110848999D01*
G75*
G02*
X150606999Y-110599000I249999J0D01*
G01*
X151907001Y-110599000D01*
G75*
G02*
X152157000Y-110848999I0J-249999D01*
G01*
X152157000Y-111499001D01*
G75*
G02*
X151907001Y-111749000I-249999J0D01*
G01*
G37*
%TD.AperFunction*%
%TO.P,C4,1*%
%TO.N,GND*%
%TA.AperFunction,SMDPad,CuDef*%
G36*
G01*
X151907001Y-114699000D02*
X150606999Y-114699000D01*
G75*
G02*
X150357000Y-114449001I0J249999D01*
G01*
X150357000Y-113798999D01*
G75*
G02*
X150606999Y-113549000I249999J0D01*
G01*
X151907001Y-113549000D01*
G75*
G02*
X152157000Y-113798999I0J-249999D01*
G01*
X152157000Y-114449001D01*
G75*
G02*
X151907001Y-114699000I-249999J0D01*
G01*
G37*
%TD.AperFunction*%
%TD*%
%TO.P,C5,1*%
%TO.N,GND*%
%TA.AperFunction,SMDPad,CuDef*%
G36*
G01*
X198060000Y-121904999D02*
X198060000Y-123205001D01*
G75*
G02*
X197810001Y-123455000I-249999J0D01*
G01*
X197159999Y-123455000D01*
G75*
G02*
X196910000Y-123205001I0J249999D01*
G01*
X196910000Y-121904999D01*
G75*
G02*
X197159999Y-121655000I249999J0D01*
G01*
X197810001Y-121655000D01*
G75*
G02*
X198060000Y-121904999I0J-249999D01*
G01*
G37*
%TD.AperFunction*%
%TO.P,C5,2*%
%TO.N,+24V*%
%TA.AperFunction,SMDPad,CuDef*%
G36*
G01*
X195110000Y-121904999D02*
X195110000Y-123205001D01*
G75*
G02*
X194860001Y-123455000I-249999J0D01*
G01*
X194209999Y-123455000D01*
G75*
G02*
X193960000Y-123205001I0J249999D01*
G01*
X193960000Y-121904999D01*
G75*
G02*
X194209999Y-121655000I249999J0D01*
G01*
X194860001Y-121655000D01*
G75*
G02*
X195110000Y-121904999I0J-249999D01*
G01*
G37*
%TD.AperFunction*%
%TD*%
%TO.P,C23,1*%
%TO.N,5V_USB*%
%TA.AperFunction,SMDPad,CuDef*%
G36*
G01*
X148770000Y-153830000D02*
X148770000Y-154780000D01*
G75*
G02*
X148520000Y-155030000I-250000J0D01*
G01*
X148020000Y-155030000D01*
G75*
G02*
X147770000Y-154780000I0J250000D01*
G01*
X147770000Y-153830000D01*
G75*
G02*
X148020000Y-153580000I250000J0D01*
G01*
X148520000Y-153580000D01*
G75*
G02*
X148770000Y-153830000I0J-250000D01*
G01*
G37*
%TD.AperFunction*%
%TO.P,C23,2*%
%TO.N,GND*%
%TA.AperFunction,SMDPad,CuDef*%
G36*
G01*
X146870000Y-153830000D02*
X146870000Y-154780000D01*
G75*
G02*
X146620000Y-155030000I-250000J0D01*
G01*
X146120000Y-155030000D01*
G75*
G02*
X145870000Y-154780000I0J250000D01*
G01*
X145870000Y-153830000D01*
G75*
G02*
X146120000Y-153580000I250000J0D01*
G01*
X146620000Y-153580000D01*
G75*
G02*
X146870000Y-153830000I0J-250000D01*
G01*
G37*
%TD.AperFunction*%
%TD*%
%TO.P,C26,1*%
%TO.N,+5V*%
%TA.AperFunction,SMDPad,CuDef*%
G36*
G01*
X151585000Y-148176000D02*
X151585000Y-147226000D01*
G75*
G02*
X151835000Y-146976000I250000J0D01*
G01*
X152335000Y-146976000D01*
G75*
G02*
X152585000Y-147226000I0J-250000D01*
G01*
X152585000Y-148176000D01*
G75*
G02*
X152335000Y-148426000I-250000J0D01*
G01*
X151835000Y-148426000D01*
G75*
G02*
X151585000Y-148176000I0J250000D01*
G01*
G37*
%TD.AperFunction*%
%TO.P,C26,2*%
%TO.N,GND*%
%TA.AperFunction,SMDPad,CuDef*%
G36*
G01*
X153485000Y-148176000D02*
X153485000Y-147226000D01*
G75*
G02*
X153735000Y-146976000I250000J0D01*
G01*
X154235000Y-146976000D01*
G75*
G02*
X154485000Y-147226000I0J-250000D01*
G01*
X154485000Y-148176000D01*
G75*
G02*
X154235000Y-148426000I-250000J0D01*
G01*
X153735000Y-148426000D01*
G75*
G02*
X153485000Y-148176000I0J250000D01*
G01*
G37*
%TD.AperFunction*%
%TD*%
%TO.P,C28,2*%
%TO.N,GND*%
%TA.AperFunction,SMDPad,CuDef*%
G36*
G01*
X160815000Y-145725000D02*
X161765000Y-145725000D01*
G75*
G02*
X162015000Y-145975000I0J-250000D01*
G01*
X162015000Y-146475000D01*
G75*
G02*
X161765000Y-146725000I-250000J0D01*
G01*
X160815000Y-146725000D01*
G75*
G02*
X160565000Y-146475000I0J250000D01*
G01*
X160565000Y-145975000D01*
G75*
G02*
X160815000Y-145725000I250000J0D01*
G01*
G37*
%TD.AperFunction*%
%TO.P,C28,1*%
%TO.N,+3V3*%
%TA.AperFunction,SMDPad,CuDef*%
G36*
G01*
X160815000Y-143825000D02*
X161765000Y-143825000D01*
G75*
G02*
X162015000Y-144075000I0J-250000D01*
G01*
X162015000Y-144575000D01*
G75*
G02*
X161765000Y-144825000I-250000J0D01*
G01*
X160815000Y-144825000D01*
G75*
G02*
X160565000Y-144575000I0J250000D01*
G01*
X160565000Y-144075000D01*
G75*
G02*
X160815000Y-143825000I250000J0D01*
G01*
G37*
%TD.AperFunction*%
%TD*%
%TO.P,C12,1*%
%TO.N,Net-(C12-Pad1)*%
%TA.AperFunction,SMDPad,CuDef*%
G36*
G01*
X156685000Y-122100000D02*
X155735000Y-122100000D01*
G75*
G02*
X155485000Y-121850000I0J250000D01*
G01*
X155485000Y-121350000D01*
G75*
G02*
X155735000Y-121100000I250000J0D01*
G01*
X156685000Y-121100000D01*
G75*
G02*
X156935000Y-121350000I0J-250000D01*
G01*
X156935000Y-121850000D01*
G75*
G02*
X156685000Y-122100000I-250000J0D01*
G01*
G37*
%TD.AperFunction*%
%TO.P,C12,2*%
%TO.N,Net-(C12-Pad2)*%
%TA.AperFunction,SMDPad,CuDef*%
G36*
G01*
X156685000Y-120200000D02*
X155735000Y-120200000D01*
G75*
G02*
X155485000Y-119950000I0J250000D01*
G01*
X155485000Y-119450000D01*
G75*
G02*
X155735000Y-119200000I250000J0D01*
G01*
X156685000Y-119200000D01*
G75*
G02*
X156935000Y-119450000I0J-250000D01*
G01*
X156935000Y-119950000D01*
G75*
G02*
X156685000Y-120200000I-250000J0D01*
G01*
G37*
%TD.AperFunction*%
%TD*%
D35*
%TO.N,+3V3*%
X163830000Y-153035000D03*
X163830000Y-150495000D03*
X156464000Y-129540000D03*
X162052000Y-129540000D03*
X125984000Y-122936000D03*
X125984000Y-108712000D03*
X161036000Y-142240000D03*
X204216000Y-155956000D03*
X204216000Y-142748000D03*
X204216000Y-130048000D03*
X204216000Y-116332000D03*
X162560000Y-136144000D03*
X136448009Y-121797701D03*
%TO.N,GND*%
X154940000Y-147320000D03*
X151765000Y-149225000D03*
X153670000Y-159385000D03*
X153670000Y-151765000D03*
X169545000Y-157410001D03*
X182880000Y-158115000D03*
X177165000Y-153035000D03*
X190500000Y-154940000D03*
X190500000Y-156845000D03*
X161290000Y-147320000D03*
X135255000Y-163830000D03*
X137795000Y-163195000D03*
X139065000Y-158750000D03*
X133985000Y-152400000D03*
X139065000Y-149225000D03*
X133985000Y-139700000D03*
X139065000Y-136525000D03*
X139065000Y-146050000D03*
X139065000Y-133350000D03*
X139065000Y-157480000D03*
X139065000Y-144780000D03*
X139065000Y-132080000D03*
X146685000Y-158115000D03*
X144780000Y-154305000D03*
X144780000Y-152400000D03*
X191516000Y-118364000D03*
X192532000Y-118364000D03*
X175768000Y-120396000D03*
X177292000Y-120396000D03*
X177800000Y-114300000D03*
X171135000Y-132141000D03*
X171135000Y-129479000D03*
X171135000Y-127061000D03*
X171135000Y-124521000D03*
X181864000Y-138176000D03*
X198120000Y-134620000D03*
X198120000Y-148336000D03*
X200660000Y-162560000D03*
X180970000Y-103510000D03*
X180970000Y-106050000D03*
X180970000Y-108590000D03*
X155448000Y-106172000D03*
X155448000Y-107696000D03*
X197104000Y-130048000D03*
X197612000Y-131064000D03*
X154432000Y-122936000D03*
X159512000Y-121412000D03*
X159512000Y-122936000D03*
X132588000Y-117856000D03*
X132588000Y-104140000D03*
X162052000Y-118872000D03*
X160528000Y-118872000D03*
X154432000Y-134112000D03*
X159004000Y-134112000D03*
X190500000Y-118364001D03*
X161300000Y-120000000D03*
X153035000Y-115570000D03*
X151765000Y-115570000D03*
X152400000Y-116205000D03*
X198120000Y-120650000D03*
X198755000Y-125095000D03*
X198755000Y-123825000D03*
X200025000Y-124460000D03*
X142875000Y-141870000D03*
%TO.N,+24V*%
X199390000Y-102235000D03*
X199390000Y-103505000D03*
X129540000Y-140208000D03*
X129540000Y-152908000D03*
X129540000Y-127508000D03*
X200400000Y-102800000D03*
X151130000Y-109855000D03*
X152400000Y-109855000D03*
X153670000Y-109855000D03*
X193675000Y-120650000D03*
X194945000Y-120650000D03*
X196215000Y-120650000D03*
%TO.N,Net-(C12-Pad2)*%
X158115000Y-118491000D03*
X157480000Y-102616000D03*
%TO.N,+12V*%
X154940000Y-115824000D03*
X165608000Y-119380000D03*
X167132000Y-119380000D03*
X129540000Y-145680000D03*
X129540000Y-157988000D03*
X129540000Y-132588000D03*
X166400000Y-120400000D03*
%TO.N,+5V*%
X186436000Y-118364000D03*
X187452000Y-118364000D03*
X154432000Y-145288000D03*
X206248000Y-120904000D03*
X206248000Y-134112000D03*
X206248000Y-147320000D03*
X206248000Y-160528000D03*
X124460000Y-104648000D03*
X127197989Y-117545989D03*
X133604000Y-125984000D03*
X131064000Y-126492000D03*
X185400000Y-118200000D03*
%TO.N,Net-(C13-Pad2)*%
X180848000Y-119380000D03*
X196596000Y-132080000D03*
%TO.N,5V_USB*%
X149860000Y-159385000D03*
X149860000Y-152400000D03*
%TO.N,EN*%
X161290000Y-156210000D03*
X169545000Y-156210000D03*
%TO.N,TER1*%
X135128000Y-147828000D03*
X180340000Y-138176000D03*
%TO.N,TER2*%
X135128000Y-160528000D03*
X165608000Y-143764000D03*
%TO.N,TER3*%
X134723002Y-135128000D03*
X138684000Y-138176000D03*
%TO.N,Net-(J2-Pad2)*%
X151130000Y-159385000D03*
X151624217Y-151163368D03*
%TO.N,Net-(J2-Pad3)*%
X152130003Y-159385000D03*
X152597261Y-150932739D03*
%TO.N,GRV1-1*%
X201676000Y-137160000D03*
X207772000Y-115824000D03*
%TO.N,GRV1-2*%
X192024000Y-146812000D03*
X208497001Y-119670999D03*
%TO.N,Net-(J3-Pad3)*%
X198120000Y-119380000D03*
%TO.N,Net-(J4-Pad3)*%
X198120000Y-133096000D03*
%TO.N,SDA*%
X169455000Y-149860000D03*
X170905000Y-143256000D03*
X161544000Y-139700000D03*
X144780000Y-138901000D03*
X142206505Y-139158505D03*
X139192000Y-128524000D03*
%TO.N,SCL*%
X170180000Y-147320000D03*
X167640000Y-139192000D03*
%TO.N,Net-(J5-Pad3)*%
X132588000Y-106172000D03*
%TO.N,Net-(J7-Pad3)*%
X132588000Y-119888000D03*
%TO.N,Net-(J8-Pad3)*%
X198120000Y-146304000D03*
%TO.N,Net-(J9-Pad3)*%
X198120000Y-159004000D03*
%TO.N,GRV5-2*%
X172720000Y-143764000D03*
X197612000Y-157480000D03*
%TO.N,GRV5-1*%
X197612000Y-155448000D03*
X186436000Y-143340000D03*
%TO.N,IO0*%
X161290000Y-154940000D03*
X169244939Y-147866139D03*
X163068000Y-140799999D03*
X142748000Y-140716000D03*
X140716000Y-138901000D03*
X141481505Y-136652000D03*
X145999848Y-133400152D03*
X151892000Y-128016000D03*
%TO.N,DTR*%
X155485000Y-153035000D03*
X161925000Y-152619999D03*
%TO.N,Net-(JP1-Pad2)*%
X194564000Y-116332000D03*
%TO.N,Net-(JP2-Pad2)*%
X194564000Y-117856000D03*
%TO.N,Net-(JP4-Pad2)*%
X197104000Y-140208000D03*
%TO.N,Net-(JP5-Pad2)*%
X197104000Y-145288000D03*
%TD*%
D36*
%TO.N,+3V3*%
X186570000Y-156090000D02*
X184665000Y-156090000D01*
X187325000Y-156845000D02*
X186570000Y-156090000D01*
D37*
X152425000Y-142875000D02*
X158725000Y-142875000D01*
X165100000Y-148310000D02*
X161290000Y-144500000D01*
X165100000Y-148845000D02*
X165100000Y-148310000D01*
X160350000Y-144500000D02*
X158725000Y-142875000D01*
X161290000Y-144500000D02*
X160350000Y-144500000D01*
X163830000Y-155320000D02*
X163830000Y-153035000D01*
X165100000Y-156590000D02*
X163830000Y-155320000D01*
X163830000Y-150115000D02*
X165100000Y-148845000D01*
X163830000Y-150495000D02*
X163830000Y-150115000D01*
X180994999Y-158260001D02*
X183165000Y-156090000D01*
X166304999Y-158260001D02*
X180994999Y-158260001D01*
X165100000Y-157055002D02*
X166304999Y-158260001D01*
X183165000Y-156090000D02*
X184665000Y-156090000D01*
X165100000Y-156590000D02*
X165100000Y-157055002D01*
D36*
X156274000Y-129730000D02*
X156464000Y-129540000D01*
X154940000Y-129730000D02*
X156274000Y-129730000D01*
X161862000Y-129730000D02*
X162052000Y-129540000D01*
X160655000Y-129730000D02*
X161862000Y-129730000D01*
D38*
X160401000Y-142875000D02*
X161036000Y-142240000D01*
X158725000Y-142875000D02*
X160401000Y-142875000D01*
D36*
X162560000Y-130048000D02*
X162052000Y-129540000D01*
X162560000Y-136144000D02*
X162560000Y-130048000D01*
X156464000Y-130071478D02*
X156464000Y-129540000D01*
X159779521Y-133386999D02*
X156464000Y-130071478D01*
X159802999Y-133386999D02*
X159779521Y-133386999D01*
X162560000Y-136144000D02*
X159802999Y-133386999D01*
D37*
X151194307Y-136543999D02*
X136448009Y-121797701D01*
X162160001Y-136543999D02*
X151194307Y-136543999D01*
X162560000Y-136144000D02*
X162160001Y-136543999D01*
%TO.N,GND*%
X153810000Y-147320000D02*
X154940000Y-147320000D01*
X151270000Y-149720000D02*
X151765000Y-149225000D01*
X150495000Y-149720000D02*
X151270000Y-149720000D01*
D36*
X152900000Y-153805000D02*
X152900000Y-153075000D01*
X152400000Y-154305000D02*
X152900000Y-153805000D01*
X152400000Y-155575000D02*
X152400000Y-154305000D01*
D37*
X153065000Y-159990000D02*
X153670000Y-159385000D01*
X153065000Y-161130000D02*
X153065000Y-159990000D01*
D36*
X153460000Y-151765000D02*
X153670000Y-151765000D01*
X152900000Y-152325000D02*
X153460000Y-151765000D01*
X152900000Y-153075000D02*
X152900000Y-152325000D01*
D37*
X169494999Y-157360000D02*
X169545000Y-157410001D01*
X167665000Y-157360000D02*
X169494999Y-157360000D01*
X183635000Y-157360000D02*
X182880000Y-158115000D01*
X184665000Y-157360000D02*
X183635000Y-157360000D01*
X177165000Y-149860000D02*
X177165000Y-153035000D01*
X187949990Y-157770010D02*
X188875000Y-156845000D01*
X185075010Y-157770010D02*
X187949990Y-157770010D01*
X184665000Y-157360000D02*
X185075010Y-157770010D01*
X188875000Y-156845000D02*
X188875000Y-154940000D01*
X188875000Y-154940000D02*
X190500000Y-154940000D01*
X188875000Y-156845000D02*
X190500000Y-156845000D01*
X161290000Y-146050000D02*
X161290000Y-147320000D01*
D36*
X134048000Y-163830000D02*
X135255000Y-163830000D01*
X137858000Y-163132000D02*
X137795000Y-163195000D01*
X137858000Y-161925000D02*
X137858000Y-163132000D01*
D38*
X137983000Y-159832000D02*
X139065000Y-158750000D01*
X137983000Y-160385000D02*
X137983000Y-159832000D01*
D36*
X134048000Y-152337000D02*
X133985000Y-152400000D01*
X134048000Y-151130000D02*
X134048000Y-152337000D01*
X137858000Y-149225000D02*
X139065000Y-149225000D01*
X134048000Y-139637000D02*
X133985000Y-139700000D01*
X134048000Y-138430000D02*
X134048000Y-139637000D01*
X137858000Y-136525000D02*
X139065000Y-136525000D01*
D38*
X137983000Y-147132000D02*
X139065000Y-146050000D01*
X137983000Y-147685000D02*
X137983000Y-147132000D01*
X137983000Y-134432000D02*
X139065000Y-133350000D01*
X137983000Y-134985000D02*
X137983000Y-134432000D01*
X139065000Y-158750000D02*
X139065000Y-157480000D01*
X139065000Y-146050000D02*
X139065000Y-144780000D01*
X139065000Y-133350000D02*
X139065000Y-132080000D01*
D36*
X146875000Y-158305000D02*
X146685000Y-158115000D01*
X147955000Y-158305000D02*
X146875000Y-158305000D01*
X146545000Y-154305000D02*
X144780000Y-154305000D01*
X146545000Y-152400000D02*
X144780000Y-152400000D01*
D38*
X194805000Y-130140000D02*
X194805000Y-128125000D01*
X194170000Y-130775000D02*
X194805000Y-130140000D01*
D36*
X175895000Y-120269000D02*
X175768000Y-120396000D01*
X175895000Y-119380000D02*
X175895000Y-120269000D01*
X177610000Y-120078000D02*
X177292000Y-120396000D01*
X177610000Y-119380000D02*
X177610000Y-120078000D01*
X177660000Y-114440000D02*
X177800000Y-114300000D01*
X177660000Y-115570000D02*
X177660000Y-114440000D01*
D38*
X171135000Y-133350000D02*
X171135000Y-132141000D01*
X171135000Y-130810000D02*
X171135000Y-129479000D01*
X171135000Y-132141000D02*
X171135000Y-129479000D01*
X171135000Y-128270000D02*
X171135000Y-127061000D01*
X171135000Y-129479000D02*
X171135000Y-127061000D01*
X171135000Y-125730000D02*
X171135000Y-124521000D01*
X171135000Y-124521000D02*
X171135000Y-123190000D01*
X171135000Y-127061000D02*
X171135000Y-124521000D01*
D37*
X181880000Y-138192000D02*
X181864000Y-138176000D01*
X181880000Y-139850000D02*
X181880000Y-138192000D01*
X198215000Y-134715000D02*
X198120000Y-134620000D01*
X200660000Y-134715000D02*
X198215000Y-134715000D01*
X198406000Y-148050000D02*
X198120000Y-148336000D01*
X200660000Y-148050000D02*
X198406000Y-148050000D01*
X200660000Y-161385000D02*
X200660000Y-162560000D01*
D38*
X180970000Y-102235000D02*
X180970000Y-103510000D01*
X180975000Y-106045000D02*
X180970000Y-106050000D01*
X180975000Y-104775000D02*
X180975000Y-106045000D01*
X180970000Y-103510000D02*
X180970000Y-106050000D01*
X180970000Y-107315000D02*
X180970000Y-108590000D01*
X180970000Y-108590000D02*
X180970000Y-109855000D01*
X180970000Y-106050000D02*
X180970000Y-108590000D01*
D39*
X155956000Y-106680000D02*
X155448000Y-106172000D01*
X158750000Y-106680000D02*
X155956000Y-106680000D01*
X156464000Y-106680000D02*
X155448000Y-107696000D01*
X158750000Y-106680000D02*
X156464000Y-106680000D01*
X155448000Y-106172000D02*
X155448000Y-107696000D01*
X194897000Y-130048000D02*
X197104000Y-130048000D01*
X194170000Y-130775000D02*
X194897000Y-130048000D01*
X197104000Y-130556000D02*
X197612000Y-131064000D01*
X197104000Y-130048000D02*
X197104000Y-130556000D01*
D38*
X158115000Y-107315000D02*
X158750000Y-106680000D01*
X158115000Y-109330000D02*
X158115000Y-107315000D01*
D39*
X191770000Y-118618000D02*
X191516000Y-118364000D01*
X191770000Y-120650000D02*
X191770000Y-118618000D01*
X191770000Y-119126000D02*
X192532000Y-118364000D01*
X191770000Y-120650000D02*
X191770000Y-119126000D01*
X192532000Y-118364000D02*
X191516000Y-118364000D01*
D36*
X154305000Y-122809000D02*
X154432000Y-122936000D01*
X154305000Y-121565000D02*
X154305000Y-122809000D01*
X159259000Y-121665000D02*
X159512000Y-121412000D01*
X158115000Y-121665000D02*
X159259000Y-121665000D01*
X159258000Y-123190000D02*
X159512000Y-122936000D01*
X158115000Y-123190000D02*
X159258000Y-123190000D01*
X132429000Y-118015000D02*
X132588000Y-117856000D01*
D37*
X130143000Y-104140000D02*
X130048000Y-104045000D01*
X132588000Y-104140000D02*
X130143000Y-104140000D01*
X130207000Y-117856000D02*
X130048000Y-118015000D01*
X132588000Y-117856000D02*
X130207000Y-117856000D01*
D39*
X161290000Y-118110000D02*
X162052000Y-118872000D01*
X161290000Y-116935000D02*
X161290000Y-118110000D01*
X161290000Y-118110000D02*
X160528000Y-118872000D01*
X162052000Y-118872000D02*
X160528000Y-118872000D01*
D36*
X159385000Y-134493000D02*
X159004000Y-134112000D01*
X159385000Y-135450000D02*
X159385000Y-134493000D01*
D39*
X191770000Y-119634001D02*
X190500000Y-118364001D01*
X191770000Y-120650000D02*
X191770000Y-119634001D01*
X192531999Y-118364001D02*
X192532000Y-118364000D01*
X190500000Y-118364001D02*
X192531999Y-118364001D01*
X161290000Y-119990000D02*
X161300000Y-120000000D01*
X161290000Y-116935000D02*
X161290000Y-119990000D01*
X160528000Y-119228000D02*
X161300000Y-120000000D01*
X160528000Y-118872000D02*
X160528000Y-119228000D01*
X162052000Y-119248000D02*
X161300000Y-120000000D01*
X162052000Y-118872000D02*
X162052000Y-119248000D01*
X153670000Y-114935000D02*
X153035000Y-115570000D01*
X153670000Y-114124000D02*
X153670000Y-114935000D01*
X151257000Y-114124000D02*
X153670000Y-114124000D01*
X151257000Y-115062000D02*
X151765000Y-115570000D01*
X151257000Y-114124000D02*
X151257000Y-115062000D01*
X151765000Y-115570000D02*
X152400000Y-116205000D01*
X153035000Y-115570000D02*
X152400000Y-116205000D01*
X151589000Y-114124000D02*
X153035000Y-115570000D01*
X151257000Y-114124000D02*
X151589000Y-114124000D01*
X153211000Y-114124000D02*
X151765000Y-115570000D01*
X153670000Y-114124000D02*
X153211000Y-114124000D01*
D36*
X198850000Y-121380000D02*
X198120000Y-120650000D01*
X200660000Y-121380000D02*
X198850000Y-121380000D01*
D39*
X197485000Y-122555000D02*
X197485000Y-125095000D01*
X197485000Y-125095000D02*
X198755000Y-125095000D01*
X198755000Y-125095000D02*
X198755000Y-123825000D01*
X199390000Y-125095000D02*
X200025000Y-124460000D01*
X198755000Y-125095000D02*
X199390000Y-125095000D01*
X199390000Y-123825000D02*
X200025000Y-124460000D01*
X198755000Y-123825000D02*
X199390000Y-123825000D01*
X198755000Y-123825000D02*
X197485000Y-122555000D01*
X199390000Y-124460000D02*
X197485000Y-122555000D01*
X200025000Y-124460000D02*
X199390000Y-124460000D01*
D37*
X154305000Y-134239000D02*
X154432000Y-134112000D01*
X154305000Y-135450000D02*
X154305000Y-134239000D01*
D36*
X142875000Y-141662002D02*
X142875000Y-141870000D01*
X143962002Y-140575000D02*
X142875000Y-141662002D01*
X152425000Y-140575000D02*
X143962002Y-140575000D01*
D39*
%TO.N,+24V*%
X198660000Y-102775000D02*
X199390000Y-103505000D01*
X196850000Y-102775000D02*
X198660000Y-102775000D01*
X198850000Y-102775000D02*
X199390000Y-102235000D01*
X196850000Y-102775000D02*
X198850000Y-102775000D01*
X199390000Y-102235000D02*
X199390000Y-103505000D01*
X200375000Y-102775000D02*
X200400000Y-102800000D01*
X196850000Y-102775000D02*
X200375000Y-102775000D01*
X199695000Y-103505000D02*
X200400000Y-102800000D01*
X199390000Y-103505000D02*
X199695000Y-103505000D01*
X199835000Y-102235000D02*
X200400000Y-102800000D01*
X199390000Y-102235000D02*
X199835000Y-102235000D01*
X151257000Y-111174000D02*
X153670000Y-111174000D01*
X153670000Y-111174000D02*
X158701000Y-111174000D01*
D38*
X159385000Y-110490000D02*
X159385000Y-109330000D01*
X158701000Y-111174000D02*
X159385000Y-110490000D01*
D39*
X153670000Y-111125000D02*
X152400000Y-109855000D01*
X153670000Y-111174000D02*
X153670000Y-111125000D01*
X153670000Y-111174000D02*
X153670000Y-109855000D01*
X153670000Y-109855000D02*
X151130000Y-109855000D01*
X151130000Y-111047000D02*
X151257000Y-111174000D01*
X151130000Y-109855000D02*
X151130000Y-111047000D01*
X194535000Y-122555000D02*
X194535000Y-125095000D01*
X194535000Y-125095000D02*
X193715010Y-125914990D01*
D38*
X193535000Y-126095000D02*
X193715010Y-125914990D01*
X193535000Y-128125000D02*
X193535000Y-126095000D01*
D39*
X194535000Y-121510000D02*
X193675000Y-120650000D01*
X194535000Y-122555000D02*
X194535000Y-121510000D01*
X193675000Y-120650000D02*
X194945000Y-120650000D01*
X194945000Y-120650000D02*
X196215000Y-120650000D01*
X196215000Y-120875000D02*
X194535000Y-122555000D01*
X196215000Y-120650000D02*
X196215000Y-120875000D01*
D37*
%TO.N,Net-(C6-Pad2)*%
X160655000Y-102095000D02*
X161150000Y-101600000D01*
X160655000Y-104030000D02*
X160655000Y-102095000D01*
%TO.N,Net-(C6-Pad1)*%
X164795000Y-103695000D02*
X162700000Y-101600000D01*
X164795000Y-106680000D02*
X164795000Y-103695000D01*
D39*
X161290000Y-110185000D02*
X164795000Y-106680000D01*
X161290000Y-112935000D02*
X161290000Y-110185000D01*
X161290000Y-109965000D02*
X161290000Y-110185000D01*
D38*
X160655000Y-109330000D02*
X161290000Y-109965000D01*
D37*
%TO.N,Net-(C7-Pad2)*%
X192265000Y-135535000D02*
X191910000Y-135890000D01*
X192265000Y-133425000D02*
X192265000Y-135535000D01*
%TO.N,Net-(C7-Pad1)*%
X188265000Y-133795000D02*
X190360000Y-135890000D01*
X188265000Y-130810000D02*
X188265000Y-133795000D01*
D38*
X192265000Y-125145000D02*
X191770000Y-124650000D01*
X192265000Y-128125000D02*
X192265000Y-125145000D01*
D39*
X191625000Y-128633000D02*
X191625000Y-128125000D01*
X189448000Y-130810000D02*
X191625000Y-128633000D01*
X188265000Y-130810000D02*
X189448000Y-130810000D01*
D38*
X192265000Y-128125000D02*
X191625000Y-128125000D01*
D39*
X191625000Y-124795000D02*
X191770000Y-124650000D01*
X191625000Y-128125000D02*
X191625000Y-124795000D01*
D36*
%TO.N,Net-(C12-Pad2)*%
X154305000Y-120015000D02*
X156210000Y-120015000D01*
X156210000Y-120015000D02*
X158115000Y-120015000D01*
X158015000Y-117120000D02*
X158115000Y-117220000D01*
X156210000Y-117120000D02*
X158015000Y-117120000D01*
X158115000Y-117220000D02*
X158115000Y-118491000D01*
X158115000Y-120015000D02*
X158115000Y-118491000D01*
X156845000Y-103251000D02*
X157480000Y-102616000D01*
X156845000Y-104030000D02*
X156845000Y-103251000D01*
%TO.N,+12V*%
X158115000Y-115570000D02*
X156210000Y-115570000D01*
X155194000Y-115570000D02*
X154940000Y-115824000D01*
X156210000Y-115570000D02*
X155194000Y-115570000D01*
D39*
X166370000Y-118618000D02*
X165608000Y-119380000D01*
X165608000Y-119380000D02*
X167132000Y-119380000D01*
X166370000Y-118618000D02*
X167132000Y-119380000D01*
X166370000Y-118110000D02*
X166370000Y-118618000D01*
X166370000Y-120370000D02*
X166400000Y-120400000D01*
X166370000Y-118110000D02*
X166370000Y-120370000D01*
X165608000Y-119608000D02*
X166400000Y-120400000D01*
X165608000Y-119380000D02*
X165608000Y-119608000D01*
X167132000Y-119668000D02*
X166400000Y-120400000D01*
X167132000Y-119380000D02*
X167132000Y-119668000D01*
D37*
%TO.N,+5V*%
X152425000Y-147155000D02*
X152260000Y-147320000D01*
X152425000Y-145175000D02*
X152425000Y-147155000D01*
D36*
X183655000Y-119330000D02*
X183705000Y-119380000D01*
X183655000Y-117475000D02*
X183655000Y-119330000D01*
X186520000Y-119380000D02*
X186690000Y-119550000D01*
X183705000Y-119380000D02*
X186520000Y-119380000D01*
D38*
X141160000Y-142970000D02*
X137160000Y-138970000D01*
X149225000Y-142970000D02*
X141160000Y-142970000D01*
X141160000Y-149570000D02*
X141160000Y-142970000D01*
X139060000Y-151670000D02*
X141160000Y-149570000D01*
X137160000Y-151670000D02*
X139060000Y-151670000D01*
X151430000Y-145175000D02*
X149225000Y-142970000D01*
X152425000Y-145175000D02*
X151430000Y-145175000D01*
X154319000Y-145175000D02*
X154432000Y-145288000D01*
X152425000Y-145175000D02*
X154319000Y-145175000D01*
X123602999Y-129120001D02*
X127197989Y-125525011D01*
X123602999Y-137485001D02*
X123602999Y-129120001D01*
X127197989Y-107385989D02*
X124460000Y-104648000D01*
X124642999Y-138525001D02*
X123602999Y-137485001D01*
X129905933Y-138525001D02*
X124642999Y-138525001D01*
X132180933Y-140800001D02*
X129905933Y-138525001D01*
X135329999Y-140800001D02*
X132180933Y-140800001D01*
X137160000Y-138970000D02*
X135329999Y-140800001D01*
X127197989Y-117545989D02*
X127197989Y-107385989D01*
X127197989Y-125525011D02*
X127197989Y-117545989D01*
X133890000Y-126270000D02*
X133604000Y-125984000D01*
X137160000Y-126270000D02*
X133890000Y-126270000D01*
X130097011Y-125525011D02*
X127197989Y-125525011D01*
X131064000Y-126492000D02*
X130097011Y-125525011D01*
D39*
X186690000Y-119126000D02*
X187452000Y-118364000D01*
X186690000Y-119550000D02*
X186690000Y-119126000D01*
X186690000Y-118618000D02*
X186436000Y-118364000D01*
X186690000Y-119550000D02*
X186690000Y-118618000D01*
X186690000Y-119490000D02*
X185400000Y-118200000D01*
X186690000Y-119550000D02*
X186690000Y-119490000D01*
X187288000Y-118200000D02*
X187452000Y-118364000D01*
X185400000Y-118200000D02*
X187288000Y-118200000D01*
D36*
%TO.N,Net-(C13-Pad2)*%
X179260000Y-117525000D02*
X179210000Y-117475000D01*
X179260000Y-119380000D02*
X179260000Y-117525000D01*
X179210000Y-117475000D02*
X179210000Y-115570000D01*
X182105000Y-119330000D02*
X182055000Y-119380000D01*
X182105000Y-117475000D02*
X182105000Y-119330000D01*
X179260000Y-119380000D02*
X180848000Y-119380000D01*
X182055000Y-119380000D02*
X180848000Y-119380000D01*
X196596000Y-132904000D02*
X196075000Y-133425000D01*
X196596000Y-132080000D02*
X196596000Y-132904000D01*
D39*
%TO.N,Net-(C10-Pad2)*%
X178435000Y-106680000D02*
X179070000Y-107315000D01*
X174295000Y-106680000D02*
X178435000Y-106680000D01*
X174879000Y-114046000D02*
X179070000Y-109855000D01*
X174879000Y-114300000D02*
X174879000Y-114046000D01*
X179070000Y-109855000D02*
X179070000Y-102235000D01*
%TO.N,Net-(C11-Pad2)*%
X178765000Y-130810000D02*
X173035000Y-130810000D01*
X178245000Y-123190000D02*
X173035000Y-123190000D01*
X173035000Y-123190000D02*
X173035000Y-133350000D01*
D36*
%TO.N,Net-(C12-Pad1)*%
X156465000Y-121820000D02*
X156210000Y-121565000D01*
X156465000Y-123190000D02*
X156465000Y-121820000D01*
%TO.N,Net-(C13-Pad1)*%
X177405000Y-117730000D02*
X177660000Y-117475000D01*
X175895000Y-117730000D02*
X177405000Y-117730000D01*
%TO.N,5V_USB*%
X148325000Y-154075000D02*
X148095000Y-154305000D01*
X148770000Y-153075000D02*
X148095000Y-152400000D01*
X150900000Y-153075000D02*
X148770000Y-153075000D01*
X148095000Y-154305000D02*
X148095000Y-154165000D01*
X148185000Y-154075000D02*
X149900000Y-154075000D01*
X148095000Y-154165000D02*
X148185000Y-154075000D01*
X148095000Y-153750000D02*
X148770000Y-153075000D01*
X148095000Y-154305000D02*
X148095000Y-153750000D01*
X149185000Y-153075000D02*
X148770000Y-153075000D01*
X149860000Y-152400000D02*
X149185000Y-153075000D01*
D37*
X150465000Y-159990000D02*
X149860000Y-159385000D01*
X150465000Y-161130000D02*
X150465000Y-159990000D01*
X149460001Y-147205001D02*
X149225000Y-146970000D01*
X149460001Y-152000001D02*
X149460001Y-147205001D01*
X149860000Y-152400000D02*
X149460001Y-152000001D01*
D36*
%TO.N,EN*%
X160020000Y-156480000D02*
X160385000Y-156480000D01*
X160655000Y-156210000D02*
X161290000Y-156210000D01*
X160385000Y-156480000D02*
X160655000Y-156210000D01*
X170935000Y-154820000D02*
X184665000Y-154820000D01*
X169545000Y-156210000D02*
X170935000Y-154820000D01*
X184785000Y-154940000D02*
X184665000Y-154820000D01*
X187325000Y-154940000D02*
X184785000Y-154940000D01*
X158750000Y-128080000D02*
X160655000Y-128080000D01*
X182655001Y-154060001D02*
X182655001Y-137893999D01*
X183415000Y-154820000D02*
X182655001Y-154060001D01*
X182655001Y-137893999D02*
X181413002Y-136652000D01*
X184665000Y-154820000D02*
X183415000Y-154820000D01*
X181413002Y-136652000D02*
X170180000Y-136652000D01*
X161665002Y-128080000D02*
X160655000Y-128080000D01*
X170180000Y-136594998D02*
X161665002Y-128080000D01*
X170180000Y-136652000D02*
X170180000Y-136594998D01*
%TO.N,Net-(C27-Pad2)*%
X151400000Y-152175000D02*
X150495000Y-151270000D01*
X151400000Y-153075000D02*
X151400000Y-152175000D01*
D39*
%TO.N,Net-(D1-Pad2)*%
X196850000Y-109622500D02*
X196850000Y-106775000D01*
%TO.N,Net-(D4-Pad1)*%
X166835000Y-114300000D02*
X166370000Y-113835000D01*
X170879000Y-114300000D02*
X166835000Y-114300000D01*
%TO.N,Net-(D5-Pad1)*%
X182880000Y-123825000D02*
X182245000Y-123190000D01*
X186690000Y-123825000D02*
X182880000Y-123825000D01*
D38*
%TO.N,LOAD1_POS*%
X133413000Y-142970000D02*
X133223000Y-142780000D01*
X137160000Y-142970000D02*
X133413000Y-142970000D01*
X126968000Y-142780000D02*
X125603000Y-144145000D01*
X133223000Y-142780000D02*
X126968000Y-142780000D01*
%TO.N,LOAD2_POS*%
X133413000Y-155670000D02*
X133223000Y-155480000D01*
X137160000Y-155670000D02*
X133413000Y-155670000D01*
X131858000Y-156845000D02*
X133223000Y-155480000D01*
X125603000Y-156845000D02*
X131858000Y-156845000D01*
%TO.N,LOAD3_POS*%
X133413000Y-130270000D02*
X133223000Y-130080000D01*
X137160000Y-130270000D02*
X133413000Y-130270000D01*
X126968000Y-130080000D02*
X125603000Y-131445000D01*
X133223000Y-130080000D02*
X126968000Y-130080000D01*
D36*
%TO.N,Net-(D10-Pad1)*%
X132435500Y-151092500D02*
X132398000Y-151130000D01*
X132435500Y-149225000D02*
X132435500Y-151092500D01*
%TO.N,TER1*%
X136083000Y-149100000D02*
X136208000Y-149225000D01*
X136083000Y-147685000D02*
X136083000Y-149100000D01*
X136208000Y-149225000D02*
X134010500Y-149225000D01*
X135271000Y-147685000D02*
X135128000Y-147828000D01*
X136083000Y-147685000D02*
X135271000Y-147685000D01*
X180340000Y-139580000D02*
X180610000Y-139850000D01*
X180340000Y-138176000D02*
X180340000Y-139580000D01*
%TO.N,TER2*%
X134010500Y-161925000D02*
X136208000Y-161925000D01*
X136208000Y-160510000D02*
X136083000Y-160385000D01*
X136208000Y-161925000D02*
X136208000Y-160510000D01*
X135271000Y-160385000D02*
X135128000Y-160528000D01*
X136083000Y-160385000D02*
X135271000Y-160385000D01*
X167291000Y-143764000D02*
X167665000Y-143390000D01*
X165608000Y-143764000D02*
X167291000Y-143764000D01*
%TO.N,Net-(D11-Pad1)*%
X132398000Y-161962500D02*
X132435500Y-161925000D01*
X132398000Y-163830000D02*
X132398000Y-161962500D01*
%TO.N,Net-(D12-Pad1)*%
X132435500Y-138392500D02*
X132398000Y-138430000D01*
X132435500Y-136525000D02*
X132435500Y-138392500D01*
%TO.N,TER3*%
X136083000Y-136400000D02*
X136208000Y-136525000D01*
X136083000Y-134985000D02*
X136083000Y-136400000D01*
X136208000Y-136525000D02*
X134010500Y-136525000D01*
X134866002Y-134985000D02*
X134723002Y-135128000D01*
X136083000Y-134985000D02*
X134866002Y-134985000D01*
X165430998Y-144660000D02*
X167665000Y-144660000D01*
X158946998Y-138176000D02*
X165430998Y-144660000D01*
X138684000Y-138176000D02*
X158946998Y-138176000D01*
D38*
%TO.N,LOAD1_NEG*%
X134318000Y-145685000D02*
X133223000Y-146780000D01*
X137033000Y-145685000D02*
X134318000Y-145685000D01*
X128048000Y-146780000D02*
X125603000Y-149225000D01*
X133223000Y-146780000D02*
X128048000Y-146780000D01*
%TO.N,LOAD2_NEG*%
X134318000Y-158385000D02*
X133223000Y-159480000D01*
X137033000Y-158385000D02*
X134318000Y-158385000D01*
X128048000Y-159480000D02*
X125603000Y-161925000D01*
X133223000Y-159480000D02*
X128048000Y-159480000D01*
%TO.N,LOAD3_NEG*%
X134318000Y-132985000D02*
X133223000Y-134080000D01*
X137033000Y-132985000D02*
X134318000Y-132985000D01*
X128048000Y-134080000D02*
X125603000Y-136525000D01*
X133223000Y-134080000D02*
X128048000Y-134080000D01*
D39*
%TO.N,Net-(F1-Pad2)*%
X196447500Y-114300000D02*
X196850000Y-113897500D01*
X189865000Y-114300000D02*
X196447500Y-114300000D01*
D36*
%TO.N,Net-(J2-Pad2)*%
X151115000Y-159400000D02*
X151130000Y-159385000D01*
X151115000Y-161130000D02*
X151115000Y-159400000D01*
X151890153Y-153065153D02*
X151900000Y-153075000D01*
X151900000Y-151439151D02*
X151900000Y-153075000D01*
X151624217Y-151163368D02*
X151900000Y-151439151D01*
%TO.N,Net-(J2-Pad3)*%
X151765000Y-159750003D02*
X152130003Y-159385000D01*
X151765000Y-161130000D02*
X151765000Y-159750003D01*
X152400000Y-152339564D02*
X152400000Y-153075000D01*
X152400000Y-151130000D02*
X152597261Y-150932739D01*
X152400000Y-153075000D02*
X152400000Y-151130000D01*
D37*
%TO.N,GRV1-1*%
X200216000Y-115824000D02*
X200660000Y-115380000D01*
X197675000Y-115824000D02*
X200216000Y-115824000D01*
D36*
X183339999Y-140139999D02*
X185303998Y-138176000D01*
X183339999Y-148394999D02*
X183339999Y-140139999D01*
X183415000Y-148470000D02*
X183339999Y-148394999D01*
X184665000Y-148470000D02*
X183415000Y-148470000D01*
X200660000Y-138176000D02*
X201676000Y-137160000D01*
X185303998Y-138176000D02*
X200660000Y-138176000D01*
X200704001Y-115424001D02*
X200660000Y-115380000D01*
X207372001Y-115424001D02*
X200704001Y-115424001D01*
X207772000Y-115824000D02*
X207372001Y-115424001D01*
D37*
%TO.N,GRV1-2*%
X200184000Y-117856000D02*
X200660000Y-117380000D01*
X197675000Y-117856000D02*
X200184000Y-117856000D01*
D36*
X191636000Y-147200000D02*
X192024000Y-146812000D01*
X184665000Y-147200000D02*
X191636000Y-147200000D01*
X206206002Y-117380000D02*
X208497001Y-119670999D01*
X200660000Y-117380000D02*
X206206002Y-117380000D01*
D37*
%TO.N,Net-(J3-Pad3)*%
X198120000Y-119380000D02*
X200660000Y-119380000D01*
D36*
%TO.N,GRV2-1*%
X204941001Y-150233997D02*
X204941001Y-132210999D01*
X204941001Y-132210999D02*
X201445002Y-128715000D01*
X204164998Y-151010000D02*
X204941001Y-150233997D01*
X201445002Y-128715000D02*
X200660000Y-128715000D01*
X184665000Y-151010000D02*
X204164998Y-151010000D01*
%TO.N,GRV2-2*%
X202610000Y-130715000D02*
X200660000Y-130715000D01*
X203135010Y-131240010D02*
X202610000Y-130715000D01*
X203135010Y-148359992D02*
X203135010Y-131240010D01*
X201755002Y-149740000D02*
X203135010Y-148359992D01*
X184665000Y-149740000D02*
X201755002Y-149740000D01*
D37*
%TO.N,Net-(J4-Pad3)*%
X200279000Y-133096000D02*
X200660000Y-132715000D01*
X198120000Y-133096000D02*
X200279000Y-133096000D01*
D36*
%TO.N,SDA*%
X165615000Y-151010000D02*
X165100000Y-150495000D01*
X167665000Y-151010000D02*
X165615000Y-151010000D01*
X169455000Y-150470000D02*
X169455000Y-149860000D01*
X168915000Y-151010000D02*
X169455000Y-150470000D01*
X167665000Y-151010000D02*
X168915000Y-151010000D01*
X161918999Y-140074999D02*
X161544000Y-139700000D01*
X168990001Y-140139999D02*
X168925001Y-140074999D01*
X168925001Y-140074999D02*
X161918999Y-140074999D01*
X168990001Y-140288591D02*
X168990001Y-140139999D01*
X169694948Y-140993538D02*
X168990001Y-140288591D01*
X169694948Y-142045948D02*
X169694948Y-140993538D01*
X170905000Y-143256000D02*
X169694948Y-142045948D01*
X142464010Y-138901000D02*
X142206505Y-139158505D01*
X144780000Y-138901000D02*
X142464010Y-138901000D01*
X134557000Y-128524000D02*
X130048000Y-124015000D01*
X139192000Y-128524000D02*
X134557000Y-128524000D01*
X128022999Y-112070001D02*
X130048000Y-110045000D01*
X128022999Y-123939999D02*
X128022999Y-112070001D01*
X128098000Y-124015000D02*
X128022999Y-123939999D01*
X130048000Y-124015000D02*
X128098000Y-124015000D01*
%TO.N,SCL*%
X167400000Y-154940000D02*
X165100000Y-154940000D01*
X167520000Y-154820000D02*
X167400000Y-154940000D01*
X167665000Y-154820000D02*
X167520000Y-154820000D01*
X170180000Y-153555000D02*
X170180000Y-147320000D01*
X168915000Y-154820000D02*
X170180000Y-153555000D01*
X167665000Y-154820000D02*
X168915000Y-154820000D01*
X135640002Y-122015000D02*
X130048000Y-122015000D01*
X151350992Y-137725990D02*
X135640002Y-122015000D01*
X166173990Y-137725990D02*
X151350992Y-137725990D01*
X167640000Y-139192000D02*
X166173990Y-137725990D01*
X131921000Y-108045000D02*
X130048000Y-108045000D01*
X135640002Y-111764002D02*
X131921000Y-108045000D01*
X135640002Y-122015000D02*
X135640002Y-111764002D01*
%TO.N,Net-(J5-Pad3)*%
X129921000Y-106172000D02*
X130048000Y-106045000D01*
D37*
X130175000Y-106172000D02*
X130048000Y-106045000D01*
X132588000Y-106172000D02*
X130175000Y-106172000D01*
%TO.N,Net-(J7-Pad3)*%
X130175000Y-119888000D02*
X130048000Y-120015000D01*
X132588000Y-119888000D02*
X130175000Y-119888000D01*
%TO.N,Net-(J8-Pad3)*%
X200406000Y-146304000D02*
X200660000Y-146050000D01*
X198120000Y-146304000D02*
X200406000Y-146304000D01*
%TO.N,GRV4-2*%
X200374000Y-143764000D02*
X200660000Y-144050000D01*
X197929000Y-143764000D02*
X200374000Y-143764000D01*
D36*
X201445002Y-144050000D02*
X200660000Y-144050000D01*
X202685001Y-142810001D02*
X201445002Y-144050000D01*
X202685001Y-141289999D02*
X202685001Y-142810001D01*
X200878001Y-139482999D02*
X202685001Y-141289999D01*
X196755999Y-139482999D02*
X200878001Y-139482999D01*
X191578998Y-144660000D02*
X196755999Y-139482999D01*
X184665000Y-144660000D02*
X191578998Y-144660000D01*
D37*
%TO.N,GRV4-1*%
X200342000Y-141732000D02*
X200660000Y-142050000D01*
X197929000Y-141732000D02*
X200342000Y-141732000D01*
D36*
X197128990Y-142532010D02*
X197929000Y-141732000D01*
X196293512Y-142532010D02*
X197128990Y-142532010D01*
X192895522Y-145930000D02*
X196293512Y-142532010D01*
X184665000Y-145930000D02*
X192895522Y-145930000D01*
D37*
%TO.N,Net-(J9-Pad3)*%
X200279000Y-159004000D02*
X200660000Y-159385000D01*
X198120000Y-159004000D02*
X200279000Y-159004000D01*
D36*
%TO.N,GRV5-2*%
X171720000Y-142764000D02*
X172720000Y-143764000D01*
X171720000Y-139850000D02*
X171720000Y-142764000D01*
X200565000Y-157480000D02*
X200660000Y-157385000D01*
X197612000Y-157480000D02*
X200565000Y-157480000D01*
%TO.N,GRV5-1*%
X197675000Y-155385000D02*
X197612000Y-155448000D01*
X200660000Y-155385000D02*
X197675000Y-155385000D01*
X186436000Y-142774315D02*
X185781685Y-142120000D01*
X185781685Y-142120000D02*
X184665000Y-142120000D01*
X186436000Y-143340000D02*
X186436000Y-142774315D01*
%TO.N,RTS*%
X159070000Y-157990000D02*
X157480000Y-156400000D01*
X159070000Y-158480000D02*
X159070000Y-157990000D01*
X157155000Y-156075000D02*
X154900000Y-156075000D01*
X157480000Y-156400000D02*
X157155000Y-156075000D01*
%TO.N,Net-(Q1-Pad2)*%
X160970000Y-157990000D02*
X162560000Y-156400000D01*
X160970000Y-158480000D02*
X160970000Y-157990000D01*
%TO.N,Net-(Q2-Pad2)*%
X159070000Y-153160000D02*
X157480000Y-154750000D01*
X159070000Y-152670000D02*
X159070000Y-153160000D01*
%TO.N,IO0*%
X161020000Y-154670000D02*
X161290000Y-154940000D01*
X160020000Y-154670000D02*
X161020000Y-154670000D01*
X168915000Y-140850000D02*
X167665000Y-140850000D01*
X169244939Y-141179939D02*
X168915000Y-140850000D01*
X169244939Y-147866139D02*
X169244939Y-141179939D01*
X153035000Y-128080000D02*
X154940000Y-128080000D01*
X163118001Y-140850000D02*
X163068000Y-140799999D01*
X167665000Y-140850000D02*
X163118001Y-140850000D01*
X142531000Y-140716000D02*
X140716000Y-138901000D01*
X142748000Y-140716000D02*
X142531000Y-140716000D01*
X142748000Y-136652000D02*
X145999848Y-133400152D01*
X141481505Y-136652000D02*
X142748000Y-136652000D01*
X152971000Y-128016000D02*
X153035000Y-128080000D01*
X151892000Y-128016000D02*
X152971000Y-128016000D01*
%TO.N,DTR*%
X160970000Y-153160000D02*
X162560000Y-154750000D01*
X160970000Y-152670000D02*
X160970000Y-153160000D01*
X154900000Y-153620000D02*
X155485000Y-153035000D01*
X154900000Y-154075000D02*
X154900000Y-153620000D01*
X161020001Y-152619999D02*
X160970000Y-152670000D01*
X161925000Y-152619999D02*
X161020001Y-152619999D01*
%TO.N,Net-(R6-Pad1)*%
X154305000Y-131000000D02*
X153035000Y-129730000D01*
X154305000Y-131250000D02*
X154305000Y-131000000D01*
%TO.N,Net-(R7-Pad1)*%
X159385000Y-130365000D02*
X158750000Y-129730000D01*
X159385000Y-131250000D02*
X159385000Y-130365000D01*
%TO.N,Net-(R12-Pad1)*%
X149035000Y-155575000D02*
X149900000Y-155575000D01*
X147955000Y-156655000D02*
X149035000Y-155575000D01*
%TO.N,U0RX*%
X157984989Y-151444989D02*
X156210000Y-149670000D01*
X164946399Y-151444989D02*
X157984989Y-151444989D01*
X165781410Y-152280000D02*
X164946399Y-151444989D01*
X167665000Y-152280000D02*
X165781410Y-152280000D01*
%TO.N,Net-(R13-Pad1)*%
X156210000Y-154500002D02*
X156210000Y-151320000D01*
X155635002Y-155075000D02*
X156210000Y-154500002D01*
X154900000Y-155075000D02*
X155635002Y-155075000D01*
%TO.N,U0TX*%
X160309999Y-151894999D02*
X164759999Y-151894999D01*
X160244999Y-151959999D02*
X160309999Y-151894999D01*
X166415000Y-153550000D02*
X167665000Y-153550000D01*
X160244999Y-153009999D02*
X160244999Y-151959999D01*
X159294999Y-153959999D02*
X160244999Y-153009999D01*
X159294999Y-154305000D02*
X159294999Y-153959999D01*
X158024999Y-155575000D02*
X159294999Y-154305000D01*
X164759999Y-151894999D02*
X166415000Y-153550000D01*
X154900000Y-155575000D02*
X158024999Y-155575000D01*
D37*
%TO.N,Net-(JP1-Pad2)*%
X195072000Y-115824000D02*
X194564000Y-116332000D01*
X196025000Y-115824000D02*
X195072000Y-115824000D01*
%TO.N,Net-(JP2-Pad2)*%
X196025000Y-117856000D02*
X194564000Y-117856000D01*
%TO.N,Net-(JP4-Pad2)*%
X196279000Y-141033000D02*
X197104000Y-140208000D01*
X196279000Y-141732000D02*
X196279000Y-141033000D01*
%TO.N,Net-(JP5-Pad2)*%
X196279000Y-144463000D02*
X197104000Y-145288000D01*
X196279000Y-143764000D02*
X196279000Y-144463000D01*
%TD*%
M02*
