%TF.GenerationSoftware,KiCad,Pcbnew,5.1.10-88a1d61d58~88~ubuntu20.04.1*%
%TF.CreationDate,2021-07-12T21:51:17+02:00*%
%TF.ProjectId,Tang_v1-1,54616e67-5f76-4312-9d31-2e6b69636164,rev?*%
%TF.SameCoordinates,Original*%
%TF.FileFunction,Soldermask,Bot*%
%TF.FilePolarity,Negative*%
%FSLAX46Y46*%
G04 Gerber Fmt 4.6, Leading zero omitted, Abs format (unit mm)*
G04 Created by KiCad (PCBNEW 5.1.10-88a1d61d58~88~ubuntu20.04.1) date 2021-07-12 21:51:17*
%MOMM*%
%LPD*%
G01*
G04 APERTURE LIST*
%ADD10C,6.400000*%
%ADD11C,0.800000*%
%ADD12R,3.500000X3.500000*%
%ADD13C,1.450000*%
%ADD14O,1.200000X1.900000*%
%ADD15R,2.600000X2.600000*%
%ADD16C,2.600000*%
%ADD17C,0.100000*%
%ADD18R,1.500000X1.000000*%
G04 APERTURE END LIST*
D10*
%TO.C,H1*%
X142875000Y-104140000D03*
D11*
X145275000Y-104140000D03*
X144572056Y-105837056D03*
X142875000Y-106540000D03*
X141177944Y-105837056D03*
X140475000Y-104140000D03*
X141177944Y-102442944D03*
X142875000Y-101740000D03*
X144572056Y-102442944D03*
%TD*%
%TO.C,H2*%
X208961056Y-102442944D03*
X207264000Y-101740000D03*
X205566944Y-102442944D03*
X204864000Y-104140000D03*
X205566944Y-105837056D03*
X207264000Y-106540000D03*
X208961056Y-105837056D03*
X209664000Y-104140000D03*
D10*
X207264000Y-104140000D03*
%TD*%
%TO.C,H3*%
X142875000Y-161290000D03*
D11*
X145275000Y-161290000D03*
X144572056Y-162987056D03*
X142875000Y-163690000D03*
X141177944Y-162987056D03*
X140475000Y-161290000D03*
X141177944Y-159592944D03*
X142875000Y-158890000D03*
X144572056Y-159592944D03*
%TD*%
%TO.C,H4*%
X196007056Y-159592944D03*
X194310000Y-158890000D03*
X192612944Y-159592944D03*
X191910000Y-161290000D03*
X192612944Y-162987056D03*
X194310000Y-163690000D03*
X196007056Y-162987056D03*
X196710000Y-161290000D03*
D10*
X194310000Y-161290000D03*
%TD*%
D12*
%TO.C,J1*%
X189865000Y-114300000D03*
G36*
G01*
X188865000Y-106800000D02*
X190865000Y-106800000D01*
G75*
G02*
X191615000Y-107550000I0J-750000D01*
G01*
X191615000Y-109050000D01*
G75*
G02*
X190865000Y-109800000I-750000J0D01*
G01*
X188865000Y-109800000D01*
G75*
G02*
X188115000Y-109050000I0J750000D01*
G01*
X188115000Y-107550000D01*
G75*
G02*
X188865000Y-106800000I750000J0D01*
G01*
G37*
G36*
G01*
X184290000Y-109550000D02*
X186040000Y-109550000D01*
G75*
G02*
X186915000Y-110425000I0J-875000D01*
G01*
X186915000Y-112175000D01*
G75*
G02*
X186040000Y-113050000I-875000J0D01*
G01*
X184290000Y-113050000D01*
G75*
G02*
X183415000Y-112175000I0J875000D01*
G01*
X183415000Y-110425000D01*
G75*
G02*
X184290000Y-109550000I875000J0D01*
G01*
G37*
%TD*%
D13*
%TO.C,J2*%
X149265000Y-161130000D03*
X154265000Y-161130000D03*
D14*
X148265000Y-163830000D03*
X155265000Y-163830000D03*
%TD*%
D15*
%TO.C,J6*%
X125603000Y-144145000D03*
D16*
X125603000Y-149225000D03*
%TD*%
%TO.C,J10*%
X125603000Y-161925000D03*
D15*
X125603000Y-156845000D03*
%TD*%
%TO.C,J11*%
X125603000Y-131445000D03*
D16*
X125603000Y-136525000D03*
%TD*%
D17*
%TO.C,JP1*%
G36*
X200810000Y-113550000D02*
G01*
X201310000Y-113550000D01*
X201310000Y-113550602D01*
X201334534Y-113550602D01*
X201383365Y-113555412D01*
X201431490Y-113564984D01*
X201478445Y-113579228D01*
X201523778Y-113598005D01*
X201567051Y-113621136D01*
X201607850Y-113648396D01*
X201645779Y-113679524D01*
X201680476Y-113714221D01*
X201711604Y-113752150D01*
X201738864Y-113792949D01*
X201761995Y-113836222D01*
X201780772Y-113881555D01*
X201795016Y-113928510D01*
X201804588Y-113976635D01*
X201809398Y-114025466D01*
X201809398Y-114050000D01*
X201810000Y-114050000D01*
X201810000Y-114550000D01*
X201809398Y-114550000D01*
X201809398Y-114574534D01*
X201804588Y-114623365D01*
X201795016Y-114671490D01*
X201780772Y-114718445D01*
X201761995Y-114763778D01*
X201738864Y-114807051D01*
X201711604Y-114847850D01*
X201680476Y-114885779D01*
X201645779Y-114920476D01*
X201607850Y-114951604D01*
X201567051Y-114978864D01*
X201523778Y-115001995D01*
X201478445Y-115020772D01*
X201431490Y-115035016D01*
X201383365Y-115044588D01*
X201334534Y-115049398D01*
X201310000Y-115049398D01*
X201310000Y-115050000D01*
X200810000Y-115050000D01*
X200810000Y-113550000D01*
G37*
G36*
X200010000Y-115049398D02*
G01*
X199985466Y-115049398D01*
X199936635Y-115044588D01*
X199888510Y-115035016D01*
X199841555Y-115020772D01*
X199796222Y-115001995D01*
X199752949Y-114978864D01*
X199712150Y-114951604D01*
X199674221Y-114920476D01*
X199639524Y-114885779D01*
X199608396Y-114847850D01*
X199581136Y-114807051D01*
X199558005Y-114763778D01*
X199539228Y-114718445D01*
X199524984Y-114671490D01*
X199515412Y-114623365D01*
X199510602Y-114574534D01*
X199510602Y-114550000D01*
X199510000Y-114550000D01*
X199510000Y-114050000D01*
X199510602Y-114050000D01*
X199510602Y-114025466D01*
X199515412Y-113976635D01*
X199524984Y-113928510D01*
X199539228Y-113881555D01*
X199558005Y-113836222D01*
X199581136Y-113792949D01*
X199608396Y-113752150D01*
X199639524Y-113714221D01*
X199674221Y-113679524D01*
X199712150Y-113648396D01*
X199752949Y-113621136D01*
X199796222Y-113598005D01*
X199841555Y-113579228D01*
X199888510Y-113564984D01*
X199936635Y-113555412D01*
X199985466Y-113550602D01*
X200010000Y-113550602D01*
X200010000Y-113550000D01*
X200510000Y-113550000D01*
X200510000Y-115050000D01*
X200010000Y-115050000D01*
X200010000Y-115049398D01*
G37*
%TD*%
%TO.C,JP2*%
G36*
X200010000Y-118224398D02*
G01*
X199985466Y-118224398D01*
X199936635Y-118219588D01*
X199888510Y-118210016D01*
X199841555Y-118195772D01*
X199796222Y-118176995D01*
X199752949Y-118153864D01*
X199712150Y-118126604D01*
X199674221Y-118095476D01*
X199639524Y-118060779D01*
X199608396Y-118022850D01*
X199581136Y-117982051D01*
X199558005Y-117938778D01*
X199539228Y-117893445D01*
X199524984Y-117846490D01*
X199515412Y-117798365D01*
X199510602Y-117749534D01*
X199510602Y-117725000D01*
X199510000Y-117725000D01*
X199510000Y-117225000D01*
X199510602Y-117225000D01*
X199510602Y-117200466D01*
X199515412Y-117151635D01*
X199524984Y-117103510D01*
X199539228Y-117056555D01*
X199558005Y-117011222D01*
X199581136Y-116967949D01*
X199608396Y-116927150D01*
X199639524Y-116889221D01*
X199674221Y-116854524D01*
X199712150Y-116823396D01*
X199752949Y-116796136D01*
X199796222Y-116773005D01*
X199841555Y-116754228D01*
X199888510Y-116739984D01*
X199936635Y-116730412D01*
X199985466Y-116725602D01*
X200010000Y-116725602D01*
X200010000Y-116725000D01*
X200510000Y-116725000D01*
X200510000Y-118225000D01*
X200010000Y-118225000D01*
X200010000Y-118224398D01*
G37*
G36*
X200810000Y-116725000D02*
G01*
X201310000Y-116725000D01*
X201310000Y-116725602D01*
X201334534Y-116725602D01*
X201383365Y-116730412D01*
X201431490Y-116739984D01*
X201478445Y-116754228D01*
X201523778Y-116773005D01*
X201567051Y-116796136D01*
X201607850Y-116823396D01*
X201645779Y-116854524D01*
X201680476Y-116889221D01*
X201711604Y-116927150D01*
X201738864Y-116967949D01*
X201761995Y-117011222D01*
X201780772Y-117056555D01*
X201795016Y-117103510D01*
X201804588Y-117151635D01*
X201809398Y-117200466D01*
X201809398Y-117225000D01*
X201810000Y-117225000D01*
X201810000Y-117725000D01*
X201809398Y-117725000D01*
X201809398Y-117749534D01*
X201804588Y-117798365D01*
X201795016Y-117846490D01*
X201780772Y-117893445D01*
X201761995Y-117938778D01*
X201738864Y-117982051D01*
X201711604Y-118022850D01*
X201680476Y-118060779D01*
X201645779Y-118095476D01*
X201607850Y-118126604D01*
X201567051Y-118153864D01*
X201523778Y-118176995D01*
X201478445Y-118195772D01*
X201431490Y-118210016D01*
X201383365Y-118219588D01*
X201334534Y-118224398D01*
X201310000Y-118224398D01*
X201310000Y-118225000D01*
X200810000Y-118225000D01*
X200810000Y-116725000D01*
G37*
%TD*%
%TO.C,JP3*%
G36*
X203720000Y-119265000D02*
G01*
X203720000Y-118715000D01*
X203720602Y-118715000D01*
X203720602Y-118690466D01*
X203725412Y-118641635D01*
X203734984Y-118593510D01*
X203749228Y-118546555D01*
X203768005Y-118501222D01*
X203791136Y-118457949D01*
X203818396Y-118417150D01*
X203849524Y-118379221D01*
X203884221Y-118344524D01*
X203922150Y-118313396D01*
X203962949Y-118286136D01*
X204006222Y-118263005D01*
X204051555Y-118244228D01*
X204098510Y-118229984D01*
X204146635Y-118220412D01*
X204195466Y-118215602D01*
X204220000Y-118215602D01*
X204220000Y-118215000D01*
X204720000Y-118215000D01*
X204720000Y-118215602D01*
X204744534Y-118215602D01*
X204793365Y-118220412D01*
X204841490Y-118229984D01*
X204888445Y-118244228D01*
X204933778Y-118263005D01*
X204977051Y-118286136D01*
X205017850Y-118313396D01*
X205055779Y-118344524D01*
X205090476Y-118379221D01*
X205121604Y-118417150D01*
X205148864Y-118457949D01*
X205171995Y-118501222D01*
X205190772Y-118546555D01*
X205205016Y-118593510D01*
X205214588Y-118641635D01*
X205219398Y-118690466D01*
X205219398Y-118715000D01*
X205220000Y-118715000D01*
X205220000Y-119265000D01*
X203720000Y-119265000D01*
G37*
G36*
X205219398Y-121315000D02*
G01*
X205219398Y-121339534D01*
X205214588Y-121388365D01*
X205205016Y-121436490D01*
X205190772Y-121483445D01*
X205171995Y-121528778D01*
X205148864Y-121572051D01*
X205121604Y-121612850D01*
X205090476Y-121650779D01*
X205055779Y-121685476D01*
X205017850Y-121716604D01*
X204977051Y-121743864D01*
X204933778Y-121766995D01*
X204888445Y-121785772D01*
X204841490Y-121800016D01*
X204793365Y-121809588D01*
X204744534Y-121814398D01*
X204720000Y-121814398D01*
X204720000Y-121815000D01*
X204220000Y-121815000D01*
X204220000Y-121814398D01*
X204195466Y-121814398D01*
X204146635Y-121809588D01*
X204098510Y-121800016D01*
X204051555Y-121785772D01*
X204006222Y-121766995D01*
X203962949Y-121743864D01*
X203922150Y-121716604D01*
X203884221Y-121685476D01*
X203849524Y-121650779D01*
X203818396Y-121612850D01*
X203791136Y-121572051D01*
X203768005Y-121528778D01*
X203749228Y-121483445D01*
X203734984Y-121436490D01*
X203725412Y-121388365D01*
X203720602Y-121339534D01*
X203720602Y-121315000D01*
X203720000Y-121315000D01*
X203720000Y-120765000D01*
X205220000Y-120765000D01*
X205220000Y-121315000D01*
X205219398Y-121315000D01*
G37*
D18*
X204470000Y-120015000D03*
%TD*%
D17*
%TO.C,JP4*%
G36*
X200810000Y-140220000D02*
G01*
X201310000Y-140220000D01*
X201310000Y-140220602D01*
X201334534Y-140220602D01*
X201383365Y-140225412D01*
X201431490Y-140234984D01*
X201478445Y-140249228D01*
X201523778Y-140268005D01*
X201567051Y-140291136D01*
X201607850Y-140318396D01*
X201645779Y-140349524D01*
X201680476Y-140384221D01*
X201711604Y-140422150D01*
X201738864Y-140462949D01*
X201761995Y-140506222D01*
X201780772Y-140551555D01*
X201795016Y-140598510D01*
X201804588Y-140646635D01*
X201809398Y-140695466D01*
X201809398Y-140720000D01*
X201810000Y-140720000D01*
X201810000Y-141220000D01*
X201809398Y-141220000D01*
X201809398Y-141244534D01*
X201804588Y-141293365D01*
X201795016Y-141341490D01*
X201780772Y-141388445D01*
X201761995Y-141433778D01*
X201738864Y-141477051D01*
X201711604Y-141517850D01*
X201680476Y-141555779D01*
X201645779Y-141590476D01*
X201607850Y-141621604D01*
X201567051Y-141648864D01*
X201523778Y-141671995D01*
X201478445Y-141690772D01*
X201431490Y-141705016D01*
X201383365Y-141714588D01*
X201334534Y-141719398D01*
X201310000Y-141719398D01*
X201310000Y-141720000D01*
X200810000Y-141720000D01*
X200810000Y-140220000D01*
G37*
G36*
X200010000Y-141719398D02*
G01*
X199985466Y-141719398D01*
X199936635Y-141714588D01*
X199888510Y-141705016D01*
X199841555Y-141690772D01*
X199796222Y-141671995D01*
X199752949Y-141648864D01*
X199712150Y-141621604D01*
X199674221Y-141590476D01*
X199639524Y-141555779D01*
X199608396Y-141517850D01*
X199581136Y-141477051D01*
X199558005Y-141433778D01*
X199539228Y-141388445D01*
X199524984Y-141341490D01*
X199515412Y-141293365D01*
X199510602Y-141244534D01*
X199510602Y-141220000D01*
X199510000Y-141220000D01*
X199510000Y-140720000D01*
X199510602Y-140720000D01*
X199510602Y-140695466D01*
X199515412Y-140646635D01*
X199524984Y-140598510D01*
X199539228Y-140551555D01*
X199558005Y-140506222D01*
X199581136Y-140462949D01*
X199608396Y-140422150D01*
X199639524Y-140384221D01*
X199674221Y-140349524D01*
X199712150Y-140318396D01*
X199752949Y-140291136D01*
X199796222Y-140268005D01*
X199841555Y-140249228D01*
X199888510Y-140234984D01*
X199936635Y-140225412D01*
X199985466Y-140220602D01*
X200010000Y-140220602D01*
X200010000Y-140220000D01*
X200510000Y-140220000D01*
X200510000Y-141720000D01*
X200010000Y-141720000D01*
X200010000Y-141719398D01*
G37*
%TD*%
%TO.C,JP5*%
G36*
X200010000Y-144894398D02*
G01*
X199985466Y-144894398D01*
X199936635Y-144889588D01*
X199888510Y-144880016D01*
X199841555Y-144865772D01*
X199796222Y-144846995D01*
X199752949Y-144823864D01*
X199712150Y-144796604D01*
X199674221Y-144765476D01*
X199639524Y-144730779D01*
X199608396Y-144692850D01*
X199581136Y-144652051D01*
X199558005Y-144608778D01*
X199539228Y-144563445D01*
X199524984Y-144516490D01*
X199515412Y-144468365D01*
X199510602Y-144419534D01*
X199510602Y-144395000D01*
X199510000Y-144395000D01*
X199510000Y-143895000D01*
X199510602Y-143895000D01*
X199510602Y-143870466D01*
X199515412Y-143821635D01*
X199524984Y-143773510D01*
X199539228Y-143726555D01*
X199558005Y-143681222D01*
X199581136Y-143637949D01*
X199608396Y-143597150D01*
X199639524Y-143559221D01*
X199674221Y-143524524D01*
X199712150Y-143493396D01*
X199752949Y-143466136D01*
X199796222Y-143443005D01*
X199841555Y-143424228D01*
X199888510Y-143409984D01*
X199936635Y-143400412D01*
X199985466Y-143395602D01*
X200010000Y-143395602D01*
X200010000Y-143395000D01*
X200510000Y-143395000D01*
X200510000Y-144895000D01*
X200010000Y-144895000D01*
X200010000Y-144894398D01*
G37*
G36*
X200810000Y-143395000D02*
G01*
X201310000Y-143395000D01*
X201310000Y-143395602D01*
X201334534Y-143395602D01*
X201383365Y-143400412D01*
X201431490Y-143409984D01*
X201478445Y-143424228D01*
X201523778Y-143443005D01*
X201567051Y-143466136D01*
X201607850Y-143493396D01*
X201645779Y-143524524D01*
X201680476Y-143559221D01*
X201711604Y-143597150D01*
X201738864Y-143637949D01*
X201761995Y-143681222D01*
X201780772Y-143726555D01*
X201795016Y-143773510D01*
X201804588Y-143821635D01*
X201809398Y-143870466D01*
X201809398Y-143895000D01*
X201810000Y-143895000D01*
X201810000Y-144395000D01*
X201809398Y-144395000D01*
X201809398Y-144419534D01*
X201804588Y-144468365D01*
X201795016Y-144516490D01*
X201780772Y-144563445D01*
X201761995Y-144608778D01*
X201738864Y-144652051D01*
X201711604Y-144692850D01*
X201680476Y-144730779D01*
X201645779Y-144765476D01*
X201607850Y-144796604D01*
X201567051Y-144823864D01*
X201523778Y-144846995D01*
X201478445Y-144865772D01*
X201431490Y-144880016D01*
X201383365Y-144889588D01*
X201334534Y-144894398D01*
X201310000Y-144894398D01*
X201310000Y-144895000D01*
X200810000Y-144895000D01*
X200810000Y-143395000D01*
G37*
%TD*%
D18*
%TO.C,JP6*%
X204470000Y-146050000D03*
D17*
G36*
X205219398Y-147350000D02*
G01*
X205219398Y-147374534D01*
X205214588Y-147423365D01*
X205205016Y-147471490D01*
X205190772Y-147518445D01*
X205171995Y-147563778D01*
X205148864Y-147607051D01*
X205121604Y-147647850D01*
X205090476Y-147685779D01*
X205055779Y-147720476D01*
X205017850Y-147751604D01*
X204977051Y-147778864D01*
X204933778Y-147801995D01*
X204888445Y-147820772D01*
X204841490Y-147835016D01*
X204793365Y-147844588D01*
X204744534Y-147849398D01*
X204720000Y-147849398D01*
X204720000Y-147850000D01*
X204220000Y-147850000D01*
X204220000Y-147849398D01*
X204195466Y-147849398D01*
X204146635Y-147844588D01*
X204098510Y-147835016D01*
X204051555Y-147820772D01*
X204006222Y-147801995D01*
X203962949Y-147778864D01*
X203922150Y-147751604D01*
X203884221Y-147720476D01*
X203849524Y-147685779D01*
X203818396Y-147647850D01*
X203791136Y-147607051D01*
X203768005Y-147563778D01*
X203749228Y-147518445D01*
X203734984Y-147471490D01*
X203725412Y-147423365D01*
X203720602Y-147374534D01*
X203720602Y-147350000D01*
X203720000Y-147350000D01*
X203720000Y-146800000D01*
X205220000Y-146800000D01*
X205220000Y-147350000D01*
X205219398Y-147350000D01*
G37*
G36*
X203720000Y-145300000D02*
G01*
X203720000Y-144750000D01*
X203720602Y-144750000D01*
X203720602Y-144725466D01*
X203725412Y-144676635D01*
X203734984Y-144628510D01*
X203749228Y-144581555D01*
X203768005Y-144536222D01*
X203791136Y-144492949D01*
X203818396Y-144452150D01*
X203849524Y-144414221D01*
X203884221Y-144379524D01*
X203922150Y-144348396D01*
X203962949Y-144321136D01*
X204006222Y-144298005D01*
X204051555Y-144279228D01*
X204098510Y-144264984D01*
X204146635Y-144255412D01*
X204195466Y-144250602D01*
X204220000Y-144250602D01*
X204220000Y-144250000D01*
X204720000Y-144250000D01*
X204720000Y-144250602D01*
X204744534Y-144250602D01*
X204793365Y-144255412D01*
X204841490Y-144264984D01*
X204888445Y-144279228D01*
X204933778Y-144298005D01*
X204977051Y-144321136D01*
X205017850Y-144348396D01*
X205055779Y-144379524D01*
X205090476Y-144414221D01*
X205121604Y-144452150D01*
X205148864Y-144492949D01*
X205171995Y-144536222D01*
X205190772Y-144581555D01*
X205205016Y-144628510D01*
X205214588Y-144676635D01*
X205219398Y-144725466D01*
X205219398Y-144750000D01*
X205220000Y-144750000D01*
X205220000Y-145300000D01*
X203720000Y-145300000D01*
G37*
%TD*%
%TO.C,JP7*%
G36*
X203720000Y-131965000D02*
G01*
X203720000Y-131415000D01*
X203720602Y-131415000D01*
X203720602Y-131390466D01*
X203725412Y-131341635D01*
X203734984Y-131293510D01*
X203749228Y-131246555D01*
X203768005Y-131201222D01*
X203791136Y-131157949D01*
X203818396Y-131117150D01*
X203849524Y-131079221D01*
X203884221Y-131044524D01*
X203922150Y-131013396D01*
X203962949Y-130986136D01*
X204006222Y-130963005D01*
X204051555Y-130944228D01*
X204098510Y-130929984D01*
X204146635Y-130920412D01*
X204195466Y-130915602D01*
X204220000Y-130915602D01*
X204220000Y-130915000D01*
X204720000Y-130915000D01*
X204720000Y-130915602D01*
X204744534Y-130915602D01*
X204793365Y-130920412D01*
X204841490Y-130929984D01*
X204888445Y-130944228D01*
X204933778Y-130963005D01*
X204977051Y-130986136D01*
X205017850Y-131013396D01*
X205055779Y-131044524D01*
X205090476Y-131079221D01*
X205121604Y-131117150D01*
X205148864Y-131157949D01*
X205171995Y-131201222D01*
X205190772Y-131246555D01*
X205205016Y-131293510D01*
X205214588Y-131341635D01*
X205219398Y-131390466D01*
X205219398Y-131415000D01*
X205220000Y-131415000D01*
X205220000Y-131965000D01*
X203720000Y-131965000D01*
G37*
G36*
X205219398Y-134015000D02*
G01*
X205219398Y-134039534D01*
X205214588Y-134088365D01*
X205205016Y-134136490D01*
X205190772Y-134183445D01*
X205171995Y-134228778D01*
X205148864Y-134272051D01*
X205121604Y-134312850D01*
X205090476Y-134350779D01*
X205055779Y-134385476D01*
X205017850Y-134416604D01*
X204977051Y-134443864D01*
X204933778Y-134466995D01*
X204888445Y-134485772D01*
X204841490Y-134500016D01*
X204793365Y-134509588D01*
X204744534Y-134514398D01*
X204720000Y-134514398D01*
X204720000Y-134515000D01*
X204220000Y-134515000D01*
X204220000Y-134514398D01*
X204195466Y-134514398D01*
X204146635Y-134509588D01*
X204098510Y-134500016D01*
X204051555Y-134485772D01*
X204006222Y-134466995D01*
X203962949Y-134443864D01*
X203922150Y-134416604D01*
X203884221Y-134385476D01*
X203849524Y-134350779D01*
X203818396Y-134312850D01*
X203791136Y-134272051D01*
X203768005Y-134228778D01*
X203749228Y-134183445D01*
X203734984Y-134136490D01*
X203725412Y-134088365D01*
X203720602Y-134039534D01*
X203720602Y-134015000D01*
X203720000Y-134015000D01*
X203720000Y-133465000D01*
X205220000Y-133465000D01*
X205220000Y-134015000D01*
X205219398Y-134015000D01*
G37*
D18*
X204470000Y-132715000D03*
%TD*%
%TO.C,JP8*%
X204470000Y-159385000D03*
D17*
G36*
X205219398Y-160685000D02*
G01*
X205219398Y-160709534D01*
X205214588Y-160758365D01*
X205205016Y-160806490D01*
X205190772Y-160853445D01*
X205171995Y-160898778D01*
X205148864Y-160942051D01*
X205121604Y-160982850D01*
X205090476Y-161020779D01*
X205055779Y-161055476D01*
X205017850Y-161086604D01*
X204977051Y-161113864D01*
X204933778Y-161136995D01*
X204888445Y-161155772D01*
X204841490Y-161170016D01*
X204793365Y-161179588D01*
X204744534Y-161184398D01*
X204720000Y-161184398D01*
X204720000Y-161185000D01*
X204220000Y-161185000D01*
X204220000Y-161184398D01*
X204195466Y-161184398D01*
X204146635Y-161179588D01*
X204098510Y-161170016D01*
X204051555Y-161155772D01*
X204006222Y-161136995D01*
X203962949Y-161113864D01*
X203922150Y-161086604D01*
X203884221Y-161055476D01*
X203849524Y-161020779D01*
X203818396Y-160982850D01*
X203791136Y-160942051D01*
X203768005Y-160898778D01*
X203749228Y-160853445D01*
X203734984Y-160806490D01*
X203725412Y-160758365D01*
X203720602Y-160709534D01*
X203720602Y-160685000D01*
X203720000Y-160685000D01*
X203720000Y-160135000D01*
X205220000Y-160135000D01*
X205220000Y-160685000D01*
X205219398Y-160685000D01*
G37*
G36*
X203720000Y-158635000D02*
G01*
X203720000Y-158085000D01*
X203720602Y-158085000D01*
X203720602Y-158060466D01*
X203725412Y-158011635D01*
X203734984Y-157963510D01*
X203749228Y-157916555D01*
X203768005Y-157871222D01*
X203791136Y-157827949D01*
X203818396Y-157787150D01*
X203849524Y-157749221D01*
X203884221Y-157714524D01*
X203922150Y-157683396D01*
X203962949Y-157656136D01*
X204006222Y-157633005D01*
X204051555Y-157614228D01*
X204098510Y-157599984D01*
X204146635Y-157590412D01*
X204195466Y-157585602D01*
X204220000Y-157585602D01*
X204220000Y-157585000D01*
X204720000Y-157585000D01*
X204720000Y-157585602D01*
X204744534Y-157585602D01*
X204793365Y-157590412D01*
X204841490Y-157599984D01*
X204888445Y-157614228D01*
X204933778Y-157633005D01*
X204977051Y-157656136D01*
X205017850Y-157683396D01*
X205055779Y-157714524D01*
X205090476Y-157749221D01*
X205121604Y-157787150D01*
X205148864Y-157827949D01*
X205171995Y-157871222D01*
X205190772Y-157916555D01*
X205205016Y-157963510D01*
X205214588Y-158011635D01*
X205219398Y-158060466D01*
X205219398Y-158085000D01*
X205220000Y-158085000D01*
X205220000Y-158635000D01*
X203720000Y-158635000D01*
G37*
%TD*%
D18*
%TO.C,JP9*%
X126238000Y-106045000D03*
D17*
G36*
X125488602Y-104745000D02*
G01*
X125488602Y-104720466D01*
X125493412Y-104671635D01*
X125502984Y-104623510D01*
X125517228Y-104576555D01*
X125536005Y-104531222D01*
X125559136Y-104487949D01*
X125586396Y-104447150D01*
X125617524Y-104409221D01*
X125652221Y-104374524D01*
X125690150Y-104343396D01*
X125730949Y-104316136D01*
X125774222Y-104293005D01*
X125819555Y-104274228D01*
X125866510Y-104259984D01*
X125914635Y-104250412D01*
X125963466Y-104245602D01*
X125988000Y-104245602D01*
X125988000Y-104245000D01*
X126488000Y-104245000D01*
X126488000Y-104245602D01*
X126512534Y-104245602D01*
X126561365Y-104250412D01*
X126609490Y-104259984D01*
X126656445Y-104274228D01*
X126701778Y-104293005D01*
X126745051Y-104316136D01*
X126785850Y-104343396D01*
X126823779Y-104374524D01*
X126858476Y-104409221D01*
X126889604Y-104447150D01*
X126916864Y-104487949D01*
X126939995Y-104531222D01*
X126958772Y-104576555D01*
X126973016Y-104623510D01*
X126982588Y-104671635D01*
X126987398Y-104720466D01*
X126987398Y-104745000D01*
X126988000Y-104745000D01*
X126988000Y-105295000D01*
X125488000Y-105295000D01*
X125488000Y-104745000D01*
X125488602Y-104745000D01*
G37*
G36*
X126988000Y-106795000D02*
G01*
X126988000Y-107345000D01*
X126987398Y-107345000D01*
X126987398Y-107369534D01*
X126982588Y-107418365D01*
X126973016Y-107466490D01*
X126958772Y-107513445D01*
X126939995Y-107558778D01*
X126916864Y-107602051D01*
X126889604Y-107642850D01*
X126858476Y-107680779D01*
X126823779Y-107715476D01*
X126785850Y-107746604D01*
X126745051Y-107773864D01*
X126701778Y-107796995D01*
X126656445Y-107815772D01*
X126609490Y-107830016D01*
X126561365Y-107839588D01*
X126512534Y-107844398D01*
X126488000Y-107844398D01*
X126488000Y-107845000D01*
X125988000Y-107845000D01*
X125988000Y-107844398D01*
X125963466Y-107844398D01*
X125914635Y-107839588D01*
X125866510Y-107830016D01*
X125819555Y-107815772D01*
X125774222Y-107796995D01*
X125730949Y-107773864D01*
X125690150Y-107746604D01*
X125652221Y-107715476D01*
X125617524Y-107680779D01*
X125586396Y-107642850D01*
X125559136Y-107602051D01*
X125536005Y-107558778D01*
X125517228Y-107513445D01*
X125502984Y-107466490D01*
X125493412Y-107418365D01*
X125488602Y-107369534D01*
X125488602Y-107345000D01*
X125488000Y-107345000D01*
X125488000Y-106795000D01*
X126988000Y-106795000D01*
G37*
%TD*%
%TO.C,JP10*%
G36*
X126988000Y-120765000D02*
G01*
X126988000Y-121315000D01*
X126987398Y-121315000D01*
X126987398Y-121339534D01*
X126982588Y-121388365D01*
X126973016Y-121436490D01*
X126958772Y-121483445D01*
X126939995Y-121528778D01*
X126916864Y-121572051D01*
X126889604Y-121612850D01*
X126858476Y-121650779D01*
X126823779Y-121685476D01*
X126785850Y-121716604D01*
X126745051Y-121743864D01*
X126701778Y-121766995D01*
X126656445Y-121785772D01*
X126609490Y-121800016D01*
X126561365Y-121809588D01*
X126512534Y-121814398D01*
X126488000Y-121814398D01*
X126488000Y-121815000D01*
X125988000Y-121815000D01*
X125988000Y-121814398D01*
X125963466Y-121814398D01*
X125914635Y-121809588D01*
X125866510Y-121800016D01*
X125819555Y-121785772D01*
X125774222Y-121766995D01*
X125730949Y-121743864D01*
X125690150Y-121716604D01*
X125652221Y-121685476D01*
X125617524Y-121650779D01*
X125586396Y-121612850D01*
X125559136Y-121572051D01*
X125536005Y-121528778D01*
X125517228Y-121483445D01*
X125502984Y-121436490D01*
X125493412Y-121388365D01*
X125488602Y-121339534D01*
X125488602Y-121315000D01*
X125488000Y-121315000D01*
X125488000Y-120765000D01*
X126988000Y-120765000D01*
G37*
G36*
X125488602Y-118715000D02*
G01*
X125488602Y-118690466D01*
X125493412Y-118641635D01*
X125502984Y-118593510D01*
X125517228Y-118546555D01*
X125536005Y-118501222D01*
X125559136Y-118457949D01*
X125586396Y-118417150D01*
X125617524Y-118379221D01*
X125652221Y-118344524D01*
X125690150Y-118313396D01*
X125730949Y-118286136D01*
X125774222Y-118263005D01*
X125819555Y-118244228D01*
X125866510Y-118229984D01*
X125914635Y-118220412D01*
X125963466Y-118215602D01*
X125988000Y-118215602D01*
X125988000Y-118215000D01*
X126488000Y-118215000D01*
X126488000Y-118215602D01*
X126512534Y-118215602D01*
X126561365Y-118220412D01*
X126609490Y-118229984D01*
X126656445Y-118244228D01*
X126701778Y-118263005D01*
X126745051Y-118286136D01*
X126785850Y-118313396D01*
X126823779Y-118344524D01*
X126858476Y-118379221D01*
X126889604Y-118417150D01*
X126916864Y-118457949D01*
X126939995Y-118501222D01*
X126958772Y-118546555D01*
X126973016Y-118593510D01*
X126982588Y-118641635D01*
X126987398Y-118690466D01*
X126987398Y-118715000D01*
X126988000Y-118715000D01*
X126988000Y-119265000D01*
X125488000Y-119265000D01*
X125488000Y-118715000D01*
X125488602Y-118715000D01*
G37*
D18*
X126238000Y-120015000D03*
%TD*%
D17*
%TO.C,JP11*%
G36*
X128790000Y-142125000D02*
G01*
X128790000Y-141575000D01*
X128790602Y-141575000D01*
X128790602Y-141550466D01*
X128795412Y-141501635D01*
X128804984Y-141453510D01*
X128819228Y-141406555D01*
X128838005Y-141361222D01*
X128861136Y-141317949D01*
X128888396Y-141277150D01*
X128919524Y-141239221D01*
X128954221Y-141204524D01*
X128992150Y-141173396D01*
X129032949Y-141146136D01*
X129076222Y-141123005D01*
X129121555Y-141104228D01*
X129168510Y-141089984D01*
X129216635Y-141080412D01*
X129265466Y-141075602D01*
X129290000Y-141075602D01*
X129290000Y-141075000D01*
X129790000Y-141075000D01*
X129790000Y-141075602D01*
X129814534Y-141075602D01*
X129863365Y-141080412D01*
X129911490Y-141089984D01*
X129958445Y-141104228D01*
X130003778Y-141123005D01*
X130047051Y-141146136D01*
X130087850Y-141173396D01*
X130125779Y-141204524D01*
X130160476Y-141239221D01*
X130191604Y-141277150D01*
X130218864Y-141317949D01*
X130241995Y-141361222D01*
X130260772Y-141406555D01*
X130275016Y-141453510D01*
X130284588Y-141501635D01*
X130289398Y-141550466D01*
X130289398Y-141575000D01*
X130290000Y-141575000D01*
X130290000Y-142125000D01*
X128790000Y-142125000D01*
G37*
G36*
X130289398Y-144175000D02*
G01*
X130289398Y-144199534D01*
X130284588Y-144248365D01*
X130275016Y-144296490D01*
X130260772Y-144343445D01*
X130241995Y-144388778D01*
X130218864Y-144432051D01*
X130191604Y-144472850D01*
X130160476Y-144510779D01*
X130125779Y-144545476D01*
X130087850Y-144576604D01*
X130047051Y-144603864D01*
X130003778Y-144626995D01*
X129958445Y-144645772D01*
X129911490Y-144660016D01*
X129863365Y-144669588D01*
X129814534Y-144674398D01*
X129790000Y-144674398D01*
X129790000Y-144675000D01*
X129290000Y-144675000D01*
X129290000Y-144674398D01*
X129265466Y-144674398D01*
X129216635Y-144669588D01*
X129168510Y-144660016D01*
X129121555Y-144645772D01*
X129076222Y-144626995D01*
X129032949Y-144603864D01*
X128992150Y-144576604D01*
X128954221Y-144545476D01*
X128919524Y-144510779D01*
X128888396Y-144472850D01*
X128861136Y-144432051D01*
X128838005Y-144388778D01*
X128819228Y-144343445D01*
X128804984Y-144296490D01*
X128795412Y-144248365D01*
X128790602Y-144199534D01*
X128790602Y-144175000D01*
X128790000Y-144175000D01*
X128790000Y-143625000D01*
X130290000Y-143625000D01*
X130290000Y-144175000D01*
X130289398Y-144175000D01*
G37*
D18*
X129540000Y-142875000D03*
%TD*%
D17*
%TO.C,JP12*%
G36*
X128790000Y-154825000D02*
G01*
X128790000Y-154275000D01*
X128790602Y-154275000D01*
X128790602Y-154250466D01*
X128795412Y-154201635D01*
X128804984Y-154153510D01*
X128819228Y-154106555D01*
X128838005Y-154061222D01*
X128861136Y-154017949D01*
X128888396Y-153977150D01*
X128919524Y-153939221D01*
X128954221Y-153904524D01*
X128992150Y-153873396D01*
X129032949Y-153846136D01*
X129076222Y-153823005D01*
X129121555Y-153804228D01*
X129168510Y-153789984D01*
X129216635Y-153780412D01*
X129265466Y-153775602D01*
X129290000Y-153775602D01*
X129290000Y-153775000D01*
X129790000Y-153775000D01*
X129790000Y-153775602D01*
X129814534Y-153775602D01*
X129863365Y-153780412D01*
X129911490Y-153789984D01*
X129958445Y-153804228D01*
X130003778Y-153823005D01*
X130047051Y-153846136D01*
X130087850Y-153873396D01*
X130125779Y-153904524D01*
X130160476Y-153939221D01*
X130191604Y-153977150D01*
X130218864Y-154017949D01*
X130241995Y-154061222D01*
X130260772Y-154106555D01*
X130275016Y-154153510D01*
X130284588Y-154201635D01*
X130289398Y-154250466D01*
X130289398Y-154275000D01*
X130290000Y-154275000D01*
X130290000Y-154825000D01*
X128790000Y-154825000D01*
G37*
G36*
X130289398Y-156875000D02*
G01*
X130289398Y-156899534D01*
X130284588Y-156948365D01*
X130275016Y-156996490D01*
X130260772Y-157043445D01*
X130241995Y-157088778D01*
X130218864Y-157132051D01*
X130191604Y-157172850D01*
X130160476Y-157210779D01*
X130125779Y-157245476D01*
X130087850Y-157276604D01*
X130047051Y-157303864D01*
X130003778Y-157326995D01*
X129958445Y-157345772D01*
X129911490Y-157360016D01*
X129863365Y-157369588D01*
X129814534Y-157374398D01*
X129790000Y-157374398D01*
X129790000Y-157375000D01*
X129290000Y-157375000D01*
X129290000Y-157374398D01*
X129265466Y-157374398D01*
X129216635Y-157369588D01*
X129168510Y-157360016D01*
X129121555Y-157345772D01*
X129076222Y-157326995D01*
X129032949Y-157303864D01*
X128992150Y-157276604D01*
X128954221Y-157245476D01*
X128919524Y-157210779D01*
X128888396Y-157172850D01*
X128861136Y-157132051D01*
X128838005Y-157088778D01*
X128819228Y-157043445D01*
X128804984Y-156996490D01*
X128795412Y-156948365D01*
X128790602Y-156899534D01*
X128790602Y-156875000D01*
X128790000Y-156875000D01*
X128790000Y-156325000D01*
X130290000Y-156325000D01*
X130290000Y-156875000D01*
X130289398Y-156875000D01*
G37*
D18*
X129540000Y-155575000D03*
%TD*%
%TO.C,JP13*%
X129540000Y-130175000D03*
D17*
G36*
X130289398Y-131475000D02*
G01*
X130289398Y-131499534D01*
X130284588Y-131548365D01*
X130275016Y-131596490D01*
X130260772Y-131643445D01*
X130241995Y-131688778D01*
X130218864Y-131732051D01*
X130191604Y-131772850D01*
X130160476Y-131810779D01*
X130125779Y-131845476D01*
X130087850Y-131876604D01*
X130047051Y-131903864D01*
X130003778Y-131926995D01*
X129958445Y-131945772D01*
X129911490Y-131960016D01*
X129863365Y-131969588D01*
X129814534Y-131974398D01*
X129790000Y-131974398D01*
X129790000Y-131975000D01*
X129290000Y-131975000D01*
X129290000Y-131974398D01*
X129265466Y-131974398D01*
X129216635Y-131969588D01*
X129168510Y-131960016D01*
X129121555Y-131945772D01*
X129076222Y-131926995D01*
X129032949Y-131903864D01*
X128992150Y-131876604D01*
X128954221Y-131845476D01*
X128919524Y-131810779D01*
X128888396Y-131772850D01*
X128861136Y-131732051D01*
X128838005Y-131688778D01*
X128819228Y-131643445D01*
X128804984Y-131596490D01*
X128795412Y-131548365D01*
X128790602Y-131499534D01*
X128790602Y-131475000D01*
X128790000Y-131475000D01*
X128790000Y-130925000D01*
X130290000Y-130925000D01*
X130290000Y-131475000D01*
X130289398Y-131475000D01*
G37*
G36*
X128790000Y-129425000D02*
G01*
X128790000Y-128875000D01*
X128790602Y-128875000D01*
X128790602Y-128850466D01*
X128795412Y-128801635D01*
X128804984Y-128753510D01*
X128819228Y-128706555D01*
X128838005Y-128661222D01*
X128861136Y-128617949D01*
X128888396Y-128577150D01*
X128919524Y-128539221D01*
X128954221Y-128504524D01*
X128992150Y-128473396D01*
X129032949Y-128446136D01*
X129076222Y-128423005D01*
X129121555Y-128404228D01*
X129168510Y-128389984D01*
X129216635Y-128380412D01*
X129265466Y-128375602D01*
X129290000Y-128375602D01*
X129290000Y-128375000D01*
X129790000Y-128375000D01*
X129790000Y-128375602D01*
X129814534Y-128375602D01*
X129863365Y-128380412D01*
X129911490Y-128389984D01*
X129958445Y-128404228D01*
X130003778Y-128423005D01*
X130047051Y-128446136D01*
X130087850Y-128473396D01*
X130125779Y-128504524D01*
X130160476Y-128539221D01*
X130191604Y-128577150D01*
X130218864Y-128617949D01*
X130241995Y-128661222D01*
X130260772Y-128706555D01*
X130275016Y-128753510D01*
X130284588Y-128801635D01*
X130289398Y-128850466D01*
X130289398Y-128875000D01*
X130290000Y-128875000D01*
X130290000Y-129425000D01*
X128790000Y-129425000D01*
G37*
%TD*%
M02*
