%TF.GenerationSoftware,KiCad,Pcbnew,5.1.10-88a1d61d58~88~ubuntu20.04.1*%
%TF.CreationDate,2021-07-12T21:51:17+02:00*%
%TF.ProjectId,Tang_v1-1,54616e67-5f76-4312-9d31-2e6b69636164,rev?*%
%TF.SameCoordinates,Original*%
%TF.FileFunction,Paste,Top*%
%TF.FilePolarity,Positive*%
%FSLAX46Y46*%
G04 Gerber Fmt 4.6, Leading zero omitted, Abs format (unit mm)*
G04 Created by KiCad (PCBNEW 5.1.10-88a1d61d58~88~ubuntu20.04.1) date 2021-07-12 21:51:17*
%MOMM*%
%LPD*%
G01*
G04 APERTURE LIST*
%ADD10R,1.800000X2.500000*%
%ADD11R,2.500000X1.800000*%
%ADD12R,1.500000X1.900000*%
%ADD13R,0.400000X1.350000*%
%ADD14R,4.000000X1.500000*%
%ADD15R,3.400000X1.000000*%
%ADD16R,4.100000X4.100000*%
%ADD17R,0.800000X0.900000*%
%ADD18R,2.000000X0.900000*%
%ADD19R,0.900000X2.000000*%
%ADD20R,5.000000X5.000000*%
%ADD21R,2.000000X3.800000*%
%ADD22R,2.000000X1.500000*%
%ADD23R,1.000000X0.300000*%
%ADD24R,0.300000X1.000000*%
%ADD25R,3.400000X3.400000*%
G04 APERTURE END LIST*
%TO.C,C6*%
G36*
G01*
X161600000Y-101350000D02*
X161600000Y-101850000D01*
G75*
G02*
X161375000Y-102075000I-225000J0D01*
G01*
X160925000Y-102075000D01*
G75*
G02*
X160700000Y-101850000I0J225000D01*
G01*
X160700000Y-101350000D01*
G75*
G02*
X160925000Y-101125000I225000J0D01*
G01*
X161375000Y-101125000D01*
G75*
G02*
X161600000Y-101350000I0J-225000D01*
G01*
G37*
G36*
G01*
X163150000Y-101350000D02*
X163150000Y-101850000D01*
G75*
G02*
X162925000Y-102075000I-225000J0D01*
G01*
X162475000Y-102075000D01*
G75*
G02*
X162250000Y-101850000I0J225000D01*
G01*
X162250000Y-101350000D01*
G75*
G02*
X162475000Y-101125000I225000J0D01*
G01*
X162925000Y-101125000D01*
G75*
G02*
X163150000Y-101350000I0J-225000D01*
G01*
G37*
%TD*%
%TO.C,C7*%
G36*
G01*
X191460000Y-136140000D02*
X191460000Y-135640000D01*
G75*
G02*
X191685000Y-135415000I225000J0D01*
G01*
X192135000Y-135415000D01*
G75*
G02*
X192360000Y-135640000I0J-225000D01*
G01*
X192360000Y-136140000D01*
G75*
G02*
X192135000Y-136365000I-225000J0D01*
G01*
X191685000Y-136365000D01*
G75*
G02*
X191460000Y-136140000I0J225000D01*
G01*
G37*
G36*
G01*
X189910000Y-136140000D02*
X189910000Y-135640000D01*
G75*
G02*
X190135000Y-135415000I225000J0D01*
G01*
X190585000Y-135415000D01*
G75*
G02*
X190810000Y-135640000I0J-225000D01*
G01*
X190810000Y-136140000D01*
G75*
G02*
X190585000Y-136365000I-225000J0D01*
G01*
X190135000Y-136365000D01*
G75*
G02*
X189910000Y-136140000I0J225000D01*
G01*
G37*
%TD*%
%TO.C,C8*%
G36*
G01*
X156460000Y-117570000D02*
X155960000Y-117570000D01*
G75*
G02*
X155735000Y-117345000I0J225000D01*
G01*
X155735000Y-116895000D01*
G75*
G02*
X155960000Y-116670000I225000J0D01*
G01*
X156460000Y-116670000D01*
G75*
G02*
X156685000Y-116895000I0J-225000D01*
G01*
X156685000Y-117345000D01*
G75*
G02*
X156460000Y-117570000I-225000J0D01*
G01*
G37*
G36*
G01*
X156460000Y-116020000D02*
X155960000Y-116020000D01*
G75*
G02*
X155735000Y-115795000I0J225000D01*
G01*
X155735000Y-115345000D01*
G75*
G02*
X155960000Y-115120000I225000J0D01*
G01*
X156460000Y-115120000D01*
G75*
G02*
X156685000Y-115345000I0J-225000D01*
G01*
X156685000Y-115795000D01*
G75*
G02*
X156460000Y-116020000I-225000J0D01*
G01*
G37*
%TD*%
%TO.C,C9*%
G36*
G01*
X183205000Y-117725000D02*
X183205000Y-117225000D01*
G75*
G02*
X183430000Y-117000000I225000J0D01*
G01*
X183880000Y-117000000D01*
G75*
G02*
X184105000Y-117225000I0J-225000D01*
G01*
X184105000Y-117725000D01*
G75*
G02*
X183880000Y-117950000I-225000J0D01*
G01*
X183430000Y-117950000D01*
G75*
G02*
X183205000Y-117725000I0J225000D01*
G01*
G37*
G36*
G01*
X181655000Y-117725000D02*
X181655000Y-117225000D01*
G75*
G02*
X181880000Y-117000000I225000J0D01*
G01*
X182330000Y-117000000D01*
G75*
G02*
X182555000Y-117225000I0J-225000D01*
G01*
X182555000Y-117725000D01*
G75*
G02*
X182330000Y-117950000I-225000J0D01*
G01*
X181880000Y-117950000D01*
G75*
G02*
X181655000Y-117725000I0J225000D01*
G01*
G37*
%TD*%
%TO.C,C10*%
G36*
G01*
X179570000Y-101760000D02*
X179570000Y-102710000D01*
G75*
G02*
X179320000Y-102960000I-250000J0D01*
G01*
X178820000Y-102960000D01*
G75*
G02*
X178570000Y-102710000I0J250000D01*
G01*
X178570000Y-101760000D01*
G75*
G02*
X178820000Y-101510000I250000J0D01*
G01*
X179320000Y-101510000D01*
G75*
G02*
X179570000Y-101760000I0J-250000D01*
G01*
G37*
G36*
G01*
X181470000Y-101760000D02*
X181470000Y-102710000D01*
G75*
G02*
X181220000Y-102960000I-250000J0D01*
G01*
X180720000Y-102960000D01*
G75*
G02*
X180470000Y-102710000I0J250000D01*
G01*
X180470000Y-101760000D01*
G75*
G02*
X180720000Y-101510000I250000J0D01*
G01*
X181220000Y-101510000D01*
G75*
G02*
X181470000Y-101760000I0J-250000D01*
G01*
G37*
%TD*%
%TO.C,C11*%
G36*
G01*
X172535000Y-123665000D02*
X172535000Y-122715000D01*
G75*
G02*
X172785000Y-122465000I250000J0D01*
G01*
X173285000Y-122465000D01*
G75*
G02*
X173535000Y-122715000I0J-250000D01*
G01*
X173535000Y-123665000D01*
G75*
G02*
X173285000Y-123915000I-250000J0D01*
G01*
X172785000Y-123915000D01*
G75*
G02*
X172535000Y-123665000I0J250000D01*
G01*
G37*
G36*
G01*
X170635000Y-123665000D02*
X170635000Y-122715000D01*
G75*
G02*
X170885000Y-122465000I250000J0D01*
G01*
X171385000Y-122465000D01*
G75*
G02*
X171635000Y-122715000I0J-250000D01*
G01*
X171635000Y-123665000D01*
G75*
G02*
X171385000Y-123915000I-250000J0D01*
G01*
X170885000Y-123915000D01*
G75*
G02*
X170635000Y-123665000I0J250000D01*
G01*
G37*
%TD*%
%TO.C,C13*%
G36*
G01*
X177210000Y-117725000D02*
X177210000Y-117225000D01*
G75*
G02*
X177435000Y-117000000I225000J0D01*
G01*
X177885000Y-117000000D01*
G75*
G02*
X178110000Y-117225000I0J-225000D01*
G01*
X178110000Y-117725000D01*
G75*
G02*
X177885000Y-117950000I-225000J0D01*
G01*
X177435000Y-117950000D01*
G75*
G02*
X177210000Y-117725000I0J225000D01*
G01*
G37*
G36*
G01*
X178760000Y-117725000D02*
X178760000Y-117225000D01*
G75*
G02*
X178985000Y-117000000I225000J0D01*
G01*
X179435000Y-117000000D01*
G75*
G02*
X179660000Y-117225000I0J-225000D01*
G01*
X179660000Y-117725000D01*
G75*
G02*
X179435000Y-117950000I-225000J0D01*
G01*
X178985000Y-117950000D01*
G75*
G02*
X178760000Y-117725000I0J225000D01*
G01*
G37*
%TD*%
%TO.C,C14*%
G36*
G01*
X181475000Y-104300000D02*
X181475000Y-105250000D01*
G75*
G02*
X181225000Y-105500000I-250000J0D01*
G01*
X180725000Y-105500000D01*
G75*
G02*
X180475000Y-105250000I0J250000D01*
G01*
X180475000Y-104300000D01*
G75*
G02*
X180725000Y-104050000I250000J0D01*
G01*
X181225000Y-104050000D01*
G75*
G02*
X181475000Y-104300000I0J-250000D01*
G01*
G37*
G36*
G01*
X179575000Y-104300000D02*
X179575000Y-105250000D01*
G75*
G02*
X179325000Y-105500000I-250000J0D01*
G01*
X178825000Y-105500000D01*
G75*
G02*
X178575000Y-105250000I0J250000D01*
G01*
X178575000Y-104300000D01*
G75*
G02*
X178825000Y-104050000I250000J0D01*
G01*
X179325000Y-104050000D01*
G75*
G02*
X179575000Y-104300000I0J-250000D01*
G01*
G37*
%TD*%
%TO.C,C15*%
G36*
G01*
X170635000Y-133825000D02*
X170635000Y-132875000D01*
G75*
G02*
X170885000Y-132625000I250000J0D01*
G01*
X171385000Y-132625000D01*
G75*
G02*
X171635000Y-132875000I0J-250000D01*
G01*
X171635000Y-133825000D01*
G75*
G02*
X171385000Y-134075000I-250000J0D01*
G01*
X170885000Y-134075000D01*
G75*
G02*
X170635000Y-133825000I0J250000D01*
G01*
G37*
G36*
G01*
X172535000Y-133825000D02*
X172535000Y-132875000D01*
G75*
G02*
X172785000Y-132625000I250000J0D01*
G01*
X173285000Y-132625000D01*
G75*
G02*
X173535000Y-132875000I0J-250000D01*
G01*
X173535000Y-133825000D01*
G75*
G02*
X173285000Y-134075000I-250000J0D01*
G01*
X172785000Y-134075000D01*
G75*
G02*
X172535000Y-133825000I0J250000D01*
G01*
G37*
%TD*%
%TO.C,C16*%
G36*
G01*
X154555000Y-120465000D02*
X154055000Y-120465000D01*
G75*
G02*
X153830000Y-120240000I0J225000D01*
G01*
X153830000Y-119790000D01*
G75*
G02*
X154055000Y-119565000I225000J0D01*
G01*
X154555000Y-119565000D01*
G75*
G02*
X154780000Y-119790000I0J-225000D01*
G01*
X154780000Y-120240000D01*
G75*
G02*
X154555000Y-120465000I-225000J0D01*
G01*
G37*
G36*
G01*
X154555000Y-122015000D02*
X154055000Y-122015000D01*
G75*
G02*
X153830000Y-121790000I0J225000D01*
G01*
X153830000Y-121340000D01*
G75*
G02*
X154055000Y-121115000I225000J0D01*
G01*
X154555000Y-121115000D01*
G75*
G02*
X154780000Y-121340000I0J-225000D01*
G01*
X154780000Y-121790000D01*
G75*
G02*
X154555000Y-122015000I-225000J0D01*
G01*
G37*
%TD*%
%TO.C,C17*%
G36*
G01*
X178760000Y-115820000D02*
X178760000Y-115320000D01*
G75*
G02*
X178985000Y-115095000I225000J0D01*
G01*
X179435000Y-115095000D01*
G75*
G02*
X179660000Y-115320000I0J-225000D01*
G01*
X179660000Y-115820000D01*
G75*
G02*
X179435000Y-116045000I-225000J0D01*
G01*
X178985000Y-116045000D01*
G75*
G02*
X178760000Y-115820000I0J225000D01*
G01*
G37*
G36*
G01*
X177210000Y-115820000D02*
X177210000Y-115320000D01*
G75*
G02*
X177435000Y-115095000I225000J0D01*
G01*
X177885000Y-115095000D01*
G75*
G02*
X178110000Y-115320000I0J-225000D01*
G01*
X178110000Y-115820000D01*
G75*
G02*
X177885000Y-116045000I-225000J0D01*
G01*
X177435000Y-116045000D01*
G75*
G02*
X177210000Y-115820000I0J225000D01*
G01*
G37*
%TD*%
%TO.C,C18*%
G36*
G01*
X179570000Y-106840000D02*
X179570000Y-107790000D01*
G75*
G02*
X179320000Y-108040000I-250000J0D01*
G01*
X178820000Y-108040000D01*
G75*
G02*
X178570000Y-107790000I0J250000D01*
G01*
X178570000Y-106840000D01*
G75*
G02*
X178820000Y-106590000I250000J0D01*
G01*
X179320000Y-106590000D01*
G75*
G02*
X179570000Y-106840000I0J-250000D01*
G01*
G37*
G36*
G01*
X181470000Y-106840000D02*
X181470000Y-107790000D01*
G75*
G02*
X181220000Y-108040000I-250000J0D01*
G01*
X180720000Y-108040000D01*
G75*
G02*
X180470000Y-107790000I0J250000D01*
G01*
X180470000Y-106840000D01*
G75*
G02*
X180720000Y-106590000I250000J0D01*
G01*
X181220000Y-106590000D01*
G75*
G02*
X181470000Y-106840000I0J-250000D01*
G01*
G37*
%TD*%
%TO.C,C19*%
G36*
G01*
X172535000Y-128745000D02*
X172535000Y-127795000D01*
G75*
G02*
X172785000Y-127545000I250000J0D01*
G01*
X173285000Y-127545000D01*
G75*
G02*
X173535000Y-127795000I0J-250000D01*
G01*
X173535000Y-128745000D01*
G75*
G02*
X173285000Y-128995000I-250000J0D01*
G01*
X172785000Y-128995000D01*
G75*
G02*
X172535000Y-128745000I0J250000D01*
G01*
G37*
G36*
G01*
X170635000Y-128745000D02*
X170635000Y-127795000D01*
G75*
G02*
X170885000Y-127545000I250000J0D01*
G01*
X171385000Y-127545000D01*
G75*
G02*
X171635000Y-127795000I0J-250000D01*
G01*
X171635000Y-128745000D01*
G75*
G02*
X171385000Y-128995000I-250000J0D01*
G01*
X170885000Y-128995000D01*
G75*
G02*
X170635000Y-128745000I0J250000D01*
G01*
G37*
%TD*%
%TO.C,C20*%
G36*
G01*
X181470000Y-109380000D02*
X181470000Y-110330000D01*
G75*
G02*
X181220000Y-110580000I-250000J0D01*
G01*
X180720000Y-110580000D01*
G75*
G02*
X180470000Y-110330000I0J250000D01*
G01*
X180470000Y-109380000D01*
G75*
G02*
X180720000Y-109130000I250000J0D01*
G01*
X181220000Y-109130000D01*
G75*
G02*
X181470000Y-109380000I0J-250000D01*
G01*
G37*
G36*
G01*
X179570000Y-109380000D02*
X179570000Y-110330000D01*
G75*
G02*
X179320000Y-110580000I-250000J0D01*
G01*
X178820000Y-110580000D01*
G75*
G02*
X178570000Y-110330000I0J250000D01*
G01*
X178570000Y-109380000D01*
G75*
G02*
X178820000Y-109130000I250000J0D01*
G01*
X179320000Y-109130000D01*
G75*
G02*
X179570000Y-109380000I0J-250000D01*
G01*
G37*
%TD*%
%TO.C,C21*%
G36*
G01*
X170635000Y-126205000D02*
X170635000Y-125255000D01*
G75*
G02*
X170885000Y-125005000I250000J0D01*
G01*
X171385000Y-125005000D01*
G75*
G02*
X171635000Y-125255000I0J-250000D01*
G01*
X171635000Y-126205000D01*
G75*
G02*
X171385000Y-126455000I-250000J0D01*
G01*
X170885000Y-126455000D01*
G75*
G02*
X170635000Y-126205000I0J250000D01*
G01*
G37*
G36*
G01*
X172535000Y-126205000D02*
X172535000Y-125255000D01*
G75*
G02*
X172785000Y-125005000I250000J0D01*
G01*
X173285000Y-125005000D01*
G75*
G02*
X173535000Y-125255000I0J-250000D01*
G01*
X173535000Y-126205000D01*
G75*
G02*
X173285000Y-126455000I-250000J0D01*
G01*
X172785000Y-126455000D01*
G75*
G02*
X172535000Y-126205000I0J250000D01*
G01*
G37*
%TD*%
%TO.C,C22*%
G36*
G01*
X170635000Y-131285000D02*
X170635000Y-130335000D01*
G75*
G02*
X170885000Y-130085000I250000J0D01*
G01*
X171385000Y-130085000D01*
G75*
G02*
X171635000Y-130335000I0J-250000D01*
G01*
X171635000Y-131285000D01*
G75*
G02*
X171385000Y-131535000I-250000J0D01*
G01*
X170885000Y-131535000D01*
G75*
G02*
X170635000Y-131285000I0J250000D01*
G01*
G37*
G36*
G01*
X172535000Y-131285000D02*
X172535000Y-130335000D01*
G75*
G02*
X172785000Y-130085000I250000J0D01*
G01*
X173285000Y-130085000D01*
G75*
G02*
X173535000Y-130335000I0J-250000D01*
G01*
X173535000Y-131285000D01*
G75*
G02*
X173285000Y-131535000I-250000J0D01*
G01*
X172785000Y-131535000D01*
G75*
G02*
X172535000Y-131285000I0J250000D01*
G01*
G37*
%TD*%
%TO.C,C24*%
G36*
G01*
X188425000Y-155190000D02*
X188425000Y-154690000D01*
G75*
G02*
X188650000Y-154465000I225000J0D01*
G01*
X189100000Y-154465000D01*
G75*
G02*
X189325000Y-154690000I0J-225000D01*
G01*
X189325000Y-155190000D01*
G75*
G02*
X189100000Y-155415000I-225000J0D01*
G01*
X188650000Y-155415000D01*
G75*
G02*
X188425000Y-155190000I0J225000D01*
G01*
G37*
G36*
G01*
X186875000Y-155190000D02*
X186875000Y-154690000D01*
G75*
G02*
X187100000Y-154465000I225000J0D01*
G01*
X187550000Y-154465000D01*
G75*
G02*
X187775000Y-154690000I0J-225000D01*
G01*
X187775000Y-155190000D01*
G75*
G02*
X187550000Y-155415000I-225000J0D01*
G01*
X187100000Y-155415000D01*
G75*
G02*
X186875000Y-155190000I0J225000D01*
G01*
G37*
%TD*%
%TO.C,C25*%
G36*
G01*
X146995000Y-152150000D02*
X146995000Y-152650000D01*
G75*
G02*
X146770000Y-152875000I-225000J0D01*
G01*
X146320000Y-152875000D01*
G75*
G02*
X146095000Y-152650000I0J225000D01*
G01*
X146095000Y-152150000D01*
G75*
G02*
X146320000Y-151925000I225000J0D01*
G01*
X146770000Y-151925000D01*
G75*
G02*
X146995000Y-152150000I0J-225000D01*
G01*
G37*
G36*
G01*
X148545000Y-152150000D02*
X148545000Y-152650000D01*
G75*
G02*
X148320000Y-152875000I-225000J0D01*
G01*
X147870000Y-152875000D01*
G75*
G02*
X147645000Y-152650000I0J225000D01*
G01*
X147645000Y-152150000D01*
G75*
G02*
X147870000Y-151925000I225000J0D01*
G01*
X148320000Y-151925000D01*
G75*
G02*
X148545000Y-152150000I0J-225000D01*
G01*
G37*
%TD*%
%TO.C,C27*%
G36*
G01*
X150245000Y-149270000D02*
X150745000Y-149270000D01*
G75*
G02*
X150970000Y-149495000I0J-225000D01*
G01*
X150970000Y-149945000D01*
G75*
G02*
X150745000Y-150170000I-225000J0D01*
G01*
X150245000Y-150170000D01*
G75*
G02*
X150020000Y-149945000I0J225000D01*
G01*
X150020000Y-149495000D01*
G75*
G02*
X150245000Y-149270000I225000J0D01*
G01*
G37*
G36*
G01*
X150245000Y-150820000D02*
X150745000Y-150820000D01*
G75*
G02*
X150970000Y-151045000I0J-225000D01*
G01*
X150970000Y-151495000D01*
G75*
G02*
X150745000Y-151720000I-225000J0D01*
G01*
X150245000Y-151720000D01*
G75*
G02*
X150020000Y-151495000I0J225000D01*
G01*
X150020000Y-151045000D01*
G75*
G02*
X150245000Y-150820000I225000J0D01*
G01*
G37*
%TD*%
D10*
%TO.C,D1*%
X196850000Y-102775000D03*
X196850000Y-106775000D03*
%TD*%
%TO.C,D2*%
X161290000Y-112935000D03*
X161290000Y-116935000D03*
%TD*%
%TO.C,D3*%
X191770000Y-120650000D03*
X191770000Y-124650000D03*
%TD*%
D11*
%TO.C,D4*%
X174879000Y-114300000D03*
X170879000Y-114300000D03*
%TD*%
%TO.C,D5*%
X182245000Y-123190000D03*
X178245000Y-123190000D03*
%TD*%
D10*
%TO.C,D6*%
X149225000Y-142970000D03*
X149225000Y-146970000D03*
%TD*%
%TO.C,D7*%
X137160000Y-138970000D03*
X137160000Y-142970000D03*
%TD*%
%TO.C,D8*%
X137160000Y-151670000D03*
X137160000Y-155670000D03*
%TD*%
%TO.C,D9*%
X137160000Y-130270000D03*
X137160000Y-126270000D03*
%TD*%
%TO.C,D10*%
G36*
G01*
X131998000Y-149481250D02*
X131998000Y-148968750D01*
G75*
G02*
X132216750Y-148750000I218750J0D01*
G01*
X132654250Y-148750000D01*
G75*
G02*
X132873000Y-148968750I0J-218750D01*
G01*
X132873000Y-149481250D01*
G75*
G02*
X132654250Y-149700000I-218750J0D01*
G01*
X132216750Y-149700000D01*
G75*
G02*
X131998000Y-149481250I0J218750D01*
G01*
G37*
G36*
G01*
X133573000Y-149481250D02*
X133573000Y-148968750D01*
G75*
G02*
X133791750Y-148750000I218750J0D01*
G01*
X134229250Y-148750000D01*
G75*
G02*
X134448000Y-148968750I0J-218750D01*
G01*
X134448000Y-149481250D01*
G75*
G02*
X134229250Y-149700000I-218750J0D01*
G01*
X133791750Y-149700000D01*
G75*
G02*
X133573000Y-149481250I0J218750D01*
G01*
G37*
%TD*%
%TO.C,D11*%
G36*
G01*
X133573000Y-162181250D02*
X133573000Y-161668750D01*
G75*
G02*
X133791750Y-161450000I218750J0D01*
G01*
X134229250Y-161450000D01*
G75*
G02*
X134448000Y-161668750I0J-218750D01*
G01*
X134448000Y-162181250D01*
G75*
G02*
X134229250Y-162400000I-218750J0D01*
G01*
X133791750Y-162400000D01*
G75*
G02*
X133573000Y-162181250I0J218750D01*
G01*
G37*
G36*
G01*
X131998000Y-162181250D02*
X131998000Y-161668750D01*
G75*
G02*
X132216750Y-161450000I218750J0D01*
G01*
X132654250Y-161450000D01*
G75*
G02*
X132873000Y-161668750I0J-218750D01*
G01*
X132873000Y-162181250D01*
G75*
G02*
X132654250Y-162400000I-218750J0D01*
G01*
X132216750Y-162400000D01*
G75*
G02*
X131998000Y-162181250I0J218750D01*
G01*
G37*
%TD*%
%TO.C,D12*%
G36*
G01*
X131998000Y-136781250D02*
X131998000Y-136268750D01*
G75*
G02*
X132216750Y-136050000I218750J0D01*
G01*
X132654250Y-136050000D01*
G75*
G02*
X132873000Y-136268750I0J-218750D01*
G01*
X132873000Y-136781250D01*
G75*
G02*
X132654250Y-137000000I-218750J0D01*
G01*
X132216750Y-137000000D01*
G75*
G02*
X131998000Y-136781250I0J218750D01*
G01*
G37*
G36*
G01*
X133573000Y-136781250D02*
X133573000Y-136268750D01*
G75*
G02*
X133791750Y-136050000I218750J0D01*
G01*
X134229250Y-136050000D01*
G75*
G02*
X134448000Y-136268750I0J-218750D01*
G01*
X134448000Y-136781250D01*
G75*
G02*
X134229250Y-137000000I-218750J0D01*
G01*
X133791750Y-137000000D01*
G75*
G02*
X133573000Y-136781250I0J218750D01*
G01*
G37*
%TD*%
%TO.C,D13*%
X133223000Y-142780000D03*
X133223000Y-146780000D03*
%TD*%
%TO.C,D14*%
X133223000Y-159480000D03*
X133223000Y-155480000D03*
%TD*%
%TO.C,D15*%
X133223000Y-134080000D03*
X133223000Y-130080000D03*
%TD*%
%TO.C,F1*%
G36*
G01*
X195399999Y-109060000D02*
X198300001Y-109060000D01*
G75*
G02*
X198550000Y-109309999I0J-249999D01*
G01*
X198550000Y-109935001D01*
G75*
G02*
X198300001Y-110185000I-249999J0D01*
G01*
X195399999Y-110185000D01*
G75*
G02*
X195150000Y-109935001I0J249999D01*
G01*
X195150000Y-109309999D01*
G75*
G02*
X195399999Y-109060000I249999J0D01*
G01*
G37*
G36*
G01*
X195399999Y-113335000D02*
X198300001Y-113335000D01*
G75*
G02*
X198550000Y-113584999I0J-249999D01*
G01*
X198550000Y-114210001D01*
G75*
G02*
X198300001Y-114460000I-249999J0D01*
G01*
X195399999Y-114460000D01*
G75*
G02*
X195150000Y-114210001I0J249999D01*
G01*
X195150000Y-113584999D01*
G75*
G02*
X195399999Y-113335000I249999J0D01*
G01*
G37*
%TD*%
%TO.C,F2*%
G36*
G01*
X167820001Y-118672500D02*
X164919999Y-118672500D01*
G75*
G02*
X164670000Y-118422501I0J249999D01*
G01*
X164670000Y-117797499D01*
G75*
G02*
X164919999Y-117547500I249999J0D01*
G01*
X167820001Y-117547500D01*
G75*
G02*
X168070000Y-117797499I0J-249999D01*
G01*
X168070000Y-118422501D01*
G75*
G02*
X167820001Y-118672500I-249999J0D01*
G01*
G37*
G36*
G01*
X167820001Y-114397500D02*
X164919999Y-114397500D01*
G75*
G02*
X164670000Y-114147501I0J249999D01*
G01*
X164670000Y-113522499D01*
G75*
G02*
X164919999Y-113272500I249999J0D01*
G01*
X167820001Y-113272500D01*
G75*
G02*
X168070000Y-113522499I0J-249999D01*
G01*
X168070000Y-114147501D01*
G75*
G02*
X167820001Y-114397500I-249999J0D01*
G01*
G37*
%TD*%
%TO.C,F3*%
G36*
G01*
X185239999Y-123262500D02*
X188140001Y-123262500D01*
G75*
G02*
X188390000Y-123512499I0J-249999D01*
G01*
X188390000Y-124137501D01*
G75*
G02*
X188140001Y-124387500I-249999J0D01*
G01*
X185239999Y-124387500D01*
G75*
G02*
X184990000Y-124137501I0J249999D01*
G01*
X184990000Y-123512499D01*
G75*
G02*
X185239999Y-123262500I249999J0D01*
G01*
G37*
G36*
G01*
X185239999Y-118987500D02*
X188140001Y-118987500D01*
G75*
G02*
X188390000Y-119237499I0J-249999D01*
G01*
X188390000Y-119862501D01*
G75*
G02*
X188140001Y-120112500I-249999J0D01*
G01*
X185239999Y-120112500D01*
G75*
G02*
X184990000Y-119862501I0J249999D01*
G01*
X184990000Y-119237499D01*
G75*
G02*
X185239999Y-118987500I249999J0D01*
G01*
G37*
%TD*%
D12*
%TO.C,J2*%
X152765000Y-163830000D03*
D13*
X151115000Y-161130000D03*
X150465000Y-161130000D03*
X153065000Y-161130000D03*
X152415000Y-161130000D03*
X151765000Y-161130000D03*
D12*
X150765000Y-163830000D03*
%TD*%
D14*
%TO.C,J3*%
X208160000Y-113080000D03*
X208160000Y-123680000D03*
D15*
X200660000Y-115380000D03*
X200660000Y-117380000D03*
X200660000Y-119380000D03*
X200660000Y-121380000D03*
%TD*%
D14*
%TO.C,J4*%
X208160000Y-126415000D03*
X208160000Y-137015000D03*
D15*
X200660000Y-128715000D03*
X200660000Y-130715000D03*
X200660000Y-132715000D03*
X200660000Y-134715000D03*
%TD*%
D14*
%TO.C,J5*%
X122548000Y-112345000D03*
X122548000Y-101745000D03*
D15*
X130048000Y-110045000D03*
X130048000Y-108045000D03*
X130048000Y-106045000D03*
X130048000Y-104045000D03*
%TD*%
%TO.C,J7*%
X130048000Y-118015000D03*
X130048000Y-120015000D03*
X130048000Y-122015000D03*
X130048000Y-124015000D03*
D14*
X122548000Y-115715000D03*
X122548000Y-126315000D03*
%TD*%
D15*
%TO.C,J8*%
X200660000Y-148050000D03*
X200660000Y-146050000D03*
X200660000Y-144050000D03*
X200660000Y-142050000D03*
D14*
X208160000Y-150350000D03*
X208160000Y-139750000D03*
%TD*%
D15*
%TO.C,J9*%
X200660000Y-161385000D03*
X200660000Y-159385000D03*
X200660000Y-157385000D03*
X200660000Y-155385000D03*
D14*
X208160000Y-163685000D03*
X208160000Y-153085000D03*
%TD*%
D16*
%TO.C,L1*%
X174295000Y-106680000D03*
X164795000Y-106680000D03*
%TD*%
%TO.C,L2*%
X188265000Y-130810000D03*
X178765000Y-130810000D03*
%TD*%
D17*
%TO.C,Q3*%
X136083000Y-147685000D03*
X137983000Y-147685000D03*
X137033000Y-145685000D03*
%TD*%
%TO.C,Q4*%
X137033000Y-158385000D03*
X137983000Y-160385000D03*
X136083000Y-160385000D03*
%TD*%
%TO.C,Q5*%
X136083000Y-134985000D03*
X137983000Y-134985000D03*
X137033000Y-132985000D03*
%TD*%
%TO.C,R1*%
G36*
G01*
X157840000Y-116820000D02*
X158390000Y-116820000D01*
G75*
G02*
X158590000Y-117020000I0J-200000D01*
G01*
X158590000Y-117420000D01*
G75*
G02*
X158390000Y-117620000I-200000J0D01*
G01*
X157840000Y-117620000D01*
G75*
G02*
X157640000Y-117420000I0J200000D01*
G01*
X157640000Y-117020000D01*
G75*
G02*
X157840000Y-116820000I200000J0D01*
G01*
G37*
G36*
G01*
X157840000Y-115170000D02*
X158390000Y-115170000D01*
G75*
G02*
X158590000Y-115370000I0J-200000D01*
G01*
X158590000Y-115770000D01*
G75*
G02*
X158390000Y-115970000I-200000J0D01*
G01*
X157840000Y-115970000D01*
G75*
G02*
X157640000Y-115770000I0J200000D01*
G01*
X157640000Y-115370000D01*
G75*
G02*
X157840000Y-115170000I200000J0D01*
G01*
G37*
%TD*%
%TO.C,R2*%
G36*
G01*
X157840000Y-119615000D02*
X158390000Y-119615000D01*
G75*
G02*
X158590000Y-119815000I0J-200000D01*
G01*
X158590000Y-120215000D01*
G75*
G02*
X158390000Y-120415000I-200000J0D01*
G01*
X157840000Y-120415000D01*
G75*
G02*
X157640000Y-120215000I0J200000D01*
G01*
X157640000Y-119815000D01*
G75*
G02*
X157840000Y-119615000I200000J0D01*
G01*
G37*
G36*
G01*
X157840000Y-121265000D02*
X158390000Y-121265000D01*
G75*
G02*
X158590000Y-121465000I0J-200000D01*
G01*
X158590000Y-121865000D01*
G75*
G02*
X158390000Y-122065000I-200000J0D01*
G01*
X157840000Y-122065000D01*
G75*
G02*
X157640000Y-121865000I0J200000D01*
G01*
X157640000Y-121465000D01*
G75*
G02*
X157840000Y-121265000I200000J0D01*
G01*
G37*
%TD*%
%TO.C,R3*%
G36*
G01*
X182455000Y-119105000D02*
X182455000Y-119655000D01*
G75*
G02*
X182255000Y-119855000I-200000J0D01*
G01*
X181855000Y-119855000D01*
G75*
G02*
X181655000Y-119655000I0J200000D01*
G01*
X181655000Y-119105000D01*
G75*
G02*
X181855000Y-118905000I200000J0D01*
G01*
X182255000Y-118905000D01*
G75*
G02*
X182455000Y-119105000I0J-200000D01*
G01*
G37*
G36*
G01*
X184105000Y-119105000D02*
X184105000Y-119655000D01*
G75*
G02*
X183905000Y-119855000I-200000J0D01*
G01*
X183505000Y-119855000D01*
G75*
G02*
X183305000Y-119655000I0J200000D01*
G01*
X183305000Y-119105000D01*
G75*
G02*
X183505000Y-118905000I200000J0D01*
G01*
X183905000Y-118905000D01*
G75*
G02*
X184105000Y-119105000I0J-200000D01*
G01*
G37*
%TD*%
%TO.C,R4*%
G36*
G01*
X179660000Y-119105000D02*
X179660000Y-119655000D01*
G75*
G02*
X179460000Y-119855000I-200000J0D01*
G01*
X179060000Y-119855000D01*
G75*
G02*
X178860000Y-119655000I0J200000D01*
G01*
X178860000Y-119105000D01*
G75*
G02*
X179060000Y-118905000I200000J0D01*
G01*
X179460000Y-118905000D01*
G75*
G02*
X179660000Y-119105000I0J-200000D01*
G01*
G37*
G36*
G01*
X178010000Y-119105000D02*
X178010000Y-119655000D01*
G75*
G02*
X177810000Y-119855000I-200000J0D01*
G01*
X177410000Y-119855000D01*
G75*
G02*
X177210000Y-119655000I0J200000D01*
G01*
X177210000Y-119105000D01*
G75*
G02*
X177410000Y-118905000I200000J0D01*
G01*
X177810000Y-118905000D01*
G75*
G02*
X178010000Y-119105000I0J-200000D01*
G01*
G37*
%TD*%
%TO.C,R5*%
G36*
G01*
X175620000Y-118980000D02*
X176170000Y-118980000D01*
G75*
G02*
X176370000Y-119180000I0J-200000D01*
G01*
X176370000Y-119580000D01*
G75*
G02*
X176170000Y-119780000I-200000J0D01*
G01*
X175620000Y-119780000D01*
G75*
G02*
X175420000Y-119580000I0J200000D01*
G01*
X175420000Y-119180000D01*
G75*
G02*
X175620000Y-118980000I200000J0D01*
G01*
G37*
G36*
G01*
X175620000Y-117330000D02*
X176170000Y-117330000D01*
G75*
G02*
X176370000Y-117530000I0J-200000D01*
G01*
X176370000Y-117930000D01*
G75*
G02*
X176170000Y-118130000I-200000J0D01*
G01*
X175620000Y-118130000D01*
G75*
G02*
X175420000Y-117930000I0J200000D01*
G01*
X175420000Y-117530000D01*
G75*
G02*
X175620000Y-117330000I200000J0D01*
G01*
G37*
%TD*%
%TO.C,R6*%
G36*
G01*
X153310000Y-130130000D02*
X152760000Y-130130000D01*
G75*
G02*
X152560000Y-129930000I0J200000D01*
G01*
X152560000Y-129530000D01*
G75*
G02*
X152760000Y-129330000I200000J0D01*
G01*
X153310000Y-129330000D01*
G75*
G02*
X153510000Y-129530000I0J-200000D01*
G01*
X153510000Y-129930000D01*
G75*
G02*
X153310000Y-130130000I-200000J0D01*
G01*
G37*
G36*
G01*
X153310000Y-128480000D02*
X152760000Y-128480000D01*
G75*
G02*
X152560000Y-128280000I0J200000D01*
G01*
X152560000Y-127880000D01*
G75*
G02*
X152760000Y-127680000I200000J0D01*
G01*
X153310000Y-127680000D01*
G75*
G02*
X153510000Y-127880000I0J-200000D01*
G01*
X153510000Y-128280000D01*
G75*
G02*
X153310000Y-128480000I-200000J0D01*
G01*
G37*
%TD*%
%TO.C,R7*%
G36*
G01*
X159025000Y-130130000D02*
X158475000Y-130130000D01*
G75*
G02*
X158275000Y-129930000I0J200000D01*
G01*
X158275000Y-129530000D01*
G75*
G02*
X158475000Y-129330000I200000J0D01*
G01*
X159025000Y-129330000D01*
G75*
G02*
X159225000Y-129530000I0J-200000D01*
G01*
X159225000Y-129930000D01*
G75*
G02*
X159025000Y-130130000I-200000J0D01*
G01*
G37*
G36*
G01*
X159025000Y-128480000D02*
X158475000Y-128480000D01*
G75*
G02*
X158275000Y-128280000I0J200000D01*
G01*
X158275000Y-127880000D01*
G75*
G02*
X158475000Y-127680000I200000J0D01*
G01*
X159025000Y-127680000D01*
G75*
G02*
X159225000Y-127880000I0J-200000D01*
G01*
X159225000Y-128280000D01*
G75*
G02*
X159025000Y-128480000I-200000J0D01*
G01*
G37*
%TD*%
%TO.C,R8*%
G36*
G01*
X162835000Y-156800000D02*
X162285000Y-156800000D01*
G75*
G02*
X162085000Y-156600000I0J200000D01*
G01*
X162085000Y-156200000D01*
G75*
G02*
X162285000Y-156000000I200000J0D01*
G01*
X162835000Y-156000000D01*
G75*
G02*
X163035000Y-156200000I0J-200000D01*
G01*
X163035000Y-156600000D01*
G75*
G02*
X162835000Y-156800000I-200000J0D01*
G01*
G37*
G36*
G01*
X162835000Y-155150000D02*
X162285000Y-155150000D01*
G75*
G02*
X162085000Y-154950000I0J200000D01*
G01*
X162085000Y-154550000D01*
G75*
G02*
X162285000Y-154350000I200000J0D01*
G01*
X162835000Y-154350000D01*
G75*
G02*
X163035000Y-154550000I0J-200000D01*
G01*
X163035000Y-154950000D01*
G75*
G02*
X162835000Y-155150000I-200000J0D01*
G01*
G37*
%TD*%
%TO.C,R9*%
G36*
G01*
X157205000Y-156000000D02*
X157755000Y-156000000D01*
G75*
G02*
X157955000Y-156200000I0J-200000D01*
G01*
X157955000Y-156600000D01*
G75*
G02*
X157755000Y-156800000I-200000J0D01*
G01*
X157205000Y-156800000D01*
G75*
G02*
X157005000Y-156600000I0J200000D01*
G01*
X157005000Y-156200000D01*
G75*
G02*
X157205000Y-156000000I200000J0D01*
G01*
G37*
G36*
G01*
X157205000Y-154350000D02*
X157755000Y-154350000D01*
G75*
G02*
X157955000Y-154550000I0J-200000D01*
G01*
X157955000Y-154950000D01*
G75*
G02*
X157755000Y-155150000I-200000J0D01*
G01*
X157205000Y-155150000D01*
G75*
G02*
X157005000Y-154950000I0J200000D01*
G01*
X157005000Y-154550000D01*
G75*
G02*
X157205000Y-154350000I200000J0D01*
G01*
G37*
%TD*%
%TO.C,R10*%
G36*
G01*
X154665000Y-129330000D02*
X155215000Y-129330000D01*
G75*
G02*
X155415000Y-129530000I0J-200000D01*
G01*
X155415000Y-129930000D01*
G75*
G02*
X155215000Y-130130000I-200000J0D01*
G01*
X154665000Y-130130000D01*
G75*
G02*
X154465000Y-129930000I0J200000D01*
G01*
X154465000Y-129530000D01*
G75*
G02*
X154665000Y-129330000I200000J0D01*
G01*
G37*
G36*
G01*
X154665000Y-127680000D02*
X155215000Y-127680000D01*
G75*
G02*
X155415000Y-127880000I0J-200000D01*
G01*
X155415000Y-128280000D01*
G75*
G02*
X155215000Y-128480000I-200000J0D01*
G01*
X154665000Y-128480000D01*
G75*
G02*
X154465000Y-128280000I0J200000D01*
G01*
X154465000Y-127880000D01*
G75*
G02*
X154665000Y-127680000I200000J0D01*
G01*
G37*
%TD*%
%TO.C,R11*%
G36*
G01*
X160380000Y-129330000D02*
X160930000Y-129330000D01*
G75*
G02*
X161130000Y-129530000I0J-200000D01*
G01*
X161130000Y-129930000D01*
G75*
G02*
X160930000Y-130130000I-200000J0D01*
G01*
X160380000Y-130130000D01*
G75*
G02*
X160180000Y-129930000I0J200000D01*
G01*
X160180000Y-129530000D01*
G75*
G02*
X160380000Y-129330000I200000J0D01*
G01*
G37*
G36*
G01*
X160380000Y-127680000D02*
X160930000Y-127680000D01*
G75*
G02*
X161130000Y-127880000I0J-200000D01*
G01*
X161130000Y-128280000D01*
G75*
G02*
X160930000Y-128480000I-200000J0D01*
G01*
X160380000Y-128480000D01*
G75*
G02*
X160180000Y-128280000I0J200000D01*
G01*
X160180000Y-127880000D01*
G75*
G02*
X160380000Y-127680000I200000J0D01*
G01*
G37*
%TD*%
%TO.C,R12*%
G36*
G01*
X147680000Y-156255000D02*
X148230000Y-156255000D01*
G75*
G02*
X148430000Y-156455000I0J-200000D01*
G01*
X148430000Y-156855000D01*
G75*
G02*
X148230000Y-157055000I-200000J0D01*
G01*
X147680000Y-157055000D01*
G75*
G02*
X147480000Y-156855000I0J200000D01*
G01*
X147480000Y-156455000D01*
G75*
G02*
X147680000Y-156255000I200000J0D01*
G01*
G37*
G36*
G01*
X147680000Y-157905000D02*
X148230000Y-157905000D01*
G75*
G02*
X148430000Y-158105000I0J-200000D01*
G01*
X148430000Y-158505000D01*
G75*
G02*
X148230000Y-158705000I-200000J0D01*
G01*
X147680000Y-158705000D01*
G75*
G02*
X147480000Y-158505000I0J200000D01*
G01*
X147480000Y-158105000D01*
G75*
G02*
X147680000Y-157905000I200000J0D01*
G01*
G37*
%TD*%
%TO.C,R13*%
G36*
G01*
X156485000Y-150070000D02*
X155935000Y-150070000D01*
G75*
G02*
X155735000Y-149870000I0J200000D01*
G01*
X155735000Y-149470000D01*
G75*
G02*
X155935000Y-149270000I200000J0D01*
G01*
X156485000Y-149270000D01*
G75*
G02*
X156685000Y-149470000I0J-200000D01*
G01*
X156685000Y-149870000D01*
G75*
G02*
X156485000Y-150070000I-200000J0D01*
G01*
G37*
G36*
G01*
X156485000Y-151720000D02*
X155935000Y-151720000D01*
G75*
G02*
X155735000Y-151520000I0J200000D01*
G01*
X155735000Y-151120000D01*
G75*
G02*
X155935000Y-150920000I200000J0D01*
G01*
X156485000Y-150920000D01*
G75*
G02*
X156685000Y-151120000I0J-200000D01*
G01*
X156685000Y-151520000D01*
G75*
G02*
X156485000Y-151720000I-200000J0D01*
G01*
G37*
%TD*%
%TO.C,R14*%
G36*
G01*
X195625000Y-116099000D02*
X195625000Y-115549000D01*
G75*
G02*
X195825000Y-115349000I200000J0D01*
G01*
X196225000Y-115349000D01*
G75*
G02*
X196425000Y-115549000I0J-200000D01*
G01*
X196425000Y-116099000D01*
G75*
G02*
X196225000Y-116299000I-200000J0D01*
G01*
X195825000Y-116299000D01*
G75*
G02*
X195625000Y-116099000I0J200000D01*
G01*
G37*
G36*
G01*
X197275000Y-116099000D02*
X197275000Y-115549000D01*
G75*
G02*
X197475000Y-115349000I200000J0D01*
G01*
X197875000Y-115349000D01*
G75*
G02*
X198075000Y-115549000I0J-200000D01*
G01*
X198075000Y-116099000D01*
G75*
G02*
X197875000Y-116299000I-200000J0D01*
G01*
X197475000Y-116299000D01*
G75*
G02*
X197275000Y-116099000I0J200000D01*
G01*
G37*
%TD*%
%TO.C,R15*%
G36*
G01*
X197275000Y-118131000D02*
X197275000Y-117581000D01*
G75*
G02*
X197475000Y-117381000I200000J0D01*
G01*
X197875000Y-117381000D01*
G75*
G02*
X198075000Y-117581000I0J-200000D01*
G01*
X198075000Y-118131000D01*
G75*
G02*
X197875000Y-118331000I-200000J0D01*
G01*
X197475000Y-118331000D01*
G75*
G02*
X197275000Y-118131000I0J200000D01*
G01*
G37*
G36*
G01*
X195625000Y-118131000D02*
X195625000Y-117581000D01*
G75*
G02*
X195825000Y-117381000I200000J0D01*
G01*
X196225000Y-117381000D01*
G75*
G02*
X196425000Y-117581000I0J-200000D01*
G01*
X196425000Y-118131000D01*
G75*
G02*
X196225000Y-118331000I-200000J0D01*
G01*
X195825000Y-118331000D01*
G75*
G02*
X195625000Y-118131000I0J200000D01*
G01*
G37*
%TD*%
%TO.C,R16*%
G36*
G01*
X195879000Y-142007000D02*
X195879000Y-141457000D01*
G75*
G02*
X196079000Y-141257000I200000J0D01*
G01*
X196479000Y-141257000D01*
G75*
G02*
X196679000Y-141457000I0J-200000D01*
G01*
X196679000Y-142007000D01*
G75*
G02*
X196479000Y-142207000I-200000J0D01*
G01*
X196079000Y-142207000D01*
G75*
G02*
X195879000Y-142007000I0J200000D01*
G01*
G37*
G36*
G01*
X197529000Y-142007000D02*
X197529000Y-141457000D01*
G75*
G02*
X197729000Y-141257000I200000J0D01*
G01*
X198129000Y-141257000D01*
G75*
G02*
X198329000Y-141457000I0J-200000D01*
G01*
X198329000Y-142007000D01*
G75*
G02*
X198129000Y-142207000I-200000J0D01*
G01*
X197729000Y-142207000D01*
G75*
G02*
X197529000Y-142007000I0J200000D01*
G01*
G37*
%TD*%
%TO.C,R17*%
G36*
G01*
X197529000Y-144039000D02*
X197529000Y-143489000D01*
G75*
G02*
X197729000Y-143289000I200000J0D01*
G01*
X198129000Y-143289000D01*
G75*
G02*
X198329000Y-143489000I0J-200000D01*
G01*
X198329000Y-144039000D01*
G75*
G02*
X198129000Y-144239000I-200000J0D01*
G01*
X197729000Y-144239000D01*
G75*
G02*
X197529000Y-144039000I0J200000D01*
G01*
G37*
G36*
G01*
X195879000Y-144039000D02*
X195879000Y-143489000D01*
G75*
G02*
X196079000Y-143289000I200000J0D01*
G01*
X196479000Y-143289000D01*
G75*
G02*
X196679000Y-143489000I0J-200000D01*
G01*
X196679000Y-144039000D01*
G75*
G02*
X196479000Y-144239000I-200000J0D01*
G01*
X196079000Y-144239000D01*
G75*
G02*
X195879000Y-144039000I0J200000D01*
G01*
G37*
%TD*%
%TO.C,R18*%
G36*
G01*
X165375000Y-149245000D02*
X164825000Y-149245000D01*
G75*
G02*
X164625000Y-149045000I0J200000D01*
G01*
X164625000Y-148645000D01*
G75*
G02*
X164825000Y-148445000I200000J0D01*
G01*
X165375000Y-148445000D01*
G75*
G02*
X165575000Y-148645000I0J-200000D01*
G01*
X165575000Y-149045000D01*
G75*
G02*
X165375000Y-149245000I-200000J0D01*
G01*
G37*
G36*
G01*
X165375000Y-150895000D02*
X164825000Y-150895000D01*
G75*
G02*
X164625000Y-150695000I0J200000D01*
G01*
X164625000Y-150295000D01*
G75*
G02*
X164825000Y-150095000I200000J0D01*
G01*
X165375000Y-150095000D01*
G75*
G02*
X165575000Y-150295000I0J-200000D01*
G01*
X165575000Y-150695000D01*
G75*
G02*
X165375000Y-150895000I-200000J0D01*
G01*
G37*
%TD*%
%TO.C,R19*%
G36*
G01*
X164825000Y-156190000D02*
X165375000Y-156190000D01*
G75*
G02*
X165575000Y-156390000I0J-200000D01*
G01*
X165575000Y-156790000D01*
G75*
G02*
X165375000Y-156990000I-200000J0D01*
G01*
X164825000Y-156990000D01*
G75*
G02*
X164625000Y-156790000I0J200000D01*
G01*
X164625000Y-156390000D01*
G75*
G02*
X164825000Y-156190000I200000J0D01*
G01*
G37*
G36*
G01*
X164825000Y-154540000D02*
X165375000Y-154540000D01*
G75*
G02*
X165575000Y-154740000I0J-200000D01*
G01*
X165575000Y-155140000D01*
G75*
G02*
X165375000Y-155340000I-200000J0D01*
G01*
X164825000Y-155340000D01*
G75*
G02*
X164625000Y-155140000I0J200000D01*
G01*
X164625000Y-154740000D01*
G75*
G02*
X164825000Y-154540000I200000J0D01*
G01*
G37*
%TD*%
%TO.C,R20*%
G36*
G01*
X135808000Y-149500000D02*
X135808000Y-148950000D01*
G75*
G02*
X136008000Y-148750000I200000J0D01*
G01*
X136408000Y-148750000D01*
G75*
G02*
X136608000Y-148950000I0J-200000D01*
G01*
X136608000Y-149500000D01*
G75*
G02*
X136408000Y-149700000I-200000J0D01*
G01*
X136008000Y-149700000D01*
G75*
G02*
X135808000Y-149500000I0J200000D01*
G01*
G37*
G36*
G01*
X137458000Y-149500000D02*
X137458000Y-148950000D01*
G75*
G02*
X137658000Y-148750000I200000J0D01*
G01*
X138058000Y-148750000D01*
G75*
G02*
X138258000Y-148950000I0J-200000D01*
G01*
X138258000Y-149500000D01*
G75*
G02*
X138058000Y-149700000I-200000J0D01*
G01*
X137658000Y-149700000D01*
G75*
G02*
X137458000Y-149500000I0J200000D01*
G01*
G37*
%TD*%
%TO.C,R21*%
G36*
G01*
X137458000Y-162200000D02*
X137458000Y-161650000D01*
G75*
G02*
X137658000Y-161450000I200000J0D01*
G01*
X138058000Y-161450000D01*
G75*
G02*
X138258000Y-161650000I0J-200000D01*
G01*
X138258000Y-162200000D01*
G75*
G02*
X138058000Y-162400000I-200000J0D01*
G01*
X137658000Y-162400000D01*
G75*
G02*
X137458000Y-162200000I0J200000D01*
G01*
G37*
G36*
G01*
X135808000Y-162200000D02*
X135808000Y-161650000D01*
G75*
G02*
X136008000Y-161450000I200000J0D01*
G01*
X136408000Y-161450000D01*
G75*
G02*
X136608000Y-161650000I0J-200000D01*
G01*
X136608000Y-162200000D01*
G75*
G02*
X136408000Y-162400000I-200000J0D01*
G01*
X136008000Y-162400000D01*
G75*
G02*
X135808000Y-162200000I0J200000D01*
G01*
G37*
%TD*%
%TO.C,R22*%
G36*
G01*
X135808000Y-136800000D02*
X135808000Y-136250000D01*
G75*
G02*
X136008000Y-136050000I200000J0D01*
G01*
X136408000Y-136050000D01*
G75*
G02*
X136608000Y-136250000I0J-200000D01*
G01*
X136608000Y-136800000D01*
G75*
G02*
X136408000Y-137000000I-200000J0D01*
G01*
X136008000Y-137000000D01*
G75*
G02*
X135808000Y-136800000I0J200000D01*
G01*
G37*
G36*
G01*
X137458000Y-136800000D02*
X137458000Y-136250000D01*
G75*
G02*
X137658000Y-136050000I200000J0D01*
G01*
X138058000Y-136050000D01*
G75*
G02*
X138258000Y-136250000I0J-200000D01*
G01*
X138258000Y-136800000D01*
G75*
G02*
X138058000Y-137000000I-200000J0D01*
G01*
X137658000Y-137000000D01*
G75*
G02*
X137458000Y-136800000I0J200000D01*
G01*
G37*
%TD*%
%TO.C,R23*%
G36*
G01*
X131998000Y-151405000D02*
X131998000Y-150855000D01*
G75*
G02*
X132198000Y-150655000I200000J0D01*
G01*
X132598000Y-150655000D01*
G75*
G02*
X132798000Y-150855000I0J-200000D01*
G01*
X132798000Y-151405000D01*
G75*
G02*
X132598000Y-151605000I-200000J0D01*
G01*
X132198000Y-151605000D01*
G75*
G02*
X131998000Y-151405000I0J200000D01*
G01*
G37*
G36*
G01*
X133648000Y-151405000D02*
X133648000Y-150855000D01*
G75*
G02*
X133848000Y-150655000I200000J0D01*
G01*
X134248000Y-150655000D01*
G75*
G02*
X134448000Y-150855000I0J-200000D01*
G01*
X134448000Y-151405000D01*
G75*
G02*
X134248000Y-151605000I-200000J0D01*
G01*
X133848000Y-151605000D01*
G75*
G02*
X133648000Y-151405000I0J200000D01*
G01*
G37*
%TD*%
%TO.C,R24*%
G36*
G01*
X133648000Y-164105000D02*
X133648000Y-163555000D01*
G75*
G02*
X133848000Y-163355000I200000J0D01*
G01*
X134248000Y-163355000D01*
G75*
G02*
X134448000Y-163555000I0J-200000D01*
G01*
X134448000Y-164105000D01*
G75*
G02*
X134248000Y-164305000I-200000J0D01*
G01*
X133848000Y-164305000D01*
G75*
G02*
X133648000Y-164105000I0J200000D01*
G01*
G37*
G36*
G01*
X131998000Y-164105000D02*
X131998000Y-163555000D01*
G75*
G02*
X132198000Y-163355000I200000J0D01*
G01*
X132598000Y-163355000D01*
G75*
G02*
X132798000Y-163555000I0J-200000D01*
G01*
X132798000Y-164105000D01*
G75*
G02*
X132598000Y-164305000I-200000J0D01*
G01*
X132198000Y-164305000D01*
G75*
G02*
X131998000Y-164105000I0J200000D01*
G01*
G37*
%TD*%
%TO.C,R25*%
G36*
G01*
X131998000Y-138705000D02*
X131998000Y-138155000D01*
G75*
G02*
X132198000Y-137955000I200000J0D01*
G01*
X132598000Y-137955000D01*
G75*
G02*
X132798000Y-138155000I0J-200000D01*
G01*
X132798000Y-138705000D01*
G75*
G02*
X132598000Y-138905000I-200000J0D01*
G01*
X132198000Y-138905000D01*
G75*
G02*
X131998000Y-138705000I0J200000D01*
G01*
G37*
G36*
G01*
X133648000Y-138705000D02*
X133648000Y-138155000D01*
G75*
G02*
X133848000Y-137955000I200000J0D01*
G01*
X134248000Y-137955000D01*
G75*
G02*
X134448000Y-138155000I0J-200000D01*
G01*
X134448000Y-138705000D01*
G75*
G02*
X134248000Y-138905000I-200000J0D01*
G01*
X133848000Y-138905000D01*
G75*
G02*
X133648000Y-138705000I0J200000D01*
G01*
G37*
%TD*%
%TO.C,R26*%
G36*
G01*
X156065000Y-123465000D02*
X156065000Y-122915000D01*
G75*
G02*
X156265000Y-122715000I200000J0D01*
G01*
X156665000Y-122715000D01*
G75*
G02*
X156865000Y-122915000I0J-200000D01*
G01*
X156865000Y-123465000D01*
G75*
G02*
X156665000Y-123665000I-200000J0D01*
G01*
X156265000Y-123665000D01*
G75*
G02*
X156065000Y-123465000I0J200000D01*
G01*
G37*
G36*
G01*
X157715000Y-123465000D02*
X157715000Y-122915000D01*
G75*
G02*
X157915000Y-122715000I200000J0D01*
G01*
X158315000Y-122715000D01*
G75*
G02*
X158515000Y-122915000I0J-200000D01*
G01*
X158515000Y-123465000D01*
G75*
G02*
X158315000Y-123665000I-200000J0D01*
G01*
X157915000Y-123665000D01*
G75*
G02*
X157715000Y-123465000I0J200000D01*
G01*
G37*
%TD*%
%TO.C,SW1*%
G36*
G01*
X155105000Y-135850000D02*
X153505000Y-135850000D01*
G75*
G02*
X153305000Y-135650000I0J200000D01*
G01*
X153305000Y-135250000D01*
G75*
G02*
X153505000Y-135050000I200000J0D01*
G01*
X155105000Y-135050000D01*
G75*
G02*
X155305000Y-135250000I0J-200000D01*
G01*
X155305000Y-135650000D01*
G75*
G02*
X155105000Y-135850000I-200000J0D01*
G01*
G37*
G36*
G01*
X155105000Y-131650000D02*
X153505000Y-131650000D01*
G75*
G02*
X153305000Y-131450000I0J200000D01*
G01*
X153305000Y-131050000D01*
G75*
G02*
X153505000Y-130850000I200000J0D01*
G01*
X155105000Y-130850000D01*
G75*
G02*
X155305000Y-131050000I0J-200000D01*
G01*
X155305000Y-131450000D01*
G75*
G02*
X155105000Y-131650000I-200000J0D01*
G01*
G37*
%TD*%
%TO.C,SW2*%
G36*
G01*
X160185000Y-131650000D02*
X158585000Y-131650000D01*
G75*
G02*
X158385000Y-131450000I0J200000D01*
G01*
X158385000Y-131050000D01*
G75*
G02*
X158585000Y-130850000I200000J0D01*
G01*
X160185000Y-130850000D01*
G75*
G02*
X160385000Y-131050000I0J-200000D01*
G01*
X160385000Y-131450000D01*
G75*
G02*
X160185000Y-131650000I-200000J0D01*
G01*
G37*
G36*
G01*
X160185000Y-135850000D02*
X158585000Y-135850000D01*
G75*
G02*
X158385000Y-135650000I0J200000D01*
G01*
X158385000Y-135250000D01*
G75*
G02*
X158585000Y-135050000I200000J0D01*
G01*
X160185000Y-135050000D01*
G75*
G02*
X160385000Y-135250000I0J-200000D01*
G01*
X160385000Y-135650000D01*
G75*
G02*
X160185000Y-135850000I-200000J0D01*
G01*
G37*
%TD*%
%TO.C,U1*%
G36*
G01*
X160505000Y-103230000D02*
X160805000Y-103230000D01*
G75*
G02*
X160955000Y-103380000I0J-150000D01*
G01*
X160955000Y-104680000D01*
G75*
G02*
X160805000Y-104830000I-150000J0D01*
G01*
X160505000Y-104830000D01*
G75*
G02*
X160355000Y-104680000I0J150000D01*
G01*
X160355000Y-103380000D01*
G75*
G02*
X160505000Y-103230000I150000J0D01*
G01*
G37*
G36*
G01*
X159235000Y-103230000D02*
X159535000Y-103230000D01*
G75*
G02*
X159685000Y-103380000I0J-150000D01*
G01*
X159685000Y-104680000D01*
G75*
G02*
X159535000Y-104830000I-150000J0D01*
G01*
X159235000Y-104830000D01*
G75*
G02*
X159085000Y-104680000I0J150000D01*
G01*
X159085000Y-103380000D01*
G75*
G02*
X159235000Y-103230000I150000J0D01*
G01*
G37*
G36*
G01*
X157965000Y-103230000D02*
X158265000Y-103230000D01*
G75*
G02*
X158415000Y-103380000I0J-150000D01*
G01*
X158415000Y-104680000D01*
G75*
G02*
X158265000Y-104830000I-150000J0D01*
G01*
X157965000Y-104830000D01*
G75*
G02*
X157815000Y-104680000I0J150000D01*
G01*
X157815000Y-103380000D01*
G75*
G02*
X157965000Y-103230000I150000J0D01*
G01*
G37*
G36*
G01*
X156695000Y-103230000D02*
X156995000Y-103230000D01*
G75*
G02*
X157145000Y-103380000I0J-150000D01*
G01*
X157145000Y-104680000D01*
G75*
G02*
X156995000Y-104830000I-150000J0D01*
G01*
X156695000Y-104830000D01*
G75*
G02*
X156545000Y-104680000I0J150000D01*
G01*
X156545000Y-103380000D01*
G75*
G02*
X156695000Y-103230000I150000J0D01*
G01*
G37*
G36*
G01*
X156695000Y-108530000D02*
X156995000Y-108530000D01*
G75*
G02*
X157145000Y-108680000I0J-150000D01*
G01*
X157145000Y-109980000D01*
G75*
G02*
X156995000Y-110130000I-150000J0D01*
G01*
X156695000Y-110130000D01*
G75*
G02*
X156545000Y-109980000I0J150000D01*
G01*
X156545000Y-108680000D01*
G75*
G02*
X156695000Y-108530000I150000J0D01*
G01*
G37*
G36*
G01*
X157965000Y-108530000D02*
X158265000Y-108530000D01*
G75*
G02*
X158415000Y-108680000I0J-150000D01*
G01*
X158415000Y-109980000D01*
G75*
G02*
X158265000Y-110130000I-150000J0D01*
G01*
X157965000Y-110130000D01*
G75*
G02*
X157815000Y-109980000I0J150000D01*
G01*
X157815000Y-108680000D01*
G75*
G02*
X157965000Y-108530000I150000J0D01*
G01*
G37*
G36*
G01*
X159235000Y-108530000D02*
X159535000Y-108530000D01*
G75*
G02*
X159685000Y-108680000I0J-150000D01*
G01*
X159685000Y-109980000D01*
G75*
G02*
X159535000Y-110130000I-150000J0D01*
G01*
X159235000Y-110130000D01*
G75*
G02*
X159085000Y-109980000I0J150000D01*
G01*
X159085000Y-108680000D01*
G75*
G02*
X159235000Y-108530000I150000J0D01*
G01*
G37*
G36*
G01*
X160505000Y-108530000D02*
X160805000Y-108530000D01*
G75*
G02*
X160955000Y-108680000I0J-150000D01*
G01*
X160955000Y-109980000D01*
G75*
G02*
X160805000Y-110130000I-150000J0D01*
G01*
X160505000Y-110130000D01*
G75*
G02*
X160355000Y-109980000I0J150000D01*
G01*
X160355000Y-108680000D01*
G75*
G02*
X160505000Y-108530000I150000J0D01*
G01*
G37*
G36*
G01*
X159142500Y-105595000D02*
X159907500Y-105595000D01*
G75*
G02*
X160150000Y-105837500I0J-242500D01*
G01*
X160150000Y-106322500D01*
G75*
G02*
X159907500Y-106565000I-242500J0D01*
G01*
X159142500Y-106565000D01*
G75*
G02*
X158900000Y-106322500I0J242500D01*
G01*
X158900000Y-105837500D01*
G75*
G02*
X159142500Y-105595000I242500J0D01*
G01*
G37*
G36*
G01*
X157592500Y-105595000D02*
X158357500Y-105595000D01*
G75*
G02*
X158600000Y-105837500I0J-242500D01*
G01*
X158600000Y-106322500D01*
G75*
G02*
X158357500Y-106565000I-242500J0D01*
G01*
X157592500Y-106565000D01*
G75*
G02*
X157350000Y-106322500I0J242500D01*
G01*
X157350000Y-105837500D01*
G75*
G02*
X157592500Y-105595000I242500J0D01*
G01*
G37*
G36*
G01*
X159142500Y-106795000D02*
X159907500Y-106795000D01*
G75*
G02*
X160150000Y-107037500I0J-242500D01*
G01*
X160150000Y-107522500D01*
G75*
G02*
X159907500Y-107765000I-242500J0D01*
G01*
X159142500Y-107765000D01*
G75*
G02*
X158900000Y-107522500I0J242500D01*
G01*
X158900000Y-107037500D01*
G75*
G02*
X159142500Y-106795000I242500J0D01*
G01*
G37*
G36*
G01*
X157592500Y-106795000D02*
X158357500Y-106795000D01*
G75*
G02*
X158600000Y-107037500I0J-242500D01*
G01*
X158600000Y-107522500D01*
G75*
G02*
X158357500Y-107765000I-242500J0D01*
G01*
X157592500Y-107765000D01*
G75*
G02*
X157350000Y-107522500I0J242500D01*
G01*
X157350000Y-107037500D01*
G75*
G02*
X157592500Y-106795000I242500J0D01*
G01*
G37*
%TD*%
%TO.C,U2*%
G36*
G01*
X195327500Y-130660000D02*
X194562500Y-130660000D01*
G75*
G02*
X194320000Y-130417500I0J242500D01*
G01*
X194320000Y-129932500D01*
G75*
G02*
X194562500Y-129690000I242500J0D01*
G01*
X195327500Y-129690000D01*
G75*
G02*
X195570000Y-129932500I0J-242500D01*
G01*
X195570000Y-130417500D01*
G75*
G02*
X195327500Y-130660000I-242500J0D01*
G01*
G37*
G36*
G01*
X193777500Y-130660000D02*
X193012500Y-130660000D01*
G75*
G02*
X192770000Y-130417500I0J242500D01*
G01*
X192770000Y-129932500D01*
G75*
G02*
X193012500Y-129690000I242500J0D01*
G01*
X193777500Y-129690000D01*
G75*
G02*
X194020000Y-129932500I0J-242500D01*
G01*
X194020000Y-130417500D01*
G75*
G02*
X193777500Y-130660000I-242500J0D01*
G01*
G37*
G36*
G01*
X195327500Y-131860000D02*
X194562500Y-131860000D01*
G75*
G02*
X194320000Y-131617500I0J242500D01*
G01*
X194320000Y-131132500D01*
G75*
G02*
X194562500Y-130890000I242500J0D01*
G01*
X195327500Y-130890000D01*
G75*
G02*
X195570000Y-131132500I0J-242500D01*
G01*
X195570000Y-131617500D01*
G75*
G02*
X195327500Y-131860000I-242500J0D01*
G01*
G37*
G36*
G01*
X193777500Y-131860000D02*
X193012500Y-131860000D01*
G75*
G02*
X192770000Y-131617500I0J242500D01*
G01*
X192770000Y-131132500D01*
G75*
G02*
X193012500Y-130890000I242500J0D01*
G01*
X193777500Y-130890000D01*
G75*
G02*
X194020000Y-131132500I0J-242500D01*
G01*
X194020000Y-131617500D01*
G75*
G02*
X193777500Y-131860000I-242500J0D01*
G01*
G37*
G36*
G01*
X192415000Y-128925000D02*
X192115000Y-128925000D01*
G75*
G02*
X191965000Y-128775000I0J150000D01*
G01*
X191965000Y-127475000D01*
G75*
G02*
X192115000Y-127325000I150000J0D01*
G01*
X192415000Y-127325000D01*
G75*
G02*
X192565000Y-127475000I0J-150000D01*
G01*
X192565000Y-128775000D01*
G75*
G02*
X192415000Y-128925000I-150000J0D01*
G01*
G37*
G36*
G01*
X193685000Y-128925000D02*
X193385000Y-128925000D01*
G75*
G02*
X193235000Y-128775000I0J150000D01*
G01*
X193235000Y-127475000D01*
G75*
G02*
X193385000Y-127325000I150000J0D01*
G01*
X193685000Y-127325000D01*
G75*
G02*
X193835000Y-127475000I0J-150000D01*
G01*
X193835000Y-128775000D01*
G75*
G02*
X193685000Y-128925000I-150000J0D01*
G01*
G37*
G36*
G01*
X194955000Y-128925000D02*
X194655000Y-128925000D01*
G75*
G02*
X194505000Y-128775000I0J150000D01*
G01*
X194505000Y-127475000D01*
G75*
G02*
X194655000Y-127325000I150000J0D01*
G01*
X194955000Y-127325000D01*
G75*
G02*
X195105000Y-127475000I0J-150000D01*
G01*
X195105000Y-128775000D01*
G75*
G02*
X194955000Y-128925000I-150000J0D01*
G01*
G37*
G36*
G01*
X196225000Y-128925000D02*
X195925000Y-128925000D01*
G75*
G02*
X195775000Y-128775000I0J150000D01*
G01*
X195775000Y-127475000D01*
G75*
G02*
X195925000Y-127325000I150000J0D01*
G01*
X196225000Y-127325000D01*
G75*
G02*
X196375000Y-127475000I0J-150000D01*
G01*
X196375000Y-128775000D01*
G75*
G02*
X196225000Y-128925000I-150000J0D01*
G01*
G37*
G36*
G01*
X196225000Y-134225000D02*
X195925000Y-134225000D01*
G75*
G02*
X195775000Y-134075000I0J150000D01*
G01*
X195775000Y-132775000D01*
G75*
G02*
X195925000Y-132625000I150000J0D01*
G01*
X196225000Y-132625000D01*
G75*
G02*
X196375000Y-132775000I0J-150000D01*
G01*
X196375000Y-134075000D01*
G75*
G02*
X196225000Y-134225000I-150000J0D01*
G01*
G37*
G36*
G01*
X194955000Y-134225000D02*
X194655000Y-134225000D01*
G75*
G02*
X194505000Y-134075000I0J150000D01*
G01*
X194505000Y-132775000D01*
G75*
G02*
X194655000Y-132625000I150000J0D01*
G01*
X194955000Y-132625000D01*
G75*
G02*
X195105000Y-132775000I0J-150000D01*
G01*
X195105000Y-134075000D01*
G75*
G02*
X194955000Y-134225000I-150000J0D01*
G01*
G37*
G36*
G01*
X193685000Y-134225000D02*
X193385000Y-134225000D01*
G75*
G02*
X193235000Y-134075000I0J150000D01*
G01*
X193235000Y-132775000D01*
G75*
G02*
X193385000Y-132625000I150000J0D01*
G01*
X193685000Y-132625000D01*
G75*
G02*
X193835000Y-132775000I0J-150000D01*
G01*
X193835000Y-134075000D01*
G75*
G02*
X193685000Y-134225000I-150000J0D01*
G01*
G37*
G36*
G01*
X192415000Y-134225000D02*
X192115000Y-134225000D01*
G75*
G02*
X191965000Y-134075000I0J150000D01*
G01*
X191965000Y-132775000D01*
G75*
G02*
X192115000Y-132625000I150000J0D01*
G01*
X192415000Y-132625000D01*
G75*
G02*
X192565000Y-132775000I0J-150000D01*
G01*
X192565000Y-134075000D01*
G75*
G02*
X192415000Y-134225000I-150000J0D01*
G01*
G37*
%TD*%
D18*
%TO.C,U3*%
X167665000Y-157360000D03*
X167665000Y-156090000D03*
X167665000Y-154820000D03*
X167665000Y-153550000D03*
X167665000Y-152280000D03*
X167665000Y-151010000D03*
X167665000Y-149740000D03*
X167665000Y-148470000D03*
X167665000Y-147200000D03*
X167665000Y-145930000D03*
X167665000Y-144660000D03*
X167665000Y-143390000D03*
X167665000Y-142120000D03*
X167665000Y-140850000D03*
D19*
X170450000Y-139850000D03*
X171720000Y-139850000D03*
X172990000Y-139850000D03*
X174260000Y-139850000D03*
X175530000Y-139850000D03*
X176800000Y-139850000D03*
X178070000Y-139850000D03*
X179340000Y-139850000D03*
X180610000Y-139850000D03*
X181880000Y-139850000D03*
D18*
X184665000Y-140850000D03*
X184665000Y-142120000D03*
X184665000Y-143390000D03*
X184665000Y-144660000D03*
X184665000Y-145930000D03*
X184665000Y-147200000D03*
X184665000Y-148470000D03*
X184665000Y-149740000D03*
X184665000Y-151010000D03*
X184665000Y-152280000D03*
X184665000Y-153550000D03*
X184665000Y-154820000D03*
X184665000Y-156090000D03*
X184665000Y-157360000D03*
D20*
X177165000Y-149860000D03*
%TD*%
D21*
%TO.C,U4*%
X158725000Y-142875000D03*
D22*
X152425000Y-142875000D03*
X152425000Y-145175000D03*
X152425000Y-140575000D03*
%TD*%
D23*
%TO.C,U5*%
X154900000Y-157075000D03*
D24*
X150900000Y-158075000D03*
D23*
X149900000Y-154075000D03*
D24*
X153900000Y-153075000D03*
X153400000Y-153075000D03*
X152900000Y-153075000D03*
X152400000Y-153075000D03*
X151900000Y-153075000D03*
X151400000Y-153075000D03*
X150900000Y-153075000D03*
D23*
X149900000Y-154575000D03*
X149900000Y-155075000D03*
X149900000Y-155575000D03*
X149900000Y-156075000D03*
X149900000Y-156575000D03*
X149900000Y-157075000D03*
D24*
X151400000Y-158075000D03*
X151900000Y-158075000D03*
X152400000Y-158075000D03*
X152900000Y-158075000D03*
X153400000Y-158075000D03*
X153900000Y-158075000D03*
D23*
X154900000Y-156575000D03*
X154900000Y-156075000D03*
X154900000Y-155575000D03*
X154900000Y-155075000D03*
X154900000Y-154575000D03*
X154900000Y-154075000D03*
D25*
X152400000Y-155575000D03*
%TD*%
D17*
%TO.C,Q1*%
X160020000Y-156480000D03*
X160970000Y-158480000D03*
X159070000Y-158480000D03*
%TD*%
%TO.C,Q2*%
X160970000Y-152670000D03*
X159070000Y-152670000D03*
X160020000Y-154670000D03*
%TD*%
%TO.C,C1*%
G36*
G01*
X186875000Y-157095000D02*
X186875000Y-156595000D01*
G75*
G02*
X187100000Y-156370000I225000J0D01*
G01*
X187550000Y-156370000D01*
G75*
G02*
X187775000Y-156595000I0J-225000D01*
G01*
X187775000Y-157095000D01*
G75*
G02*
X187550000Y-157320000I-225000J0D01*
G01*
X187100000Y-157320000D01*
G75*
G02*
X186875000Y-157095000I0J225000D01*
G01*
G37*
G36*
G01*
X188425000Y-157095000D02*
X188425000Y-156595000D01*
G75*
G02*
X188650000Y-156370000I225000J0D01*
G01*
X189100000Y-156370000D01*
G75*
G02*
X189325000Y-156595000I0J-225000D01*
G01*
X189325000Y-157095000D01*
G75*
G02*
X189100000Y-157320000I-225000J0D01*
G01*
X188650000Y-157320000D01*
G75*
G02*
X188425000Y-157095000I0J225000D01*
G01*
G37*
%TD*%
%TO.C,C2*%
G36*
G01*
X154320001Y-114699000D02*
X153019999Y-114699000D01*
G75*
G02*
X152770000Y-114449001I0J249999D01*
G01*
X152770000Y-113798999D01*
G75*
G02*
X153019999Y-113549000I249999J0D01*
G01*
X154320001Y-113549000D01*
G75*
G02*
X154570000Y-113798999I0J-249999D01*
G01*
X154570000Y-114449001D01*
G75*
G02*
X154320001Y-114699000I-249999J0D01*
G01*
G37*
G36*
G01*
X154320001Y-111749000D02*
X153019999Y-111749000D01*
G75*
G02*
X152770000Y-111499001I0J249999D01*
G01*
X152770000Y-110848999D01*
G75*
G02*
X153019999Y-110599000I249999J0D01*
G01*
X154320001Y-110599000D01*
G75*
G02*
X154570000Y-110848999I0J-249999D01*
G01*
X154570000Y-111499001D01*
G75*
G02*
X154320001Y-111749000I-249999J0D01*
G01*
G37*
%TD*%
%TO.C,C3*%
G36*
G01*
X195110000Y-124444999D02*
X195110000Y-125745001D01*
G75*
G02*
X194860001Y-125995000I-249999J0D01*
G01*
X194209999Y-125995000D01*
G75*
G02*
X193960000Y-125745001I0J249999D01*
G01*
X193960000Y-124444999D01*
G75*
G02*
X194209999Y-124195000I249999J0D01*
G01*
X194860001Y-124195000D01*
G75*
G02*
X195110000Y-124444999I0J-249999D01*
G01*
G37*
G36*
G01*
X198060000Y-124444999D02*
X198060000Y-125745001D01*
G75*
G02*
X197810001Y-125995000I-249999J0D01*
G01*
X197159999Y-125995000D01*
G75*
G02*
X196910000Y-125745001I0J249999D01*
G01*
X196910000Y-124444999D01*
G75*
G02*
X197159999Y-124195000I249999J0D01*
G01*
X197810001Y-124195000D01*
G75*
G02*
X198060000Y-124444999I0J-249999D01*
G01*
G37*
%TD*%
%TO.C,C4*%
G36*
G01*
X151907001Y-111749000D02*
X150606999Y-111749000D01*
G75*
G02*
X150357000Y-111499001I0J249999D01*
G01*
X150357000Y-110848999D01*
G75*
G02*
X150606999Y-110599000I249999J0D01*
G01*
X151907001Y-110599000D01*
G75*
G02*
X152157000Y-110848999I0J-249999D01*
G01*
X152157000Y-111499001D01*
G75*
G02*
X151907001Y-111749000I-249999J0D01*
G01*
G37*
G36*
G01*
X151907001Y-114699000D02*
X150606999Y-114699000D01*
G75*
G02*
X150357000Y-114449001I0J249999D01*
G01*
X150357000Y-113798999D01*
G75*
G02*
X150606999Y-113549000I249999J0D01*
G01*
X151907001Y-113549000D01*
G75*
G02*
X152157000Y-113798999I0J-249999D01*
G01*
X152157000Y-114449001D01*
G75*
G02*
X151907001Y-114699000I-249999J0D01*
G01*
G37*
%TD*%
%TO.C,C5*%
G36*
G01*
X198060000Y-121904999D02*
X198060000Y-123205001D01*
G75*
G02*
X197810001Y-123455000I-249999J0D01*
G01*
X197159999Y-123455000D01*
G75*
G02*
X196910000Y-123205001I0J249999D01*
G01*
X196910000Y-121904999D01*
G75*
G02*
X197159999Y-121655000I249999J0D01*
G01*
X197810001Y-121655000D01*
G75*
G02*
X198060000Y-121904999I0J-249999D01*
G01*
G37*
G36*
G01*
X195110000Y-121904999D02*
X195110000Y-123205001D01*
G75*
G02*
X194860001Y-123455000I-249999J0D01*
G01*
X194209999Y-123455000D01*
G75*
G02*
X193960000Y-123205001I0J249999D01*
G01*
X193960000Y-121904999D01*
G75*
G02*
X194209999Y-121655000I249999J0D01*
G01*
X194860001Y-121655000D01*
G75*
G02*
X195110000Y-121904999I0J-249999D01*
G01*
G37*
%TD*%
%TO.C,C23*%
G36*
G01*
X148770000Y-153830000D02*
X148770000Y-154780000D01*
G75*
G02*
X148520000Y-155030000I-250000J0D01*
G01*
X148020000Y-155030000D01*
G75*
G02*
X147770000Y-154780000I0J250000D01*
G01*
X147770000Y-153830000D01*
G75*
G02*
X148020000Y-153580000I250000J0D01*
G01*
X148520000Y-153580000D01*
G75*
G02*
X148770000Y-153830000I0J-250000D01*
G01*
G37*
G36*
G01*
X146870000Y-153830000D02*
X146870000Y-154780000D01*
G75*
G02*
X146620000Y-155030000I-250000J0D01*
G01*
X146120000Y-155030000D01*
G75*
G02*
X145870000Y-154780000I0J250000D01*
G01*
X145870000Y-153830000D01*
G75*
G02*
X146120000Y-153580000I250000J0D01*
G01*
X146620000Y-153580000D01*
G75*
G02*
X146870000Y-153830000I0J-250000D01*
G01*
G37*
%TD*%
%TO.C,C26*%
G36*
G01*
X151585000Y-148176000D02*
X151585000Y-147226000D01*
G75*
G02*
X151835000Y-146976000I250000J0D01*
G01*
X152335000Y-146976000D01*
G75*
G02*
X152585000Y-147226000I0J-250000D01*
G01*
X152585000Y-148176000D01*
G75*
G02*
X152335000Y-148426000I-250000J0D01*
G01*
X151835000Y-148426000D01*
G75*
G02*
X151585000Y-148176000I0J250000D01*
G01*
G37*
G36*
G01*
X153485000Y-148176000D02*
X153485000Y-147226000D01*
G75*
G02*
X153735000Y-146976000I250000J0D01*
G01*
X154235000Y-146976000D01*
G75*
G02*
X154485000Y-147226000I0J-250000D01*
G01*
X154485000Y-148176000D01*
G75*
G02*
X154235000Y-148426000I-250000J0D01*
G01*
X153735000Y-148426000D01*
G75*
G02*
X153485000Y-148176000I0J250000D01*
G01*
G37*
%TD*%
%TO.C,C28*%
G36*
G01*
X160815000Y-145725000D02*
X161765000Y-145725000D01*
G75*
G02*
X162015000Y-145975000I0J-250000D01*
G01*
X162015000Y-146475000D01*
G75*
G02*
X161765000Y-146725000I-250000J0D01*
G01*
X160815000Y-146725000D01*
G75*
G02*
X160565000Y-146475000I0J250000D01*
G01*
X160565000Y-145975000D01*
G75*
G02*
X160815000Y-145725000I250000J0D01*
G01*
G37*
G36*
G01*
X160815000Y-143825000D02*
X161765000Y-143825000D01*
G75*
G02*
X162015000Y-144075000I0J-250000D01*
G01*
X162015000Y-144575000D01*
G75*
G02*
X161765000Y-144825000I-250000J0D01*
G01*
X160815000Y-144825000D01*
G75*
G02*
X160565000Y-144575000I0J250000D01*
G01*
X160565000Y-144075000D01*
G75*
G02*
X160815000Y-143825000I250000J0D01*
G01*
G37*
%TD*%
%TO.C,C12*%
G36*
G01*
X156685000Y-122100000D02*
X155735000Y-122100000D01*
G75*
G02*
X155485000Y-121850000I0J250000D01*
G01*
X155485000Y-121350000D01*
G75*
G02*
X155735000Y-121100000I250000J0D01*
G01*
X156685000Y-121100000D01*
G75*
G02*
X156935000Y-121350000I0J-250000D01*
G01*
X156935000Y-121850000D01*
G75*
G02*
X156685000Y-122100000I-250000J0D01*
G01*
G37*
G36*
G01*
X156685000Y-120200000D02*
X155735000Y-120200000D01*
G75*
G02*
X155485000Y-119950000I0J250000D01*
G01*
X155485000Y-119450000D01*
G75*
G02*
X155735000Y-119200000I250000J0D01*
G01*
X156685000Y-119200000D01*
G75*
G02*
X156935000Y-119450000I0J-250000D01*
G01*
X156935000Y-119950000D01*
G75*
G02*
X156685000Y-120200000I-250000J0D01*
G01*
G37*
%TD*%
M02*
