%TF.GenerationSoftware,KiCad,Pcbnew,5.1.10-88a1d61d58~88~ubuntu20.04.1*%
%TF.CreationDate,2021-05-09T16:45:47+02:00*%
%TF.ProjectId,Control_board,436f6e74-726f-46c5-9f62-6f6172642e6b,rev?*%
%TF.SameCoordinates,Original*%
%TF.FileFunction,Paste,Top*%
%TF.FilePolarity,Positive*%
%FSLAX46Y46*%
G04 Gerber Fmt 4.6, Leading zero omitted, Abs format (unit mm)*
G04 Created by KiCad (PCBNEW 5.1.10-88a1d61d58~88~ubuntu20.04.1) date 2021-05-09 16:45:47*
%MOMM*%
%LPD*%
G01*
G04 APERTURE LIST*
%ADD10R,1.800000X2.500000*%
%ADD11R,2.500000X1.800000*%
%ADD12R,0.800000X0.900000*%
%ADD13R,1.100000X4.600000*%
%ADD14R,5.250000X4.550000*%
G04 APERTURE END LIST*
%TO.C,R3*%
G36*
G01*
X197760000Y-70631000D02*
X197210000Y-70631000D01*
G75*
G02*
X197010000Y-70431000I0J200000D01*
G01*
X197010000Y-70031000D01*
G75*
G02*
X197210000Y-69831000I200000J0D01*
G01*
X197760000Y-69831000D01*
G75*
G02*
X197960000Y-70031000I0J-200000D01*
G01*
X197960000Y-70431000D01*
G75*
G02*
X197760000Y-70631000I-200000J0D01*
G01*
G37*
G36*
G01*
X197760000Y-68981000D02*
X197210000Y-68981000D01*
G75*
G02*
X197010000Y-68781000I0J200000D01*
G01*
X197010000Y-68381000D01*
G75*
G02*
X197210000Y-68181000I200000J0D01*
G01*
X197760000Y-68181000D01*
G75*
G02*
X197960000Y-68381000I0J-200000D01*
G01*
X197960000Y-68781000D01*
G75*
G02*
X197760000Y-68981000I-200000J0D01*
G01*
G37*
%TD*%
%TO.C,C1*%
G36*
G01*
X158418500Y-90081001D02*
X158418500Y-88480999D01*
G75*
G02*
X158668499Y-88231000I249999J0D01*
G01*
X162768501Y-88231000D01*
G75*
G02*
X163018500Y-88480999I0J-249999D01*
G01*
X163018500Y-90081001D01*
G75*
G02*
X162768501Y-90331000I-249999J0D01*
G01*
X158668499Y-90331000D01*
G75*
G02*
X158418500Y-90081001I0J249999D01*
G01*
G37*
G36*
G01*
X149618500Y-90081001D02*
X149618500Y-88480999D01*
G75*
G02*
X149868499Y-88231000I249999J0D01*
G01*
X153968501Y-88231000D01*
G75*
G02*
X154218500Y-88480999I0J-249999D01*
G01*
X154218500Y-90081001D01*
G75*
G02*
X153968501Y-90331000I-249999J0D01*
G01*
X149868499Y-90331000D01*
G75*
G02*
X149618500Y-90081001I0J249999D01*
G01*
G37*
%TD*%
%TO.C,C2*%
G36*
G01*
X148812000Y-68330000D02*
X148812000Y-68830000D01*
G75*
G02*
X148587000Y-69055000I-225000J0D01*
G01*
X148137000Y-69055000D01*
G75*
G02*
X147912000Y-68830000I0J225000D01*
G01*
X147912000Y-68330000D01*
G75*
G02*
X148137000Y-68105000I225000J0D01*
G01*
X148587000Y-68105000D01*
G75*
G02*
X148812000Y-68330000I0J-225000D01*
G01*
G37*
G36*
G01*
X147262000Y-68330000D02*
X147262000Y-68830000D01*
G75*
G02*
X147037000Y-69055000I-225000J0D01*
G01*
X146587000Y-69055000D01*
G75*
G02*
X146362000Y-68830000I0J225000D01*
G01*
X146362000Y-68330000D01*
G75*
G02*
X146587000Y-68105000I225000J0D01*
G01*
X147037000Y-68105000D01*
G75*
G02*
X147262000Y-68330000I0J-225000D01*
G01*
G37*
%TD*%
%TO.C,C3*%
G36*
G01*
X162955000Y-77431999D02*
X162955000Y-79032001D01*
G75*
G02*
X162705001Y-79282000I-249999J0D01*
G01*
X158604999Y-79282000D01*
G75*
G02*
X158355000Y-79032001I0J249999D01*
G01*
X158355000Y-77431999D01*
G75*
G02*
X158604999Y-77182000I249999J0D01*
G01*
X162705001Y-77182000D01*
G75*
G02*
X162955000Y-77431999I0J-249999D01*
G01*
G37*
G36*
G01*
X154155000Y-77431999D02*
X154155000Y-79032001D01*
G75*
G02*
X153905001Y-79282000I-249999J0D01*
G01*
X149804999Y-79282000D01*
G75*
G02*
X149555000Y-79032001I0J249999D01*
G01*
X149555000Y-77431999D01*
G75*
G02*
X149804999Y-77182000I249999J0D01*
G01*
X153905001Y-77182000D01*
G75*
G02*
X154155000Y-77431999I0J-249999D01*
G01*
G37*
%TD*%
%TO.C,C4*%
G36*
G01*
X170340000Y-69350000D02*
X171290000Y-69350000D01*
G75*
G02*
X171540000Y-69600000I0J-250000D01*
G01*
X171540000Y-70100000D01*
G75*
G02*
X171290000Y-70350000I-250000J0D01*
G01*
X170340000Y-70350000D01*
G75*
G02*
X170090000Y-70100000I0J250000D01*
G01*
X170090000Y-69600000D01*
G75*
G02*
X170340000Y-69350000I250000J0D01*
G01*
G37*
G36*
G01*
X170340000Y-71250000D02*
X171290000Y-71250000D01*
G75*
G02*
X171540000Y-71500000I0J-250000D01*
G01*
X171540000Y-72000000D01*
G75*
G02*
X171290000Y-72250000I-250000J0D01*
G01*
X170340000Y-72250000D01*
G75*
G02*
X170090000Y-72000000I0J250000D01*
G01*
X170090000Y-71500000D01*
G75*
G02*
X170340000Y-71250000I250000J0D01*
G01*
G37*
%TD*%
D10*
%TO.C,D1*%
X147320000Y-61976000D03*
X147320000Y-65976000D03*
%TD*%
%TO.C,D2*%
X148844000Y-81820000D03*
X148844000Y-85820000D03*
%TD*%
%TO.C,D3*%
G36*
G01*
X195196750Y-69793500D02*
X195709250Y-69793500D01*
G75*
G02*
X195928000Y-70012250I0J-218750D01*
G01*
X195928000Y-70449750D01*
G75*
G02*
X195709250Y-70668500I-218750J0D01*
G01*
X195196750Y-70668500D01*
G75*
G02*
X194978000Y-70449750I0J218750D01*
G01*
X194978000Y-70012250D01*
G75*
G02*
X195196750Y-69793500I218750J0D01*
G01*
G37*
G36*
G01*
X195196750Y-68218500D02*
X195709250Y-68218500D01*
G75*
G02*
X195928000Y-68437250I0J-218750D01*
G01*
X195928000Y-68874750D01*
G75*
G02*
X195709250Y-69093500I-218750J0D01*
G01*
X195196750Y-69093500D01*
G75*
G02*
X194978000Y-68874750I0J218750D01*
G01*
X194978000Y-68437250D01*
G75*
G02*
X195196750Y-68218500I218750J0D01*
G01*
G37*
%TD*%
%TO.C,D4*%
X204470000Y-70580000D03*
X204470000Y-66580000D03*
%TD*%
%TO.C,D5*%
G36*
G01*
X195196750Y-60598500D02*
X195709250Y-60598500D01*
G75*
G02*
X195928000Y-60817250I0J-218750D01*
G01*
X195928000Y-61254750D01*
G75*
G02*
X195709250Y-61473500I-218750J0D01*
G01*
X195196750Y-61473500D01*
G75*
G02*
X194978000Y-61254750I0J218750D01*
G01*
X194978000Y-60817250D01*
G75*
G02*
X195196750Y-60598500I218750J0D01*
G01*
G37*
G36*
G01*
X195196750Y-62173500D02*
X195709250Y-62173500D01*
G75*
G02*
X195928000Y-62392250I0J-218750D01*
G01*
X195928000Y-62829750D01*
G75*
G02*
X195709250Y-63048500I-218750J0D01*
G01*
X195196750Y-63048500D01*
G75*
G02*
X194978000Y-62829750I0J218750D01*
G01*
X194978000Y-62392250D01*
G75*
G02*
X195196750Y-62173500I218750J0D01*
G01*
G37*
%TD*%
%TO.C,D6*%
X204470000Y-58865000D03*
X204470000Y-62865000D03*
%TD*%
%TO.C,D7*%
G36*
G01*
X195196750Y-75838500D02*
X195709250Y-75838500D01*
G75*
G02*
X195928000Y-76057250I0J-218750D01*
G01*
X195928000Y-76494750D01*
G75*
G02*
X195709250Y-76713500I-218750J0D01*
G01*
X195196750Y-76713500D01*
G75*
G02*
X194978000Y-76494750I0J218750D01*
G01*
X194978000Y-76057250D01*
G75*
G02*
X195196750Y-75838500I218750J0D01*
G01*
G37*
G36*
G01*
X195196750Y-77413500D02*
X195709250Y-77413500D01*
G75*
G02*
X195928000Y-77632250I0J-218750D01*
G01*
X195928000Y-78069750D01*
G75*
G02*
X195709250Y-78288500I-218750J0D01*
G01*
X195196750Y-78288500D01*
G75*
G02*
X194978000Y-78069750I0J218750D01*
G01*
X194978000Y-77632250D01*
G75*
G02*
X195196750Y-77413500I218750J0D01*
G01*
G37*
%TD*%
%TO.C,D8*%
X204470000Y-74105000D03*
X204470000Y-78105000D03*
%TD*%
D11*
%TO.C,D9*%
X206375000Y-85725000D03*
X202375000Y-85725000D03*
%TD*%
%TO.C,F1*%
G36*
G01*
X206937500Y-80464998D02*
X206937500Y-83365002D01*
G75*
G02*
X206687502Y-83615000I-249998J0D01*
G01*
X206062498Y-83615000D01*
G75*
G02*
X205812500Y-83365002I0J249998D01*
G01*
X205812500Y-80464998D01*
G75*
G02*
X206062498Y-80215000I249998J0D01*
G01*
X206687502Y-80215000D01*
G75*
G02*
X206937500Y-80464998I0J-249998D01*
G01*
G37*
G36*
G01*
X202662500Y-80464998D02*
X202662500Y-83365002D01*
G75*
G02*
X202412502Y-83615000I-249998J0D01*
G01*
X201787498Y-83615000D01*
G75*
G02*
X201537500Y-83365002I0J249998D01*
G01*
X201537500Y-80464998D01*
G75*
G02*
X201787498Y-80215000I249998J0D01*
G01*
X202412502Y-80215000D01*
G75*
G02*
X202662500Y-80464998I0J-249998D01*
G01*
G37*
%TD*%
D12*
%TO.C,Q1*%
X200533000Y-68215000D03*
X201483000Y-70215000D03*
X199583000Y-70215000D03*
%TD*%
%TO.C,Q2*%
X199649000Y-62611000D03*
X201549000Y-62611000D03*
X200599000Y-60611000D03*
%TD*%
%TO.C,Q3*%
X199583000Y-77819000D03*
X201483000Y-77819000D03*
X200533000Y-75819000D03*
%TD*%
%TO.C,R1*%
G36*
G01*
X145688000Y-68305000D02*
X145688000Y-68855000D01*
G75*
G02*
X145488000Y-69055000I-200000J0D01*
G01*
X145088000Y-69055000D01*
G75*
G02*
X144888000Y-68855000I0J200000D01*
G01*
X144888000Y-68305000D01*
G75*
G02*
X145088000Y-68105000I200000J0D01*
G01*
X145488000Y-68105000D01*
G75*
G02*
X145688000Y-68305000I0J-200000D01*
G01*
G37*
G36*
G01*
X144038000Y-68305000D02*
X144038000Y-68855000D01*
G75*
G02*
X143838000Y-69055000I-200000J0D01*
G01*
X143438000Y-69055000D01*
G75*
G02*
X143238000Y-68855000I0J200000D01*
G01*
X143238000Y-68305000D01*
G75*
G02*
X143438000Y-68105000I200000J0D01*
G01*
X143838000Y-68105000D01*
G75*
G02*
X144038000Y-68305000I0J-200000D01*
G01*
G37*
%TD*%
%TO.C,R2*%
G36*
G01*
X195789000Y-66781000D02*
X195789000Y-67331000D01*
G75*
G02*
X195589000Y-67531000I-200000J0D01*
G01*
X195189000Y-67531000D01*
G75*
G02*
X194989000Y-67331000I0J200000D01*
G01*
X194989000Y-66781000D01*
G75*
G02*
X195189000Y-66581000I200000J0D01*
G01*
X195589000Y-66581000D01*
G75*
G02*
X195789000Y-66781000I0J-200000D01*
G01*
G37*
G36*
G01*
X194139000Y-66781000D02*
X194139000Y-67331000D01*
G75*
G02*
X193939000Y-67531000I-200000J0D01*
G01*
X193539000Y-67531000D01*
G75*
G02*
X193339000Y-67331000I0J200000D01*
G01*
X193339000Y-66781000D01*
G75*
G02*
X193539000Y-66581000I200000J0D01*
G01*
X193939000Y-66581000D01*
G75*
G02*
X194139000Y-66781000I0J-200000D01*
G01*
G37*
%TD*%
%TO.C,R4*%
G36*
G01*
X194139000Y-59161000D02*
X194139000Y-59711000D01*
G75*
G02*
X193939000Y-59911000I-200000J0D01*
G01*
X193539000Y-59911000D01*
G75*
G02*
X193339000Y-59711000I0J200000D01*
G01*
X193339000Y-59161000D01*
G75*
G02*
X193539000Y-58961000I200000J0D01*
G01*
X193939000Y-58961000D01*
G75*
G02*
X194139000Y-59161000I0J-200000D01*
G01*
G37*
G36*
G01*
X195789000Y-59161000D02*
X195789000Y-59711000D01*
G75*
G02*
X195589000Y-59911000I-200000J0D01*
G01*
X195189000Y-59911000D01*
G75*
G02*
X194989000Y-59711000I0J200000D01*
G01*
X194989000Y-59161000D01*
G75*
G02*
X195189000Y-58961000I200000J0D01*
G01*
X195589000Y-58961000D01*
G75*
G02*
X195789000Y-59161000I0J-200000D01*
G01*
G37*
%TD*%
%TO.C,R5*%
G36*
G01*
X197760000Y-63011000D02*
X197210000Y-63011000D01*
G75*
G02*
X197010000Y-62811000I0J200000D01*
G01*
X197010000Y-62411000D01*
G75*
G02*
X197210000Y-62211000I200000J0D01*
G01*
X197760000Y-62211000D01*
G75*
G02*
X197960000Y-62411000I0J-200000D01*
G01*
X197960000Y-62811000D01*
G75*
G02*
X197760000Y-63011000I-200000J0D01*
G01*
G37*
G36*
G01*
X197760000Y-61361000D02*
X197210000Y-61361000D01*
G75*
G02*
X197010000Y-61161000I0J200000D01*
G01*
X197010000Y-60761000D01*
G75*
G02*
X197210000Y-60561000I200000J0D01*
G01*
X197760000Y-60561000D01*
G75*
G02*
X197960000Y-60761000I0J-200000D01*
G01*
X197960000Y-61161000D01*
G75*
G02*
X197760000Y-61361000I-200000J0D01*
G01*
G37*
%TD*%
%TO.C,R6*%
G36*
G01*
X194139000Y-74401000D02*
X194139000Y-74951000D01*
G75*
G02*
X193939000Y-75151000I-200000J0D01*
G01*
X193539000Y-75151000D01*
G75*
G02*
X193339000Y-74951000I0J200000D01*
G01*
X193339000Y-74401000D01*
G75*
G02*
X193539000Y-74201000I200000J0D01*
G01*
X193939000Y-74201000D01*
G75*
G02*
X194139000Y-74401000I0J-200000D01*
G01*
G37*
G36*
G01*
X195789000Y-74401000D02*
X195789000Y-74951000D01*
G75*
G02*
X195589000Y-75151000I-200000J0D01*
G01*
X195189000Y-75151000D01*
G75*
G02*
X194989000Y-74951000I0J200000D01*
G01*
X194989000Y-74401000D01*
G75*
G02*
X195189000Y-74201000I200000J0D01*
G01*
X195589000Y-74201000D01*
G75*
G02*
X195789000Y-74401000I0J-200000D01*
G01*
G37*
%TD*%
%TO.C,R7*%
G36*
G01*
X197760000Y-76601000D02*
X197210000Y-76601000D01*
G75*
G02*
X197010000Y-76401000I0J200000D01*
G01*
X197010000Y-76001000D01*
G75*
G02*
X197210000Y-75801000I200000J0D01*
G01*
X197760000Y-75801000D01*
G75*
G02*
X197960000Y-76001000I0J-200000D01*
G01*
X197960000Y-76401000D01*
G75*
G02*
X197760000Y-76601000I-200000J0D01*
G01*
G37*
G36*
G01*
X197760000Y-78251000D02*
X197210000Y-78251000D01*
G75*
G02*
X197010000Y-78051000I0J200000D01*
G01*
X197010000Y-77651000D01*
G75*
G02*
X197210000Y-77451000I200000J0D01*
G01*
X197760000Y-77451000D01*
G75*
G02*
X197960000Y-77651000I0J-200000D01*
G01*
X197960000Y-78051000D01*
G75*
G02*
X197760000Y-78251000I-200000J0D01*
G01*
G37*
%TD*%
%TO.C,R8*%
G36*
G01*
X181795000Y-59200000D02*
X181425000Y-59200000D01*
G75*
G02*
X181290000Y-59065000I0J135000D01*
G01*
X181290000Y-58795000D01*
G75*
G02*
X181425000Y-58660000I135000J0D01*
G01*
X181795000Y-58660000D01*
G75*
G02*
X181930000Y-58795000I0J-135000D01*
G01*
X181930000Y-59065000D01*
G75*
G02*
X181795000Y-59200000I-135000J0D01*
G01*
G37*
G36*
G01*
X181795000Y-58180000D02*
X181425000Y-58180000D01*
G75*
G02*
X181290000Y-58045000I0J135000D01*
G01*
X181290000Y-57775000D01*
G75*
G02*
X181425000Y-57640000I135000J0D01*
G01*
X181795000Y-57640000D01*
G75*
G02*
X181930000Y-57775000I0J-135000D01*
G01*
X181930000Y-58045000D01*
G75*
G02*
X181795000Y-58180000I-135000J0D01*
G01*
G37*
%TD*%
%TO.C,R9*%
G36*
G01*
X181795000Y-72410000D02*
X181425000Y-72410000D01*
G75*
G02*
X181290000Y-72275000I0J135000D01*
G01*
X181290000Y-72005000D01*
G75*
G02*
X181425000Y-71870000I135000J0D01*
G01*
X181795000Y-71870000D01*
G75*
G02*
X181930000Y-72005000I0J-135000D01*
G01*
X181930000Y-72275000D01*
G75*
G02*
X181795000Y-72410000I-135000J0D01*
G01*
G37*
G36*
G01*
X181795000Y-71390000D02*
X181425000Y-71390000D01*
G75*
G02*
X181290000Y-71255000I0J135000D01*
G01*
X181290000Y-70985000D01*
G75*
G02*
X181425000Y-70850000I135000J0D01*
G01*
X181795000Y-70850000D01*
G75*
G02*
X181930000Y-70985000I0J-135000D01*
G01*
X181930000Y-71255000D01*
G75*
G02*
X181795000Y-71390000I-135000J0D01*
G01*
G37*
%TD*%
%TO.C,R10*%
G36*
G01*
X182430000Y-84090000D02*
X182060000Y-84090000D01*
G75*
G02*
X181925000Y-83955000I0J135000D01*
G01*
X181925000Y-83685000D01*
G75*
G02*
X182060000Y-83550000I135000J0D01*
G01*
X182430000Y-83550000D01*
G75*
G02*
X182565000Y-83685000I0J-135000D01*
G01*
X182565000Y-83955000D01*
G75*
G02*
X182430000Y-84090000I-135000J0D01*
G01*
G37*
G36*
G01*
X182430000Y-83070000D02*
X182060000Y-83070000D01*
G75*
G02*
X181925000Y-82935000I0J135000D01*
G01*
X181925000Y-82665000D01*
G75*
G02*
X182060000Y-82530000I135000J0D01*
G01*
X182430000Y-82530000D01*
G75*
G02*
X182565000Y-82665000I0J-135000D01*
G01*
X182565000Y-82935000D01*
G75*
G02*
X182430000Y-83070000I-135000J0D01*
G01*
G37*
%TD*%
%TO.C,R11*%
G36*
G01*
X173043000Y-81518000D02*
X173413000Y-81518000D01*
G75*
G02*
X173548000Y-81653000I0J-135000D01*
G01*
X173548000Y-81923000D01*
G75*
G02*
X173413000Y-82058000I-135000J0D01*
G01*
X173043000Y-82058000D01*
G75*
G02*
X172908000Y-81923000I0J135000D01*
G01*
X172908000Y-81653000D01*
G75*
G02*
X173043000Y-81518000I135000J0D01*
G01*
G37*
G36*
G01*
X173043000Y-80498000D02*
X173413000Y-80498000D01*
G75*
G02*
X173548000Y-80633000I0J-135000D01*
G01*
X173548000Y-80903000D01*
G75*
G02*
X173413000Y-81038000I-135000J0D01*
G01*
X173043000Y-81038000D01*
G75*
G02*
X172908000Y-80903000I0J135000D01*
G01*
X172908000Y-80633000D01*
G75*
G02*
X173043000Y-80498000I135000J0D01*
G01*
G37*
%TD*%
%TO.C,R12*%
G36*
G01*
X171011000Y-81522000D02*
X171381000Y-81522000D01*
G75*
G02*
X171516000Y-81657000I0J-135000D01*
G01*
X171516000Y-81927000D01*
G75*
G02*
X171381000Y-82062000I-135000J0D01*
G01*
X171011000Y-82062000D01*
G75*
G02*
X170876000Y-81927000I0J135000D01*
G01*
X170876000Y-81657000D01*
G75*
G02*
X171011000Y-81522000I135000J0D01*
G01*
G37*
G36*
G01*
X171011000Y-80502000D02*
X171381000Y-80502000D01*
G75*
G02*
X171516000Y-80637000I0J-135000D01*
G01*
X171516000Y-80907000D01*
G75*
G02*
X171381000Y-81042000I-135000J0D01*
G01*
X171011000Y-81042000D01*
G75*
G02*
X170876000Y-80907000I0J135000D01*
G01*
X170876000Y-80637000D01*
G75*
G02*
X171011000Y-80502000I135000J0D01*
G01*
G37*
%TD*%
%TO.C,U1*%
G36*
G01*
X148059000Y-69702000D02*
X148359000Y-69702000D01*
G75*
G02*
X148509000Y-69852000I0J-150000D01*
G01*
X148509000Y-71202000D01*
G75*
G02*
X148359000Y-71352000I-150000J0D01*
G01*
X148059000Y-71352000D01*
G75*
G02*
X147909000Y-71202000I0J150000D01*
G01*
X147909000Y-69852000D01*
G75*
G02*
X148059000Y-69702000I150000J0D01*
G01*
G37*
G36*
G01*
X146789000Y-69702000D02*
X147089000Y-69702000D01*
G75*
G02*
X147239000Y-69852000I0J-150000D01*
G01*
X147239000Y-71202000D01*
G75*
G02*
X147089000Y-71352000I-150000J0D01*
G01*
X146789000Y-71352000D01*
G75*
G02*
X146639000Y-71202000I0J150000D01*
G01*
X146639000Y-69852000D01*
G75*
G02*
X146789000Y-69702000I150000J0D01*
G01*
G37*
G36*
G01*
X145519000Y-69702000D02*
X145819000Y-69702000D01*
G75*
G02*
X145969000Y-69852000I0J-150000D01*
G01*
X145969000Y-71202000D01*
G75*
G02*
X145819000Y-71352000I-150000J0D01*
G01*
X145519000Y-71352000D01*
G75*
G02*
X145369000Y-71202000I0J150000D01*
G01*
X145369000Y-69852000D01*
G75*
G02*
X145519000Y-69702000I150000J0D01*
G01*
G37*
G36*
G01*
X144249000Y-69702000D02*
X144549000Y-69702000D01*
G75*
G02*
X144699000Y-69852000I0J-150000D01*
G01*
X144699000Y-71202000D01*
G75*
G02*
X144549000Y-71352000I-150000J0D01*
G01*
X144249000Y-71352000D01*
G75*
G02*
X144099000Y-71202000I0J150000D01*
G01*
X144099000Y-69852000D01*
G75*
G02*
X144249000Y-69702000I150000J0D01*
G01*
G37*
G36*
G01*
X144249000Y-74952000D02*
X144549000Y-74952000D01*
G75*
G02*
X144699000Y-75102000I0J-150000D01*
G01*
X144699000Y-76452000D01*
G75*
G02*
X144549000Y-76602000I-150000J0D01*
G01*
X144249000Y-76602000D01*
G75*
G02*
X144099000Y-76452000I0J150000D01*
G01*
X144099000Y-75102000D01*
G75*
G02*
X144249000Y-74952000I150000J0D01*
G01*
G37*
G36*
G01*
X145519000Y-74952000D02*
X145819000Y-74952000D01*
G75*
G02*
X145969000Y-75102000I0J-150000D01*
G01*
X145969000Y-76452000D01*
G75*
G02*
X145819000Y-76602000I-150000J0D01*
G01*
X145519000Y-76602000D01*
G75*
G02*
X145369000Y-76452000I0J150000D01*
G01*
X145369000Y-75102000D01*
G75*
G02*
X145519000Y-74952000I150000J0D01*
G01*
G37*
G36*
G01*
X146789000Y-74952000D02*
X147089000Y-74952000D01*
G75*
G02*
X147239000Y-75102000I0J-150000D01*
G01*
X147239000Y-76452000D01*
G75*
G02*
X147089000Y-76602000I-150000J0D01*
G01*
X146789000Y-76602000D01*
G75*
G02*
X146639000Y-76452000I0J150000D01*
G01*
X146639000Y-75102000D01*
G75*
G02*
X146789000Y-74952000I150000J0D01*
G01*
G37*
G36*
G01*
X148059000Y-74952000D02*
X148359000Y-74952000D01*
G75*
G02*
X148509000Y-75102000I0J-150000D01*
G01*
X148509000Y-76452000D01*
G75*
G02*
X148359000Y-76602000I-150000J0D01*
G01*
X148059000Y-76602000D01*
G75*
G02*
X147909000Y-76452000I0J150000D01*
G01*
X147909000Y-75102000D01*
G75*
G02*
X148059000Y-74952000I150000J0D01*
G01*
G37*
%TD*%
D13*
%TO.C,U2*%
X170815000Y-65465000D03*
X175895000Y-65465000D03*
D14*
X176130000Y-53890000D03*
X170580000Y-58740000D03*
X170580000Y-53890000D03*
X176130000Y-58740000D03*
%TD*%
%TO.C,C5*%
G36*
G01*
X175420000Y-69175000D02*
X176370000Y-69175000D01*
G75*
G02*
X176620000Y-69425000I0J-250000D01*
G01*
X176620000Y-69925000D01*
G75*
G02*
X176370000Y-70175000I-250000J0D01*
G01*
X175420000Y-70175000D01*
G75*
G02*
X175170000Y-69925000I0J250000D01*
G01*
X175170000Y-69425000D01*
G75*
G02*
X175420000Y-69175000I250000J0D01*
G01*
G37*
G36*
G01*
X175420000Y-71075000D02*
X176370000Y-71075000D01*
G75*
G02*
X176620000Y-71325000I0J-250000D01*
G01*
X176620000Y-71825000D01*
G75*
G02*
X176370000Y-72075000I-250000J0D01*
G01*
X175420000Y-72075000D01*
G75*
G02*
X175170000Y-71825000I0J250000D01*
G01*
X175170000Y-71325000D01*
G75*
G02*
X175420000Y-71075000I250000J0D01*
G01*
G37*
%TD*%
%TO.C,C6*%
G36*
G01*
X163296000Y-50970000D02*
X163296000Y-50630000D01*
G75*
G02*
X163436000Y-50490000I140000J0D01*
G01*
X163716000Y-50490000D01*
G75*
G02*
X163856000Y-50630000I0J-140000D01*
G01*
X163856000Y-50970000D01*
G75*
G02*
X163716000Y-51110000I-140000J0D01*
G01*
X163436000Y-51110000D01*
G75*
G02*
X163296000Y-50970000I0J140000D01*
G01*
G37*
G36*
G01*
X164256000Y-50970000D02*
X164256000Y-50630000D01*
G75*
G02*
X164396000Y-50490000I140000J0D01*
G01*
X164676000Y-50490000D01*
G75*
G02*
X164816000Y-50630000I0J-140000D01*
G01*
X164816000Y-50970000D01*
G75*
G02*
X164676000Y-51110000I-140000J0D01*
G01*
X164396000Y-51110000D01*
G75*
G02*
X164256000Y-50970000I0J140000D01*
G01*
G37*
%TD*%
M02*
