M48
; DRILL file {KiCad 5.1.10-88a1d61d58~88~ubuntu20.04.1} date Sun May  9 16:45:44 2021
; FORMAT={-:-/ absolute / inch / decimal}
; #@! TF.CreationDate,2021-05-09T16:45:44+02:00
; #@! TF.GenerationSoftware,Kicad,Pcbnew,5.1.10-88a1d61d58~88~ubuntu20.04.1
; #@! TF.FileFunction,Plated,1,4,PTH
FMAT,2
INCH
T1C0.0157
T2C0.0197
T3C0.0300
T4C0.0315
T5C0.0394
T6C0.0433
T7C0.0472
T8C0.1260
%
G90
G05
T1
X5.675Y-2.65
X5.685Y-3.045
X5.69Y-2.55
X5.7Y-2.625
X5.73Y-2.51
X5.735Y-3.045
X5.7596Y-2.6698
X5.78Y-3.38
X5.785Y-3.045
X5.835Y-3.045
X5.88Y-2.66
X5.88Y-2.7
X5.88Y-2.74
X5.88Y-2.78
X5.94Y-2.96
X5.94Y-3.38
X5.97Y-2.99
X6.0Y-3.02
X6.06Y-3.46
X6.06Y-3.58
X6.12Y-3.46
X6.12Y-3.52
X6.12Y-3.58
X6.35Y-3.43
X6.39Y-3.4
X6.66Y-2.45
X6.78Y-2.76
X6.87Y-2.76
X6.9914Y-3.08
X7.05Y-2.15
X7.05Y-2.2
X7.05Y-2.26
X7.05Y-2.31
X7.06Y-2.5
X7.57Y-2.81
X7.63Y-2.39
X7.63Y-2.69
X7.63Y-2.99
X7.77Y-2.36
X7.77Y-2.65
X7.77Y-2.95
X7.93Y-3.11
X7.97Y-2.5
X7.97Y-3.1
X7.9772Y-2.8072
X7.98Y-2.55
X7.98Y-2.85
T2
X5.6555Y-2.1
X5.6555Y-3.6
X5.6832Y-2.0332
X5.6832Y-2.1668
X5.6832Y-3.5332
X5.6832Y-3.6668
X5.75Y-2.0055
X5.75Y-2.1945
X5.75Y-3.5055
X5.75Y-3.6945
X5.8168Y-2.0332
X5.8168Y-2.1668
X5.8168Y-3.5332
X5.8168Y-3.6668
X5.8445Y-2.1
X5.8445Y-3.6
X8.1055Y-2.1
X8.1055Y-3.6
X8.1332Y-2.0332
X8.1332Y-2.1668
X8.1332Y-3.5332
X8.1332Y-3.6668
X8.2Y-2.0055
X8.2Y-2.1945
X8.2Y-3.5055
X8.2Y-3.6945
X8.2668Y-2.0332
X8.2668Y-2.1668
X8.2668Y-3.5332
X8.2668Y-3.6668
X8.2945Y-2.1
X8.2945Y-3.6
T3
X6.6638Y-3.3
X6.6713Y-3.0
X6.7425Y-3.3
X6.75Y-3.0
X6.8213Y-3.3
X6.8287Y-3.0
X6.9Y-3.3
X6.9075Y-3.0
X7.25Y-2.1138
X7.25Y-2.1925
X7.25Y-2.2713
X7.25Y-2.35
X7.25Y-2.6138
X7.25Y-2.6925
X7.25Y-2.7713
X7.25Y-2.85
X7.25Y-3.1138
X7.25Y-3.1925
X7.25Y-3.2713
X7.25Y-3.35
T4
X6.1Y-2.14
X6.2Y-2.04
X6.2Y-2.24
T5
X6.5Y-2.1
X6.5Y-2.2
X6.5Y-2.3
X6.5Y-2.4
X6.5Y-2.5
X6.5Y-2.6
X6.5Y-2.7
X6.5Y-2.8
X6.5Y-2.9
X6.5Y-3.0
X6.5Y-3.1
X6.5Y-3.2
X6.5Y-3.3
X6.5Y-3.4
X6.5Y-3.5
X7.15Y-3.55
X7.25Y-3.55
X7.35Y-3.55
X7.5Y-2.1
X7.5Y-2.2
X7.5Y-2.3
X7.5Y-2.4
X7.5Y-2.5
X7.5Y-2.6
X7.5Y-2.7
X7.5Y-2.8
X7.5Y-2.9
X7.5Y-3.0
X7.5Y-3.1
X7.5Y-3.2
X7.5Y-3.3
X7.5Y-3.4
X7.5Y-3.5
X7.7Y-2.225
X7.7Y-2.55
X7.7Y-2.85
X7.8Y-2.225
X7.8Y-2.55
X7.8Y-2.85
X7.9Y-2.225
X7.9Y-2.55
X7.9Y-2.85
X8.25Y-3.2
X8.25Y-3.3
X8.25Y-3.4
T6
X8.2Y-2.35
X8.2Y-2.45
X8.2Y-2.65
X8.2Y-2.75
X8.2Y-2.95
X8.2Y-3.05
T7
X6.0465Y-2.5213
X6.0465Y-2.6787
X6.2433Y-2.5213
X6.2433Y-2.6787
T8
X5.75Y-2.1
X5.75Y-3.6
X8.2Y-2.1
X8.2Y-3.6
T5
G00X7.64Y-3.3575
M15
G01X7.64Y-3.2787
M16
G05
G00X7.7856Y-3.2
M15
G01X7.8644Y-3.2
M16
G05
G00X7.7856Y-3.4362
M15
G01X7.8644Y-3.4362
M16
G05
T0
M30
