%TF.GenerationSoftware,KiCad,Pcbnew,5.1.10-88a1d61d58~88~ubuntu20.04.1*%
%TF.CreationDate,2021-05-09T16:45:47+02:00*%
%TF.ProjectId,Control_board,436f6e74-726f-46c5-9f62-6f6172642e6b,rev?*%
%TF.SameCoordinates,Original*%
%TF.FileFunction,Copper,L3,Inr*%
%TF.FilePolarity,Positive*%
%FSLAX46Y46*%
G04 Gerber Fmt 4.6, Leading zero omitted, Abs format (unit mm)*
G04 Created by KiCad (PCBNEW 5.1.10-88a1d61d58~88~ubuntu20.04.1) date 2021-05-09 16:45:47*
%MOMM*%
%LPD*%
G01*
G04 APERTURE LIST*
%TA.AperFunction,ComponentPad*%
%ADD10C,1.524000*%
%TD*%
%TA.AperFunction,ComponentPad*%
%ADD11R,1.524000X1.524000*%
%TD*%
%TA.AperFunction,ComponentPad*%
%ADD12C,1.440000*%
%TD*%
%TA.AperFunction,ComponentPad*%
%ADD13C,6.400000*%
%TD*%
%TA.AperFunction,ComponentPad*%
%ADD14C,0.800000*%
%TD*%
%TA.AperFunction,ComponentPad*%
%ADD15R,3.500000X3.500000*%
%TD*%
%TA.AperFunction,ComponentPad*%
%ADD16R,2.200000X2.200000*%
%TD*%
%TA.AperFunction,ComponentPad*%
%ADD17C,2.200000*%
%TD*%
%TA.AperFunction,ComponentPad*%
%ADD18O,1.700000X1.700000*%
%TD*%
%TA.AperFunction,ComponentPad*%
%ADD19R,1.700000X1.700000*%
%TD*%
%TA.AperFunction,ComponentPad*%
%ADD20C,2.250000*%
%TD*%
%TA.AperFunction,ViaPad*%
%ADD21C,0.800000*%
%TD*%
%TA.AperFunction,Conductor*%
%ADD22C,0.254000*%
%TD*%
%TA.AperFunction,Conductor*%
%ADD23C,0.100000*%
%TD*%
G04 APERTURE END LIST*
D10*
%TO.N,GND*%
%TO.C,J1*%
X169450000Y-76200000D03*
%TO.N,CONN1_B*%
X171450000Y-76200000D03*
%TO.N,CONN1_A*%
X173450000Y-76200000D03*
D11*
%TO.N,+5V*%
X175450000Y-76200000D03*
%TD*%
D12*
%TO.N,GND*%
%TO.C,RV1*%
X157480000Y-56896000D03*
%TO.N,BUCK_FB*%
X154940000Y-54356000D03*
%TO.N,+12V*%
X157480000Y-51816000D03*
%TD*%
D13*
%TO.N,GND*%
%TO.C,H1*%
X208280000Y-91440000D03*
D14*
X210680000Y-91440000D03*
X209977056Y-93137056D03*
X208280000Y-93840000D03*
X206582944Y-93137056D03*
X205880000Y-91440000D03*
X206582944Y-89742944D03*
X208280000Y-89040000D03*
X209977056Y-89742944D03*
%TD*%
%TO.N,GND*%
%TO.C,H2*%
X209977056Y-51642944D03*
X208280000Y-50940000D03*
X206582944Y-51642944D03*
X205880000Y-53340000D03*
X206582944Y-55037056D03*
X208280000Y-55740000D03*
X209977056Y-55037056D03*
X210680000Y-53340000D03*
D13*
X208280000Y-53340000D03*
%TD*%
%TO.N,GND*%
%TO.C,H3*%
X146050000Y-53340000D03*
D14*
X148450000Y-53340000D03*
X147747056Y-55037056D03*
X146050000Y-55740000D03*
X144352944Y-55037056D03*
X143650000Y-53340000D03*
X144352944Y-51642944D03*
X146050000Y-50940000D03*
X147747056Y-51642944D03*
%TD*%
%TO.N,GND*%
%TO.C,H4*%
X147747056Y-89742944D03*
X146050000Y-89040000D03*
X144352944Y-89742944D03*
X143650000Y-91440000D03*
X144352944Y-93137056D03*
X146050000Y-93840000D03*
X147747056Y-93137056D03*
X148450000Y-91440000D03*
D13*
X146050000Y-91440000D03*
%TD*%
D11*
%TO.N,+3V3*%
%TO.C,J2*%
X184150000Y-59690000D03*
D10*
%TO.N,CONN2_A*%
X184150000Y-57690000D03*
%TO.N,CONN2_B*%
X184150000Y-55690000D03*
%TO.N,GND*%
X184150000Y-53690000D03*
%TD*%
D11*
%TO.N,+3V3*%
%TO.C,J3*%
X184150000Y-72390000D03*
D10*
%TO.N,CONN3_A*%
X184150000Y-70390000D03*
%TO.N,CONN3_B*%
X184150000Y-68390000D03*
%TO.N,GND*%
X184150000Y-66390000D03*
%TD*%
%TO.N,GND*%
%TO.C,J4*%
X184150000Y-79090000D03*
%TO.N,CONN4_B*%
X184150000Y-81090000D03*
%TO.N,CONN4_A*%
X184150000Y-83090000D03*
D11*
%TO.N,Net-(J4-Pad1)*%
X184150000Y-85090000D03*
%TD*%
%TO.N,+3V3*%
%TO.C,J5*%
X175260000Y-83820000D03*
D10*
%TO.N,GPIO21*%
X173260000Y-83820000D03*
%TO.N,GPIO22*%
X171260000Y-83820000D03*
%TO.N,GND*%
X169260000Y-83820000D03*
%TD*%
D15*
%TO.N,Net-(F1-Pad2)*%
%TO.C,J6*%
X198755000Y-81280000D03*
%TO.N,GND*%
%TA.AperFunction,ComponentPad*%
G36*
G01*
X199755000Y-88780000D02*
X197755000Y-88780000D01*
G75*
G02*
X197005000Y-88030000I0J750000D01*
G01*
X197005000Y-86530000D01*
G75*
G02*
X197755000Y-85780000I750000J0D01*
G01*
X199755000Y-85780000D01*
G75*
G02*
X200505000Y-86530000I0J-750000D01*
G01*
X200505000Y-88030000D01*
G75*
G02*
X199755000Y-88780000I-750000J0D01*
G01*
G37*
%TD.AperFunction*%
%TO.N,N/C*%
%TA.AperFunction,ComponentPad*%
G36*
G01*
X194930000Y-86030000D02*
X193180000Y-86030000D01*
G75*
G02*
X192305000Y-85155000I0J875000D01*
G01*
X192305000Y-83405000D01*
G75*
G02*
X193180000Y-82530000I875000J0D01*
G01*
X194930000Y-82530000D01*
G75*
G02*
X195805000Y-83405000I0J-875000D01*
G01*
X195805000Y-85155000D01*
G75*
G02*
X194930000Y-86030000I-875000J0D01*
G01*
G37*
%TD.AperFunction*%
%TD*%
D16*
%TO.N,LOAD2_POS*%
%TO.C,J7*%
X208280000Y-67310000D03*
D17*
%TO.N,LOAD2_NEG*%
X208280000Y-69850000D03*
%TD*%
%TO.N,LOAD1_NEG*%
%TO.C,J8*%
X208280000Y-62230000D03*
D16*
%TO.N,LOAD1_POS*%
X208280000Y-59690000D03*
%TD*%
%TO.N,LOAD3_POS*%
%TO.C,J9*%
X208280000Y-74930000D03*
D17*
%TO.N,LOAD3_NEG*%
X208280000Y-77470000D03*
%TD*%
D18*
%TO.N,+5V*%
%TO.C,J10*%
X190500000Y-53340000D03*
%TO.N,GND*%
X190500000Y-55880000D03*
%TO.N,CONN2_B*%
X190500000Y-58420000D03*
%TO.N,CONN2_A*%
X190500000Y-60960000D03*
%TO.N,GPIO14*%
X190500000Y-63500000D03*
%TO.N,CONN3_B*%
X190500000Y-66040000D03*
%TO.N,CONN3_A*%
X190500000Y-68580000D03*
%TO.N,GPIO25*%
X190500000Y-71120000D03*
%TO.N,CONN4_B*%
X190500000Y-73660000D03*
%TO.N,CONN4_A*%
X190500000Y-76200000D03*
%TO.N,GPIO35*%
X190500000Y-78740000D03*
%TO.N,GPIO34*%
X190500000Y-81280000D03*
%TO.N,GPIO39*%
X190500000Y-83820000D03*
%TO.N,GPIO36*%
X190500000Y-86360000D03*
D19*
%TO.N,EN*%
X190500000Y-88900000D03*
%TD*%
%TO.N,+3V3*%
%TO.C,J11*%
X165100000Y-53340000D03*
D18*
%TO.N,GND*%
X165100000Y-55880000D03*
%TO.N,GPIO15*%
X165100000Y-58420000D03*
%TO.N,GPIO2*%
X165100000Y-60960000D03*
%TO.N,GPIO4*%
X165100000Y-63500000D03*
%TO.N,CONN1_A*%
X165100000Y-66040000D03*
%TO.N,CONN1_B*%
X165100000Y-68580000D03*
%TO.N,GPIO5*%
X165100000Y-71120000D03*
%TO.N,GPIO18*%
X165100000Y-73660000D03*
%TO.N,GPIO19*%
X165100000Y-76200000D03*
%TO.N,GPIO21*%
X165100000Y-78740000D03*
%TO.N,GPIO3*%
X165100000Y-81280000D03*
%TO.N,GPIO1*%
X165100000Y-83820000D03*
%TO.N,GPIO22*%
X165100000Y-86360000D03*
%TO.N,GPIO23*%
X165100000Y-88900000D03*
%TD*%
D19*
%TO.N,+24V*%
%TO.C,JP1*%
X195580000Y-64770000D03*
D18*
%TO.N,LOAD2_POS*%
X198120000Y-64770000D03*
%TO.N,+12V*%
X200660000Y-64770000D03*
%TD*%
%TO.N,+12V*%
%TO.C,JP2*%
X200660000Y-56515000D03*
%TO.N,LOAD1_POS*%
X198120000Y-56515000D03*
D19*
%TO.N,+24V*%
X195580000Y-56515000D03*
%TD*%
%TO.N,+24V*%
%TO.C,JP3*%
X195580000Y-72390000D03*
D18*
%TO.N,LOAD3_POS*%
X198120000Y-72390000D03*
%TO.N,+12V*%
X200660000Y-72390000D03*
%TD*%
D19*
%TO.N,+3V3*%
%TO.C,JP4*%
X181610000Y-90170000D03*
D18*
%TO.N,Net-(J4-Pad1)*%
X184150000Y-90170000D03*
%TO.N,+5V*%
X186690000Y-90170000D03*
%TD*%
%TO.N,+12V*%
%TO.C,JP5*%
X209550000Y-86360000D03*
%TO.N,Net-(D9-Pad1)*%
X209550000Y-83820000D03*
D19*
%TO.N,+24V*%
X209550000Y-81280000D03*
%TD*%
D20*
%TO.N,BUCK_OUT*%
%TO.C,L1*%
X153580000Y-64040000D03*
%TO.N,N/C*%
X153580000Y-68040000D03*
%TO.N,Net-(C3-Pad1)*%
X158580000Y-68040000D03*
%TO.N,N/C*%
X158580000Y-64040000D03*
%TD*%
D21*
%TO.N,GND*%
X202619999Y-71301999D03*
X202692000Y-72390000D03*
X202438000Y-63500000D03*
X202692000Y-64770000D03*
X201422000Y-78994000D03*
X202438000Y-78740000D03*
X179070000Y-58674000D03*
X179070000Y-57404000D03*
X179070000Y-55880000D03*
X179070000Y-54610000D03*
X193802000Y-68326000D03*
X197358000Y-67310000D03*
X197358000Y-74930000D03*
X193802000Y-75946000D03*
X193802000Y-60706000D03*
X197358000Y-59944000D03*
X144145000Y-67310000D03*
X144780000Y-66675000D03*
X161290000Y-87122000D03*
X162306000Y-86360000D03*
X144526000Y-64770000D03*
X145542000Y-63754000D03*
X152400000Y-76708000D03*
X151638000Y-75946000D03*
X150876000Y-75184000D03*
X148209000Y-77343000D03*
X146939000Y-77343000D03*
X145669000Y-77343000D03*
X144399000Y-77343000D03*
X172212000Y-70104000D03*
X174498000Y-70104000D03*
X146294253Y-67812677D03*
%TO.N,+5V*%
X179324000Y-63500000D03*
X177581762Y-78232000D03*
%TO.N,GPIO35*%
X192278000Y-71374000D03*
%TO.N,+24V*%
X155448000Y-89408000D03*
X155448000Y-87884000D03*
X155448000Y-90932000D03*
X153924000Y-90932000D03*
X153924000Y-87884000D03*
X149352000Y-69596000D03*
X149352000Y-70612000D03*
X149352000Y-68580000D03*
X149352000Y-67564000D03*
%TO.N,+12V*%
X150876000Y-85852000D03*
X146812000Y-85852000D03*
X169164000Y-62230000D03*
%TD*%
D22*
%TO.N,+24V*%
X205835330Y-50361161D02*
X205301161Y-50895330D01*
X204881467Y-51523446D01*
X204592377Y-52221372D01*
X204445000Y-52962285D01*
X204445000Y-53717715D01*
X204592377Y-54458628D01*
X204881467Y-55156554D01*
X205301161Y-55784670D01*
X205835330Y-56318839D01*
X206463446Y-56738533D01*
X207161372Y-57027623D01*
X207902285Y-57175000D01*
X208657715Y-57175000D01*
X209398628Y-57027623D01*
X210096554Y-56738533D01*
X210724670Y-56318839D01*
X211258839Y-55784670D01*
X211430001Y-55528508D01*
X211430001Y-58672401D01*
X211381308Y-58639866D01*
X211165652Y-58550539D01*
X210936712Y-58505000D01*
X210703288Y-58505000D01*
X210474348Y-58550539D01*
X210258692Y-58639866D01*
X210064606Y-58769550D01*
X210018072Y-58816084D01*
X210018072Y-58590000D01*
X210005812Y-58465518D01*
X209969502Y-58345820D01*
X209910537Y-58235506D01*
X209831185Y-58138815D01*
X209734494Y-58059463D01*
X209624180Y-58000498D01*
X209504482Y-57964188D01*
X209380000Y-57951928D01*
X207180000Y-57951928D01*
X207055518Y-57964188D01*
X206935820Y-58000498D01*
X206825506Y-58059463D01*
X206728815Y-58138815D01*
X206649463Y-58235506D01*
X206590498Y-58345820D01*
X206554188Y-58465518D01*
X206541928Y-58590000D01*
X206541928Y-60790000D01*
X206554188Y-60914482D01*
X206590498Y-61034180D01*
X206649463Y-61144494D01*
X206728815Y-61241185D01*
X206809690Y-61307557D01*
X206742463Y-61408169D01*
X206611675Y-61723919D01*
X206545000Y-62059117D01*
X206545000Y-62400883D01*
X206611675Y-62736081D01*
X206742463Y-63051831D01*
X206932337Y-63335998D01*
X207174002Y-63577663D01*
X207458169Y-63767537D01*
X207773919Y-63898325D01*
X208109117Y-63965000D01*
X208450883Y-63965000D01*
X208786081Y-63898325D01*
X209101831Y-63767537D01*
X209385998Y-63577663D01*
X209627663Y-63335998D01*
X209817537Y-63051831D01*
X209865910Y-62935048D01*
X209899550Y-62985394D01*
X210064606Y-63150450D01*
X210258692Y-63280134D01*
X210474348Y-63369461D01*
X210703288Y-63415000D01*
X210936712Y-63415000D01*
X211165652Y-63369461D01*
X211381308Y-63280134D01*
X211430001Y-63247599D01*
X211430001Y-66292401D01*
X211381308Y-66259866D01*
X211165652Y-66170539D01*
X210936712Y-66125000D01*
X210703288Y-66125000D01*
X210474348Y-66170539D01*
X210258692Y-66259866D01*
X210064606Y-66389550D01*
X210018072Y-66436084D01*
X210018072Y-66210000D01*
X210005812Y-66085518D01*
X209969502Y-65965820D01*
X209910537Y-65855506D01*
X209831185Y-65758815D01*
X209734494Y-65679463D01*
X209624180Y-65620498D01*
X209504482Y-65584188D01*
X209380000Y-65571928D01*
X207180000Y-65571928D01*
X207055518Y-65584188D01*
X206935820Y-65620498D01*
X206825506Y-65679463D01*
X206728815Y-65758815D01*
X206649463Y-65855506D01*
X206590498Y-65965820D01*
X206554188Y-66085518D01*
X206541928Y-66210000D01*
X206541928Y-68410000D01*
X206554188Y-68534482D01*
X206590498Y-68654180D01*
X206649463Y-68764494D01*
X206728815Y-68861185D01*
X206809690Y-68927557D01*
X206742463Y-69028169D01*
X206611675Y-69343919D01*
X206545000Y-69679117D01*
X206545000Y-70020883D01*
X206611675Y-70356081D01*
X206742463Y-70671831D01*
X206932337Y-70955998D01*
X207174002Y-71197663D01*
X207458169Y-71387537D01*
X207773919Y-71518325D01*
X208109117Y-71585000D01*
X208450883Y-71585000D01*
X208786081Y-71518325D01*
X209101831Y-71387537D01*
X209385998Y-71197663D01*
X209627663Y-70955998D01*
X209817537Y-70671831D01*
X209865910Y-70555048D01*
X209899550Y-70605394D01*
X210064606Y-70770450D01*
X210258692Y-70900134D01*
X210474348Y-70989461D01*
X210703288Y-71035000D01*
X210936712Y-71035000D01*
X211165652Y-70989461D01*
X211381308Y-70900134D01*
X211430001Y-70867599D01*
X211430000Y-73912401D01*
X211381308Y-73879866D01*
X211165652Y-73790539D01*
X210936712Y-73745000D01*
X210703288Y-73745000D01*
X210474348Y-73790539D01*
X210258692Y-73879866D01*
X210064606Y-74009550D01*
X210018072Y-74056084D01*
X210018072Y-73830000D01*
X210005812Y-73705518D01*
X209969502Y-73585820D01*
X209910537Y-73475506D01*
X209831185Y-73378815D01*
X209734494Y-73299463D01*
X209624180Y-73240498D01*
X209504482Y-73204188D01*
X209380000Y-73191928D01*
X207180000Y-73191928D01*
X207055518Y-73204188D01*
X206935820Y-73240498D01*
X206825506Y-73299463D01*
X206728815Y-73378815D01*
X206649463Y-73475506D01*
X206590498Y-73585820D01*
X206554188Y-73705518D01*
X206541928Y-73830000D01*
X206541928Y-76030000D01*
X206554188Y-76154482D01*
X206590498Y-76274180D01*
X206649463Y-76384494D01*
X206728815Y-76481185D01*
X206809690Y-76547557D01*
X206742463Y-76648169D01*
X206611675Y-76963919D01*
X206545000Y-77299117D01*
X206545000Y-77640883D01*
X206611675Y-77976081D01*
X206742463Y-78291831D01*
X206932337Y-78575998D01*
X207174002Y-78817663D01*
X207458169Y-79007537D01*
X207773919Y-79138325D01*
X208109117Y-79205000D01*
X208450883Y-79205000D01*
X208786081Y-79138325D01*
X209101831Y-79007537D01*
X209385998Y-78817663D01*
X209627663Y-78575998D01*
X209817537Y-78291831D01*
X209865910Y-78175048D01*
X209899550Y-78225394D01*
X210064606Y-78390450D01*
X210258692Y-78520134D01*
X210474348Y-78609461D01*
X210703288Y-78655000D01*
X210936712Y-78655000D01*
X211165652Y-78609461D01*
X211381308Y-78520134D01*
X211430000Y-78487599D01*
X211430000Y-89251490D01*
X211258839Y-88995330D01*
X210724670Y-88461161D01*
X210096554Y-88041467D01*
X209622240Y-87845000D01*
X209696260Y-87845000D01*
X209983158Y-87787932D01*
X210253411Y-87675990D01*
X210496632Y-87513475D01*
X210703475Y-87306632D01*
X210865990Y-87063411D01*
X210977932Y-86793158D01*
X211035000Y-86506260D01*
X211035000Y-86213740D01*
X210977932Y-85926842D01*
X210865990Y-85656589D01*
X210703475Y-85413368D01*
X210496632Y-85206525D01*
X210322240Y-85090000D01*
X210496632Y-84973475D01*
X210703475Y-84766632D01*
X210865990Y-84523411D01*
X210977932Y-84253158D01*
X211035000Y-83966260D01*
X211035000Y-83673740D01*
X210977932Y-83386842D01*
X210865990Y-83116589D01*
X210703475Y-82873368D01*
X210595107Y-82765000D01*
X210923002Y-82765000D01*
X210923002Y-82492666D01*
X210935308Y-82477248D01*
X210992767Y-82366142D01*
X211027446Y-82245962D01*
X211035000Y-82161750D01*
X210876250Y-82003000D01*
X210273000Y-82003000D01*
X210273000Y-82130000D01*
X208827000Y-82130000D01*
X208827000Y-82003000D01*
X208223750Y-82003000D01*
X208065000Y-82161750D01*
X208072554Y-82245962D01*
X208107233Y-82366142D01*
X208164692Y-82477248D01*
X208176998Y-82492666D01*
X208176998Y-82765000D01*
X208504893Y-82765000D01*
X208396525Y-82873368D01*
X208234010Y-83116589D01*
X208122068Y-83386842D01*
X208065000Y-83673740D01*
X208065000Y-83966260D01*
X208122068Y-84253158D01*
X208234010Y-84523411D01*
X208396525Y-84766632D01*
X208603368Y-84973475D01*
X208777760Y-85090000D01*
X208603368Y-85206525D01*
X208396525Y-85413368D01*
X208234010Y-85656589D01*
X208122068Y-85926842D01*
X208065000Y-86213740D01*
X208065000Y-86506260D01*
X208122068Y-86793158D01*
X208234010Y-87063411D01*
X208396525Y-87306632D01*
X208603368Y-87513475D01*
X208775370Y-87628403D01*
X208657715Y-87605000D01*
X207902285Y-87605000D01*
X207161372Y-87752377D01*
X206463446Y-88041467D01*
X205835330Y-88461161D01*
X205301161Y-88995330D01*
X204881467Y-89623446D01*
X204592377Y-90321372D01*
X204445000Y-91062285D01*
X204445000Y-91817715D01*
X204592377Y-92558628D01*
X204881467Y-93256554D01*
X205301161Y-93884670D01*
X205835330Y-94418839D01*
X206091490Y-94590000D01*
X148238510Y-94590000D01*
X148494670Y-94418839D01*
X149028839Y-93884670D01*
X149448533Y-93256554D01*
X149737623Y-92558628D01*
X149885000Y-91817715D01*
X149885000Y-91062285D01*
X149737623Y-90321372D01*
X149448533Y-89623446D01*
X149028839Y-88995330D01*
X148494670Y-88461161D01*
X147866554Y-88041467D01*
X147168628Y-87752377D01*
X146427715Y-87605000D01*
X145672285Y-87605000D01*
X144931372Y-87752377D01*
X144233446Y-88041467D01*
X143605330Y-88461161D01*
X143071161Y-88995330D01*
X142900000Y-89251490D01*
X142900000Y-87020061D01*
X160255000Y-87020061D01*
X160255000Y-87223939D01*
X160294774Y-87423898D01*
X160372795Y-87612256D01*
X160486063Y-87781774D01*
X160630226Y-87925937D01*
X160799744Y-88039205D01*
X160988102Y-88117226D01*
X161188061Y-88157000D01*
X161391939Y-88157000D01*
X161591898Y-88117226D01*
X161780256Y-88039205D01*
X161949774Y-87925937D01*
X162093937Y-87781774D01*
X162207205Y-87612256D01*
X162285226Y-87423898D01*
X162290974Y-87395000D01*
X162407939Y-87395000D01*
X162607898Y-87355226D01*
X162796256Y-87277205D01*
X162965774Y-87163937D01*
X163109937Y-87019774D01*
X163223205Y-86850256D01*
X163301226Y-86661898D01*
X163341000Y-86461939D01*
X163341000Y-86258061D01*
X163301226Y-86058102D01*
X163223205Y-85869744D01*
X163109937Y-85700226D01*
X162965774Y-85556063D01*
X162796256Y-85442795D01*
X162607898Y-85364774D01*
X162407939Y-85325000D01*
X162204061Y-85325000D01*
X162004102Y-85364774D01*
X161815744Y-85442795D01*
X161646226Y-85556063D01*
X161502063Y-85700226D01*
X161388795Y-85869744D01*
X161310774Y-86058102D01*
X161305026Y-86087000D01*
X161188061Y-86087000D01*
X160988102Y-86126774D01*
X160799744Y-86204795D01*
X160630226Y-86318063D01*
X160486063Y-86462226D01*
X160372795Y-86631744D01*
X160294774Y-86820102D01*
X160255000Y-87020061D01*
X142900000Y-87020061D01*
X142900000Y-85750061D01*
X145777000Y-85750061D01*
X145777000Y-85953939D01*
X145816774Y-86153898D01*
X145894795Y-86342256D01*
X146008063Y-86511774D01*
X146152226Y-86655937D01*
X146321744Y-86769205D01*
X146510102Y-86847226D01*
X146710061Y-86887000D01*
X146913939Y-86887000D01*
X147113898Y-86847226D01*
X147302256Y-86769205D01*
X147471774Y-86655937D01*
X147615937Y-86511774D01*
X147729205Y-86342256D01*
X147807226Y-86153898D01*
X147847000Y-85953939D01*
X147847000Y-85750061D01*
X149841000Y-85750061D01*
X149841000Y-85953939D01*
X149880774Y-86153898D01*
X149958795Y-86342256D01*
X150072063Y-86511774D01*
X150216226Y-86655937D01*
X150385744Y-86769205D01*
X150574102Y-86847226D01*
X150774061Y-86887000D01*
X150977939Y-86887000D01*
X151177898Y-86847226D01*
X151366256Y-86769205D01*
X151535774Y-86655937D01*
X151679937Y-86511774D01*
X151793205Y-86342256D01*
X151871226Y-86153898D01*
X151911000Y-85953939D01*
X151911000Y-85750061D01*
X151871226Y-85550102D01*
X151793205Y-85361744D01*
X151679937Y-85192226D01*
X151535774Y-85048063D01*
X151366256Y-84934795D01*
X151177898Y-84856774D01*
X150977939Y-84817000D01*
X150774061Y-84817000D01*
X150574102Y-84856774D01*
X150385744Y-84934795D01*
X150216226Y-85048063D01*
X150072063Y-85192226D01*
X149958795Y-85361744D01*
X149880774Y-85550102D01*
X149841000Y-85750061D01*
X147847000Y-85750061D01*
X147807226Y-85550102D01*
X147729205Y-85361744D01*
X147615937Y-85192226D01*
X147471774Y-85048063D01*
X147302256Y-84934795D01*
X147113898Y-84856774D01*
X146913939Y-84817000D01*
X146710061Y-84817000D01*
X146510102Y-84856774D01*
X146321744Y-84934795D01*
X146152226Y-85048063D01*
X146008063Y-85192226D01*
X145894795Y-85361744D01*
X145816774Y-85550102D01*
X145777000Y-85750061D01*
X142900000Y-85750061D01*
X142900000Y-77241061D01*
X143364000Y-77241061D01*
X143364000Y-77444939D01*
X143403774Y-77644898D01*
X143481795Y-77833256D01*
X143595063Y-78002774D01*
X143739226Y-78146937D01*
X143908744Y-78260205D01*
X144097102Y-78338226D01*
X144297061Y-78378000D01*
X144500939Y-78378000D01*
X144700898Y-78338226D01*
X144889256Y-78260205D01*
X145034000Y-78163490D01*
X145178744Y-78260205D01*
X145367102Y-78338226D01*
X145567061Y-78378000D01*
X145770939Y-78378000D01*
X145970898Y-78338226D01*
X146159256Y-78260205D01*
X146304000Y-78163490D01*
X146448744Y-78260205D01*
X146637102Y-78338226D01*
X146837061Y-78378000D01*
X147040939Y-78378000D01*
X147240898Y-78338226D01*
X147429256Y-78260205D01*
X147574000Y-78163490D01*
X147718744Y-78260205D01*
X147907102Y-78338226D01*
X148107061Y-78378000D01*
X148310939Y-78378000D01*
X148510898Y-78338226D01*
X148699256Y-78260205D01*
X148868774Y-78146937D01*
X149012937Y-78002774D01*
X149126205Y-77833256D01*
X149204226Y-77644898D01*
X149244000Y-77444939D01*
X149244000Y-77241061D01*
X149204226Y-77041102D01*
X149126205Y-76852744D01*
X149012937Y-76683226D01*
X148868774Y-76539063D01*
X148699256Y-76425795D01*
X148510898Y-76347774D01*
X148310939Y-76308000D01*
X148107061Y-76308000D01*
X147907102Y-76347774D01*
X147718744Y-76425795D01*
X147574000Y-76522510D01*
X147429256Y-76425795D01*
X147240898Y-76347774D01*
X147040939Y-76308000D01*
X146837061Y-76308000D01*
X146637102Y-76347774D01*
X146448744Y-76425795D01*
X146304000Y-76522510D01*
X146159256Y-76425795D01*
X145970898Y-76347774D01*
X145770939Y-76308000D01*
X145567061Y-76308000D01*
X145367102Y-76347774D01*
X145178744Y-76425795D01*
X145034000Y-76522510D01*
X144889256Y-76425795D01*
X144700898Y-76347774D01*
X144500939Y-76308000D01*
X144297061Y-76308000D01*
X144097102Y-76347774D01*
X143908744Y-76425795D01*
X143739226Y-76539063D01*
X143595063Y-76683226D01*
X143481795Y-76852744D01*
X143403774Y-77041102D01*
X143364000Y-77241061D01*
X142900000Y-77241061D01*
X142900000Y-75082061D01*
X149841000Y-75082061D01*
X149841000Y-75285939D01*
X149880774Y-75485898D01*
X149958795Y-75674256D01*
X150072063Y-75843774D01*
X150216226Y-75987937D01*
X150385744Y-76101205D01*
X150574102Y-76179226D01*
X150631381Y-76190619D01*
X150642774Y-76247898D01*
X150720795Y-76436256D01*
X150834063Y-76605774D01*
X150978226Y-76749937D01*
X151147744Y-76863205D01*
X151336102Y-76941226D01*
X151393381Y-76952619D01*
X151404774Y-77009898D01*
X151482795Y-77198256D01*
X151596063Y-77367774D01*
X151740226Y-77511937D01*
X151909744Y-77625205D01*
X152098102Y-77703226D01*
X152298061Y-77743000D01*
X152501939Y-77743000D01*
X152701898Y-77703226D01*
X152890256Y-77625205D01*
X153059774Y-77511937D01*
X153203937Y-77367774D01*
X153317205Y-77198256D01*
X153395226Y-77009898D01*
X153435000Y-76809939D01*
X153435000Y-76606061D01*
X153395226Y-76406102D01*
X153317205Y-76217744D01*
X153203937Y-76048226D01*
X153059774Y-75904063D01*
X152890256Y-75790795D01*
X152701898Y-75712774D01*
X152644619Y-75701381D01*
X152633226Y-75644102D01*
X152555205Y-75455744D01*
X152441937Y-75286226D01*
X152297774Y-75142063D01*
X152128256Y-75028795D01*
X151939898Y-74950774D01*
X151882619Y-74939381D01*
X151871226Y-74882102D01*
X151793205Y-74693744D01*
X151679937Y-74524226D01*
X151535774Y-74380063D01*
X151366256Y-74266795D01*
X151177898Y-74188774D01*
X150977939Y-74149000D01*
X150774061Y-74149000D01*
X150574102Y-74188774D01*
X150385744Y-74266795D01*
X150216226Y-74380063D01*
X150072063Y-74524226D01*
X149958795Y-74693744D01*
X149880774Y-74882102D01*
X149841000Y-75082061D01*
X142900000Y-75082061D01*
X142900000Y-67208061D01*
X143110000Y-67208061D01*
X143110000Y-67411939D01*
X143149774Y-67611898D01*
X143227795Y-67800256D01*
X143341063Y-67969774D01*
X143485226Y-68113937D01*
X143654744Y-68227205D01*
X143843102Y-68305226D01*
X144043061Y-68345000D01*
X144246939Y-68345000D01*
X144446898Y-68305226D01*
X144635256Y-68227205D01*
X144804774Y-68113937D01*
X144948937Y-67969774D01*
X145062205Y-67800256D01*
X145123142Y-67653142D01*
X145270256Y-67592205D01*
X145284758Y-67582515D01*
X145259253Y-67710738D01*
X145259253Y-67914616D01*
X145299027Y-68114575D01*
X145377048Y-68302933D01*
X145490316Y-68472451D01*
X145634479Y-68616614D01*
X145803997Y-68729882D01*
X145992355Y-68807903D01*
X146192314Y-68847677D01*
X146396192Y-68847677D01*
X146596151Y-68807903D01*
X146784509Y-68729882D01*
X146954027Y-68616614D01*
X147098190Y-68472451D01*
X147211458Y-68302933D01*
X147289479Y-68114575D01*
X147329253Y-67914616D01*
X147329253Y-67866655D01*
X151820000Y-67866655D01*
X151820000Y-68213345D01*
X151887636Y-68553373D01*
X152020308Y-68873673D01*
X152212919Y-69161935D01*
X152458065Y-69407081D01*
X152746327Y-69599692D01*
X153066627Y-69732364D01*
X153406655Y-69800000D01*
X153753345Y-69800000D01*
X154093373Y-69732364D01*
X154413673Y-69599692D01*
X154701935Y-69407081D01*
X154947081Y-69161935D01*
X155139692Y-68873673D01*
X155272364Y-68553373D01*
X155340000Y-68213345D01*
X155340000Y-67866655D01*
X156820000Y-67866655D01*
X156820000Y-68213345D01*
X156887636Y-68553373D01*
X157020308Y-68873673D01*
X157212919Y-69161935D01*
X157458065Y-69407081D01*
X157746327Y-69599692D01*
X158066627Y-69732364D01*
X158406655Y-69800000D01*
X158753345Y-69800000D01*
X159093373Y-69732364D01*
X159413673Y-69599692D01*
X159701935Y-69407081D01*
X159947081Y-69161935D01*
X160139692Y-68873673D01*
X160272364Y-68553373D01*
X160340000Y-68213345D01*
X160340000Y-67866655D01*
X160272364Y-67526627D01*
X160139692Y-67206327D01*
X159947081Y-66918065D01*
X159701935Y-66672919D01*
X159413673Y-66480308D01*
X159093373Y-66347636D01*
X158753345Y-66280000D01*
X158406655Y-66280000D01*
X158066627Y-66347636D01*
X157746327Y-66480308D01*
X157458065Y-66672919D01*
X157212919Y-66918065D01*
X157020308Y-67206327D01*
X156887636Y-67526627D01*
X156820000Y-67866655D01*
X155340000Y-67866655D01*
X155272364Y-67526627D01*
X155139692Y-67206327D01*
X154947081Y-66918065D01*
X154701935Y-66672919D01*
X154413673Y-66480308D01*
X154093373Y-66347636D01*
X153753345Y-66280000D01*
X153406655Y-66280000D01*
X153066627Y-66347636D01*
X152746327Y-66480308D01*
X152458065Y-66672919D01*
X152212919Y-66918065D01*
X152020308Y-67206327D01*
X151887636Y-67526627D01*
X151820000Y-67866655D01*
X147329253Y-67866655D01*
X147329253Y-67710738D01*
X147289479Y-67510779D01*
X147211458Y-67322421D01*
X147098190Y-67152903D01*
X146954027Y-67008740D01*
X146784509Y-66895472D01*
X146596151Y-66817451D01*
X146396192Y-66777677D01*
X146192314Y-66777677D01*
X145992355Y-66817451D01*
X145803997Y-66895472D01*
X145789495Y-66905162D01*
X145815000Y-66776939D01*
X145815000Y-66573061D01*
X145775226Y-66373102D01*
X145697205Y-66184744D01*
X145583937Y-66015226D01*
X145439774Y-65871063D01*
X145270256Y-65757795D01*
X145081898Y-65679774D01*
X145039884Y-65671417D01*
X145185774Y-65573937D01*
X145329937Y-65429774D01*
X145443205Y-65260256D01*
X145521226Y-65071898D01*
X145561000Y-64871939D01*
X145561000Y-64789000D01*
X145643939Y-64789000D01*
X145843898Y-64749226D01*
X146032256Y-64671205D01*
X146201774Y-64557937D01*
X146345937Y-64413774D01*
X146459205Y-64244256D01*
X146537226Y-64055898D01*
X146574868Y-63866655D01*
X151820000Y-63866655D01*
X151820000Y-64213345D01*
X151887636Y-64553373D01*
X152020308Y-64873673D01*
X152212919Y-65161935D01*
X152458065Y-65407081D01*
X152746327Y-65599692D01*
X153066627Y-65732364D01*
X153406655Y-65800000D01*
X153753345Y-65800000D01*
X154093373Y-65732364D01*
X154413673Y-65599692D01*
X154701935Y-65407081D01*
X154947081Y-65161935D01*
X155139692Y-64873673D01*
X155272364Y-64553373D01*
X155340000Y-64213345D01*
X155340000Y-63866655D01*
X156820000Y-63866655D01*
X156820000Y-64213345D01*
X156887636Y-64553373D01*
X157020308Y-64873673D01*
X157212919Y-65161935D01*
X157458065Y-65407081D01*
X157746327Y-65599692D01*
X158066627Y-65732364D01*
X158406655Y-65800000D01*
X158753345Y-65800000D01*
X159093373Y-65732364D01*
X159413673Y-65599692D01*
X159701935Y-65407081D01*
X159947081Y-65161935D01*
X160139692Y-64873673D01*
X160272364Y-64553373D01*
X160340000Y-64213345D01*
X160340000Y-63866655D01*
X160272364Y-63526627D01*
X160139692Y-63206327D01*
X159947081Y-62918065D01*
X159701935Y-62672919D01*
X159413673Y-62480308D01*
X159093373Y-62347636D01*
X158753345Y-62280000D01*
X158406655Y-62280000D01*
X158066627Y-62347636D01*
X157746327Y-62480308D01*
X157458065Y-62672919D01*
X157212919Y-62918065D01*
X157020308Y-63206327D01*
X156887636Y-63526627D01*
X156820000Y-63866655D01*
X155340000Y-63866655D01*
X155272364Y-63526627D01*
X155139692Y-63206327D01*
X154947081Y-62918065D01*
X154701935Y-62672919D01*
X154413673Y-62480308D01*
X154093373Y-62347636D01*
X153753345Y-62280000D01*
X153406655Y-62280000D01*
X153066627Y-62347636D01*
X152746327Y-62480308D01*
X152458065Y-62672919D01*
X152212919Y-62918065D01*
X152020308Y-63206327D01*
X151887636Y-63526627D01*
X151820000Y-63866655D01*
X146574868Y-63866655D01*
X146577000Y-63855939D01*
X146577000Y-63652061D01*
X146537226Y-63452102D01*
X146459205Y-63263744D01*
X146345937Y-63094226D01*
X146201774Y-62950063D01*
X146032256Y-62836795D01*
X145843898Y-62758774D01*
X145643939Y-62719000D01*
X145440061Y-62719000D01*
X145240102Y-62758774D01*
X145051744Y-62836795D01*
X144882226Y-62950063D01*
X144738063Y-63094226D01*
X144624795Y-63263744D01*
X144546774Y-63452102D01*
X144507000Y-63652061D01*
X144507000Y-63735000D01*
X144424061Y-63735000D01*
X144224102Y-63774774D01*
X144035744Y-63852795D01*
X143866226Y-63966063D01*
X143722063Y-64110226D01*
X143608795Y-64279744D01*
X143530774Y-64468102D01*
X143491000Y-64668061D01*
X143491000Y-64871939D01*
X143530774Y-65071898D01*
X143608795Y-65260256D01*
X143722063Y-65429774D01*
X143866226Y-65573937D01*
X144035744Y-65687205D01*
X144224102Y-65765226D01*
X144266116Y-65773583D01*
X144120226Y-65871063D01*
X143976063Y-66015226D01*
X143862795Y-66184744D01*
X143801858Y-66331858D01*
X143654744Y-66392795D01*
X143485226Y-66506063D01*
X143341063Y-66650226D01*
X143227795Y-66819744D01*
X143149774Y-67008102D01*
X143110000Y-67208061D01*
X142900000Y-67208061D01*
X142900000Y-55528510D01*
X143071161Y-55784670D01*
X143605330Y-56318839D01*
X144233446Y-56738533D01*
X144931372Y-57027623D01*
X145672285Y-57175000D01*
X146427715Y-57175000D01*
X147168628Y-57027623D01*
X147170397Y-57026890D01*
X148610048Y-57026890D01*
X148610048Y-57273110D01*
X148658083Y-57514598D01*
X148752307Y-57742074D01*
X148889099Y-57946798D01*
X149063202Y-58120901D01*
X149267926Y-58257693D01*
X149495402Y-58351917D01*
X149736890Y-58399952D01*
X149983110Y-58399952D01*
X150224598Y-58351917D01*
X150452074Y-58257693D01*
X150656798Y-58120901D01*
X150830901Y-57946798D01*
X150967693Y-57742074D01*
X151061917Y-57514598D01*
X151109952Y-57273110D01*
X151109952Y-57026890D01*
X151061917Y-56785402D01*
X151052449Y-56762544D01*
X156125000Y-56762544D01*
X156125000Y-57029456D01*
X156177072Y-57291239D01*
X156279215Y-57537833D01*
X156427503Y-57759762D01*
X156616238Y-57948497D01*
X156838167Y-58096785D01*
X157084761Y-58198928D01*
X157346544Y-58251000D01*
X157613456Y-58251000D01*
X157875239Y-58198928D01*
X158121833Y-58096785D01*
X158343762Y-57948497D01*
X158532497Y-57759762D01*
X158680785Y-57537833D01*
X158782928Y-57291239D01*
X158835000Y-57029456D01*
X158835000Y-56762544D01*
X158782928Y-56500761D01*
X158680785Y-56254167D01*
X158532497Y-56032238D01*
X158343762Y-55843503D01*
X158121833Y-55695215D01*
X157875239Y-55593072D01*
X157613456Y-55541000D01*
X157346544Y-55541000D01*
X157084761Y-55593072D01*
X156838167Y-55695215D01*
X156616238Y-55843503D01*
X156427503Y-56032238D01*
X156279215Y-56254167D01*
X156177072Y-56500761D01*
X156125000Y-56762544D01*
X151052449Y-56762544D01*
X150967693Y-56557926D01*
X150830901Y-56353202D01*
X150656798Y-56179099D01*
X150452074Y-56042307D01*
X150224598Y-55948083D01*
X149983110Y-55900048D01*
X149736890Y-55900048D01*
X149495402Y-55948083D01*
X149267926Y-56042307D01*
X149063202Y-56179099D01*
X148889099Y-56353202D01*
X148752307Y-56557926D01*
X148658083Y-56785402D01*
X148610048Y-57026890D01*
X147170397Y-57026890D01*
X147866554Y-56738533D01*
X148494670Y-56318839D01*
X149028839Y-55784670D01*
X149448533Y-55156554D01*
X149737623Y-54458628D01*
X149784583Y-54222544D01*
X153585000Y-54222544D01*
X153585000Y-54489456D01*
X153637072Y-54751239D01*
X153739215Y-54997833D01*
X153887503Y-55219762D01*
X154076238Y-55408497D01*
X154298167Y-55556785D01*
X154544761Y-55658928D01*
X154806544Y-55711000D01*
X155073456Y-55711000D01*
X155335239Y-55658928D01*
X155581833Y-55556785D01*
X155803762Y-55408497D01*
X155992497Y-55219762D01*
X156140785Y-54997833D01*
X156242928Y-54751239D01*
X156295000Y-54489456D01*
X156295000Y-54222544D01*
X156242928Y-53960761D01*
X156140785Y-53714167D01*
X155992497Y-53492238D01*
X155803762Y-53303503D01*
X155581833Y-53155215D01*
X155335239Y-53053072D01*
X155073456Y-53001000D01*
X154806544Y-53001000D01*
X154544761Y-53053072D01*
X154298167Y-53155215D01*
X154076238Y-53303503D01*
X153887503Y-53492238D01*
X153739215Y-53714167D01*
X153637072Y-53960761D01*
X153585000Y-54222544D01*
X149784583Y-54222544D01*
X149885000Y-53717715D01*
X149885000Y-52962285D01*
X149737623Y-52221372D01*
X149514434Y-51682544D01*
X156125000Y-51682544D01*
X156125000Y-51949456D01*
X156177072Y-52211239D01*
X156279215Y-52457833D01*
X156427503Y-52679762D01*
X156616238Y-52868497D01*
X156838167Y-53016785D01*
X157084761Y-53118928D01*
X157346544Y-53171000D01*
X157613456Y-53171000D01*
X157875239Y-53118928D01*
X158121833Y-53016785D01*
X158343762Y-52868497D01*
X158532497Y-52679762D01*
X158659291Y-52490000D01*
X163611928Y-52490000D01*
X163611928Y-54190000D01*
X163624188Y-54314482D01*
X163660498Y-54434180D01*
X163719463Y-54544494D01*
X163798815Y-54641185D01*
X163895506Y-54720537D01*
X164005820Y-54779502D01*
X164078380Y-54801513D01*
X163946525Y-54933368D01*
X163784010Y-55176589D01*
X163672068Y-55446842D01*
X163615000Y-55733740D01*
X163615000Y-56026260D01*
X163672068Y-56313158D01*
X163784010Y-56583411D01*
X163946525Y-56826632D01*
X164153368Y-57033475D01*
X164327760Y-57150000D01*
X164153368Y-57266525D01*
X163946525Y-57473368D01*
X163784010Y-57716589D01*
X163672068Y-57986842D01*
X163615000Y-58273740D01*
X163615000Y-58566260D01*
X163672068Y-58853158D01*
X163784010Y-59123411D01*
X163946525Y-59366632D01*
X164153368Y-59573475D01*
X164327760Y-59690000D01*
X164153368Y-59806525D01*
X163946525Y-60013368D01*
X163784010Y-60256589D01*
X163672068Y-60526842D01*
X163615000Y-60813740D01*
X163615000Y-61106260D01*
X163672068Y-61393158D01*
X163784010Y-61663411D01*
X163946525Y-61906632D01*
X164153368Y-62113475D01*
X164327760Y-62230000D01*
X164153368Y-62346525D01*
X163946525Y-62553368D01*
X163784010Y-62796589D01*
X163672068Y-63066842D01*
X163615000Y-63353740D01*
X163615000Y-63646260D01*
X163672068Y-63933158D01*
X163784010Y-64203411D01*
X163946525Y-64446632D01*
X164153368Y-64653475D01*
X164327760Y-64770000D01*
X164153368Y-64886525D01*
X163946525Y-65093368D01*
X163784010Y-65336589D01*
X163672068Y-65606842D01*
X163615000Y-65893740D01*
X163615000Y-66186260D01*
X163672068Y-66473158D01*
X163784010Y-66743411D01*
X163946525Y-66986632D01*
X164153368Y-67193475D01*
X164327760Y-67310000D01*
X164153368Y-67426525D01*
X163946525Y-67633368D01*
X163784010Y-67876589D01*
X163672068Y-68146842D01*
X163615000Y-68433740D01*
X163615000Y-68726260D01*
X163672068Y-69013158D01*
X163784010Y-69283411D01*
X163946525Y-69526632D01*
X164153368Y-69733475D01*
X164327760Y-69850000D01*
X164153368Y-69966525D01*
X163946525Y-70173368D01*
X163784010Y-70416589D01*
X163672068Y-70686842D01*
X163615000Y-70973740D01*
X163615000Y-71266260D01*
X163672068Y-71553158D01*
X163784010Y-71823411D01*
X163946525Y-72066632D01*
X164153368Y-72273475D01*
X164327760Y-72390000D01*
X164153368Y-72506525D01*
X163946525Y-72713368D01*
X163784010Y-72956589D01*
X163672068Y-73226842D01*
X163615000Y-73513740D01*
X163615000Y-73806260D01*
X163672068Y-74093158D01*
X163784010Y-74363411D01*
X163946525Y-74606632D01*
X164153368Y-74813475D01*
X164327760Y-74930000D01*
X164153368Y-75046525D01*
X163946525Y-75253368D01*
X163784010Y-75496589D01*
X163672068Y-75766842D01*
X163615000Y-76053740D01*
X163615000Y-76346260D01*
X163672068Y-76633158D01*
X163784010Y-76903411D01*
X163946525Y-77146632D01*
X164153368Y-77353475D01*
X164327760Y-77470000D01*
X164153368Y-77586525D01*
X163946525Y-77793368D01*
X163784010Y-78036589D01*
X163672068Y-78306842D01*
X163615000Y-78593740D01*
X163615000Y-78886260D01*
X163672068Y-79173158D01*
X163784010Y-79443411D01*
X163946525Y-79686632D01*
X164153368Y-79893475D01*
X164327760Y-80010000D01*
X164153368Y-80126525D01*
X163946525Y-80333368D01*
X163784010Y-80576589D01*
X163672068Y-80846842D01*
X163615000Y-81133740D01*
X163615000Y-81426260D01*
X163672068Y-81713158D01*
X163784010Y-81983411D01*
X163946525Y-82226632D01*
X164153368Y-82433475D01*
X164327760Y-82550000D01*
X164153368Y-82666525D01*
X163946525Y-82873368D01*
X163784010Y-83116589D01*
X163672068Y-83386842D01*
X163615000Y-83673740D01*
X163615000Y-83966260D01*
X163672068Y-84253158D01*
X163784010Y-84523411D01*
X163946525Y-84766632D01*
X164153368Y-84973475D01*
X164327760Y-85090000D01*
X164153368Y-85206525D01*
X163946525Y-85413368D01*
X163784010Y-85656589D01*
X163672068Y-85926842D01*
X163615000Y-86213740D01*
X163615000Y-86506260D01*
X163672068Y-86793158D01*
X163784010Y-87063411D01*
X163946525Y-87306632D01*
X164153368Y-87513475D01*
X164327760Y-87630000D01*
X164153368Y-87746525D01*
X163946525Y-87953368D01*
X163784010Y-88196589D01*
X163672068Y-88466842D01*
X163615000Y-88753740D01*
X163615000Y-89046260D01*
X163672068Y-89333158D01*
X163784010Y-89603411D01*
X163946525Y-89846632D01*
X164153368Y-90053475D01*
X164396589Y-90215990D01*
X164666842Y-90327932D01*
X164953740Y-90385000D01*
X165246260Y-90385000D01*
X165533158Y-90327932D01*
X165803411Y-90215990D01*
X166046632Y-90053475D01*
X166253475Y-89846632D01*
X166415990Y-89603411D01*
X166527932Y-89333158D01*
X166530549Y-89320000D01*
X180121928Y-89320000D01*
X180121928Y-91020000D01*
X180134188Y-91144482D01*
X180170498Y-91264180D01*
X180229463Y-91374494D01*
X180308815Y-91471185D01*
X180405506Y-91550537D01*
X180515820Y-91609502D01*
X180635518Y-91645812D01*
X180760000Y-91658072D01*
X182460000Y-91658072D01*
X182584482Y-91645812D01*
X182704180Y-91609502D01*
X182814494Y-91550537D01*
X182911185Y-91471185D01*
X182990537Y-91374494D01*
X183049502Y-91264180D01*
X183071513Y-91191620D01*
X183203368Y-91323475D01*
X183446589Y-91485990D01*
X183716842Y-91597932D01*
X184003740Y-91655000D01*
X184296260Y-91655000D01*
X184583158Y-91597932D01*
X184853411Y-91485990D01*
X185096632Y-91323475D01*
X185303475Y-91116632D01*
X185420000Y-90942240D01*
X185536525Y-91116632D01*
X185743368Y-91323475D01*
X185986589Y-91485990D01*
X186256842Y-91597932D01*
X186543740Y-91655000D01*
X186836260Y-91655000D01*
X187123158Y-91597932D01*
X187393411Y-91485990D01*
X187636632Y-91323475D01*
X187643217Y-91316890D01*
X201315048Y-91316890D01*
X201315048Y-91563110D01*
X201363083Y-91804598D01*
X201457307Y-92032074D01*
X201594099Y-92236798D01*
X201768202Y-92410901D01*
X201972926Y-92547693D01*
X202200402Y-92641917D01*
X202441890Y-92689952D01*
X202688110Y-92689952D01*
X202929598Y-92641917D01*
X203157074Y-92547693D01*
X203361798Y-92410901D01*
X203535901Y-92236798D01*
X203672693Y-92032074D01*
X203766917Y-91804598D01*
X203814952Y-91563110D01*
X203814952Y-91316890D01*
X203766917Y-91075402D01*
X203672693Y-90847926D01*
X203535901Y-90643202D01*
X203361798Y-90469099D01*
X203157074Y-90332307D01*
X202929598Y-90238083D01*
X202688110Y-90190048D01*
X202441890Y-90190048D01*
X202200402Y-90238083D01*
X201972926Y-90332307D01*
X201768202Y-90469099D01*
X201594099Y-90643202D01*
X201457307Y-90847926D01*
X201363083Y-91075402D01*
X201315048Y-91316890D01*
X187643217Y-91316890D01*
X187843475Y-91116632D01*
X188005990Y-90873411D01*
X188117932Y-90603158D01*
X188175000Y-90316260D01*
X188175000Y-90023740D01*
X188117932Y-89736842D01*
X188005990Y-89466589D01*
X187843475Y-89223368D01*
X187636632Y-89016525D01*
X187393411Y-88854010D01*
X187123158Y-88742068D01*
X186836260Y-88685000D01*
X186543740Y-88685000D01*
X186256842Y-88742068D01*
X185986589Y-88854010D01*
X185743368Y-89016525D01*
X185536525Y-89223368D01*
X185420000Y-89397760D01*
X185303475Y-89223368D01*
X185096632Y-89016525D01*
X184853411Y-88854010D01*
X184583158Y-88742068D01*
X184296260Y-88685000D01*
X184003740Y-88685000D01*
X183716842Y-88742068D01*
X183446589Y-88854010D01*
X183203368Y-89016525D01*
X183071513Y-89148380D01*
X183049502Y-89075820D01*
X182990537Y-88965506D01*
X182911185Y-88868815D01*
X182814494Y-88789463D01*
X182704180Y-88730498D01*
X182584482Y-88694188D01*
X182460000Y-88681928D01*
X180760000Y-88681928D01*
X180635518Y-88694188D01*
X180515820Y-88730498D01*
X180405506Y-88789463D01*
X180308815Y-88868815D01*
X180229463Y-88965506D01*
X180170498Y-89075820D01*
X180134188Y-89195518D01*
X180121928Y-89320000D01*
X166530549Y-89320000D01*
X166585000Y-89046260D01*
X166585000Y-88753740D01*
X166527932Y-88466842D01*
X166415990Y-88196589D01*
X166318043Y-88050000D01*
X189011928Y-88050000D01*
X189011928Y-89750000D01*
X189024188Y-89874482D01*
X189060498Y-89994180D01*
X189119463Y-90104494D01*
X189198815Y-90201185D01*
X189295506Y-90280537D01*
X189405820Y-90339502D01*
X189525518Y-90375812D01*
X189650000Y-90388072D01*
X191350000Y-90388072D01*
X191474482Y-90375812D01*
X191594180Y-90339502D01*
X191704494Y-90280537D01*
X191801185Y-90201185D01*
X191880537Y-90104494D01*
X191939502Y-89994180D01*
X191975812Y-89874482D01*
X191988072Y-89750000D01*
X191988072Y-88050000D01*
X191975812Y-87925518D01*
X191939502Y-87805820D01*
X191880537Y-87695506D01*
X191801185Y-87598815D01*
X191704494Y-87519463D01*
X191594180Y-87460498D01*
X191521620Y-87438487D01*
X191653475Y-87306632D01*
X191815990Y-87063411D01*
X191927932Y-86793158D01*
X191985000Y-86506260D01*
X191985000Y-86213740D01*
X191947910Y-86027279D01*
X192110097Y-86224903D01*
X192339382Y-86413073D01*
X192600972Y-86552896D01*
X192884814Y-86638999D01*
X193180000Y-86668072D01*
X194930000Y-86668072D01*
X195225186Y-86638999D01*
X195509028Y-86552896D01*
X195551863Y-86530000D01*
X196366928Y-86530000D01*
X196366928Y-88030000D01*
X196393599Y-88300799D01*
X196472589Y-88561192D01*
X196600860Y-88801171D01*
X196773485Y-89011515D01*
X196983829Y-89184140D01*
X197223808Y-89312411D01*
X197484201Y-89391401D01*
X197755000Y-89418072D01*
X199755000Y-89418072D01*
X200025799Y-89391401D01*
X200286192Y-89312411D01*
X200526171Y-89184140D01*
X200736515Y-89011515D01*
X200909140Y-88801171D01*
X201037411Y-88561192D01*
X201116401Y-88300799D01*
X201143072Y-88030000D01*
X201143072Y-86530000D01*
X201116401Y-86259201D01*
X201037411Y-85998808D01*
X200909140Y-85758829D01*
X200736515Y-85548485D01*
X200526171Y-85375860D01*
X200286192Y-85247589D01*
X200025799Y-85168599D01*
X199755000Y-85141928D01*
X197755000Y-85141928D01*
X197484201Y-85168599D01*
X197223808Y-85247589D01*
X196983829Y-85375860D01*
X196773485Y-85548485D01*
X196600860Y-85758829D01*
X196472589Y-85998808D01*
X196393599Y-86259201D01*
X196366928Y-86530000D01*
X195551863Y-86530000D01*
X195770618Y-86413073D01*
X195999903Y-86224903D01*
X196188073Y-85995618D01*
X196327896Y-85734028D01*
X196413999Y-85450186D01*
X196443072Y-85155000D01*
X196443072Y-83405000D01*
X196433506Y-83307869D01*
X196474463Y-83384494D01*
X196553815Y-83481185D01*
X196650506Y-83560537D01*
X196760820Y-83619502D01*
X196880518Y-83655812D01*
X197005000Y-83668072D01*
X200505000Y-83668072D01*
X200629482Y-83655812D01*
X200749180Y-83619502D01*
X200859494Y-83560537D01*
X200956185Y-83481185D01*
X201035537Y-83384494D01*
X201094502Y-83274180D01*
X201130812Y-83154482D01*
X201143072Y-83030000D01*
X201143072Y-80398250D01*
X208065000Y-80398250D01*
X208223750Y-80557000D01*
X208827000Y-80557000D01*
X208827000Y-79953750D01*
X210273000Y-79953750D01*
X210273000Y-80557000D01*
X210876250Y-80557000D01*
X211035000Y-80398250D01*
X211027446Y-80314038D01*
X210992767Y-80193858D01*
X210935308Y-80082752D01*
X210857278Y-79984991D01*
X210761674Y-79904331D01*
X210652172Y-79843873D01*
X210532979Y-79805939D01*
X210431750Y-79795000D01*
X210273000Y-79953750D01*
X208827000Y-79953750D01*
X208668250Y-79795000D01*
X208567021Y-79805939D01*
X208447828Y-79843873D01*
X208338326Y-79904331D01*
X208242722Y-79984991D01*
X208164692Y-80082752D01*
X208107233Y-80193858D01*
X208072554Y-80314038D01*
X208065000Y-80398250D01*
X201143072Y-80398250D01*
X201143072Y-79993795D01*
X201320061Y-80029000D01*
X201523939Y-80029000D01*
X201723898Y-79989226D01*
X201912256Y-79911205D01*
X202081774Y-79797937D01*
X202143094Y-79736617D01*
X202336061Y-79775000D01*
X202539939Y-79775000D01*
X202739898Y-79735226D01*
X202928256Y-79657205D01*
X203097774Y-79543937D01*
X203241937Y-79399774D01*
X203355205Y-79230256D01*
X203433226Y-79041898D01*
X203473000Y-78841939D01*
X203473000Y-78638061D01*
X203433226Y-78438102D01*
X203355205Y-78249744D01*
X203241937Y-78080226D01*
X203097774Y-77936063D01*
X202928256Y-77822795D01*
X202739898Y-77744774D01*
X202539939Y-77705000D01*
X202336061Y-77705000D01*
X202136102Y-77744774D01*
X201947744Y-77822795D01*
X201778226Y-77936063D01*
X201716906Y-77997383D01*
X201523939Y-77959000D01*
X201320061Y-77959000D01*
X201120102Y-77998774D01*
X200931744Y-78076795D01*
X200762226Y-78190063D01*
X200618063Y-78334226D01*
X200504795Y-78503744D01*
X200426774Y-78692102D01*
X200387026Y-78891928D01*
X197005000Y-78891928D01*
X196880518Y-78904188D01*
X196760820Y-78940498D01*
X196650506Y-78999463D01*
X196553815Y-79078815D01*
X196474463Y-79175506D01*
X196415498Y-79285820D01*
X196379188Y-79405518D01*
X196366928Y-79530000D01*
X196366928Y-82954643D01*
X196327896Y-82825972D01*
X196188073Y-82564382D01*
X195999903Y-82335097D01*
X195770618Y-82146927D01*
X195509028Y-82007104D01*
X195225186Y-81921001D01*
X194930000Y-81891928D01*
X193180000Y-81891928D01*
X192884814Y-81921001D01*
X192600972Y-82007104D01*
X192339382Y-82146927D01*
X192110097Y-82335097D01*
X191921927Y-82564382D01*
X191782104Y-82825972D01*
X191732053Y-82990968D01*
X191653475Y-82873368D01*
X191446632Y-82666525D01*
X191272240Y-82550000D01*
X191446632Y-82433475D01*
X191653475Y-82226632D01*
X191815990Y-81983411D01*
X191927932Y-81713158D01*
X191985000Y-81426260D01*
X191985000Y-81133740D01*
X191927932Y-80846842D01*
X191815990Y-80576589D01*
X191653475Y-80333368D01*
X191446632Y-80126525D01*
X191272240Y-80010000D01*
X191446632Y-79893475D01*
X191653475Y-79686632D01*
X191815990Y-79443411D01*
X191927932Y-79173158D01*
X191985000Y-78886260D01*
X191985000Y-78593740D01*
X191927932Y-78306842D01*
X191815990Y-78036589D01*
X191653475Y-77793368D01*
X191446632Y-77586525D01*
X191272240Y-77470000D01*
X191446632Y-77353475D01*
X191653475Y-77146632D01*
X191815990Y-76903411D01*
X191927932Y-76633158D01*
X191985000Y-76346260D01*
X191985000Y-76053740D01*
X191943292Y-75844061D01*
X192767000Y-75844061D01*
X192767000Y-76047939D01*
X192806774Y-76247898D01*
X192884795Y-76436256D01*
X192998063Y-76605774D01*
X193142226Y-76749937D01*
X193311744Y-76863205D01*
X193500102Y-76941226D01*
X193700061Y-76981000D01*
X193903939Y-76981000D01*
X194103898Y-76941226D01*
X194292256Y-76863205D01*
X194461774Y-76749937D01*
X194605937Y-76605774D01*
X194719205Y-76436256D01*
X194797226Y-76247898D01*
X194837000Y-76047939D01*
X194837000Y-75844061D01*
X194797226Y-75644102D01*
X194719205Y-75455744D01*
X194605937Y-75286226D01*
X194461774Y-75142063D01*
X194292256Y-75028795D01*
X194103898Y-74950774D01*
X193903939Y-74911000D01*
X193700061Y-74911000D01*
X193500102Y-74950774D01*
X193311744Y-75028795D01*
X193142226Y-75142063D01*
X192998063Y-75286226D01*
X192884795Y-75455744D01*
X192806774Y-75644102D01*
X192767000Y-75844061D01*
X191943292Y-75844061D01*
X191927932Y-75766842D01*
X191815990Y-75496589D01*
X191653475Y-75253368D01*
X191446632Y-75046525D01*
X191272240Y-74930000D01*
X191424802Y-74828061D01*
X196323000Y-74828061D01*
X196323000Y-75031939D01*
X196362774Y-75231898D01*
X196440795Y-75420256D01*
X196554063Y-75589774D01*
X196698226Y-75733937D01*
X196867744Y-75847205D01*
X197056102Y-75925226D01*
X197256061Y-75965000D01*
X197459939Y-75965000D01*
X197659898Y-75925226D01*
X197848256Y-75847205D01*
X198017774Y-75733937D01*
X198161937Y-75589774D01*
X198275205Y-75420256D01*
X198353226Y-75231898D01*
X198393000Y-75031939D01*
X198393000Y-74828061D01*
X198353226Y-74628102D01*
X198275205Y-74439744D01*
X198161937Y-74270226D01*
X198017774Y-74126063D01*
X197848256Y-74012795D01*
X197659898Y-73934774D01*
X197459939Y-73895000D01*
X197256061Y-73895000D01*
X197056102Y-73934774D01*
X196867744Y-74012795D01*
X196698226Y-74126063D01*
X196554063Y-74270226D01*
X196440795Y-74439744D01*
X196362774Y-74628102D01*
X196323000Y-74828061D01*
X191424802Y-74828061D01*
X191446632Y-74813475D01*
X191653475Y-74606632D01*
X191815990Y-74363411D01*
X191927932Y-74093158D01*
X191985000Y-73806260D01*
X191985000Y-73513740D01*
X191936865Y-73271750D01*
X194095000Y-73271750D01*
X194105939Y-73372979D01*
X194143873Y-73492172D01*
X194204331Y-73601674D01*
X194284991Y-73697278D01*
X194382752Y-73775308D01*
X194493858Y-73832767D01*
X194614038Y-73867446D01*
X194698250Y-73875000D01*
X194857000Y-73716250D01*
X194857000Y-73113000D01*
X194253750Y-73113000D01*
X194095000Y-73271750D01*
X191936865Y-73271750D01*
X191927932Y-73226842D01*
X191815990Y-72956589D01*
X191653475Y-72713368D01*
X191446632Y-72506525D01*
X191272240Y-72390000D01*
X191446632Y-72273475D01*
X191580198Y-72139909D01*
X191618226Y-72177937D01*
X191787744Y-72291205D01*
X191976102Y-72369226D01*
X192176061Y-72409000D01*
X192379939Y-72409000D01*
X192579898Y-72369226D01*
X192768256Y-72291205D01*
X192937774Y-72177937D01*
X193081937Y-72033774D01*
X193195205Y-71864256D01*
X193273226Y-71675898D01*
X193306572Y-71508250D01*
X194095000Y-71508250D01*
X194253750Y-71667000D01*
X194857000Y-71667000D01*
X194857000Y-71063750D01*
X196303000Y-71063750D01*
X196303000Y-71667000D01*
X196430000Y-71667000D01*
X196430000Y-73113000D01*
X196303000Y-73113000D01*
X196303000Y-73716250D01*
X196461750Y-73875000D01*
X196545962Y-73867446D01*
X196666142Y-73832767D01*
X196777248Y-73775308D01*
X196792666Y-73763002D01*
X197065000Y-73763002D01*
X197065000Y-73435107D01*
X197173368Y-73543475D01*
X197416589Y-73705990D01*
X197686842Y-73817932D01*
X197973740Y-73875000D01*
X198266260Y-73875000D01*
X198553158Y-73817932D01*
X198823411Y-73705990D01*
X199066632Y-73543475D01*
X199273475Y-73336632D01*
X199390000Y-73162240D01*
X199506525Y-73336632D01*
X199713368Y-73543475D01*
X199956589Y-73705990D01*
X200226842Y-73817932D01*
X200513740Y-73875000D01*
X200806260Y-73875000D01*
X201093158Y-73817932D01*
X201363411Y-73705990D01*
X201606632Y-73543475D01*
X201813475Y-73336632D01*
X201958250Y-73119961D01*
X202032226Y-73193937D01*
X202201744Y-73307205D01*
X202390102Y-73385226D01*
X202590061Y-73425000D01*
X202793939Y-73425000D01*
X202993898Y-73385226D01*
X203182256Y-73307205D01*
X203351774Y-73193937D01*
X203495937Y-73049774D01*
X203609205Y-72880256D01*
X203687226Y-72691898D01*
X203727000Y-72491939D01*
X203727000Y-72288061D01*
X203687226Y-72088102D01*
X203609205Y-71899744D01*
X203537273Y-71792089D01*
X203615225Y-71603897D01*
X203654999Y-71403938D01*
X203654999Y-71200060D01*
X203615225Y-71000101D01*
X203537204Y-70811743D01*
X203423936Y-70642225D01*
X203279773Y-70498062D01*
X203110255Y-70384794D01*
X202921897Y-70306773D01*
X202721938Y-70266999D01*
X202518060Y-70266999D01*
X202318101Y-70306773D01*
X202129743Y-70384794D01*
X201960225Y-70498062D01*
X201816062Y-70642225D01*
X201702794Y-70811743D01*
X201624773Y-71000101D01*
X201584999Y-71200060D01*
X201584999Y-71222070D01*
X201363411Y-71074010D01*
X201093158Y-70962068D01*
X200806260Y-70905000D01*
X200513740Y-70905000D01*
X200226842Y-70962068D01*
X199956589Y-71074010D01*
X199713368Y-71236525D01*
X199506525Y-71443368D01*
X199390000Y-71617760D01*
X199273475Y-71443368D01*
X199066632Y-71236525D01*
X198823411Y-71074010D01*
X198553158Y-70962068D01*
X198266260Y-70905000D01*
X197973740Y-70905000D01*
X197686842Y-70962068D01*
X197416589Y-71074010D01*
X197173368Y-71236525D01*
X197065000Y-71344893D01*
X197065000Y-71016998D01*
X196792666Y-71016998D01*
X196777248Y-71004692D01*
X196666142Y-70947233D01*
X196545962Y-70912554D01*
X196461750Y-70905000D01*
X196303000Y-71063750D01*
X194857000Y-71063750D01*
X194698250Y-70905000D01*
X194614038Y-70912554D01*
X194493858Y-70947233D01*
X194382752Y-71004692D01*
X194284991Y-71082722D01*
X194204331Y-71178326D01*
X194143873Y-71287828D01*
X194105939Y-71407021D01*
X194095000Y-71508250D01*
X193306572Y-71508250D01*
X193313000Y-71475939D01*
X193313000Y-71272061D01*
X193273226Y-71072102D01*
X193195205Y-70883744D01*
X193081937Y-70714226D01*
X192937774Y-70570063D01*
X192768256Y-70456795D01*
X192579898Y-70378774D01*
X192379939Y-70339000D01*
X192176061Y-70339000D01*
X191976102Y-70378774D01*
X191826068Y-70440920D01*
X191815990Y-70416589D01*
X191653475Y-70173368D01*
X191446632Y-69966525D01*
X191272240Y-69850000D01*
X191446632Y-69733475D01*
X191653475Y-69526632D01*
X191815990Y-69283411D01*
X191927932Y-69013158D01*
X191985000Y-68726260D01*
X191985000Y-68433740D01*
X191943292Y-68224061D01*
X192767000Y-68224061D01*
X192767000Y-68427939D01*
X192806774Y-68627898D01*
X192884795Y-68816256D01*
X192998063Y-68985774D01*
X193142226Y-69129937D01*
X193311744Y-69243205D01*
X193500102Y-69321226D01*
X193700061Y-69361000D01*
X193903939Y-69361000D01*
X194103898Y-69321226D01*
X194292256Y-69243205D01*
X194461774Y-69129937D01*
X194605937Y-68985774D01*
X194719205Y-68816256D01*
X194797226Y-68627898D01*
X194837000Y-68427939D01*
X194837000Y-68224061D01*
X194797226Y-68024102D01*
X194719205Y-67835744D01*
X194605937Y-67666226D01*
X194461774Y-67522063D01*
X194292256Y-67408795D01*
X194103898Y-67330774D01*
X193903939Y-67291000D01*
X193700061Y-67291000D01*
X193500102Y-67330774D01*
X193311744Y-67408795D01*
X193142226Y-67522063D01*
X192998063Y-67666226D01*
X192884795Y-67835744D01*
X192806774Y-68024102D01*
X192767000Y-68224061D01*
X191943292Y-68224061D01*
X191927932Y-68146842D01*
X191815990Y-67876589D01*
X191653475Y-67633368D01*
X191446632Y-67426525D01*
X191272240Y-67310000D01*
X191424802Y-67208061D01*
X196323000Y-67208061D01*
X196323000Y-67411939D01*
X196362774Y-67611898D01*
X196440795Y-67800256D01*
X196554063Y-67969774D01*
X196698226Y-68113937D01*
X196867744Y-68227205D01*
X197056102Y-68305226D01*
X197256061Y-68345000D01*
X197459939Y-68345000D01*
X197659898Y-68305226D01*
X197848256Y-68227205D01*
X198017774Y-68113937D01*
X198161937Y-67969774D01*
X198275205Y-67800256D01*
X198353226Y-67611898D01*
X198393000Y-67411939D01*
X198393000Y-67208061D01*
X198353226Y-67008102D01*
X198275205Y-66819744D01*
X198161937Y-66650226D01*
X198017774Y-66506063D01*
X197848256Y-66392795D01*
X197659898Y-66314774D01*
X197459939Y-66275000D01*
X197256061Y-66275000D01*
X197056102Y-66314774D01*
X196867744Y-66392795D01*
X196698226Y-66506063D01*
X196554063Y-66650226D01*
X196440795Y-66819744D01*
X196362774Y-67008102D01*
X196323000Y-67208061D01*
X191424802Y-67208061D01*
X191446632Y-67193475D01*
X191653475Y-66986632D01*
X191815990Y-66743411D01*
X191927932Y-66473158D01*
X191985000Y-66186260D01*
X191985000Y-65893740D01*
X191936865Y-65651750D01*
X194095000Y-65651750D01*
X194105939Y-65752979D01*
X194143873Y-65872172D01*
X194204331Y-65981674D01*
X194284991Y-66077278D01*
X194382752Y-66155308D01*
X194493858Y-66212767D01*
X194614038Y-66247446D01*
X194698250Y-66255000D01*
X194857000Y-66096250D01*
X194857000Y-65493000D01*
X194253750Y-65493000D01*
X194095000Y-65651750D01*
X191936865Y-65651750D01*
X191927932Y-65606842D01*
X191815990Y-65336589D01*
X191653475Y-65093368D01*
X191446632Y-64886525D01*
X191272240Y-64770000D01*
X191446632Y-64653475D01*
X191653475Y-64446632D01*
X191815990Y-64203411D01*
X191927932Y-63933158D01*
X191936864Y-63888250D01*
X194095000Y-63888250D01*
X194253750Y-64047000D01*
X194857000Y-64047000D01*
X194857000Y-63443750D01*
X196303000Y-63443750D01*
X196303000Y-64047000D01*
X196430000Y-64047000D01*
X196430000Y-65493000D01*
X196303000Y-65493000D01*
X196303000Y-66096250D01*
X196461750Y-66255000D01*
X196545962Y-66247446D01*
X196666142Y-66212767D01*
X196777248Y-66155308D01*
X196792666Y-66143002D01*
X197065000Y-66143002D01*
X197065000Y-65815107D01*
X197173368Y-65923475D01*
X197416589Y-66085990D01*
X197686842Y-66197932D01*
X197973740Y-66255000D01*
X198266260Y-66255000D01*
X198553158Y-66197932D01*
X198823411Y-66085990D01*
X199066632Y-65923475D01*
X199273475Y-65716632D01*
X199390000Y-65542240D01*
X199506525Y-65716632D01*
X199713368Y-65923475D01*
X199956589Y-66085990D01*
X200226842Y-66197932D01*
X200513740Y-66255000D01*
X200806260Y-66255000D01*
X201093158Y-66197932D01*
X201363411Y-66085990D01*
X201606632Y-65923475D01*
X201813475Y-65716632D01*
X201958250Y-65499961D01*
X202032226Y-65573937D01*
X202201744Y-65687205D01*
X202390102Y-65765226D01*
X202590061Y-65805000D01*
X202793939Y-65805000D01*
X202993898Y-65765226D01*
X203182256Y-65687205D01*
X203351774Y-65573937D01*
X203495937Y-65429774D01*
X203609205Y-65260256D01*
X203687226Y-65071898D01*
X203727000Y-64871939D01*
X203727000Y-64668061D01*
X203687226Y-64468102D01*
X203609205Y-64279744D01*
X203495937Y-64110226D01*
X203361286Y-63975575D01*
X203433226Y-63801898D01*
X203473000Y-63601939D01*
X203473000Y-63398061D01*
X203433226Y-63198102D01*
X203355205Y-63009744D01*
X203241937Y-62840226D01*
X203097774Y-62696063D01*
X202928256Y-62582795D01*
X202739898Y-62504774D01*
X202539939Y-62465000D01*
X202336061Y-62465000D01*
X202136102Y-62504774D01*
X201947744Y-62582795D01*
X201778226Y-62696063D01*
X201634063Y-62840226D01*
X201520795Y-63009744D01*
X201442774Y-63198102D01*
X201403000Y-63398061D01*
X201403000Y-63480463D01*
X201363411Y-63454010D01*
X201093158Y-63342068D01*
X200806260Y-63285000D01*
X200513740Y-63285000D01*
X200226842Y-63342068D01*
X199956589Y-63454010D01*
X199713368Y-63616525D01*
X199506525Y-63823368D01*
X199390000Y-63997760D01*
X199273475Y-63823368D01*
X199066632Y-63616525D01*
X198823411Y-63454010D01*
X198553158Y-63342068D01*
X198266260Y-63285000D01*
X197973740Y-63285000D01*
X197686842Y-63342068D01*
X197416589Y-63454010D01*
X197173368Y-63616525D01*
X197065000Y-63724893D01*
X197065000Y-63396998D01*
X196792666Y-63396998D01*
X196777248Y-63384692D01*
X196666142Y-63327233D01*
X196545962Y-63292554D01*
X196461750Y-63285000D01*
X196303000Y-63443750D01*
X194857000Y-63443750D01*
X194698250Y-63285000D01*
X194614038Y-63292554D01*
X194493858Y-63327233D01*
X194382752Y-63384692D01*
X194284991Y-63462722D01*
X194204331Y-63558326D01*
X194143873Y-63667828D01*
X194105939Y-63787021D01*
X194095000Y-63888250D01*
X191936864Y-63888250D01*
X191985000Y-63646260D01*
X191985000Y-63353740D01*
X191927932Y-63066842D01*
X191815990Y-62796589D01*
X191653475Y-62553368D01*
X191446632Y-62346525D01*
X191272240Y-62230000D01*
X191446632Y-62113475D01*
X191653475Y-61906632D01*
X191815990Y-61663411D01*
X191927932Y-61393158D01*
X191985000Y-61106260D01*
X191985000Y-60813740D01*
X191943292Y-60604061D01*
X192767000Y-60604061D01*
X192767000Y-60807939D01*
X192806774Y-61007898D01*
X192884795Y-61196256D01*
X192998063Y-61365774D01*
X193142226Y-61509937D01*
X193311744Y-61623205D01*
X193500102Y-61701226D01*
X193700061Y-61741000D01*
X193903939Y-61741000D01*
X194103898Y-61701226D01*
X194292256Y-61623205D01*
X194461774Y-61509937D01*
X194605937Y-61365774D01*
X194719205Y-61196256D01*
X194797226Y-61007898D01*
X194837000Y-60807939D01*
X194837000Y-60604061D01*
X194797226Y-60404102D01*
X194719205Y-60215744D01*
X194605937Y-60046226D01*
X194461774Y-59902063D01*
X194371975Y-59842061D01*
X196323000Y-59842061D01*
X196323000Y-60045939D01*
X196362774Y-60245898D01*
X196440795Y-60434256D01*
X196554063Y-60603774D01*
X196698226Y-60747937D01*
X196867744Y-60861205D01*
X197056102Y-60939226D01*
X197256061Y-60979000D01*
X197459939Y-60979000D01*
X197659898Y-60939226D01*
X197848256Y-60861205D01*
X198017774Y-60747937D01*
X198161937Y-60603774D01*
X198275205Y-60434256D01*
X198353226Y-60245898D01*
X198393000Y-60045939D01*
X198393000Y-59842061D01*
X198353226Y-59642102D01*
X198275205Y-59453744D01*
X198161937Y-59284226D01*
X198017774Y-59140063D01*
X197848256Y-59026795D01*
X197659898Y-58948774D01*
X197459939Y-58909000D01*
X197256061Y-58909000D01*
X197056102Y-58948774D01*
X196867744Y-59026795D01*
X196698226Y-59140063D01*
X196554063Y-59284226D01*
X196440795Y-59453744D01*
X196362774Y-59642102D01*
X196323000Y-59842061D01*
X194371975Y-59842061D01*
X194292256Y-59788795D01*
X194103898Y-59710774D01*
X193903939Y-59671000D01*
X193700061Y-59671000D01*
X193500102Y-59710774D01*
X193311744Y-59788795D01*
X193142226Y-59902063D01*
X192998063Y-60046226D01*
X192884795Y-60215744D01*
X192806774Y-60404102D01*
X192767000Y-60604061D01*
X191943292Y-60604061D01*
X191927932Y-60526842D01*
X191815990Y-60256589D01*
X191653475Y-60013368D01*
X191446632Y-59806525D01*
X191272240Y-59690000D01*
X191446632Y-59573475D01*
X191653475Y-59366632D01*
X191815990Y-59123411D01*
X191927932Y-58853158D01*
X191985000Y-58566260D01*
X191985000Y-58273740D01*
X191927932Y-57986842D01*
X191815990Y-57716589D01*
X191653475Y-57473368D01*
X191576857Y-57396750D01*
X194095000Y-57396750D01*
X194105939Y-57497979D01*
X194143873Y-57617172D01*
X194204331Y-57726674D01*
X194284991Y-57822278D01*
X194382752Y-57900308D01*
X194493858Y-57957767D01*
X194614038Y-57992446D01*
X194698250Y-58000000D01*
X194857000Y-57841250D01*
X194857000Y-57238000D01*
X194253750Y-57238000D01*
X194095000Y-57396750D01*
X191576857Y-57396750D01*
X191446632Y-57266525D01*
X191272240Y-57150000D01*
X191446632Y-57033475D01*
X191653475Y-56826632D01*
X191815990Y-56583411D01*
X191927932Y-56313158D01*
X191985000Y-56026260D01*
X191985000Y-55733740D01*
X191965012Y-55633250D01*
X194095000Y-55633250D01*
X194253750Y-55792000D01*
X194857000Y-55792000D01*
X194857000Y-55188750D01*
X196303000Y-55188750D01*
X196303000Y-55792000D01*
X196430000Y-55792000D01*
X196430000Y-57238000D01*
X196303000Y-57238000D01*
X196303000Y-57841250D01*
X196461750Y-58000000D01*
X196545962Y-57992446D01*
X196666142Y-57957767D01*
X196777248Y-57900308D01*
X196792666Y-57888002D01*
X197065000Y-57888002D01*
X197065000Y-57560107D01*
X197173368Y-57668475D01*
X197416589Y-57830990D01*
X197686842Y-57942932D01*
X197973740Y-58000000D01*
X198266260Y-58000000D01*
X198553158Y-57942932D01*
X198823411Y-57830990D01*
X199066632Y-57668475D01*
X199273475Y-57461632D01*
X199390000Y-57287240D01*
X199506525Y-57461632D01*
X199713368Y-57668475D01*
X199956589Y-57830990D01*
X200226842Y-57942932D01*
X200513740Y-58000000D01*
X200806260Y-58000000D01*
X201093158Y-57942932D01*
X201363411Y-57830990D01*
X201606632Y-57668475D01*
X201813475Y-57461632D01*
X201975990Y-57218411D01*
X202087932Y-56948158D01*
X202145000Y-56661260D01*
X202145000Y-56368740D01*
X202087932Y-56081842D01*
X201975990Y-55811589D01*
X201813475Y-55568368D01*
X201606632Y-55361525D01*
X201363411Y-55199010D01*
X201093158Y-55087068D01*
X200806260Y-55030000D01*
X200513740Y-55030000D01*
X200226842Y-55087068D01*
X199956589Y-55199010D01*
X199713368Y-55361525D01*
X199506525Y-55568368D01*
X199390000Y-55742760D01*
X199273475Y-55568368D01*
X199066632Y-55361525D01*
X198823411Y-55199010D01*
X198553158Y-55087068D01*
X198266260Y-55030000D01*
X197973740Y-55030000D01*
X197686842Y-55087068D01*
X197416589Y-55199010D01*
X197173368Y-55361525D01*
X197065000Y-55469893D01*
X197065000Y-55141998D01*
X196792666Y-55141998D01*
X196777248Y-55129692D01*
X196666142Y-55072233D01*
X196545962Y-55037554D01*
X196461750Y-55030000D01*
X196303000Y-55188750D01*
X194857000Y-55188750D01*
X194698250Y-55030000D01*
X194614038Y-55037554D01*
X194493858Y-55072233D01*
X194382752Y-55129692D01*
X194284991Y-55207722D01*
X194204331Y-55303326D01*
X194143873Y-55412828D01*
X194105939Y-55532021D01*
X194095000Y-55633250D01*
X191965012Y-55633250D01*
X191927932Y-55446842D01*
X191815990Y-55176589D01*
X191653475Y-54933368D01*
X191446632Y-54726525D01*
X191272240Y-54610000D01*
X191446632Y-54493475D01*
X191653475Y-54286632D01*
X191815990Y-54043411D01*
X191927932Y-53773158D01*
X191985000Y-53486260D01*
X191985000Y-53193740D01*
X191927932Y-52906842D01*
X191815990Y-52636589D01*
X191779442Y-52581890D01*
X201950048Y-52581890D01*
X201950048Y-52828110D01*
X201998083Y-53069598D01*
X202092307Y-53297074D01*
X202229099Y-53501798D01*
X202403202Y-53675901D01*
X202607926Y-53812693D01*
X202835402Y-53906917D01*
X203076890Y-53954952D01*
X203323110Y-53954952D01*
X203564598Y-53906917D01*
X203792074Y-53812693D01*
X203996798Y-53675901D01*
X204170901Y-53501798D01*
X204307693Y-53297074D01*
X204401917Y-53069598D01*
X204449952Y-52828110D01*
X204449952Y-52581890D01*
X204401917Y-52340402D01*
X204307693Y-52112926D01*
X204170901Y-51908202D01*
X203996798Y-51734099D01*
X203792074Y-51597307D01*
X203564598Y-51503083D01*
X203323110Y-51455048D01*
X203076890Y-51455048D01*
X202835402Y-51503083D01*
X202607926Y-51597307D01*
X202403202Y-51734099D01*
X202229099Y-51908202D01*
X202092307Y-52112926D01*
X201998083Y-52340402D01*
X201950048Y-52581890D01*
X191779442Y-52581890D01*
X191653475Y-52393368D01*
X191446632Y-52186525D01*
X191203411Y-52024010D01*
X190933158Y-51912068D01*
X190646260Y-51855000D01*
X190353740Y-51855000D01*
X190066842Y-51912068D01*
X189796589Y-52024010D01*
X189553368Y-52186525D01*
X189346525Y-52393368D01*
X189184010Y-52636589D01*
X189072068Y-52906842D01*
X189015000Y-53193740D01*
X189015000Y-53486260D01*
X189072068Y-53773158D01*
X189184010Y-54043411D01*
X189346525Y-54286632D01*
X189553368Y-54493475D01*
X189727760Y-54610000D01*
X189553368Y-54726525D01*
X189346525Y-54933368D01*
X189184010Y-55176589D01*
X189072068Y-55446842D01*
X189015000Y-55733740D01*
X189015000Y-56026260D01*
X189072068Y-56313158D01*
X189184010Y-56583411D01*
X189346525Y-56826632D01*
X189553368Y-57033475D01*
X189727760Y-57150000D01*
X189553368Y-57266525D01*
X189346525Y-57473368D01*
X189184010Y-57716589D01*
X189072068Y-57986842D01*
X189015000Y-58273740D01*
X189015000Y-58566260D01*
X189072068Y-58853158D01*
X189184010Y-59123411D01*
X189346525Y-59366632D01*
X189553368Y-59573475D01*
X189727760Y-59690000D01*
X189553368Y-59806525D01*
X189346525Y-60013368D01*
X189184010Y-60256589D01*
X189072068Y-60526842D01*
X189015000Y-60813740D01*
X189015000Y-61106260D01*
X189072068Y-61393158D01*
X189184010Y-61663411D01*
X189346525Y-61906632D01*
X189553368Y-62113475D01*
X189727760Y-62230000D01*
X189553368Y-62346525D01*
X189346525Y-62553368D01*
X189184010Y-62796589D01*
X189072068Y-63066842D01*
X189015000Y-63353740D01*
X189015000Y-63646260D01*
X189072068Y-63933158D01*
X189184010Y-64203411D01*
X189346525Y-64446632D01*
X189553368Y-64653475D01*
X189727760Y-64770000D01*
X189553368Y-64886525D01*
X189346525Y-65093368D01*
X189184010Y-65336589D01*
X189072068Y-65606842D01*
X189015000Y-65893740D01*
X189015000Y-66186260D01*
X189072068Y-66473158D01*
X189184010Y-66743411D01*
X189346525Y-66986632D01*
X189553368Y-67193475D01*
X189727760Y-67310000D01*
X189553368Y-67426525D01*
X189346525Y-67633368D01*
X189184010Y-67876589D01*
X189072068Y-68146842D01*
X189015000Y-68433740D01*
X189015000Y-68726260D01*
X189072068Y-69013158D01*
X189184010Y-69283411D01*
X189346525Y-69526632D01*
X189553368Y-69733475D01*
X189727760Y-69850000D01*
X189553368Y-69966525D01*
X189346525Y-70173368D01*
X189184010Y-70416589D01*
X189072068Y-70686842D01*
X189015000Y-70973740D01*
X189015000Y-71266260D01*
X189072068Y-71553158D01*
X189184010Y-71823411D01*
X189346525Y-72066632D01*
X189553368Y-72273475D01*
X189727760Y-72390000D01*
X189553368Y-72506525D01*
X189346525Y-72713368D01*
X189184010Y-72956589D01*
X189072068Y-73226842D01*
X189015000Y-73513740D01*
X189015000Y-73806260D01*
X189072068Y-74093158D01*
X189184010Y-74363411D01*
X189346525Y-74606632D01*
X189553368Y-74813475D01*
X189727760Y-74930000D01*
X189553368Y-75046525D01*
X189346525Y-75253368D01*
X189184010Y-75496589D01*
X189072068Y-75766842D01*
X189015000Y-76053740D01*
X189015000Y-76346260D01*
X189072068Y-76633158D01*
X189184010Y-76903411D01*
X189346525Y-77146632D01*
X189553368Y-77353475D01*
X189727760Y-77470000D01*
X189553368Y-77586525D01*
X189346525Y-77793368D01*
X189184010Y-78036589D01*
X189072068Y-78306842D01*
X189015000Y-78593740D01*
X189015000Y-78886260D01*
X189072068Y-79173158D01*
X189184010Y-79443411D01*
X189346525Y-79686632D01*
X189553368Y-79893475D01*
X189727760Y-80010000D01*
X189553368Y-80126525D01*
X189346525Y-80333368D01*
X189184010Y-80576589D01*
X189072068Y-80846842D01*
X189015000Y-81133740D01*
X189015000Y-81426260D01*
X189072068Y-81713158D01*
X189184010Y-81983411D01*
X189346525Y-82226632D01*
X189553368Y-82433475D01*
X189727760Y-82550000D01*
X189553368Y-82666525D01*
X189346525Y-82873368D01*
X189184010Y-83116589D01*
X189072068Y-83386842D01*
X189015000Y-83673740D01*
X189015000Y-83966260D01*
X189072068Y-84253158D01*
X189184010Y-84523411D01*
X189346525Y-84766632D01*
X189553368Y-84973475D01*
X189727760Y-85090000D01*
X189553368Y-85206525D01*
X189346525Y-85413368D01*
X189184010Y-85656589D01*
X189072068Y-85926842D01*
X189015000Y-86213740D01*
X189015000Y-86506260D01*
X189072068Y-86793158D01*
X189184010Y-87063411D01*
X189346525Y-87306632D01*
X189478380Y-87438487D01*
X189405820Y-87460498D01*
X189295506Y-87519463D01*
X189198815Y-87598815D01*
X189119463Y-87695506D01*
X189060498Y-87805820D01*
X189024188Y-87925518D01*
X189011928Y-88050000D01*
X166318043Y-88050000D01*
X166253475Y-87953368D01*
X166046632Y-87746525D01*
X165872240Y-87630000D01*
X166046632Y-87513475D01*
X166253475Y-87306632D01*
X166415990Y-87063411D01*
X166527932Y-86793158D01*
X166585000Y-86506260D01*
X166585000Y-86213740D01*
X166527932Y-85926842D01*
X166415990Y-85656589D01*
X166253475Y-85413368D01*
X166046632Y-85206525D01*
X165872240Y-85090000D01*
X166046632Y-84973475D01*
X166253475Y-84766632D01*
X166415990Y-84523411D01*
X166527932Y-84253158D01*
X166585000Y-83966260D01*
X166585000Y-83682408D01*
X167863000Y-83682408D01*
X167863000Y-83957592D01*
X167916686Y-84227490D01*
X168021995Y-84481727D01*
X168174880Y-84710535D01*
X168369465Y-84905120D01*
X168598273Y-85058005D01*
X168852510Y-85163314D01*
X169122408Y-85217000D01*
X169397592Y-85217000D01*
X169667490Y-85163314D01*
X169921727Y-85058005D01*
X170150535Y-84905120D01*
X170260000Y-84795655D01*
X170369465Y-84905120D01*
X170598273Y-85058005D01*
X170852510Y-85163314D01*
X171122408Y-85217000D01*
X171397592Y-85217000D01*
X171667490Y-85163314D01*
X171921727Y-85058005D01*
X172150535Y-84905120D01*
X172260000Y-84795655D01*
X172369465Y-84905120D01*
X172598273Y-85058005D01*
X172852510Y-85163314D01*
X173122408Y-85217000D01*
X173397592Y-85217000D01*
X173667490Y-85163314D01*
X173921727Y-85058005D01*
X174015670Y-84995234D01*
X174046815Y-85033185D01*
X174143506Y-85112537D01*
X174253820Y-85171502D01*
X174373518Y-85207812D01*
X174498000Y-85220072D01*
X176022000Y-85220072D01*
X176146482Y-85207812D01*
X176266180Y-85171502D01*
X176376494Y-85112537D01*
X176473185Y-85033185D01*
X176552537Y-84936494D01*
X176611502Y-84826180D01*
X176647812Y-84706482D01*
X176660072Y-84582000D01*
X176660072Y-84328000D01*
X182749928Y-84328000D01*
X182749928Y-85852000D01*
X182762188Y-85976482D01*
X182798498Y-86096180D01*
X182857463Y-86206494D01*
X182936815Y-86303185D01*
X183033506Y-86382537D01*
X183143820Y-86441502D01*
X183263518Y-86477812D01*
X183388000Y-86490072D01*
X184912000Y-86490072D01*
X185036482Y-86477812D01*
X185156180Y-86441502D01*
X185266494Y-86382537D01*
X185363185Y-86303185D01*
X185442537Y-86206494D01*
X185501502Y-86096180D01*
X185537812Y-85976482D01*
X185550072Y-85852000D01*
X185550072Y-84328000D01*
X185537812Y-84203518D01*
X185501502Y-84083820D01*
X185442537Y-83973506D01*
X185363185Y-83876815D01*
X185325234Y-83845670D01*
X185388005Y-83751727D01*
X185493314Y-83497490D01*
X185547000Y-83227592D01*
X185547000Y-82952408D01*
X185493314Y-82682510D01*
X185388005Y-82428273D01*
X185235120Y-82199465D01*
X185125655Y-82090000D01*
X185235120Y-81980535D01*
X185388005Y-81751727D01*
X185493314Y-81497490D01*
X185547000Y-81227592D01*
X185547000Y-80952408D01*
X185493314Y-80682510D01*
X185388005Y-80428273D01*
X185235120Y-80199465D01*
X185125655Y-80090000D01*
X185235120Y-79980535D01*
X185388005Y-79751727D01*
X185493314Y-79497490D01*
X185547000Y-79227592D01*
X185547000Y-78952408D01*
X185493314Y-78682510D01*
X185388005Y-78428273D01*
X185235120Y-78199465D01*
X185040535Y-78004880D01*
X184811727Y-77851995D01*
X184557490Y-77746686D01*
X184287592Y-77693000D01*
X184012408Y-77693000D01*
X183742510Y-77746686D01*
X183488273Y-77851995D01*
X183259465Y-78004880D01*
X183064880Y-78199465D01*
X182911995Y-78428273D01*
X182806686Y-78682510D01*
X182753000Y-78952408D01*
X182753000Y-79227592D01*
X182806686Y-79497490D01*
X182911995Y-79751727D01*
X183064880Y-79980535D01*
X183174345Y-80090000D01*
X183064880Y-80199465D01*
X182911995Y-80428273D01*
X182806686Y-80682510D01*
X182753000Y-80952408D01*
X182753000Y-81227592D01*
X182806686Y-81497490D01*
X182911995Y-81751727D01*
X183064880Y-81980535D01*
X183174345Y-82090000D01*
X183064880Y-82199465D01*
X182911995Y-82428273D01*
X182806686Y-82682510D01*
X182753000Y-82952408D01*
X182753000Y-83227592D01*
X182806686Y-83497490D01*
X182911995Y-83751727D01*
X182974766Y-83845670D01*
X182936815Y-83876815D01*
X182857463Y-83973506D01*
X182798498Y-84083820D01*
X182762188Y-84203518D01*
X182749928Y-84328000D01*
X176660072Y-84328000D01*
X176660072Y-83058000D01*
X176647812Y-82933518D01*
X176611502Y-82813820D01*
X176552537Y-82703506D01*
X176473185Y-82606815D01*
X176376494Y-82527463D01*
X176266180Y-82468498D01*
X176146482Y-82432188D01*
X176022000Y-82419928D01*
X174498000Y-82419928D01*
X174373518Y-82432188D01*
X174253820Y-82468498D01*
X174143506Y-82527463D01*
X174046815Y-82606815D01*
X174015670Y-82644766D01*
X173921727Y-82581995D01*
X173667490Y-82476686D01*
X173397592Y-82423000D01*
X173122408Y-82423000D01*
X172852510Y-82476686D01*
X172598273Y-82581995D01*
X172369465Y-82734880D01*
X172260000Y-82844345D01*
X172150535Y-82734880D01*
X171921727Y-82581995D01*
X171667490Y-82476686D01*
X171397592Y-82423000D01*
X171122408Y-82423000D01*
X170852510Y-82476686D01*
X170598273Y-82581995D01*
X170369465Y-82734880D01*
X170260000Y-82844345D01*
X170150535Y-82734880D01*
X169921727Y-82581995D01*
X169667490Y-82476686D01*
X169397592Y-82423000D01*
X169122408Y-82423000D01*
X168852510Y-82476686D01*
X168598273Y-82581995D01*
X168369465Y-82734880D01*
X168174880Y-82929465D01*
X168021995Y-83158273D01*
X167916686Y-83412510D01*
X167863000Y-83682408D01*
X166585000Y-83682408D01*
X166585000Y-83673740D01*
X166527932Y-83386842D01*
X166415990Y-83116589D01*
X166253475Y-82873368D01*
X166046632Y-82666525D01*
X165872240Y-82550000D01*
X166046632Y-82433475D01*
X166253475Y-82226632D01*
X166415990Y-81983411D01*
X166527932Y-81713158D01*
X166585000Y-81426260D01*
X166585000Y-81133740D01*
X166527932Y-80846842D01*
X166415990Y-80576589D01*
X166253475Y-80333368D01*
X166046632Y-80126525D01*
X165872240Y-80010000D01*
X166046632Y-79893475D01*
X166253475Y-79686632D01*
X166415990Y-79443411D01*
X166527932Y-79173158D01*
X166585000Y-78886260D01*
X166585000Y-78593740D01*
X166527932Y-78306842D01*
X166454708Y-78130061D01*
X176546762Y-78130061D01*
X176546762Y-78333939D01*
X176586536Y-78533898D01*
X176664557Y-78722256D01*
X176777825Y-78891774D01*
X176921988Y-79035937D01*
X177091506Y-79149205D01*
X177279864Y-79227226D01*
X177479823Y-79267000D01*
X177683701Y-79267000D01*
X177883660Y-79227226D01*
X178072018Y-79149205D01*
X178241536Y-79035937D01*
X178385699Y-78891774D01*
X178498967Y-78722256D01*
X178576988Y-78533898D01*
X178616762Y-78333939D01*
X178616762Y-78130061D01*
X178576988Y-77930102D01*
X178498967Y-77741744D01*
X178385699Y-77572226D01*
X178241536Y-77428063D01*
X178072018Y-77314795D01*
X177883660Y-77236774D01*
X177683701Y-77197000D01*
X177479823Y-77197000D01*
X177279864Y-77236774D01*
X177091506Y-77314795D01*
X176921988Y-77428063D01*
X176777825Y-77572226D01*
X176664557Y-77741744D01*
X176586536Y-77930102D01*
X176546762Y-78130061D01*
X166454708Y-78130061D01*
X166415990Y-78036589D01*
X166253475Y-77793368D01*
X166046632Y-77586525D01*
X165872240Y-77470000D01*
X166046632Y-77353475D01*
X166253475Y-77146632D01*
X166415990Y-76903411D01*
X166527932Y-76633158D01*
X166585000Y-76346260D01*
X166585000Y-76062408D01*
X168053000Y-76062408D01*
X168053000Y-76337592D01*
X168106686Y-76607490D01*
X168211995Y-76861727D01*
X168364880Y-77090535D01*
X168559465Y-77285120D01*
X168788273Y-77438005D01*
X169042510Y-77543314D01*
X169312408Y-77597000D01*
X169587592Y-77597000D01*
X169857490Y-77543314D01*
X170111727Y-77438005D01*
X170340535Y-77285120D01*
X170450000Y-77175655D01*
X170559465Y-77285120D01*
X170788273Y-77438005D01*
X171042510Y-77543314D01*
X171312408Y-77597000D01*
X171587592Y-77597000D01*
X171857490Y-77543314D01*
X172111727Y-77438005D01*
X172340535Y-77285120D01*
X172450000Y-77175655D01*
X172559465Y-77285120D01*
X172788273Y-77438005D01*
X173042510Y-77543314D01*
X173312408Y-77597000D01*
X173587592Y-77597000D01*
X173857490Y-77543314D01*
X174111727Y-77438005D01*
X174205670Y-77375234D01*
X174236815Y-77413185D01*
X174333506Y-77492537D01*
X174443820Y-77551502D01*
X174563518Y-77587812D01*
X174688000Y-77600072D01*
X176212000Y-77600072D01*
X176336482Y-77587812D01*
X176456180Y-77551502D01*
X176566494Y-77492537D01*
X176663185Y-77413185D01*
X176742537Y-77316494D01*
X176801502Y-77206180D01*
X176837812Y-77086482D01*
X176850072Y-76962000D01*
X176850072Y-75438000D01*
X176837812Y-75313518D01*
X176801502Y-75193820D01*
X176742537Y-75083506D01*
X176663185Y-74986815D01*
X176566494Y-74907463D01*
X176456180Y-74848498D01*
X176336482Y-74812188D01*
X176212000Y-74799928D01*
X174688000Y-74799928D01*
X174563518Y-74812188D01*
X174443820Y-74848498D01*
X174333506Y-74907463D01*
X174236815Y-74986815D01*
X174205670Y-75024766D01*
X174111727Y-74961995D01*
X173857490Y-74856686D01*
X173587592Y-74803000D01*
X173312408Y-74803000D01*
X173042510Y-74856686D01*
X172788273Y-74961995D01*
X172559465Y-75114880D01*
X172450000Y-75224345D01*
X172340535Y-75114880D01*
X172111727Y-74961995D01*
X171857490Y-74856686D01*
X171587592Y-74803000D01*
X171312408Y-74803000D01*
X171042510Y-74856686D01*
X170788273Y-74961995D01*
X170559465Y-75114880D01*
X170450000Y-75224345D01*
X170340535Y-75114880D01*
X170111727Y-74961995D01*
X169857490Y-74856686D01*
X169587592Y-74803000D01*
X169312408Y-74803000D01*
X169042510Y-74856686D01*
X168788273Y-74961995D01*
X168559465Y-75114880D01*
X168364880Y-75309465D01*
X168211995Y-75538273D01*
X168106686Y-75792510D01*
X168053000Y-76062408D01*
X166585000Y-76062408D01*
X166585000Y-76053740D01*
X166527932Y-75766842D01*
X166415990Y-75496589D01*
X166253475Y-75253368D01*
X166046632Y-75046525D01*
X165872240Y-74930000D01*
X166046632Y-74813475D01*
X166253475Y-74606632D01*
X166415990Y-74363411D01*
X166527932Y-74093158D01*
X166585000Y-73806260D01*
X166585000Y-73513740D01*
X166527932Y-73226842D01*
X166415990Y-72956589D01*
X166253475Y-72713368D01*
X166046632Y-72506525D01*
X165872240Y-72390000D01*
X166046632Y-72273475D01*
X166253475Y-72066632D01*
X166415990Y-71823411D01*
X166496931Y-71628000D01*
X182749928Y-71628000D01*
X182749928Y-73152000D01*
X182762188Y-73276482D01*
X182798498Y-73396180D01*
X182857463Y-73506494D01*
X182936815Y-73603185D01*
X183033506Y-73682537D01*
X183143820Y-73741502D01*
X183263518Y-73777812D01*
X183388000Y-73790072D01*
X184912000Y-73790072D01*
X185036482Y-73777812D01*
X185156180Y-73741502D01*
X185266494Y-73682537D01*
X185363185Y-73603185D01*
X185442537Y-73506494D01*
X185501502Y-73396180D01*
X185537812Y-73276482D01*
X185550072Y-73152000D01*
X185550072Y-71628000D01*
X185537812Y-71503518D01*
X185501502Y-71383820D01*
X185442537Y-71273506D01*
X185363185Y-71176815D01*
X185325234Y-71145670D01*
X185388005Y-71051727D01*
X185493314Y-70797490D01*
X185547000Y-70527592D01*
X185547000Y-70252408D01*
X185493314Y-69982510D01*
X185388005Y-69728273D01*
X185235120Y-69499465D01*
X185125655Y-69390000D01*
X185235120Y-69280535D01*
X185388005Y-69051727D01*
X185493314Y-68797490D01*
X185547000Y-68527592D01*
X185547000Y-68252408D01*
X185493314Y-67982510D01*
X185388005Y-67728273D01*
X185235120Y-67499465D01*
X185125655Y-67390000D01*
X185235120Y-67280535D01*
X185388005Y-67051727D01*
X185493314Y-66797490D01*
X185547000Y-66527592D01*
X185547000Y-66252408D01*
X185493314Y-65982510D01*
X185388005Y-65728273D01*
X185235120Y-65499465D01*
X185040535Y-65304880D01*
X184811727Y-65151995D01*
X184557490Y-65046686D01*
X184287592Y-64993000D01*
X184012408Y-64993000D01*
X183742510Y-65046686D01*
X183488273Y-65151995D01*
X183259465Y-65304880D01*
X183064880Y-65499465D01*
X182911995Y-65728273D01*
X182806686Y-65982510D01*
X182753000Y-66252408D01*
X182753000Y-66527592D01*
X182806686Y-66797490D01*
X182911995Y-67051727D01*
X183064880Y-67280535D01*
X183174345Y-67390000D01*
X183064880Y-67499465D01*
X182911995Y-67728273D01*
X182806686Y-67982510D01*
X182753000Y-68252408D01*
X182753000Y-68527592D01*
X182806686Y-68797490D01*
X182911995Y-69051727D01*
X183064880Y-69280535D01*
X183174345Y-69390000D01*
X183064880Y-69499465D01*
X182911995Y-69728273D01*
X182806686Y-69982510D01*
X182753000Y-70252408D01*
X182753000Y-70527592D01*
X182806686Y-70797490D01*
X182911995Y-71051727D01*
X182974766Y-71145670D01*
X182936815Y-71176815D01*
X182857463Y-71273506D01*
X182798498Y-71383820D01*
X182762188Y-71503518D01*
X182749928Y-71628000D01*
X166496931Y-71628000D01*
X166527932Y-71553158D01*
X166585000Y-71266260D01*
X166585000Y-70973740D01*
X166527932Y-70686842D01*
X166415990Y-70416589D01*
X166253475Y-70173368D01*
X166082168Y-70002061D01*
X171177000Y-70002061D01*
X171177000Y-70205939D01*
X171216774Y-70405898D01*
X171294795Y-70594256D01*
X171408063Y-70763774D01*
X171552226Y-70907937D01*
X171721744Y-71021205D01*
X171910102Y-71099226D01*
X172110061Y-71139000D01*
X172313939Y-71139000D01*
X172513898Y-71099226D01*
X172702256Y-71021205D01*
X172871774Y-70907937D01*
X173015937Y-70763774D01*
X173129205Y-70594256D01*
X173207226Y-70405898D01*
X173247000Y-70205939D01*
X173247000Y-70002061D01*
X173463000Y-70002061D01*
X173463000Y-70205939D01*
X173502774Y-70405898D01*
X173580795Y-70594256D01*
X173694063Y-70763774D01*
X173838226Y-70907937D01*
X174007744Y-71021205D01*
X174196102Y-71099226D01*
X174396061Y-71139000D01*
X174599939Y-71139000D01*
X174799898Y-71099226D01*
X174988256Y-71021205D01*
X175157774Y-70907937D01*
X175301937Y-70763774D01*
X175415205Y-70594256D01*
X175493226Y-70405898D01*
X175533000Y-70205939D01*
X175533000Y-70002061D01*
X175493226Y-69802102D01*
X175415205Y-69613744D01*
X175301937Y-69444226D01*
X175157774Y-69300063D01*
X174988256Y-69186795D01*
X174799898Y-69108774D01*
X174599939Y-69069000D01*
X174396061Y-69069000D01*
X174196102Y-69108774D01*
X174007744Y-69186795D01*
X173838226Y-69300063D01*
X173694063Y-69444226D01*
X173580795Y-69613744D01*
X173502774Y-69802102D01*
X173463000Y-70002061D01*
X173247000Y-70002061D01*
X173207226Y-69802102D01*
X173129205Y-69613744D01*
X173015937Y-69444226D01*
X172871774Y-69300063D01*
X172702256Y-69186795D01*
X172513898Y-69108774D01*
X172313939Y-69069000D01*
X172110061Y-69069000D01*
X171910102Y-69108774D01*
X171721744Y-69186795D01*
X171552226Y-69300063D01*
X171408063Y-69444226D01*
X171294795Y-69613744D01*
X171216774Y-69802102D01*
X171177000Y-70002061D01*
X166082168Y-70002061D01*
X166046632Y-69966525D01*
X165872240Y-69850000D01*
X166046632Y-69733475D01*
X166253475Y-69526632D01*
X166415990Y-69283411D01*
X166527932Y-69013158D01*
X166585000Y-68726260D01*
X166585000Y-68433740D01*
X166527932Y-68146842D01*
X166415990Y-67876589D01*
X166253475Y-67633368D01*
X166046632Y-67426525D01*
X165872240Y-67310000D01*
X166046632Y-67193475D01*
X166253475Y-66986632D01*
X166415990Y-66743411D01*
X166527932Y-66473158D01*
X166585000Y-66186260D01*
X166585000Y-65893740D01*
X166527932Y-65606842D01*
X166415990Y-65336589D01*
X166253475Y-65093368D01*
X166046632Y-64886525D01*
X165872240Y-64770000D01*
X166046632Y-64653475D01*
X166253475Y-64446632D01*
X166415990Y-64203411D01*
X166527932Y-63933158D01*
X166585000Y-63646260D01*
X166585000Y-63398061D01*
X178289000Y-63398061D01*
X178289000Y-63601939D01*
X178328774Y-63801898D01*
X178406795Y-63990256D01*
X178520063Y-64159774D01*
X178664226Y-64303937D01*
X178833744Y-64417205D01*
X179022102Y-64495226D01*
X179222061Y-64535000D01*
X179425939Y-64535000D01*
X179625898Y-64495226D01*
X179814256Y-64417205D01*
X179983774Y-64303937D01*
X180127937Y-64159774D01*
X180241205Y-63990256D01*
X180319226Y-63801898D01*
X180359000Y-63601939D01*
X180359000Y-63398061D01*
X180319226Y-63198102D01*
X180241205Y-63009744D01*
X180127937Y-62840226D01*
X179983774Y-62696063D01*
X179814256Y-62582795D01*
X179625898Y-62504774D01*
X179425939Y-62465000D01*
X179222061Y-62465000D01*
X179022102Y-62504774D01*
X178833744Y-62582795D01*
X178664226Y-62696063D01*
X178520063Y-62840226D01*
X178406795Y-63009744D01*
X178328774Y-63198102D01*
X178289000Y-63398061D01*
X166585000Y-63398061D01*
X166585000Y-63353740D01*
X166527932Y-63066842D01*
X166415990Y-62796589D01*
X166253475Y-62553368D01*
X166046632Y-62346525D01*
X165872240Y-62230000D01*
X166024802Y-62128061D01*
X168129000Y-62128061D01*
X168129000Y-62331939D01*
X168168774Y-62531898D01*
X168246795Y-62720256D01*
X168360063Y-62889774D01*
X168504226Y-63033937D01*
X168673744Y-63147205D01*
X168862102Y-63225226D01*
X169062061Y-63265000D01*
X169265939Y-63265000D01*
X169465898Y-63225226D01*
X169654256Y-63147205D01*
X169823774Y-63033937D01*
X169967937Y-62889774D01*
X170081205Y-62720256D01*
X170159226Y-62531898D01*
X170199000Y-62331939D01*
X170199000Y-62128061D01*
X170159226Y-61928102D01*
X170081205Y-61739744D01*
X169967937Y-61570226D01*
X169823774Y-61426063D01*
X169654256Y-61312795D01*
X169465898Y-61234774D01*
X169265939Y-61195000D01*
X169062061Y-61195000D01*
X168862102Y-61234774D01*
X168673744Y-61312795D01*
X168504226Y-61426063D01*
X168360063Y-61570226D01*
X168246795Y-61739744D01*
X168168774Y-61928102D01*
X168129000Y-62128061D01*
X166024802Y-62128061D01*
X166046632Y-62113475D01*
X166253475Y-61906632D01*
X166415990Y-61663411D01*
X166527932Y-61393158D01*
X166585000Y-61106260D01*
X166585000Y-60813740D01*
X166527932Y-60526842D01*
X166415990Y-60256589D01*
X166253475Y-60013368D01*
X166046632Y-59806525D01*
X165872240Y-59690000D01*
X166046632Y-59573475D01*
X166253475Y-59366632D01*
X166415990Y-59123411D01*
X166527932Y-58853158D01*
X166585000Y-58566260D01*
X166585000Y-58273740D01*
X166527932Y-57986842D01*
X166415990Y-57716589D01*
X166253475Y-57473368D01*
X166046632Y-57266525D01*
X165872240Y-57150000D01*
X166046632Y-57033475D01*
X166253475Y-56826632D01*
X166415990Y-56583411D01*
X166527932Y-56313158D01*
X166585000Y-56026260D01*
X166585000Y-55733740D01*
X166527932Y-55446842D01*
X166415990Y-55176589D01*
X166253475Y-54933368D01*
X166121620Y-54801513D01*
X166194180Y-54779502D01*
X166304494Y-54720537D01*
X166401185Y-54641185D01*
X166480537Y-54544494D01*
X166500011Y-54508061D01*
X178035000Y-54508061D01*
X178035000Y-54711939D01*
X178074774Y-54911898D01*
X178152795Y-55100256D01*
X178249510Y-55245000D01*
X178152795Y-55389744D01*
X178074774Y-55578102D01*
X178035000Y-55778061D01*
X178035000Y-55981939D01*
X178074774Y-56181898D01*
X178152795Y-56370256D01*
X178266063Y-56539774D01*
X178368289Y-56642000D01*
X178266063Y-56744226D01*
X178152795Y-56913744D01*
X178074774Y-57102102D01*
X178035000Y-57302061D01*
X178035000Y-57505939D01*
X178074774Y-57705898D01*
X178152795Y-57894256D01*
X178249510Y-58039000D01*
X178152795Y-58183744D01*
X178074774Y-58372102D01*
X178035000Y-58572061D01*
X178035000Y-58775939D01*
X178074774Y-58975898D01*
X178152795Y-59164256D01*
X178266063Y-59333774D01*
X178410226Y-59477937D01*
X178579744Y-59591205D01*
X178768102Y-59669226D01*
X178968061Y-59709000D01*
X179171939Y-59709000D01*
X179371898Y-59669226D01*
X179560256Y-59591205D01*
X179729774Y-59477937D01*
X179873937Y-59333774D01*
X179987205Y-59164256D01*
X180065226Y-58975898D01*
X180074753Y-58928000D01*
X182749928Y-58928000D01*
X182749928Y-60452000D01*
X182762188Y-60576482D01*
X182798498Y-60696180D01*
X182857463Y-60806494D01*
X182936815Y-60903185D01*
X183033506Y-60982537D01*
X183143820Y-61041502D01*
X183263518Y-61077812D01*
X183388000Y-61090072D01*
X184912000Y-61090072D01*
X185036482Y-61077812D01*
X185156180Y-61041502D01*
X185266494Y-60982537D01*
X185363185Y-60903185D01*
X185442537Y-60806494D01*
X185501502Y-60696180D01*
X185537812Y-60576482D01*
X185550072Y-60452000D01*
X185550072Y-58928000D01*
X185537812Y-58803518D01*
X185501502Y-58683820D01*
X185442537Y-58573506D01*
X185363185Y-58476815D01*
X185325234Y-58445670D01*
X185388005Y-58351727D01*
X185493314Y-58097490D01*
X185547000Y-57827592D01*
X185547000Y-57552408D01*
X185493314Y-57282510D01*
X185388005Y-57028273D01*
X185235120Y-56799465D01*
X185125655Y-56690000D01*
X185235120Y-56580535D01*
X185388005Y-56351727D01*
X185493314Y-56097490D01*
X185547000Y-55827592D01*
X185547000Y-55552408D01*
X185493314Y-55282510D01*
X185388005Y-55028273D01*
X185235120Y-54799465D01*
X185125655Y-54690000D01*
X185235120Y-54580535D01*
X185388005Y-54351727D01*
X185493314Y-54097490D01*
X185547000Y-53827592D01*
X185547000Y-53552408D01*
X185493314Y-53282510D01*
X185388005Y-53028273D01*
X185235120Y-52799465D01*
X185040535Y-52604880D01*
X184811727Y-52451995D01*
X184557490Y-52346686D01*
X184287592Y-52293000D01*
X184012408Y-52293000D01*
X183742510Y-52346686D01*
X183488273Y-52451995D01*
X183259465Y-52604880D01*
X183064880Y-52799465D01*
X182911995Y-53028273D01*
X182806686Y-53282510D01*
X182753000Y-53552408D01*
X182753000Y-53827592D01*
X182806686Y-54097490D01*
X182911995Y-54351727D01*
X183064880Y-54580535D01*
X183174345Y-54690000D01*
X183064880Y-54799465D01*
X182911995Y-55028273D01*
X182806686Y-55282510D01*
X182753000Y-55552408D01*
X182753000Y-55827592D01*
X182806686Y-56097490D01*
X182911995Y-56351727D01*
X183064880Y-56580535D01*
X183174345Y-56690000D01*
X183064880Y-56799465D01*
X182911995Y-57028273D01*
X182806686Y-57282510D01*
X182753000Y-57552408D01*
X182753000Y-57827592D01*
X182806686Y-58097490D01*
X182911995Y-58351727D01*
X182974766Y-58445670D01*
X182936815Y-58476815D01*
X182857463Y-58573506D01*
X182798498Y-58683820D01*
X182762188Y-58803518D01*
X182749928Y-58928000D01*
X180074753Y-58928000D01*
X180105000Y-58775939D01*
X180105000Y-58572061D01*
X180065226Y-58372102D01*
X179987205Y-58183744D01*
X179890490Y-58039000D01*
X179987205Y-57894256D01*
X180065226Y-57705898D01*
X180105000Y-57505939D01*
X180105000Y-57302061D01*
X180065226Y-57102102D01*
X179987205Y-56913744D01*
X179873937Y-56744226D01*
X179771711Y-56642000D01*
X179873937Y-56539774D01*
X179987205Y-56370256D01*
X180065226Y-56181898D01*
X180105000Y-55981939D01*
X180105000Y-55778061D01*
X180065226Y-55578102D01*
X179987205Y-55389744D01*
X179890490Y-55245000D01*
X179987205Y-55100256D01*
X180065226Y-54911898D01*
X180105000Y-54711939D01*
X180105000Y-54508061D01*
X180065226Y-54308102D01*
X179987205Y-54119744D01*
X179873937Y-53950226D01*
X179729774Y-53806063D01*
X179560256Y-53692795D01*
X179371898Y-53614774D01*
X179171939Y-53575000D01*
X178968061Y-53575000D01*
X178768102Y-53614774D01*
X178579744Y-53692795D01*
X178410226Y-53806063D01*
X178266063Y-53950226D01*
X178152795Y-54119744D01*
X178074774Y-54308102D01*
X178035000Y-54508061D01*
X166500011Y-54508061D01*
X166539502Y-54434180D01*
X166575812Y-54314482D01*
X166588072Y-54190000D01*
X166588072Y-52490000D01*
X166575812Y-52365518D01*
X166539502Y-52245820D01*
X166480537Y-52135506D01*
X166401185Y-52038815D01*
X166304494Y-51959463D01*
X166194180Y-51900498D01*
X166074482Y-51864188D01*
X165950000Y-51851928D01*
X164250000Y-51851928D01*
X164125518Y-51864188D01*
X164005820Y-51900498D01*
X163895506Y-51959463D01*
X163798815Y-52038815D01*
X163719463Y-52135506D01*
X163660498Y-52245820D01*
X163624188Y-52365518D01*
X163611928Y-52490000D01*
X158659291Y-52490000D01*
X158680785Y-52457833D01*
X158782928Y-52211239D01*
X158835000Y-51949456D01*
X158835000Y-51682544D01*
X158782928Y-51420761D01*
X158680785Y-51174167D01*
X158532497Y-50952238D01*
X158343762Y-50763503D01*
X158121833Y-50615215D01*
X157875239Y-50513072D01*
X157613456Y-50461000D01*
X157346544Y-50461000D01*
X157084761Y-50513072D01*
X156838167Y-50615215D01*
X156616238Y-50763503D01*
X156427503Y-50952238D01*
X156279215Y-51174167D01*
X156177072Y-51420761D01*
X156125000Y-51682544D01*
X149514434Y-51682544D01*
X149448533Y-51523446D01*
X149028839Y-50895330D01*
X148494670Y-50361161D01*
X148238510Y-50190000D01*
X206091490Y-50190000D01*
X205835330Y-50361161D01*
%TA.AperFunction,Conductor*%
D23*
G36*
X205835330Y-50361161D02*
G01*
X205301161Y-50895330D01*
X204881467Y-51523446D01*
X204592377Y-52221372D01*
X204445000Y-52962285D01*
X204445000Y-53717715D01*
X204592377Y-54458628D01*
X204881467Y-55156554D01*
X205301161Y-55784670D01*
X205835330Y-56318839D01*
X206463446Y-56738533D01*
X207161372Y-57027623D01*
X207902285Y-57175000D01*
X208657715Y-57175000D01*
X209398628Y-57027623D01*
X210096554Y-56738533D01*
X210724670Y-56318839D01*
X211258839Y-55784670D01*
X211430001Y-55528508D01*
X211430001Y-58672401D01*
X211381308Y-58639866D01*
X211165652Y-58550539D01*
X210936712Y-58505000D01*
X210703288Y-58505000D01*
X210474348Y-58550539D01*
X210258692Y-58639866D01*
X210064606Y-58769550D01*
X210018072Y-58816084D01*
X210018072Y-58590000D01*
X210005812Y-58465518D01*
X209969502Y-58345820D01*
X209910537Y-58235506D01*
X209831185Y-58138815D01*
X209734494Y-58059463D01*
X209624180Y-58000498D01*
X209504482Y-57964188D01*
X209380000Y-57951928D01*
X207180000Y-57951928D01*
X207055518Y-57964188D01*
X206935820Y-58000498D01*
X206825506Y-58059463D01*
X206728815Y-58138815D01*
X206649463Y-58235506D01*
X206590498Y-58345820D01*
X206554188Y-58465518D01*
X206541928Y-58590000D01*
X206541928Y-60790000D01*
X206554188Y-60914482D01*
X206590498Y-61034180D01*
X206649463Y-61144494D01*
X206728815Y-61241185D01*
X206809690Y-61307557D01*
X206742463Y-61408169D01*
X206611675Y-61723919D01*
X206545000Y-62059117D01*
X206545000Y-62400883D01*
X206611675Y-62736081D01*
X206742463Y-63051831D01*
X206932337Y-63335998D01*
X207174002Y-63577663D01*
X207458169Y-63767537D01*
X207773919Y-63898325D01*
X208109117Y-63965000D01*
X208450883Y-63965000D01*
X208786081Y-63898325D01*
X209101831Y-63767537D01*
X209385998Y-63577663D01*
X209627663Y-63335998D01*
X209817537Y-63051831D01*
X209865910Y-62935048D01*
X209899550Y-62985394D01*
X210064606Y-63150450D01*
X210258692Y-63280134D01*
X210474348Y-63369461D01*
X210703288Y-63415000D01*
X210936712Y-63415000D01*
X211165652Y-63369461D01*
X211381308Y-63280134D01*
X211430001Y-63247599D01*
X211430001Y-66292401D01*
X211381308Y-66259866D01*
X211165652Y-66170539D01*
X210936712Y-66125000D01*
X210703288Y-66125000D01*
X210474348Y-66170539D01*
X210258692Y-66259866D01*
X210064606Y-66389550D01*
X210018072Y-66436084D01*
X210018072Y-66210000D01*
X210005812Y-66085518D01*
X209969502Y-65965820D01*
X209910537Y-65855506D01*
X209831185Y-65758815D01*
X209734494Y-65679463D01*
X209624180Y-65620498D01*
X209504482Y-65584188D01*
X209380000Y-65571928D01*
X207180000Y-65571928D01*
X207055518Y-65584188D01*
X206935820Y-65620498D01*
X206825506Y-65679463D01*
X206728815Y-65758815D01*
X206649463Y-65855506D01*
X206590498Y-65965820D01*
X206554188Y-66085518D01*
X206541928Y-66210000D01*
X206541928Y-68410000D01*
X206554188Y-68534482D01*
X206590498Y-68654180D01*
X206649463Y-68764494D01*
X206728815Y-68861185D01*
X206809690Y-68927557D01*
X206742463Y-69028169D01*
X206611675Y-69343919D01*
X206545000Y-69679117D01*
X206545000Y-70020883D01*
X206611675Y-70356081D01*
X206742463Y-70671831D01*
X206932337Y-70955998D01*
X207174002Y-71197663D01*
X207458169Y-71387537D01*
X207773919Y-71518325D01*
X208109117Y-71585000D01*
X208450883Y-71585000D01*
X208786081Y-71518325D01*
X209101831Y-71387537D01*
X209385998Y-71197663D01*
X209627663Y-70955998D01*
X209817537Y-70671831D01*
X209865910Y-70555048D01*
X209899550Y-70605394D01*
X210064606Y-70770450D01*
X210258692Y-70900134D01*
X210474348Y-70989461D01*
X210703288Y-71035000D01*
X210936712Y-71035000D01*
X211165652Y-70989461D01*
X211381308Y-70900134D01*
X211430001Y-70867599D01*
X211430000Y-73912401D01*
X211381308Y-73879866D01*
X211165652Y-73790539D01*
X210936712Y-73745000D01*
X210703288Y-73745000D01*
X210474348Y-73790539D01*
X210258692Y-73879866D01*
X210064606Y-74009550D01*
X210018072Y-74056084D01*
X210018072Y-73830000D01*
X210005812Y-73705518D01*
X209969502Y-73585820D01*
X209910537Y-73475506D01*
X209831185Y-73378815D01*
X209734494Y-73299463D01*
X209624180Y-73240498D01*
X209504482Y-73204188D01*
X209380000Y-73191928D01*
X207180000Y-73191928D01*
X207055518Y-73204188D01*
X206935820Y-73240498D01*
X206825506Y-73299463D01*
X206728815Y-73378815D01*
X206649463Y-73475506D01*
X206590498Y-73585820D01*
X206554188Y-73705518D01*
X206541928Y-73830000D01*
X206541928Y-76030000D01*
X206554188Y-76154482D01*
X206590498Y-76274180D01*
X206649463Y-76384494D01*
X206728815Y-76481185D01*
X206809690Y-76547557D01*
X206742463Y-76648169D01*
X206611675Y-76963919D01*
X206545000Y-77299117D01*
X206545000Y-77640883D01*
X206611675Y-77976081D01*
X206742463Y-78291831D01*
X206932337Y-78575998D01*
X207174002Y-78817663D01*
X207458169Y-79007537D01*
X207773919Y-79138325D01*
X208109117Y-79205000D01*
X208450883Y-79205000D01*
X208786081Y-79138325D01*
X209101831Y-79007537D01*
X209385998Y-78817663D01*
X209627663Y-78575998D01*
X209817537Y-78291831D01*
X209865910Y-78175048D01*
X209899550Y-78225394D01*
X210064606Y-78390450D01*
X210258692Y-78520134D01*
X210474348Y-78609461D01*
X210703288Y-78655000D01*
X210936712Y-78655000D01*
X211165652Y-78609461D01*
X211381308Y-78520134D01*
X211430000Y-78487599D01*
X211430000Y-89251490D01*
X211258839Y-88995330D01*
X210724670Y-88461161D01*
X210096554Y-88041467D01*
X209622240Y-87845000D01*
X209696260Y-87845000D01*
X209983158Y-87787932D01*
X210253411Y-87675990D01*
X210496632Y-87513475D01*
X210703475Y-87306632D01*
X210865990Y-87063411D01*
X210977932Y-86793158D01*
X211035000Y-86506260D01*
X211035000Y-86213740D01*
X210977932Y-85926842D01*
X210865990Y-85656589D01*
X210703475Y-85413368D01*
X210496632Y-85206525D01*
X210322240Y-85090000D01*
X210496632Y-84973475D01*
X210703475Y-84766632D01*
X210865990Y-84523411D01*
X210977932Y-84253158D01*
X211035000Y-83966260D01*
X211035000Y-83673740D01*
X210977932Y-83386842D01*
X210865990Y-83116589D01*
X210703475Y-82873368D01*
X210595107Y-82765000D01*
X210923002Y-82765000D01*
X210923002Y-82492666D01*
X210935308Y-82477248D01*
X210992767Y-82366142D01*
X211027446Y-82245962D01*
X211035000Y-82161750D01*
X210876250Y-82003000D01*
X210273000Y-82003000D01*
X210273000Y-82130000D01*
X208827000Y-82130000D01*
X208827000Y-82003000D01*
X208223750Y-82003000D01*
X208065000Y-82161750D01*
X208072554Y-82245962D01*
X208107233Y-82366142D01*
X208164692Y-82477248D01*
X208176998Y-82492666D01*
X208176998Y-82765000D01*
X208504893Y-82765000D01*
X208396525Y-82873368D01*
X208234010Y-83116589D01*
X208122068Y-83386842D01*
X208065000Y-83673740D01*
X208065000Y-83966260D01*
X208122068Y-84253158D01*
X208234010Y-84523411D01*
X208396525Y-84766632D01*
X208603368Y-84973475D01*
X208777760Y-85090000D01*
X208603368Y-85206525D01*
X208396525Y-85413368D01*
X208234010Y-85656589D01*
X208122068Y-85926842D01*
X208065000Y-86213740D01*
X208065000Y-86506260D01*
X208122068Y-86793158D01*
X208234010Y-87063411D01*
X208396525Y-87306632D01*
X208603368Y-87513475D01*
X208775370Y-87628403D01*
X208657715Y-87605000D01*
X207902285Y-87605000D01*
X207161372Y-87752377D01*
X206463446Y-88041467D01*
X205835330Y-88461161D01*
X205301161Y-88995330D01*
X204881467Y-89623446D01*
X204592377Y-90321372D01*
X204445000Y-91062285D01*
X204445000Y-91817715D01*
X204592377Y-92558628D01*
X204881467Y-93256554D01*
X205301161Y-93884670D01*
X205835330Y-94418839D01*
X206091490Y-94590000D01*
X148238510Y-94590000D01*
X148494670Y-94418839D01*
X149028839Y-93884670D01*
X149448533Y-93256554D01*
X149737623Y-92558628D01*
X149885000Y-91817715D01*
X149885000Y-91062285D01*
X149737623Y-90321372D01*
X149448533Y-89623446D01*
X149028839Y-88995330D01*
X148494670Y-88461161D01*
X147866554Y-88041467D01*
X147168628Y-87752377D01*
X146427715Y-87605000D01*
X145672285Y-87605000D01*
X144931372Y-87752377D01*
X144233446Y-88041467D01*
X143605330Y-88461161D01*
X143071161Y-88995330D01*
X142900000Y-89251490D01*
X142900000Y-87020061D01*
X160255000Y-87020061D01*
X160255000Y-87223939D01*
X160294774Y-87423898D01*
X160372795Y-87612256D01*
X160486063Y-87781774D01*
X160630226Y-87925937D01*
X160799744Y-88039205D01*
X160988102Y-88117226D01*
X161188061Y-88157000D01*
X161391939Y-88157000D01*
X161591898Y-88117226D01*
X161780256Y-88039205D01*
X161949774Y-87925937D01*
X162093937Y-87781774D01*
X162207205Y-87612256D01*
X162285226Y-87423898D01*
X162290974Y-87395000D01*
X162407939Y-87395000D01*
X162607898Y-87355226D01*
X162796256Y-87277205D01*
X162965774Y-87163937D01*
X163109937Y-87019774D01*
X163223205Y-86850256D01*
X163301226Y-86661898D01*
X163341000Y-86461939D01*
X163341000Y-86258061D01*
X163301226Y-86058102D01*
X163223205Y-85869744D01*
X163109937Y-85700226D01*
X162965774Y-85556063D01*
X162796256Y-85442795D01*
X162607898Y-85364774D01*
X162407939Y-85325000D01*
X162204061Y-85325000D01*
X162004102Y-85364774D01*
X161815744Y-85442795D01*
X161646226Y-85556063D01*
X161502063Y-85700226D01*
X161388795Y-85869744D01*
X161310774Y-86058102D01*
X161305026Y-86087000D01*
X161188061Y-86087000D01*
X160988102Y-86126774D01*
X160799744Y-86204795D01*
X160630226Y-86318063D01*
X160486063Y-86462226D01*
X160372795Y-86631744D01*
X160294774Y-86820102D01*
X160255000Y-87020061D01*
X142900000Y-87020061D01*
X142900000Y-85750061D01*
X145777000Y-85750061D01*
X145777000Y-85953939D01*
X145816774Y-86153898D01*
X145894795Y-86342256D01*
X146008063Y-86511774D01*
X146152226Y-86655937D01*
X146321744Y-86769205D01*
X146510102Y-86847226D01*
X146710061Y-86887000D01*
X146913939Y-86887000D01*
X147113898Y-86847226D01*
X147302256Y-86769205D01*
X147471774Y-86655937D01*
X147615937Y-86511774D01*
X147729205Y-86342256D01*
X147807226Y-86153898D01*
X147847000Y-85953939D01*
X147847000Y-85750061D01*
X149841000Y-85750061D01*
X149841000Y-85953939D01*
X149880774Y-86153898D01*
X149958795Y-86342256D01*
X150072063Y-86511774D01*
X150216226Y-86655937D01*
X150385744Y-86769205D01*
X150574102Y-86847226D01*
X150774061Y-86887000D01*
X150977939Y-86887000D01*
X151177898Y-86847226D01*
X151366256Y-86769205D01*
X151535774Y-86655937D01*
X151679937Y-86511774D01*
X151793205Y-86342256D01*
X151871226Y-86153898D01*
X151911000Y-85953939D01*
X151911000Y-85750061D01*
X151871226Y-85550102D01*
X151793205Y-85361744D01*
X151679937Y-85192226D01*
X151535774Y-85048063D01*
X151366256Y-84934795D01*
X151177898Y-84856774D01*
X150977939Y-84817000D01*
X150774061Y-84817000D01*
X150574102Y-84856774D01*
X150385744Y-84934795D01*
X150216226Y-85048063D01*
X150072063Y-85192226D01*
X149958795Y-85361744D01*
X149880774Y-85550102D01*
X149841000Y-85750061D01*
X147847000Y-85750061D01*
X147807226Y-85550102D01*
X147729205Y-85361744D01*
X147615937Y-85192226D01*
X147471774Y-85048063D01*
X147302256Y-84934795D01*
X147113898Y-84856774D01*
X146913939Y-84817000D01*
X146710061Y-84817000D01*
X146510102Y-84856774D01*
X146321744Y-84934795D01*
X146152226Y-85048063D01*
X146008063Y-85192226D01*
X145894795Y-85361744D01*
X145816774Y-85550102D01*
X145777000Y-85750061D01*
X142900000Y-85750061D01*
X142900000Y-77241061D01*
X143364000Y-77241061D01*
X143364000Y-77444939D01*
X143403774Y-77644898D01*
X143481795Y-77833256D01*
X143595063Y-78002774D01*
X143739226Y-78146937D01*
X143908744Y-78260205D01*
X144097102Y-78338226D01*
X144297061Y-78378000D01*
X144500939Y-78378000D01*
X144700898Y-78338226D01*
X144889256Y-78260205D01*
X145034000Y-78163490D01*
X145178744Y-78260205D01*
X145367102Y-78338226D01*
X145567061Y-78378000D01*
X145770939Y-78378000D01*
X145970898Y-78338226D01*
X146159256Y-78260205D01*
X146304000Y-78163490D01*
X146448744Y-78260205D01*
X146637102Y-78338226D01*
X146837061Y-78378000D01*
X147040939Y-78378000D01*
X147240898Y-78338226D01*
X147429256Y-78260205D01*
X147574000Y-78163490D01*
X147718744Y-78260205D01*
X147907102Y-78338226D01*
X148107061Y-78378000D01*
X148310939Y-78378000D01*
X148510898Y-78338226D01*
X148699256Y-78260205D01*
X148868774Y-78146937D01*
X149012937Y-78002774D01*
X149126205Y-77833256D01*
X149204226Y-77644898D01*
X149244000Y-77444939D01*
X149244000Y-77241061D01*
X149204226Y-77041102D01*
X149126205Y-76852744D01*
X149012937Y-76683226D01*
X148868774Y-76539063D01*
X148699256Y-76425795D01*
X148510898Y-76347774D01*
X148310939Y-76308000D01*
X148107061Y-76308000D01*
X147907102Y-76347774D01*
X147718744Y-76425795D01*
X147574000Y-76522510D01*
X147429256Y-76425795D01*
X147240898Y-76347774D01*
X147040939Y-76308000D01*
X146837061Y-76308000D01*
X146637102Y-76347774D01*
X146448744Y-76425795D01*
X146304000Y-76522510D01*
X146159256Y-76425795D01*
X145970898Y-76347774D01*
X145770939Y-76308000D01*
X145567061Y-76308000D01*
X145367102Y-76347774D01*
X145178744Y-76425795D01*
X145034000Y-76522510D01*
X144889256Y-76425795D01*
X144700898Y-76347774D01*
X144500939Y-76308000D01*
X144297061Y-76308000D01*
X144097102Y-76347774D01*
X143908744Y-76425795D01*
X143739226Y-76539063D01*
X143595063Y-76683226D01*
X143481795Y-76852744D01*
X143403774Y-77041102D01*
X143364000Y-77241061D01*
X142900000Y-77241061D01*
X142900000Y-75082061D01*
X149841000Y-75082061D01*
X149841000Y-75285939D01*
X149880774Y-75485898D01*
X149958795Y-75674256D01*
X150072063Y-75843774D01*
X150216226Y-75987937D01*
X150385744Y-76101205D01*
X150574102Y-76179226D01*
X150631381Y-76190619D01*
X150642774Y-76247898D01*
X150720795Y-76436256D01*
X150834063Y-76605774D01*
X150978226Y-76749937D01*
X151147744Y-76863205D01*
X151336102Y-76941226D01*
X151393381Y-76952619D01*
X151404774Y-77009898D01*
X151482795Y-77198256D01*
X151596063Y-77367774D01*
X151740226Y-77511937D01*
X151909744Y-77625205D01*
X152098102Y-77703226D01*
X152298061Y-77743000D01*
X152501939Y-77743000D01*
X152701898Y-77703226D01*
X152890256Y-77625205D01*
X153059774Y-77511937D01*
X153203937Y-77367774D01*
X153317205Y-77198256D01*
X153395226Y-77009898D01*
X153435000Y-76809939D01*
X153435000Y-76606061D01*
X153395226Y-76406102D01*
X153317205Y-76217744D01*
X153203937Y-76048226D01*
X153059774Y-75904063D01*
X152890256Y-75790795D01*
X152701898Y-75712774D01*
X152644619Y-75701381D01*
X152633226Y-75644102D01*
X152555205Y-75455744D01*
X152441937Y-75286226D01*
X152297774Y-75142063D01*
X152128256Y-75028795D01*
X151939898Y-74950774D01*
X151882619Y-74939381D01*
X151871226Y-74882102D01*
X151793205Y-74693744D01*
X151679937Y-74524226D01*
X151535774Y-74380063D01*
X151366256Y-74266795D01*
X151177898Y-74188774D01*
X150977939Y-74149000D01*
X150774061Y-74149000D01*
X150574102Y-74188774D01*
X150385744Y-74266795D01*
X150216226Y-74380063D01*
X150072063Y-74524226D01*
X149958795Y-74693744D01*
X149880774Y-74882102D01*
X149841000Y-75082061D01*
X142900000Y-75082061D01*
X142900000Y-67208061D01*
X143110000Y-67208061D01*
X143110000Y-67411939D01*
X143149774Y-67611898D01*
X143227795Y-67800256D01*
X143341063Y-67969774D01*
X143485226Y-68113937D01*
X143654744Y-68227205D01*
X143843102Y-68305226D01*
X144043061Y-68345000D01*
X144246939Y-68345000D01*
X144446898Y-68305226D01*
X144635256Y-68227205D01*
X144804774Y-68113937D01*
X144948937Y-67969774D01*
X145062205Y-67800256D01*
X145123142Y-67653142D01*
X145270256Y-67592205D01*
X145284758Y-67582515D01*
X145259253Y-67710738D01*
X145259253Y-67914616D01*
X145299027Y-68114575D01*
X145377048Y-68302933D01*
X145490316Y-68472451D01*
X145634479Y-68616614D01*
X145803997Y-68729882D01*
X145992355Y-68807903D01*
X146192314Y-68847677D01*
X146396192Y-68847677D01*
X146596151Y-68807903D01*
X146784509Y-68729882D01*
X146954027Y-68616614D01*
X147098190Y-68472451D01*
X147211458Y-68302933D01*
X147289479Y-68114575D01*
X147329253Y-67914616D01*
X147329253Y-67866655D01*
X151820000Y-67866655D01*
X151820000Y-68213345D01*
X151887636Y-68553373D01*
X152020308Y-68873673D01*
X152212919Y-69161935D01*
X152458065Y-69407081D01*
X152746327Y-69599692D01*
X153066627Y-69732364D01*
X153406655Y-69800000D01*
X153753345Y-69800000D01*
X154093373Y-69732364D01*
X154413673Y-69599692D01*
X154701935Y-69407081D01*
X154947081Y-69161935D01*
X155139692Y-68873673D01*
X155272364Y-68553373D01*
X155340000Y-68213345D01*
X155340000Y-67866655D01*
X156820000Y-67866655D01*
X156820000Y-68213345D01*
X156887636Y-68553373D01*
X157020308Y-68873673D01*
X157212919Y-69161935D01*
X157458065Y-69407081D01*
X157746327Y-69599692D01*
X158066627Y-69732364D01*
X158406655Y-69800000D01*
X158753345Y-69800000D01*
X159093373Y-69732364D01*
X159413673Y-69599692D01*
X159701935Y-69407081D01*
X159947081Y-69161935D01*
X160139692Y-68873673D01*
X160272364Y-68553373D01*
X160340000Y-68213345D01*
X160340000Y-67866655D01*
X160272364Y-67526627D01*
X160139692Y-67206327D01*
X159947081Y-66918065D01*
X159701935Y-66672919D01*
X159413673Y-66480308D01*
X159093373Y-66347636D01*
X158753345Y-66280000D01*
X158406655Y-66280000D01*
X158066627Y-66347636D01*
X157746327Y-66480308D01*
X157458065Y-66672919D01*
X157212919Y-66918065D01*
X157020308Y-67206327D01*
X156887636Y-67526627D01*
X156820000Y-67866655D01*
X155340000Y-67866655D01*
X155272364Y-67526627D01*
X155139692Y-67206327D01*
X154947081Y-66918065D01*
X154701935Y-66672919D01*
X154413673Y-66480308D01*
X154093373Y-66347636D01*
X153753345Y-66280000D01*
X153406655Y-66280000D01*
X153066627Y-66347636D01*
X152746327Y-66480308D01*
X152458065Y-66672919D01*
X152212919Y-66918065D01*
X152020308Y-67206327D01*
X151887636Y-67526627D01*
X151820000Y-67866655D01*
X147329253Y-67866655D01*
X147329253Y-67710738D01*
X147289479Y-67510779D01*
X147211458Y-67322421D01*
X147098190Y-67152903D01*
X146954027Y-67008740D01*
X146784509Y-66895472D01*
X146596151Y-66817451D01*
X146396192Y-66777677D01*
X146192314Y-66777677D01*
X145992355Y-66817451D01*
X145803997Y-66895472D01*
X145789495Y-66905162D01*
X145815000Y-66776939D01*
X145815000Y-66573061D01*
X145775226Y-66373102D01*
X145697205Y-66184744D01*
X145583937Y-66015226D01*
X145439774Y-65871063D01*
X145270256Y-65757795D01*
X145081898Y-65679774D01*
X145039884Y-65671417D01*
X145185774Y-65573937D01*
X145329937Y-65429774D01*
X145443205Y-65260256D01*
X145521226Y-65071898D01*
X145561000Y-64871939D01*
X145561000Y-64789000D01*
X145643939Y-64789000D01*
X145843898Y-64749226D01*
X146032256Y-64671205D01*
X146201774Y-64557937D01*
X146345937Y-64413774D01*
X146459205Y-64244256D01*
X146537226Y-64055898D01*
X146574868Y-63866655D01*
X151820000Y-63866655D01*
X151820000Y-64213345D01*
X151887636Y-64553373D01*
X152020308Y-64873673D01*
X152212919Y-65161935D01*
X152458065Y-65407081D01*
X152746327Y-65599692D01*
X153066627Y-65732364D01*
X153406655Y-65800000D01*
X153753345Y-65800000D01*
X154093373Y-65732364D01*
X154413673Y-65599692D01*
X154701935Y-65407081D01*
X154947081Y-65161935D01*
X155139692Y-64873673D01*
X155272364Y-64553373D01*
X155340000Y-64213345D01*
X155340000Y-63866655D01*
X156820000Y-63866655D01*
X156820000Y-64213345D01*
X156887636Y-64553373D01*
X157020308Y-64873673D01*
X157212919Y-65161935D01*
X157458065Y-65407081D01*
X157746327Y-65599692D01*
X158066627Y-65732364D01*
X158406655Y-65800000D01*
X158753345Y-65800000D01*
X159093373Y-65732364D01*
X159413673Y-65599692D01*
X159701935Y-65407081D01*
X159947081Y-65161935D01*
X160139692Y-64873673D01*
X160272364Y-64553373D01*
X160340000Y-64213345D01*
X160340000Y-63866655D01*
X160272364Y-63526627D01*
X160139692Y-63206327D01*
X159947081Y-62918065D01*
X159701935Y-62672919D01*
X159413673Y-62480308D01*
X159093373Y-62347636D01*
X158753345Y-62280000D01*
X158406655Y-62280000D01*
X158066627Y-62347636D01*
X157746327Y-62480308D01*
X157458065Y-62672919D01*
X157212919Y-62918065D01*
X157020308Y-63206327D01*
X156887636Y-63526627D01*
X156820000Y-63866655D01*
X155340000Y-63866655D01*
X155272364Y-63526627D01*
X155139692Y-63206327D01*
X154947081Y-62918065D01*
X154701935Y-62672919D01*
X154413673Y-62480308D01*
X154093373Y-62347636D01*
X153753345Y-62280000D01*
X153406655Y-62280000D01*
X153066627Y-62347636D01*
X152746327Y-62480308D01*
X152458065Y-62672919D01*
X152212919Y-62918065D01*
X152020308Y-63206327D01*
X151887636Y-63526627D01*
X151820000Y-63866655D01*
X146574868Y-63866655D01*
X146577000Y-63855939D01*
X146577000Y-63652061D01*
X146537226Y-63452102D01*
X146459205Y-63263744D01*
X146345937Y-63094226D01*
X146201774Y-62950063D01*
X146032256Y-62836795D01*
X145843898Y-62758774D01*
X145643939Y-62719000D01*
X145440061Y-62719000D01*
X145240102Y-62758774D01*
X145051744Y-62836795D01*
X144882226Y-62950063D01*
X144738063Y-63094226D01*
X144624795Y-63263744D01*
X144546774Y-63452102D01*
X144507000Y-63652061D01*
X144507000Y-63735000D01*
X144424061Y-63735000D01*
X144224102Y-63774774D01*
X144035744Y-63852795D01*
X143866226Y-63966063D01*
X143722063Y-64110226D01*
X143608795Y-64279744D01*
X143530774Y-64468102D01*
X143491000Y-64668061D01*
X143491000Y-64871939D01*
X143530774Y-65071898D01*
X143608795Y-65260256D01*
X143722063Y-65429774D01*
X143866226Y-65573937D01*
X144035744Y-65687205D01*
X144224102Y-65765226D01*
X144266116Y-65773583D01*
X144120226Y-65871063D01*
X143976063Y-66015226D01*
X143862795Y-66184744D01*
X143801858Y-66331858D01*
X143654744Y-66392795D01*
X143485226Y-66506063D01*
X143341063Y-66650226D01*
X143227795Y-66819744D01*
X143149774Y-67008102D01*
X143110000Y-67208061D01*
X142900000Y-67208061D01*
X142900000Y-55528510D01*
X143071161Y-55784670D01*
X143605330Y-56318839D01*
X144233446Y-56738533D01*
X144931372Y-57027623D01*
X145672285Y-57175000D01*
X146427715Y-57175000D01*
X147168628Y-57027623D01*
X147170397Y-57026890D01*
X148610048Y-57026890D01*
X148610048Y-57273110D01*
X148658083Y-57514598D01*
X148752307Y-57742074D01*
X148889099Y-57946798D01*
X149063202Y-58120901D01*
X149267926Y-58257693D01*
X149495402Y-58351917D01*
X149736890Y-58399952D01*
X149983110Y-58399952D01*
X150224598Y-58351917D01*
X150452074Y-58257693D01*
X150656798Y-58120901D01*
X150830901Y-57946798D01*
X150967693Y-57742074D01*
X151061917Y-57514598D01*
X151109952Y-57273110D01*
X151109952Y-57026890D01*
X151061917Y-56785402D01*
X151052449Y-56762544D01*
X156125000Y-56762544D01*
X156125000Y-57029456D01*
X156177072Y-57291239D01*
X156279215Y-57537833D01*
X156427503Y-57759762D01*
X156616238Y-57948497D01*
X156838167Y-58096785D01*
X157084761Y-58198928D01*
X157346544Y-58251000D01*
X157613456Y-58251000D01*
X157875239Y-58198928D01*
X158121833Y-58096785D01*
X158343762Y-57948497D01*
X158532497Y-57759762D01*
X158680785Y-57537833D01*
X158782928Y-57291239D01*
X158835000Y-57029456D01*
X158835000Y-56762544D01*
X158782928Y-56500761D01*
X158680785Y-56254167D01*
X158532497Y-56032238D01*
X158343762Y-55843503D01*
X158121833Y-55695215D01*
X157875239Y-55593072D01*
X157613456Y-55541000D01*
X157346544Y-55541000D01*
X157084761Y-55593072D01*
X156838167Y-55695215D01*
X156616238Y-55843503D01*
X156427503Y-56032238D01*
X156279215Y-56254167D01*
X156177072Y-56500761D01*
X156125000Y-56762544D01*
X151052449Y-56762544D01*
X150967693Y-56557926D01*
X150830901Y-56353202D01*
X150656798Y-56179099D01*
X150452074Y-56042307D01*
X150224598Y-55948083D01*
X149983110Y-55900048D01*
X149736890Y-55900048D01*
X149495402Y-55948083D01*
X149267926Y-56042307D01*
X149063202Y-56179099D01*
X148889099Y-56353202D01*
X148752307Y-56557926D01*
X148658083Y-56785402D01*
X148610048Y-57026890D01*
X147170397Y-57026890D01*
X147866554Y-56738533D01*
X148494670Y-56318839D01*
X149028839Y-55784670D01*
X149448533Y-55156554D01*
X149737623Y-54458628D01*
X149784583Y-54222544D01*
X153585000Y-54222544D01*
X153585000Y-54489456D01*
X153637072Y-54751239D01*
X153739215Y-54997833D01*
X153887503Y-55219762D01*
X154076238Y-55408497D01*
X154298167Y-55556785D01*
X154544761Y-55658928D01*
X154806544Y-55711000D01*
X155073456Y-55711000D01*
X155335239Y-55658928D01*
X155581833Y-55556785D01*
X155803762Y-55408497D01*
X155992497Y-55219762D01*
X156140785Y-54997833D01*
X156242928Y-54751239D01*
X156295000Y-54489456D01*
X156295000Y-54222544D01*
X156242928Y-53960761D01*
X156140785Y-53714167D01*
X155992497Y-53492238D01*
X155803762Y-53303503D01*
X155581833Y-53155215D01*
X155335239Y-53053072D01*
X155073456Y-53001000D01*
X154806544Y-53001000D01*
X154544761Y-53053072D01*
X154298167Y-53155215D01*
X154076238Y-53303503D01*
X153887503Y-53492238D01*
X153739215Y-53714167D01*
X153637072Y-53960761D01*
X153585000Y-54222544D01*
X149784583Y-54222544D01*
X149885000Y-53717715D01*
X149885000Y-52962285D01*
X149737623Y-52221372D01*
X149514434Y-51682544D01*
X156125000Y-51682544D01*
X156125000Y-51949456D01*
X156177072Y-52211239D01*
X156279215Y-52457833D01*
X156427503Y-52679762D01*
X156616238Y-52868497D01*
X156838167Y-53016785D01*
X157084761Y-53118928D01*
X157346544Y-53171000D01*
X157613456Y-53171000D01*
X157875239Y-53118928D01*
X158121833Y-53016785D01*
X158343762Y-52868497D01*
X158532497Y-52679762D01*
X158659291Y-52490000D01*
X163611928Y-52490000D01*
X163611928Y-54190000D01*
X163624188Y-54314482D01*
X163660498Y-54434180D01*
X163719463Y-54544494D01*
X163798815Y-54641185D01*
X163895506Y-54720537D01*
X164005820Y-54779502D01*
X164078380Y-54801513D01*
X163946525Y-54933368D01*
X163784010Y-55176589D01*
X163672068Y-55446842D01*
X163615000Y-55733740D01*
X163615000Y-56026260D01*
X163672068Y-56313158D01*
X163784010Y-56583411D01*
X163946525Y-56826632D01*
X164153368Y-57033475D01*
X164327760Y-57150000D01*
X164153368Y-57266525D01*
X163946525Y-57473368D01*
X163784010Y-57716589D01*
X163672068Y-57986842D01*
X163615000Y-58273740D01*
X163615000Y-58566260D01*
X163672068Y-58853158D01*
X163784010Y-59123411D01*
X163946525Y-59366632D01*
X164153368Y-59573475D01*
X164327760Y-59690000D01*
X164153368Y-59806525D01*
X163946525Y-60013368D01*
X163784010Y-60256589D01*
X163672068Y-60526842D01*
X163615000Y-60813740D01*
X163615000Y-61106260D01*
X163672068Y-61393158D01*
X163784010Y-61663411D01*
X163946525Y-61906632D01*
X164153368Y-62113475D01*
X164327760Y-62230000D01*
X164153368Y-62346525D01*
X163946525Y-62553368D01*
X163784010Y-62796589D01*
X163672068Y-63066842D01*
X163615000Y-63353740D01*
X163615000Y-63646260D01*
X163672068Y-63933158D01*
X163784010Y-64203411D01*
X163946525Y-64446632D01*
X164153368Y-64653475D01*
X164327760Y-64770000D01*
X164153368Y-64886525D01*
X163946525Y-65093368D01*
X163784010Y-65336589D01*
X163672068Y-65606842D01*
X163615000Y-65893740D01*
X163615000Y-66186260D01*
X163672068Y-66473158D01*
X163784010Y-66743411D01*
X163946525Y-66986632D01*
X164153368Y-67193475D01*
X164327760Y-67310000D01*
X164153368Y-67426525D01*
X163946525Y-67633368D01*
X163784010Y-67876589D01*
X163672068Y-68146842D01*
X163615000Y-68433740D01*
X163615000Y-68726260D01*
X163672068Y-69013158D01*
X163784010Y-69283411D01*
X163946525Y-69526632D01*
X164153368Y-69733475D01*
X164327760Y-69850000D01*
X164153368Y-69966525D01*
X163946525Y-70173368D01*
X163784010Y-70416589D01*
X163672068Y-70686842D01*
X163615000Y-70973740D01*
X163615000Y-71266260D01*
X163672068Y-71553158D01*
X163784010Y-71823411D01*
X163946525Y-72066632D01*
X164153368Y-72273475D01*
X164327760Y-72390000D01*
X164153368Y-72506525D01*
X163946525Y-72713368D01*
X163784010Y-72956589D01*
X163672068Y-73226842D01*
X163615000Y-73513740D01*
X163615000Y-73806260D01*
X163672068Y-74093158D01*
X163784010Y-74363411D01*
X163946525Y-74606632D01*
X164153368Y-74813475D01*
X164327760Y-74930000D01*
X164153368Y-75046525D01*
X163946525Y-75253368D01*
X163784010Y-75496589D01*
X163672068Y-75766842D01*
X163615000Y-76053740D01*
X163615000Y-76346260D01*
X163672068Y-76633158D01*
X163784010Y-76903411D01*
X163946525Y-77146632D01*
X164153368Y-77353475D01*
X164327760Y-77470000D01*
X164153368Y-77586525D01*
X163946525Y-77793368D01*
X163784010Y-78036589D01*
X163672068Y-78306842D01*
X163615000Y-78593740D01*
X163615000Y-78886260D01*
X163672068Y-79173158D01*
X163784010Y-79443411D01*
X163946525Y-79686632D01*
X164153368Y-79893475D01*
X164327760Y-80010000D01*
X164153368Y-80126525D01*
X163946525Y-80333368D01*
X163784010Y-80576589D01*
X163672068Y-80846842D01*
X163615000Y-81133740D01*
X163615000Y-81426260D01*
X163672068Y-81713158D01*
X163784010Y-81983411D01*
X163946525Y-82226632D01*
X164153368Y-82433475D01*
X164327760Y-82550000D01*
X164153368Y-82666525D01*
X163946525Y-82873368D01*
X163784010Y-83116589D01*
X163672068Y-83386842D01*
X163615000Y-83673740D01*
X163615000Y-83966260D01*
X163672068Y-84253158D01*
X163784010Y-84523411D01*
X163946525Y-84766632D01*
X164153368Y-84973475D01*
X164327760Y-85090000D01*
X164153368Y-85206525D01*
X163946525Y-85413368D01*
X163784010Y-85656589D01*
X163672068Y-85926842D01*
X163615000Y-86213740D01*
X163615000Y-86506260D01*
X163672068Y-86793158D01*
X163784010Y-87063411D01*
X163946525Y-87306632D01*
X164153368Y-87513475D01*
X164327760Y-87630000D01*
X164153368Y-87746525D01*
X163946525Y-87953368D01*
X163784010Y-88196589D01*
X163672068Y-88466842D01*
X163615000Y-88753740D01*
X163615000Y-89046260D01*
X163672068Y-89333158D01*
X163784010Y-89603411D01*
X163946525Y-89846632D01*
X164153368Y-90053475D01*
X164396589Y-90215990D01*
X164666842Y-90327932D01*
X164953740Y-90385000D01*
X165246260Y-90385000D01*
X165533158Y-90327932D01*
X165803411Y-90215990D01*
X166046632Y-90053475D01*
X166253475Y-89846632D01*
X166415990Y-89603411D01*
X166527932Y-89333158D01*
X166530549Y-89320000D01*
X180121928Y-89320000D01*
X180121928Y-91020000D01*
X180134188Y-91144482D01*
X180170498Y-91264180D01*
X180229463Y-91374494D01*
X180308815Y-91471185D01*
X180405506Y-91550537D01*
X180515820Y-91609502D01*
X180635518Y-91645812D01*
X180760000Y-91658072D01*
X182460000Y-91658072D01*
X182584482Y-91645812D01*
X182704180Y-91609502D01*
X182814494Y-91550537D01*
X182911185Y-91471185D01*
X182990537Y-91374494D01*
X183049502Y-91264180D01*
X183071513Y-91191620D01*
X183203368Y-91323475D01*
X183446589Y-91485990D01*
X183716842Y-91597932D01*
X184003740Y-91655000D01*
X184296260Y-91655000D01*
X184583158Y-91597932D01*
X184853411Y-91485990D01*
X185096632Y-91323475D01*
X185303475Y-91116632D01*
X185420000Y-90942240D01*
X185536525Y-91116632D01*
X185743368Y-91323475D01*
X185986589Y-91485990D01*
X186256842Y-91597932D01*
X186543740Y-91655000D01*
X186836260Y-91655000D01*
X187123158Y-91597932D01*
X187393411Y-91485990D01*
X187636632Y-91323475D01*
X187643217Y-91316890D01*
X201315048Y-91316890D01*
X201315048Y-91563110D01*
X201363083Y-91804598D01*
X201457307Y-92032074D01*
X201594099Y-92236798D01*
X201768202Y-92410901D01*
X201972926Y-92547693D01*
X202200402Y-92641917D01*
X202441890Y-92689952D01*
X202688110Y-92689952D01*
X202929598Y-92641917D01*
X203157074Y-92547693D01*
X203361798Y-92410901D01*
X203535901Y-92236798D01*
X203672693Y-92032074D01*
X203766917Y-91804598D01*
X203814952Y-91563110D01*
X203814952Y-91316890D01*
X203766917Y-91075402D01*
X203672693Y-90847926D01*
X203535901Y-90643202D01*
X203361798Y-90469099D01*
X203157074Y-90332307D01*
X202929598Y-90238083D01*
X202688110Y-90190048D01*
X202441890Y-90190048D01*
X202200402Y-90238083D01*
X201972926Y-90332307D01*
X201768202Y-90469099D01*
X201594099Y-90643202D01*
X201457307Y-90847926D01*
X201363083Y-91075402D01*
X201315048Y-91316890D01*
X187643217Y-91316890D01*
X187843475Y-91116632D01*
X188005990Y-90873411D01*
X188117932Y-90603158D01*
X188175000Y-90316260D01*
X188175000Y-90023740D01*
X188117932Y-89736842D01*
X188005990Y-89466589D01*
X187843475Y-89223368D01*
X187636632Y-89016525D01*
X187393411Y-88854010D01*
X187123158Y-88742068D01*
X186836260Y-88685000D01*
X186543740Y-88685000D01*
X186256842Y-88742068D01*
X185986589Y-88854010D01*
X185743368Y-89016525D01*
X185536525Y-89223368D01*
X185420000Y-89397760D01*
X185303475Y-89223368D01*
X185096632Y-89016525D01*
X184853411Y-88854010D01*
X184583158Y-88742068D01*
X184296260Y-88685000D01*
X184003740Y-88685000D01*
X183716842Y-88742068D01*
X183446589Y-88854010D01*
X183203368Y-89016525D01*
X183071513Y-89148380D01*
X183049502Y-89075820D01*
X182990537Y-88965506D01*
X182911185Y-88868815D01*
X182814494Y-88789463D01*
X182704180Y-88730498D01*
X182584482Y-88694188D01*
X182460000Y-88681928D01*
X180760000Y-88681928D01*
X180635518Y-88694188D01*
X180515820Y-88730498D01*
X180405506Y-88789463D01*
X180308815Y-88868815D01*
X180229463Y-88965506D01*
X180170498Y-89075820D01*
X180134188Y-89195518D01*
X180121928Y-89320000D01*
X166530549Y-89320000D01*
X166585000Y-89046260D01*
X166585000Y-88753740D01*
X166527932Y-88466842D01*
X166415990Y-88196589D01*
X166318043Y-88050000D01*
X189011928Y-88050000D01*
X189011928Y-89750000D01*
X189024188Y-89874482D01*
X189060498Y-89994180D01*
X189119463Y-90104494D01*
X189198815Y-90201185D01*
X189295506Y-90280537D01*
X189405820Y-90339502D01*
X189525518Y-90375812D01*
X189650000Y-90388072D01*
X191350000Y-90388072D01*
X191474482Y-90375812D01*
X191594180Y-90339502D01*
X191704494Y-90280537D01*
X191801185Y-90201185D01*
X191880537Y-90104494D01*
X191939502Y-89994180D01*
X191975812Y-89874482D01*
X191988072Y-89750000D01*
X191988072Y-88050000D01*
X191975812Y-87925518D01*
X191939502Y-87805820D01*
X191880537Y-87695506D01*
X191801185Y-87598815D01*
X191704494Y-87519463D01*
X191594180Y-87460498D01*
X191521620Y-87438487D01*
X191653475Y-87306632D01*
X191815990Y-87063411D01*
X191927932Y-86793158D01*
X191985000Y-86506260D01*
X191985000Y-86213740D01*
X191947910Y-86027279D01*
X192110097Y-86224903D01*
X192339382Y-86413073D01*
X192600972Y-86552896D01*
X192884814Y-86638999D01*
X193180000Y-86668072D01*
X194930000Y-86668072D01*
X195225186Y-86638999D01*
X195509028Y-86552896D01*
X195551863Y-86530000D01*
X196366928Y-86530000D01*
X196366928Y-88030000D01*
X196393599Y-88300799D01*
X196472589Y-88561192D01*
X196600860Y-88801171D01*
X196773485Y-89011515D01*
X196983829Y-89184140D01*
X197223808Y-89312411D01*
X197484201Y-89391401D01*
X197755000Y-89418072D01*
X199755000Y-89418072D01*
X200025799Y-89391401D01*
X200286192Y-89312411D01*
X200526171Y-89184140D01*
X200736515Y-89011515D01*
X200909140Y-88801171D01*
X201037411Y-88561192D01*
X201116401Y-88300799D01*
X201143072Y-88030000D01*
X201143072Y-86530000D01*
X201116401Y-86259201D01*
X201037411Y-85998808D01*
X200909140Y-85758829D01*
X200736515Y-85548485D01*
X200526171Y-85375860D01*
X200286192Y-85247589D01*
X200025799Y-85168599D01*
X199755000Y-85141928D01*
X197755000Y-85141928D01*
X197484201Y-85168599D01*
X197223808Y-85247589D01*
X196983829Y-85375860D01*
X196773485Y-85548485D01*
X196600860Y-85758829D01*
X196472589Y-85998808D01*
X196393599Y-86259201D01*
X196366928Y-86530000D01*
X195551863Y-86530000D01*
X195770618Y-86413073D01*
X195999903Y-86224903D01*
X196188073Y-85995618D01*
X196327896Y-85734028D01*
X196413999Y-85450186D01*
X196443072Y-85155000D01*
X196443072Y-83405000D01*
X196433506Y-83307869D01*
X196474463Y-83384494D01*
X196553815Y-83481185D01*
X196650506Y-83560537D01*
X196760820Y-83619502D01*
X196880518Y-83655812D01*
X197005000Y-83668072D01*
X200505000Y-83668072D01*
X200629482Y-83655812D01*
X200749180Y-83619502D01*
X200859494Y-83560537D01*
X200956185Y-83481185D01*
X201035537Y-83384494D01*
X201094502Y-83274180D01*
X201130812Y-83154482D01*
X201143072Y-83030000D01*
X201143072Y-80398250D01*
X208065000Y-80398250D01*
X208223750Y-80557000D01*
X208827000Y-80557000D01*
X208827000Y-79953750D01*
X210273000Y-79953750D01*
X210273000Y-80557000D01*
X210876250Y-80557000D01*
X211035000Y-80398250D01*
X211027446Y-80314038D01*
X210992767Y-80193858D01*
X210935308Y-80082752D01*
X210857278Y-79984991D01*
X210761674Y-79904331D01*
X210652172Y-79843873D01*
X210532979Y-79805939D01*
X210431750Y-79795000D01*
X210273000Y-79953750D01*
X208827000Y-79953750D01*
X208668250Y-79795000D01*
X208567021Y-79805939D01*
X208447828Y-79843873D01*
X208338326Y-79904331D01*
X208242722Y-79984991D01*
X208164692Y-80082752D01*
X208107233Y-80193858D01*
X208072554Y-80314038D01*
X208065000Y-80398250D01*
X201143072Y-80398250D01*
X201143072Y-79993795D01*
X201320061Y-80029000D01*
X201523939Y-80029000D01*
X201723898Y-79989226D01*
X201912256Y-79911205D01*
X202081774Y-79797937D01*
X202143094Y-79736617D01*
X202336061Y-79775000D01*
X202539939Y-79775000D01*
X202739898Y-79735226D01*
X202928256Y-79657205D01*
X203097774Y-79543937D01*
X203241937Y-79399774D01*
X203355205Y-79230256D01*
X203433226Y-79041898D01*
X203473000Y-78841939D01*
X203473000Y-78638061D01*
X203433226Y-78438102D01*
X203355205Y-78249744D01*
X203241937Y-78080226D01*
X203097774Y-77936063D01*
X202928256Y-77822795D01*
X202739898Y-77744774D01*
X202539939Y-77705000D01*
X202336061Y-77705000D01*
X202136102Y-77744774D01*
X201947744Y-77822795D01*
X201778226Y-77936063D01*
X201716906Y-77997383D01*
X201523939Y-77959000D01*
X201320061Y-77959000D01*
X201120102Y-77998774D01*
X200931744Y-78076795D01*
X200762226Y-78190063D01*
X200618063Y-78334226D01*
X200504795Y-78503744D01*
X200426774Y-78692102D01*
X200387026Y-78891928D01*
X197005000Y-78891928D01*
X196880518Y-78904188D01*
X196760820Y-78940498D01*
X196650506Y-78999463D01*
X196553815Y-79078815D01*
X196474463Y-79175506D01*
X196415498Y-79285820D01*
X196379188Y-79405518D01*
X196366928Y-79530000D01*
X196366928Y-82954643D01*
X196327896Y-82825972D01*
X196188073Y-82564382D01*
X195999903Y-82335097D01*
X195770618Y-82146927D01*
X195509028Y-82007104D01*
X195225186Y-81921001D01*
X194930000Y-81891928D01*
X193180000Y-81891928D01*
X192884814Y-81921001D01*
X192600972Y-82007104D01*
X192339382Y-82146927D01*
X192110097Y-82335097D01*
X191921927Y-82564382D01*
X191782104Y-82825972D01*
X191732053Y-82990968D01*
X191653475Y-82873368D01*
X191446632Y-82666525D01*
X191272240Y-82550000D01*
X191446632Y-82433475D01*
X191653475Y-82226632D01*
X191815990Y-81983411D01*
X191927932Y-81713158D01*
X191985000Y-81426260D01*
X191985000Y-81133740D01*
X191927932Y-80846842D01*
X191815990Y-80576589D01*
X191653475Y-80333368D01*
X191446632Y-80126525D01*
X191272240Y-80010000D01*
X191446632Y-79893475D01*
X191653475Y-79686632D01*
X191815990Y-79443411D01*
X191927932Y-79173158D01*
X191985000Y-78886260D01*
X191985000Y-78593740D01*
X191927932Y-78306842D01*
X191815990Y-78036589D01*
X191653475Y-77793368D01*
X191446632Y-77586525D01*
X191272240Y-77470000D01*
X191446632Y-77353475D01*
X191653475Y-77146632D01*
X191815990Y-76903411D01*
X191927932Y-76633158D01*
X191985000Y-76346260D01*
X191985000Y-76053740D01*
X191943292Y-75844061D01*
X192767000Y-75844061D01*
X192767000Y-76047939D01*
X192806774Y-76247898D01*
X192884795Y-76436256D01*
X192998063Y-76605774D01*
X193142226Y-76749937D01*
X193311744Y-76863205D01*
X193500102Y-76941226D01*
X193700061Y-76981000D01*
X193903939Y-76981000D01*
X194103898Y-76941226D01*
X194292256Y-76863205D01*
X194461774Y-76749937D01*
X194605937Y-76605774D01*
X194719205Y-76436256D01*
X194797226Y-76247898D01*
X194837000Y-76047939D01*
X194837000Y-75844061D01*
X194797226Y-75644102D01*
X194719205Y-75455744D01*
X194605937Y-75286226D01*
X194461774Y-75142063D01*
X194292256Y-75028795D01*
X194103898Y-74950774D01*
X193903939Y-74911000D01*
X193700061Y-74911000D01*
X193500102Y-74950774D01*
X193311744Y-75028795D01*
X193142226Y-75142063D01*
X192998063Y-75286226D01*
X192884795Y-75455744D01*
X192806774Y-75644102D01*
X192767000Y-75844061D01*
X191943292Y-75844061D01*
X191927932Y-75766842D01*
X191815990Y-75496589D01*
X191653475Y-75253368D01*
X191446632Y-75046525D01*
X191272240Y-74930000D01*
X191424802Y-74828061D01*
X196323000Y-74828061D01*
X196323000Y-75031939D01*
X196362774Y-75231898D01*
X196440795Y-75420256D01*
X196554063Y-75589774D01*
X196698226Y-75733937D01*
X196867744Y-75847205D01*
X197056102Y-75925226D01*
X197256061Y-75965000D01*
X197459939Y-75965000D01*
X197659898Y-75925226D01*
X197848256Y-75847205D01*
X198017774Y-75733937D01*
X198161937Y-75589774D01*
X198275205Y-75420256D01*
X198353226Y-75231898D01*
X198393000Y-75031939D01*
X198393000Y-74828061D01*
X198353226Y-74628102D01*
X198275205Y-74439744D01*
X198161937Y-74270226D01*
X198017774Y-74126063D01*
X197848256Y-74012795D01*
X197659898Y-73934774D01*
X197459939Y-73895000D01*
X197256061Y-73895000D01*
X197056102Y-73934774D01*
X196867744Y-74012795D01*
X196698226Y-74126063D01*
X196554063Y-74270226D01*
X196440795Y-74439744D01*
X196362774Y-74628102D01*
X196323000Y-74828061D01*
X191424802Y-74828061D01*
X191446632Y-74813475D01*
X191653475Y-74606632D01*
X191815990Y-74363411D01*
X191927932Y-74093158D01*
X191985000Y-73806260D01*
X191985000Y-73513740D01*
X191936865Y-73271750D01*
X194095000Y-73271750D01*
X194105939Y-73372979D01*
X194143873Y-73492172D01*
X194204331Y-73601674D01*
X194284991Y-73697278D01*
X194382752Y-73775308D01*
X194493858Y-73832767D01*
X194614038Y-73867446D01*
X194698250Y-73875000D01*
X194857000Y-73716250D01*
X194857000Y-73113000D01*
X194253750Y-73113000D01*
X194095000Y-73271750D01*
X191936865Y-73271750D01*
X191927932Y-73226842D01*
X191815990Y-72956589D01*
X191653475Y-72713368D01*
X191446632Y-72506525D01*
X191272240Y-72390000D01*
X191446632Y-72273475D01*
X191580198Y-72139909D01*
X191618226Y-72177937D01*
X191787744Y-72291205D01*
X191976102Y-72369226D01*
X192176061Y-72409000D01*
X192379939Y-72409000D01*
X192579898Y-72369226D01*
X192768256Y-72291205D01*
X192937774Y-72177937D01*
X193081937Y-72033774D01*
X193195205Y-71864256D01*
X193273226Y-71675898D01*
X193306572Y-71508250D01*
X194095000Y-71508250D01*
X194253750Y-71667000D01*
X194857000Y-71667000D01*
X194857000Y-71063750D01*
X196303000Y-71063750D01*
X196303000Y-71667000D01*
X196430000Y-71667000D01*
X196430000Y-73113000D01*
X196303000Y-73113000D01*
X196303000Y-73716250D01*
X196461750Y-73875000D01*
X196545962Y-73867446D01*
X196666142Y-73832767D01*
X196777248Y-73775308D01*
X196792666Y-73763002D01*
X197065000Y-73763002D01*
X197065000Y-73435107D01*
X197173368Y-73543475D01*
X197416589Y-73705990D01*
X197686842Y-73817932D01*
X197973740Y-73875000D01*
X198266260Y-73875000D01*
X198553158Y-73817932D01*
X198823411Y-73705990D01*
X199066632Y-73543475D01*
X199273475Y-73336632D01*
X199390000Y-73162240D01*
X199506525Y-73336632D01*
X199713368Y-73543475D01*
X199956589Y-73705990D01*
X200226842Y-73817932D01*
X200513740Y-73875000D01*
X200806260Y-73875000D01*
X201093158Y-73817932D01*
X201363411Y-73705990D01*
X201606632Y-73543475D01*
X201813475Y-73336632D01*
X201958250Y-73119961D01*
X202032226Y-73193937D01*
X202201744Y-73307205D01*
X202390102Y-73385226D01*
X202590061Y-73425000D01*
X202793939Y-73425000D01*
X202993898Y-73385226D01*
X203182256Y-73307205D01*
X203351774Y-73193937D01*
X203495937Y-73049774D01*
X203609205Y-72880256D01*
X203687226Y-72691898D01*
X203727000Y-72491939D01*
X203727000Y-72288061D01*
X203687226Y-72088102D01*
X203609205Y-71899744D01*
X203537273Y-71792089D01*
X203615225Y-71603897D01*
X203654999Y-71403938D01*
X203654999Y-71200060D01*
X203615225Y-71000101D01*
X203537204Y-70811743D01*
X203423936Y-70642225D01*
X203279773Y-70498062D01*
X203110255Y-70384794D01*
X202921897Y-70306773D01*
X202721938Y-70266999D01*
X202518060Y-70266999D01*
X202318101Y-70306773D01*
X202129743Y-70384794D01*
X201960225Y-70498062D01*
X201816062Y-70642225D01*
X201702794Y-70811743D01*
X201624773Y-71000101D01*
X201584999Y-71200060D01*
X201584999Y-71222070D01*
X201363411Y-71074010D01*
X201093158Y-70962068D01*
X200806260Y-70905000D01*
X200513740Y-70905000D01*
X200226842Y-70962068D01*
X199956589Y-71074010D01*
X199713368Y-71236525D01*
X199506525Y-71443368D01*
X199390000Y-71617760D01*
X199273475Y-71443368D01*
X199066632Y-71236525D01*
X198823411Y-71074010D01*
X198553158Y-70962068D01*
X198266260Y-70905000D01*
X197973740Y-70905000D01*
X197686842Y-70962068D01*
X197416589Y-71074010D01*
X197173368Y-71236525D01*
X197065000Y-71344893D01*
X197065000Y-71016998D01*
X196792666Y-71016998D01*
X196777248Y-71004692D01*
X196666142Y-70947233D01*
X196545962Y-70912554D01*
X196461750Y-70905000D01*
X196303000Y-71063750D01*
X194857000Y-71063750D01*
X194698250Y-70905000D01*
X194614038Y-70912554D01*
X194493858Y-70947233D01*
X194382752Y-71004692D01*
X194284991Y-71082722D01*
X194204331Y-71178326D01*
X194143873Y-71287828D01*
X194105939Y-71407021D01*
X194095000Y-71508250D01*
X193306572Y-71508250D01*
X193313000Y-71475939D01*
X193313000Y-71272061D01*
X193273226Y-71072102D01*
X193195205Y-70883744D01*
X193081937Y-70714226D01*
X192937774Y-70570063D01*
X192768256Y-70456795D01*
X192579898Y-70378774D01*
X192379939Y-70339000D01*
X192176061Y-70339000D01*
X191976102Y-70378774D01*
X191826068Y-70440920D01*
X191815990Y-70416589D01*
X191653475Y-70173368D01*
X191446632Y-69966525D01*
X191272240Y-69850000D01*
X191446632Y-69733475D01*
X191653475Y-69526632D01*
X191815990Y-69283411D01*
X191927932Y-69013158D01*
X191985000Y-68726260D01*
X191985000Y-68433740D01*
X191943292Y-68224061D01*
X192767000Y-68224061D01*
X192767000Y-68427939D01*
X192806774Y-68627898D01*
X192884795Y-68816256D01*
X192998063Y-68985774D01*
X193142226Y-69129937D01*
X193311744Y-69243205D01*
X193500102Y-69321226D01*
X193700061Y-69361000D01*
X193903939Y-69361000D01*
X194103898Y-69321226D01*
X194292256Y-69243205D01*
X194461774Y-69129937D01*
X194605937Y-68985774D01*
X194719205Y-68816256D01*
X194797226Y-68627898D01*
X194837000Y-68427939D01*
X194837000Y-68224061D01*
X194797226Y-68024102D01*
X194719205Y-67835744D01*
X194605937Y-67666226D01*
X194461774Y-67522063D01*
X194292256Y-67408795D01*
X194103898Y-67330774D01*
X193903939Y-67291000D01*
X193700061Y-67291000D01*
X193500102Y-67330774D01*
X193311744Y-67408795D01*
X193142226Y-67522063D01*
X192998063Y-67666226D01*
X192884795Y-67835744D01*
X192806774Y-68024102D01*
X192767000Y-68224061D01*
X191943292Y-68224061D01*
X191927932Y-68146842D01*
X191815990Y-67876589D01*
X191653475Y-67633368D01*
X191446632Y-67426525D01*
X191272240Y-67310000D01*
X191424802Y-67208061D01*
X196323000Y-67208061D01*
X196323000Y-67411939D01*
X196362774Y-67611898D01*
X196440795Y-67800256D01*
X196554063Y-67969774D01*
X196698226Y-68113937D01*
X196867744Y-68227205D01*
X197056102Y-68305226D01*
X197256061Y-68345000D01*
X197459939Y-68345000D01*
X197659898Y-68305226D01*
X197848256Y-68227205D01*
X198017774Y-68113937D01*
X198161937Y-67969774D01*
X198275205Y-67800256D01*
X198353226Y-67611898D01*
X198393000Y-67411939D01*
X198393000Y-67208061D01*
X198353226Y-67008102D01*
X198275205Y-66819744D01*
X198161937Y-66650226D01*
X198017774Y-66506063D01*
X197848256Y-66392795D01*
X197659898Y-66314774D01*
X197459939Y-66275000D01*
X197256061Y-66275000D01*
X197056102Y-66314774D01*
X196867744Y-66392795D01*
X196698226Y-66506063D01*
X196554063Y-66650226D01*
X196440795Y-66819744D01*
X196362774Y-67008102D01*
X196323000Y-67208061D01*
X191424802Y-67208061D01*
X191446632Y-67193475D01*
X191653475Y-66986632D01*
X191815990Y-66743411D01*
X191927932Y-66473158D01*
X191985000Y-66186260D01*
X191985000Y-65893740D01*
X191936865Y-65651750D01*
X194095000Y-65651750D01*
X194105939Y-65752979D01*
X194143873Y-65872172D01*
X194204331Y-65981674D01*
X194284991Y-66077278D01*
X194382752Y-66155308D01*
X194493858Y-66212767D01*
X194614038Y-66247446D01*
X194698250Y-66255000D01*
X194857000Y-66096250D01*
X194857000Y-65493000D01*
X194253750Y-65493000D01*
X194095000Y-65651750D01*
X191936865Y-65651750D01*
X191927932Y-65606842D01*
X191815990Y-65336589D01*
X191653475Y-65093368D01*
X191446632Y-64886525D01*
X191272240Y-64770000D01*
X191446632Y-64653475D01*
X191653475Y-64446632D01*
X191815990Y-64203411D01*
X191927932Y-63933158D01*
X191936864Y-63888250D01*
X194095000Y-63888250D01*
X194253750Y-64047000D01*
X194857000Y-64047000D01*
X194857000Y-63443750D01*
X196303000Y-63443750D01*
X196303000Y-64047000D01*
X196430000Y-64047000D01*
X196430000Y-65493000D01*
X196303000Y-65493000D01*
X196303000Y-66096250D01*
X196461750Y-66255000D01*
X196545962Y-66247446D01*
X196666142Y-66212767D01*
X196777248Y-66155308D01*
X196792666Y-66143002D01*
X197065000Y-66143002D01*
X197065000Y-65815107D01*
X197173368Y-65923475D01*
X197416589Y-66085990D01*
X197686842Y-66197932D01*
X197973740Y-66255000D01*
X198266260Y-66255000D01*
X198553158Y-66197932D01*
X198823411Y-66085990D01*
X199066632Y-65923475D01*
X199273475Y-65716632D01*
X199390000Y-65542240D01*
X199506525Y-65716632D01*
X199713368Y-65923475D01*
X199956589Y-66085990D01*
X200226842Y-66197932D01*
X200513740Y-66255000D01*
X200806260Y-66255000D01*
X201093158Y-66197932D01*
X201363411Y-66085990D01*
X201606632Y-65923475D01*
X201813475Y-65716632D01*
X201958250Y-65499961D01*
X202032226Y-65573937D01*
X202201744Y-65687205D01*
X202390102Y-65765226D01*
X202590061Y-65805000D01*
X202793939Y-65805000D01*
X202993898Y-65765226D01*
X203182256Y-65687205D01*
X203351774Y-65573937D01*
X203495937Y-65429774D01*
X203609205Y-65260256D01*
X203687226Y-65071898D01*
X203727000Y-64871939D01*
X203727000Y-64668061D01*
X203687226Y-64468102D01*
X203609205Y-64279744D01*
X203495937Y-64110226D01*
X203361286Y-63975575D01*
X203433226Y-63801898D01*
X203473000Y-63601939D01*
X203473000Y-63398061D01*
X203433226Y-63198102D01*
X203355205Y-63009744D01*
X203241937Y-62840226D01*
X203097774Y-62696063D01*
X202928256Y-62582795D01*
X202739898Y-62504774D01*
X202539939Y-62465000D01*
X202336061Y-62465000D01*
X202136102Y-62504774D01*
X201947744Y-62582795D01*
X201778226Y-62696063D01*
X201634063Y-62840226D01*
X201520795Y-63009744D01*
X201442774Y-63198102D01*
X201403000Y-63398061D01*
X201403000Y-63480463D01*
X201363411Y-63454010D01*
X201093158Y-63342068D01*
X200806260Y-63285000D01*
X200513740Y-63285000D01*
X200226842Y-63342068D01*
X199956589Y-63454010D01*
X199713368Y-63616525D01*
X199506525Y-63823368D01*
X199390000Y-63997760D01*
X199273475Y-63823368D01*
X199066632Y-63616525D01*
X198823411Y-63454010D01*
X198553158Y-63342068D01*
X198266260Y-63285000D01*
X197973740Y-63285000D01*
X197686842Y-63342068D01*
X197416589Y-63454010D01*
X197173368Y-63616525D01*
X197065000Y-63724893D01*
X197065000Y-63396998D01*
X196792666Y-63396998D01*
X196777248Y-63384692D01*
X196666142Y-63327233D01*
X196545962Y-63292554D01*
X196461750Y-63285000D01*
X196303000Y-63443750D01*
X194857000Y-63443750D01*
X194698250Y-63285000D01*
X194614038Y-63292554D01*
X194493858Y-63327233D01*
X194382752Y-63384692D01*
X194284991Y-63462722D01*
X194204331Y-63558326D01*
X194143873Y-63667828D01*
X194105939Y-63787021D01*
X194095000Y-63888250D01*
X191936864Y-63888250D01*
X191985000Y-63646260D01*
X191985000Y-63353740D01*
X191927932Y-63066842D01*
X191815990Y-62796589D01*
X191653475Y-62553368D01*
X191446632Y-62346525D01*
X191272240Y-62230000D01*
X191446632Y-62113475D01*
X191653475Y-61906632D01*
X191815990Y-61663411D01*
X191927932Y-61393158D01*
X191985000Y-61106260D01*
X191985000Y-60813740D01*
X191943292Y-60604061D01*
X192767000Y-60604061D01*
X192767000Y-60807939D01*
X192806774Y-61007898D01*
X192884795Y-61196256D01*
X192998063Y-61365774D01*
X193142226Y-61509937D01*
X193311744Y-61623205D01*
X193500102Y-61701226D01*
X193700061Y-61741000D01*
X193903939Y-61741000D01*
X194103898Y-61701226D01*
X194292256Y-61623205D01*
X194461774Y-61509937D01*
X194605937Y-61365774D01*
X194719205Y-61196256D01*
X194797226Y-61007898D01*
X194837000Y-60807939D01*
X194837000Y-60604061D01*
X194797226Y-60404102D01*
X194719205Y-60215744D01*
X194605937Y-60046226D01*
X194461774Y-59902063D01*
X194371975Y-59842061D01*
X196323000Y-59842061D01*
X196323000Y-60045939D01*
X196362774Y-60245898D01*
X196440795Y-60434256D01*
X196554063Y-60603774D01*
X196698226Y-60747937D01*
X196867744Y-60861205D01*
X197056102Y-60939226D01*
X197256061Y-60979000D01*
X197459939Y-60979000D01*
X197659898Y-60939226D01*
X197848256Y-60861205D01*
X198017774Y-60747937D01*
X198161937Y-60603774D01*
X198275205Y-60434256D01*
X198353226Y-60245898D01*
X198393000Y-60045939D01*
X198393000Y-59842061D01*
X198353226Y-59642102D01*
X198275205Y-59453744D01*
X198161937Y-59284226D01*
X198017774Y-59140063D01*
X197848256Y-59026795D01*
X197659898Y-58948774D01*
X197459939Y-58909000D01*
X197256061Y-58909000D01*
X197056102Y-58948774D01*
X196867744Y-59026795D01*
X196698226Y-59140063D01*
X196554063Y-59284226D01*
X196440795Y-59453744D01*
X196362774Y-59642102D01*
X196323000Y-59842061D01*
X194371975Y-59842061D01*
X194292256Y-59788795D01*
X194103898Y-59710774D01*
X193903939Y-59671000D01*
X193700061Y-59671000D01*
X193500102Y-59710774D01*
X193311744Y-59788795D01*
X193142226Y-59902063D01*
X192998063Y-60046226D01*
X192884795Y-60215744D01*
X192806774Y-60404102D01*
X192767000Y-60604061D01*
X191943292Y-60604061D01*
X191927932Y-60526842D01*
X191815990Y-60256589D01*
X191653475Y-60013368D01*
X191446632Y-59806525D01*
X191272240Y-59690000D01*
X191446632Y-59573475D01*
X191653475Y-59366632D01*
X191815990Y-59123411D01*
X191927932Y-58853158D01*
X191985000Y-58566260D01*
X191985000Y-58273740D01*
X191927932Y-57986842D01*
X191815990Y-57716589D01*
X191653475Y-57473368D01*
X191576857Y-57396750D01*
X194095000Y-57396750D01*
X194105939Y-57497979D01*
X194143873Y-57617172D01*
X194204331Y-57726674D01*
X194284991Y-57822278D01*
X194382752Y-57900308D01*
X194493858Y-57957767D01*
X194614038Y-57992446D01*
X194698250Y-58000000D01*
X194857000Y-57841250D01*
X194857000Y-57238000D01*
X194253750Y-57238000D01*
X194095000Y-57396750D01*
X191576857Y-57396750D01*
X191446632Y-57266525D01*
X191272240Y-57150000D01*
X191446632Y-57033475D01*
X191653475Y-56826632D01*
X191815990Y-56583411D01*
X191927932Y-56313158D01*
X191985000Y-56026260D01*
X191985000Y-55733740D01*
X191965012Y-55633250D01*
X194095000Y-55633250D01*
X194253750Y-55792000D01*
X194857000Y-55792000D01*
X194857000Y-55188750D01*
X196303000Y-55188750D01*
X196303000Y-55792000D01*
X196430000Y-55792000D01*
X196430000Y-57238000D01*
X196303000Y-57238000D01*
X196303000Y-57841250D01*
X196461750Y-58000000D01*
X196545962Y-57992446D01*
X196666142Y-57957767D01*
X196777248Y-57900308D01*
X196792666Y-57888002D01*
X197065000Y-57888002D01*
X197065000Y-57560107D01*
X197173368Y-57668475D01*
X197416589Y-57830990D01*
X197686842Y-57942932D01*
X197973740Y-58000000D01*
X198266260Y-58000000D01*
X198553158Y-57942932D01*
X198823411Y-57830990D01*
X199066632Y-57668475D01*
X199273475Y-57461632D01*
X199390000Y-57287240D01*
X199506525Y-57461632D01*
X199713368Y-57668475D01*
X199956589Y-57830990D01*
X200226842Y-57942932D01*
X200513740Y-58000000D01*
X200806260Y-58000000D01*
X201093158Y-57942932D01*
X201363411Y-57830990D01*
X201606632Y-57668475D01*
X201813475Y-57461632D01*
X201975990Y-57218411D01*
X202087932Y-56948158D01*
X202145000Y-56661260D01*
X202145000Y-56368740D01*
X202087932Y-56081842D01*
X201975990Y-55811589D01*
X201813475Y-55568368D01*
X201606632Y-55361525D01*
X201363411Y-55199010D01*
X201093158Y-55087068D01*
X200806260Y-55030000D01*
X200513740Y-55030000D01*
X200226842Y-55087068D01*
X199956589Y-55199010D01*
X199713368Y-55361525D01*
X199506525Y-55568368D01*
X199390000Y-55742760D01*
X199273475Y-55568368D01*
X199066632Y-55361525D01*
X198823411Y-55199010D01*
X198553158Y-55087068D01*
X198266260Y-55030000D01*
X197973740Y-55030000D01*
X197686842Y-55087068D01*
X197416589Y-55199010D01*
X197173368Y-55361525D01*
X197065000Y-55469893D01*
X197065000Y-55141998D01*
X196792666Y-55141998D01*
X196777248Y-55129692D01*
X196666142Y-55072233D01*
X196545962Y-55037554D01*
X196461750Y-55030000D01*
X196303000Y-55188750D01*
X194857000Y-55188750D01*
X194698250Y-55030000D01*
X194614038Y-55037554D01*
X194493858Y-55072233D01*
X194382752Y-55129692D01*
X194284991Y-55207722D01*
X194204331Y-55303326D01*
X194143873Y-55412828D01*
X194105939Y-55532021D01*
X194095000Y-55633250D01*
X191965012Y-55633250D01*
X191927932Y-55446842D01*
X191815990Y-55176589D01*
X191653475Y-54933368D01*
X191446632Y-54726525D01*
X191272240Y-54610000D01*
X191446632Y-54493475D01*
X191653475Y-54286632D01*
X191815990Y-54043411D01*
X191927932Y-53773158D01*
X191985000Y-53486260D01*
X191985000Y-53193740D01*
X191927932Y-52906842D01*
X191815990Y-52636589D01*
X191779442Y-52581890D01*
X201950048Y-52581890D01*
X201950048Y-52828110D01*
X201998083Y-53069598D01*
X202092307Y-53297074D01*
X202229099Y-53501798D01*
X202403202Y-53675901D01*
X202607926Y-53812693D01*
X202835402Y-53906917D01*
X203076890Y-53954952D01*
X203323110Y-53954952D01*
X203564598Y-53906917D01*
X203792074Y-53812693D01*
X203996798Y-53675901D01*
X204170901Y-53501798D01*
X204307693Y-53297074D01*
X204401917Y-53069598D01*
X204449952Y-52828110D01*
X204449952Y-52581890D01*
X204401917Y-52340402D01*
X204307693Y-52112926D01*
X204170901Y-51908202D01*
X203996798Y-51734099D01*
X203792074Y-51597307D01*
X203564598Y-51503083D01*
X203323110Y-51455048D01*
X203076890Y-51455048D01*
X202835402Y-51503083D01*
X202607926Y-51597307D01*
X202403202Y-51734099D01*
X202229099Y-51908202D01*
X202092307Y-52112926D01*
X201998083Y-52340402D01*
X201950048Y-52581890D01*
X191779442Y-52581890D01*
X191653475Y-52393368D01*
X191446632Y-52186525D01*
X191203411Y-52024010D01*
X190933158Y-51912068D01*
X190646260Y-51855000D01*
X190353740Y-51855000D01*
X190066842Y-51912068D01*
X189796589Y-52024010D01*
X189553368Y-52186525D01*
X189346525Y-52393368D01*
X189184010Y-52636589D01*
X189072068Y-52906842D01*
X189015000Y-53193740D01*
X189015000Y-53486260D01*
X189072068Y-53773158D01*
X189184010Y-54043411D01*
X189346525Y-54286632D01*
X189553368Y-54493475D01*
X189727760Y-54610000D01*
X189553368Y-54726525D01*
X189346525Y-54933368D01*
X189184010Y-55176589D01*
X189072068Y-55446842D01*
X189015000Y-55733740D01*
X189015000Y-56026260D01*
X189072068Y-56313158D01*
X189184010Y-56583411D01*
X189346525Y-56826632D01*
X189553368Y-57033475D01*
X189727760Y-57150000D01*
X189553368Y-57266525D01*
X189346525Y-57473368D01*
X189184010Y-57716589D01*
X189072068Y-57986842D01*
X189015000Y-58273740D01*
X189015000Y-58566260D01*
X189072068Y-58853158D01*
X189184010Y-59123411D01*
X189346525Y-59366632D01*
X189553368Y-59573475D01*
X189727760Y-59690000D01*
X189553368Y-59806525D01*
X189346525Y-60013368D01*
X189184010Y-60256589D01*
X189072068Y-60526842D01*
X189015000Y-60813740D01*
X189015000Y-61106260D01*
X189072068Y-61393158D01*
X189184010Y-61663411D01*
X189346525Y-61906632D01*
X189553368Y-62113475D01*
X189727760Y-62230000D01*
X189553368Y-62346525D01*
X189346525Y-62553368D01*
X189184010Y-62796589D01*
X189072068Y-63066842D01*
X189015000Y-63353740D01*
X189015000Y-63646260D01*
X189072068Y-63933158D01*
X189184010Y-64203411D01*
X189346525Y-64446632D01*
X189553368Y-64653475D01*
X189727760Y-64770000D01*
X189553368Y-64886525D01*
X189346525Y-65093368D01*
X189184010Y-65336589D01*
X189072068Y-65606842D01*
X189015000Y-65893740D01*
X189015000Y-66186260D01*
X189072068Y-66473158D01*
X189184010Y-66743411D01*
X189346525Y-66986632D01*
X189553368Y-67193475D01*
X189727760Y-67310000D01*
X189553368Y-67426525D01*
X189346525Y-67633368D01*
X189184010Y-67876589D01*
X189072068Y-68146842D01*
X189015000Y-68433740D01*
X189015000Y-68726260D01*
X189072068Y-69013158D01*
X189184010Y-69283411D01*
X189346525Y-69526632D01*
X189553368Y-69733475D01*
X189727760Y-69850000D01*
X189553368Y-69966525D01*
X189346525Y-70173368D01*
X189184010Y-70416589D01*
X189072068Y-70686842D01*
X189015000Y-70973740D01*
X189015000Y-71266260D01*
X189072068Y-71553158D01*
X189184010Y-71823411D01*
X189346525Y-72066632D01*
X189553368Y-72273475D01*
X189727760Y-72390000D01*
X189553368Y-72506525D01*
X189346525Y-72713368D01*
X189184010Y-72956589D01*
X189072068Y-73226842D01*
X189015000Y-73513740D01*
X189015000Y-73806260D01*
X189072068Y-74093158D01*
X189184010Y-74363411D01*
X189346525Y-74606632D01*
X189553368Y-74813475D01*
X189727760Y-74930000D01*
X189553368Y-75046525D01*
X189346525Y-75253368D01*
X189184010Y-75496589D01*
X189072068Y-75766842D01*
X189015000Y-76053740D01*
X189015000Y-76346260D01*
X189072068Y-76633158D01*
X189184010Y-76903411D01*
X189346525Y-77146632D01*
X189553368Y-77353475D01*
X189727760Y-77470000D01*
X189553368Y-77586525D01*
X189346525Y-77793368D01*
X189184010Y-78036589D01*
X189072068Y-78306842D01*
X189015000Y-78593740D01*
X189015000Y-78886260D01*
X189072068Y-79173158D01*
X189184010Y-79443411D01*
X189346525Y-79686632D01*
X189553368Y-79893475D01*
X189727760Y-80010000D01*
X189553368Y-80126525D01*
X189346525Y-80333368D01*
X189184010Y-80576589D01*
X189072068Y-80846842D01*
X189015000Y-81133740D01*
X189015000Y-81426260D01*
X189072068Y-81713158D01*
X189184010Y-81983411D01*
X189346525Y-82226632D01*
X189553368Y-82433475D01*
X189727760Y-82550000D01*
X189553368Y-82666525D01*
X189346525Y-82873368D01*
X189184010Y-83116589D01*
X189072068Y-83386842D01*
X189015000Y-83673740D01*
X189015000Y-83966260D01*
X189072068Y-84253158D01*
X189184010Y-84523411D01*
X189346525Y-84766632D01*
X189553368Y-84973475D01*
X189727760Y-85090000D01*
X189553368Y-85206525D01*
X189346525Y-85413368D01*
X189184010Y-85656589D01*
X189072068Y-85926842D01*
X189015000Y-86213740D01*
X189015000Y-86506260D01*
X189072068Y-86793158D01*
X189184010Y-87063411D01*
X189346525Y-87306632D01*
X189478380Y-87438487D01*
X189405820Y-87460498D01*
X189295506Y-87519463D01*
X189198815Y-87598815D01*
X189119463Y-87695506D01*
X189060498Y-87805820D01*
X189024188Y-87925518D01*
X189011928Y-88050000D01*
X166318043Y-88050000D01*
X166253475Y-87953368D01*
X166046632Y-87746525D01*
X165872240Y-87630000D01*
X166046632Y-87513475D01*
X166253475Y-87306632D01*
X166415990Y-87063411D01*
X166527932Y-86793158D01*
X166585000Y-86506260D01*
X166585000Y-86213740D01*
X166527932Y-85926842D01*
X166415990Y-85656589D01*
X166253475Y-85413368D01*
X166046632Y-85206525D01*
X165872240Y-85090000D01*
X166046632Y-84973475D01*
X166253475Y-84766632D01*
X166415990Y-84523411D01*
X166527932Y-84253158D01*
X166585000Y-83966260D01*
X166585000Y-83682408D01*
X167863000Y-83682408D01*
X167863000Y-83957592D01*
X167916686Y-84227490D01*
X168021995Y-84481727D01*
X168174880Y-84710535D01*
X168369465Y-84905120D01*
X168598273Y-85058005D01*
X168852510Y-85163314D01*
X169122408Y-85217000D01*
X169397592Y-85217000D01*
X169667490Y-85163314D01*
X169921727Y-85058005D01*
X170150535Y-84905120D01*
X170260000Y-84795655D01*
X170369465Y-84905120D01*
X170598273Y-85058005D01*
X170852510Y-85163314D01*
X171122408Y-85217000D01*
X171397592Y-85217000D01*
X171667490Y-85163314D01*
X171921727Y-85058005D01*
X172150535Y-84905120D01*
X172260000Y-84795655D01*
X172369465Y-84905120D01*
X172598273Y-85058005D01*
X172852510Y-85163314D01*
X173122408Y-85217000D01*
X173397592Y-85217000D01*
X173667490Y-85163314D01*
X173921727Y-85058005D01*
X174015670Y-84995234D01*
X174046815Y-85033185D01*
X174143506Y-85112537D01*
X174253820Y-85171502D01*
X174373518Y-85207812D01*
X174498000Y-85220072D01*
X176022000Y-85220072D01*
X176146482Y-85207812D01*
X176266180Y-85171502D01*
X176376494Y-85112537D01*
X176473185Y-85033185D01*
X176552537Y-84936494D01*
X176611502Y-84826180D01*
X176647812Y-84706482D01*
X176660072Y-84582000D01*
X176660072Y-84328000D01*
X182749928Y-84328000D01*
X182749928Y-85852000D01*
X182762188Y-85976482D01*
X182798498Y-86096180D01*
X182857463Y-86206494D01*
X182936815Y-86303185D01*
X183033506Y-86382537D01*
X183143820Y-86441502D01*
X183263518Y-86477812D01*
X183388000Y-86490072D01*
X184912000Y-86490072D01*
X185036482Y-86477812D01*
X185156180Y-86441502D01*
X185266494Y-86382537D01*
X185363185Y-86303185D01*
X185442537Y-86206494D01*
X185501502Y-86096180D01*
X185537812Y-85976482D01*
X185550072Y-85852000D01*
X185550072Y-84328000D01*
X185537812Y-84203518D01*
X185501502Y-84083820D01*
X185442537Y-83973506D01*
X185363185Y-83876815D01*
X185325234Y-83845670D01*
X185388005Y-83751727D01*
X185493314Y-83497490D01*
X185547000Y-83227592D01*
X185547000Y-82952408D01*
X185493314Y-82682510D01*
X185388005Y-82428273D01*
X185235120Y-82199465D01*
X185125655Y-82090000D01*
X185235120Y-81980535D01*
X185388005Y-81751727D01*
X185493314Y-81497490D01*
X185547000Y-81227592D01*
X185547000Y-80952408D01*
X185493314Y-80682510D01*
X185388005Y-80428273D01*
X185235120Y-80199465D01*
X185125655Y-80090000D01*
X185235120Y-79980535D01*
X185388005Y-79751727D01*
X185493314Y-79497490D01*
X185547000Y-79227592D01*
X185547000Y-78952408D01*
X185493314Y-78682510D01*
X185388005Y-78428273D01*
X185235120Y-78199465D01*
X185040535Y-78004880D01*
X184811727Y-77851995D01*
X184557490Y-77746686D01*
X184287592Y-77693000D01*
X184012408Y-77693000D01*
X183742510Y-77746686D01*
X183488273Y-77851995D01*
X183259465Y-78004880D01*
X183064880Y-78199465D01*
X182911995Y-78428273D01*
X182806686Y-78682510D01*
X182753000Y-78952408D01*
X182753000Y-79227592D01*
X182806686Y-79497490D01*
X182911995Y-79751727D01*
X183064880Y-79980535D01*
X183174345Y-80090000D01*
X183064880Y-80199465D01*
X182911995Y-80428273D01*
X182806686Y-80682510D01*
X182753000Y-80952408D01*
X182753000Y-81227592D01*
X182806686Y-81497490D01*
X182911995Y-81751727D01*
X183064880Y-81980535D01*
X183174345Y-82090000D01*
X183064880Y-82199465D01*
X182911995Y-82428273D01*
X182806686Y-82682510D01*
X182753000Y-82952408D01*
X182753000Y-83227592D01*
X182806686Y-83497490D01*
X182911995Y-83751727D01*
X182974766Y-83845670D01*
X182936815Y-83876815D01*
X182857463Y-83973506D01*
X182798498Y-84083820D01*
X182762188Y-84203518D01*
X182749928Y-84328000D01*
X176660072Y-84328000D01*
X176660072Y-83058000D01*
X176647812Y-82933518D01*
X176611502Y-82813820D01*
X176552537Y-82703506D01*
X176473185Y-82606815D01*
X176376494Y-82527463D01*
X176266180Y-82468498D01*
X176146482Y-82432188D01*
X176022000Y-82419928D01*
X174498000Y-82419928D01*
X174373518Y-82432188D01*
X174253820Y-82468498D01*
X174143506Y-82527463D01*
X174046815Y-82606815D01*
X174015670Y-82644766D01*
X173921727Y-82581995D01*
X173667490Y-82476686D01*
X173397592Y-82423000D01*
X173122408Y-82423000D01*
X172852510Y-82476686D01*
X172598273Y-82581995D01*
X172369465Y-82734880D01*
X172260000Y-82844345D01*
X172150535Y-82734880D01*
X171921727Y-82581995D01*
X171667490Y-82476686D01*
X171397592Y-82423000D01*
X171122408Y-82423000D01*
X170852510Y-82476686D01*
X170598273Y-82581995D01*
X170369465Y-82734880D01*
X170260000Y-82844345D01*
X170150535Y-82734880D01*
X169921727Y-82581995D01*
X169667490Y-82476686D01*
X169397592Y-82423000D01*
X169122408Y-82423000D01*
X168852510Y-82476686D01*
X168598273Y-82581995D01*
X168369465Y-82734880D01*
X168174880Y-82929465D01*
X168021995Y-83158273D01*
X167916686Y-83412510D01*
X167863000Y-83682408D01*
X166585000Y-83682408D01*
X166585000Y-83673740D01*
X166527932Y-83386842D01*
X166415990Y-83116589D01*
X166253475Y-82873368D01*
X166046632Y-82666525D01*
X165872240Y-82550000D01*
X166046632Y-82433475D01*
X166253475Y-82226632D01*
X166415990Y-81983411D01*
X166527932Y-81713158D01*
X166585000Y-81426260D01*
X166585000Y-81133740D01*
X166527932Y-80846842D01*
X166415990Y-80576589D01*
X166253475Y-80333368D01*
X166046632Y-80126525D01*
X165872240Y-80010000D01*
X166046632Y-79893475D01*
X166253475Y-79686632D01*
X166415990Y-79443411D01*
X166527932Y-79173158D01*
X166585000Y-78886260D01*
X166585000Y-78593740D01*
X166527932Y-78306842D01*
X166454708Y-78130061D01*
X176546762Y-78130061D01*
X176546762Y-78333939D01*
X176586536Y-78533898D01*
X176664557Y-78722256D01*
X176777825Y-78891774D01*
X176921988Y-79035937D01*
X177091506Y-79149205D01*
X177279864Y-79227226D01*
X177479823Y-79267000D01*
X177683701Y-79267000D01*
X177883660Y-79227226D01*
X178072018Y-79149205D01*
X178241536Y-79035937D01*
X178385699Y-78891774D01*
X178498967Y-78722256D01*
X178576988Y-78533898D01*
X178616762Y-78333939D01*
X178616762Y-78130061D01*
X178576988Y-77930102D01*
X178498967Y-77741744D01*
X178385699Y-77572226D01*
X178241536Y-77428063D01*
X178072018Y-77314795D01*
X177883660Y-77236774D01*
X177683701Y-77197000D01*
X177479823Y-77197000D01*
X177279864Y-77236774D01*
X177091506Y-77314795D01*
X176921988Y-77428063D01*
X176777825Y-77572226D01*
X176664557Y-77741744D01*
X176586536Y-77930102D01*
X176546762Y-78130061D01*
X166454708Y-78130061D01*
X166415990Y-78036589D01*
X166253475Y-77793368D01*
X166046632Y-77586525D01*
X165872240Y-77470000D01*
X166046632Y-77353475D01*
X166253475Y-77146632D01*
X166415990Y-76903411D01*
X166527932Y-76633158D01*
X166585000Y-76346260D01*
X166585000Y-76062408D01*
X168053000Y-76062408D01*
X168053000Y-76337592D01*
X168106686Y-76607490D01*
X168211995Y-76861727D01*
X168364880Y-77090535D01*
X168559465Y-77285120D01*
X168788273Y-77438005D01*
X169042510Y-77543314D01*
X169312408Y-77597000D01*
X169587592Y-77597000D01*
X169857490Y-77543314D01*
X170111727Y-77438005D01*
X170340535Y-77285120D01*
X170450000Y-77175655D01*
X170559465Y-77285120D01*
X170788273Y-77438005D01*
X171042510Y-77543314D01*
X171312408Y-77597000D01*
X171587592Y-77597000D01*
X171857490Y-77543314D01*
X172111727Y-77438005D01*
X172340535Y-77285120D01*
X172450000Y-77175655D01*
X172559465Y-77285120D01*
X172788273Y-77438005D01*
X173042510Y-77543314D01*
X173312408Y-77597000D01*
X173587592Y-77597000D01*
X173857490Y-77543314D01*
X174111727Y-77438005D01*
X174205670Y-77375234D01*
X174236815Y-77413185D01*
X174333506Y-77492537D01*
X174443820Y-77551502D01*
X174563518Y-77587812D01*
X174688000Y-77600072D01*
X176212000Y-77600072D01*
X176336482Y-77587812D01*
X176456180Y-77551502D01*
X176566494Y-77492537D01*
X176663185Y-77413185D01*
X176742537Y-77316494D01*
X176801502Y-77206180D01*
X176837812Y-77086482D01*
X176850072Y-76962000D01*
X176850072Y-75438000D01*
X176837812Y-75313518D01*
X176801502Y-75193820D01*
X176742537Y-75083506D01*
X176663185Y-74986815D01*
X176566494Y-74907463D01*
X176456180Y-74848498D01*
X176336482Y-74812188D01*
X176212000Y-74799928D01*
X174688000Y-74799928D01*
X174563518Y-74812188D01*
X174443820Y-74848498D01*
X174333506Y-74907463D01*
X174236815Y-74986815D01*
X174205670Y-75024766D01*
X174111727Y-74961995D01*
X173857490Y-74856686D01*
X173587592Y-74803000D01*
X173312408Y-74803000D01*
X173042510Y-74856686D01*
X172788273Y-74961995D01*
X172559465Y-75114880D01*
X172450000Y-75224345D01*
X172340535Y-75114880D01*
X172111727Y-74961995D01*
X171857490Y-74856686D01*
X171587592Y-74803000D01*
X171312408Y-74803000D01*
X171042510Y-74856686D01*
X170788273Y-74961995D01*
X170559465Y-75114880D01*
X170450000Y-75224345D01*
X170340535Y-75114880D01*
X170111727Y-74961995D01*
X169857490Y-74856686D01*
X169587592Y-74803000D01*
X169312408Y-74803000D01*
X169042510Y-74856686D01*
X168788273Y-74961995D01*
X168559465Y-75114880D01*
X168364880Y-75309465D01*
X168211995Y-75538273D01*
X168106686Y-75792510D01*
X168053000Y-76062408D01*
X166585000Y-76062408D01*
X166585000Y-76053740D01*
X166527932Y-75766842D01*
X166415990Y-75496589D01*
X166253475Y-75253368D01*
X166046632Y-75046525D01*
X165872240Y-74930000D01*
X166046632Y-74813475D01*
X166253475Y-74606632D01*
X166415990Y-74363411D01*
X166527932Y-74093158D01*
X166585000Y-73806260D01*
X166585000Y-73513740D01*
X166527932Y-73226842D01*
X166415990Y-72956589D01*
X166253475Y-72713368D01*
X166046632Y-72506525D01*
X165872240Y-72390000D01*
X166046632Y-72273475D01*
X166253475Y-72066632D01*
X166415990Y-71823411D01*
X166496931Y-71628000D01*
X182749928Y-71628000D01*
X182749928Y-73152000D01*
X182762188Y-73276482D01*
X182798498Y-73396180D01*
X182857463Y-73506494D01*
X182936815Y-73603185D01*
X183033506Y-73682537D01*
X183143820Y-73741502D01*
X183263518Y-73777812D01*
X183388000Y-73790072D01*
X184912000Y-73790072D01*
X185036482Y-73777812D01*
X185156180Y-73741502D01*
X185266494Y-73682537D01*
X185363185Y-73603185D01*
X185442537Y-73506494D01*
X185501502Y-73396180D01*
X185537812Y-73276482D01*
X185550072Y-73152000D01*
X185550072Y-71628000D01*
X185537812Y-71503518D01*
X185501502Y-71383820D01*
X185442537Y-71273506D01*
X185363185Y-71176815D01*
X185325234Y-71145670D01*
X185388005Y-71051727D01*
X185493314Y-70797490D01*
X185547000Y-70527592D01*
X185547000Y-70252408D01*
X185493314Y-69982510D01*
X185388005Y-69728273D01*
X185235120Y-69499465D01*
X185125655Y-69390000D01*
X185235120Y-69280535D01*
X185388005Y-69051727D01*
X185493314Y-68797490D01*
X185547000Y-68527592D01*
X185547000Y-68252408D01*
X185493314Y-67982510D01*
X185388005Y-67728273D01*
X185235120Y-67499465D01*
X185125655Y-67390000D01*
X185235120Y-67280535D01*
X185388005Y-67051727D01*
X185493314Y-66797490D01*
X185547000Y-66527592D01*
X185547000Y-66252408D01*
X185493314Y-65982510D01*
X185388005Y-65728273D01*
X185235120Y-65499465D01*
X185040535Y-65304880D01*
X184811727Y-65151995D01*
X184557490Y-65046686D01*
X184287592Y-64993000D01*
X184012408Y-64993000D01*
X183742510Y-65046686D01*
X183488273Y-65151995D01*
X183259465Y-65304880D01*
X183064880Y-65499465D01*
X182911995Y-65728273D01*
X182806686Y-65982510D01*
X182753000Y-66252408D01*
X182753000Y-66527592D01*
X182806686Y-66797490D01*
X182911995Y-67051727D01*
X183064880Y-67280535D01*
X183174345Y-67390000D01*
X183064880Y-67499465D01*
X182911995Y-67728273D01*
X182806686Y-67982510D01*
X182753000Y-68252408D01*
X182753000Y-68527592D01*
X182806686Y-68797490D01*
X182911995Y-69051727D01*
X183064880Y-69280535D01*
X183174345Y-69390000D01*
X183064880Y-69499465D01*
X182911995Y-69728273D01*
X182806686Y-69982510D01*
X182753000Y-70252408D01*
X182753000Y-70527592D01*
X182806686Y-70797490D01*
X182911995Y-71051727D01*
X182974766Y-71145670D01*
X182936815Y-71176815D01*
X182857463Y-71273506D01*
X182798498Y-71383820D01*
X182762188Y-71503518D01*
X182749928Y-71628000D01*
X166496931Y-71628000D01*
X166527932Y-71553158D01*
X166585000Y-71266260D01*
X166585000Y-70973740D01*
X166527932Y-70686842D01*
X166415990Y-70416589D01*
X166253475Y-70173368D01*
X166082168Y-70002061D01*
X171177000Y-70002061D01*
X171177000Y-70205939D01*
X171216774Y-70405898D01*
X171294795Y-70594256D01*
X171408063Y-70763774D01*
X171552226Y-70907937D01*
X171721744Y-71021205D01*
X171910102Y-71099226D01*
X172110061Y-71139000D01*
X172313939Y-71139000D01*
X172513898Y-71099226D01*
X172702256Y-71021205D01*
X172871774Y-70907937D01*
X173015937Y-70763774D01*
X173129205Y-70594256D01*
X173207226Y-70405898D01*
X173247000Y-70205939D01*
X173247000Y-70002061D01*
X173463000Y-70002061D01*
X173463000Y-70205939D01*
X173502774Y-70405898D01*
X173580795Y-70594256D01*
X173694063Y-70763774D01*
X173838226Y-70907937D01*
X174007744Y-71021205D01*
X174196102Y-71099226D01*
X174396061Y-71139000D01*
X174599939Y-71139000D01*
X174799898Y-71099226D01*
X174988256Y-71021205D01*
X175157774Y-70907937D01*
X175301937Y-70763774D01*
X175415205Y-70594256D01*
X175493226Y-70405898D01*
X175533000Y-70205939D01*
X175533000Y-70002061D01*
X175493226Y-69802102D01*
X175415205Y-69613744D01*
X175301937Y-69444226D01*
X175157774Y-69300063D01*
X174988256Y-69186795D01*
X174799898Y-69108774D01*
X174599939Y-69069000D01*
X174396061Y-69069000D01*
X174196102Y-69108774D01*
X174007744Y-69186795D01*
X173838226Y-69300063D01*
X173694063Y-69444226D01*
X173580795Y-69613744D01*
X173502774Y-69802102D01*
X173463000Y-70002061D01*
X173247000Y-70002061D01*
X173207226Y-69802102D01*
X173129205Y-69613744D01*
X173015937Y-69444226D01*
X172871774Y-69300063D01*
X172702256Y-69186795D01*
X172513898Y-69108774D01*
X172313939Y-69069000D01*
X172110061Y-69069000D01*
X171910102Y-69108774D01*
X171721744Y-69186795D01*
X171552226Y-69300063D01*
X171408063Y-69444226D01*
X171294795Y-69613744D01*
X171216774Y-69802102D01*
X171177000Y-70002061D01*
X166082168Y-70002061D01*
X166046632Y-69966525D01*
X165872240Y-69850000D01*
X166046632Y-69733475D01*
X166253475Y-69526632D01*
X166415990Y-69283411D01*
X166527932Y-69013158D01*
X166585000Y-68726260D01*
X166585000Y-68433740D01*
X166527932Y-68146842D01*
X166415990Y-67876589D01*
X166253475Y-67633368D01*
X166046632Y-67426525D01*
X165872240Y-67310000D01*
X166046632Y-67193475D01*
X166253475Y-66986632D01*
X166415990Y-66743411D01*
X166527932Y-66473158D01*
X166585000Y-66186260D01*
X166585000Y-65893740D01*
X166527932Y-65606842D01*
X166415990Y-65336589D01*
X166253475Y-65093368D01*
X166046632Y-64886525D01*
X165872240Y-64770000D01*
X166046632Y-64653475D01*
X166253475Y-64446632D01*
X166415990Y-64203411D01*
X166527932Y-63933158D01*
X166585000Y-63646260D01*
X166585000Y-63398061D01*
X178289000Y-63398061D01*
X178289000Y-63601939D01*
X178328774Y-63801898D01*
X178406795Y-63990256D01*
X178520063Y-64159774D01*
X178664226Y-64303937D01*
X178833744Y-64417205D01*
X179022102Y-64495226D01*
X179222061Y-64535000D01*
X179425939Y-64535000D01*
X179625898Y-64495226D01*
X179814256Y-64417205D01*
X179983774Y-64303937D01*
X180127937Y-64159774D01*
X180241205Y-63990256D01*
X180319226Y-63801898D01*
X180359000Y-63601939D01*
X180359000Y-63398061D01*
X180319226Y-63198102D01*
X180241205Y-63009744D01*
X180127937Y-62840226D01*
X179983774Y-62696063D01*
X179814256Y-62582795D01*
X179625898Y-62504774D01*
X179425939Y-62465000D01*
X179222061Y-62465000D01*
X179022102Y-62504774D01*
X178833744Y-62582795D01*
X178664226Y-62696063D01*
X178520063Y-62840226D01*
X178406795Y-63009744D01*
X178328774Y-63198102D01*
X178289000Y-63398061D01*
X166585000Y-63398061D01*
X166585000Y-63353740D01*
X166527932Y-63066842D01*
X166415990Y-62796589D01*
X166253475Y-62553368D01*
X166046632Y-62346525D01*
X165872240Y-62230000D01*
X166024802Y-62128061D01*
X168129000Y-62128061D01*
X168129000Y-62331939D01*
X168168774Y-62531898D01*
X168246795Y-62720256D01*
X168360063Y-62889774D01*
X168504226Y-63033937D01*
X168673744Y-63147205D01*
X168862102Y-63225226D01*
X169062061Y-63265000D01*
X169265939Y-63265000D01*
X169465898Y-63225226D01*
X169654256Y-63147205D01*
X169823774Y-63033937D01*
X169967937Y-62889774D01*
X170081205Y-62720256D01*
X170159226Y-62531898D01*
X170199000Y-62331939D01*
X170199000Y-62128061D01*
X170159226Y-61928102D01*
X170081205Y-61739744D01*
X169967937Y-61570226D01*
X169823774Y-61426063D01*
X169654256Y-61312795D01*
X169465898Y-61234774D01*
X169265939Y-61195000D01*
X169062061Y-61195000D01*
X168862102Y-61234774D01*
X168673744Y-61312795D01*
X168504226Y-61426063D01*
X168360063Y-61570226D01*
X168246795Y-61739744D01*
X168168774Y-61928102D01*
X168129000Y-62128061D01*
X166024802Y-62128061D01*
X166046632Y-62113475D01*
X166253475Y-61906632D01*
X166415990Y-61663411D01*
X166527932Y-61393158D01*
X166585000Y-61106260D01*
X166585000Y-60813740D01*
X166527932Y-60526842D01*
X166415990Y-60256589D01*
X166253475Y-60013368D01*
X166046632Y-59806525D01*
X165872240Y-59690000D01*
X166046632Y-59573475D01*
X166253475Y-59366632D01*
X166415990Y-59123411D01*
X166527932Y-58853158D01*
X166585000Y-58566260D01*
X166585000Y-58273740D01*
X166527932Y-57986842D01*
X166415990Y-57716589D01*
X166253475Y-57473368D01*
X166046632Y-57266525D01*
X165872240Y-57150000D01*
X166046632Y-57033475D01*
X166253475Y-56826632D01*
X166415990Y-56583411D01*
X166527932Y-56313158D01*
X166585000Y-56026260D01*
X166585000Y-55733740D01*
X166527932Y-55446842D01*
X166415990Y-55176589D01*
X166253475Y-54933368D01*
X166121620Y-54801513D01*
X166194180Y-54779502D01*
X166304494Y-54720537D01*
X166401185Y-54641185D01*
X166480537Y-54544494D01*
X166500011Y-54508061D01*
X178035000Y-54508061D01*
X178035000Y-54711939D01*
X178074774Y-54911898D01*
X178152795Y-55100256D01*
X178249510Y-55245000D01*
X178152795Y-55389744D01*
X178074774Y-55578102D01*
X178035000Y-55778061D01*
X178035000Y-55981939D01*
X178074774Y-56181898D01*
X178152795Y-56370256D01*
X178266063Y-56539774D01*
X178368289Y-56642000D01*
X178266063Y-56744226D01*
X178152795Y-56913744D01*
X178074774Y-57102102D01*
X178035000Y-57302061D01*
X178035000Y-57505939D01*
X178074774Y-57705898D01*
X178152795Y-57894256D01*
X178249510Y-58039000D01*
X178152795Y-58183744D01*
X178074774Y-58372102D01*
X178035000Y-58572061D01*
X178035000Y-58775939D01*
X178074774Y-58975898D01*
X178152795Y-59164256D01*
X178266063Y-59333774D01*
X178410226Y-59477937D01*
X178579744Y-59591205D01*
X178768102Y-59669226D01*
X178968061Y-59709000D01*
X179171939Y-59709000D01*
X179371898Y-59669226D01*
X179560256Y-59591205D01*
X179729774Y-59477937D01*
X179873937Y-59333774D01*
X179987205Y-59164256D01*
X180065226Y-58975898D01*
X180074753Y-58928000D01*
X182749928Y-58928000D01*
X182749928Y-60452000D01*
X182762188Y-60576482D01*
X182798498Y-60696180D01*
X182857463Y-60806494D01*
X182936815Y-60903185D01*
X183033506Y-60982537D01*
X183143820Y-61041502D01*
X183263518Y-61077812D01*
X183388000Y-61090072D01*
X184912000Y-61090072D01*
X185036482Y-61077812D01*
X185156180Y-61041502D01*
X185266494Y-60982537D01*
X185363185Y-60903185D01*
X185442537Y-60806494D01*
X185501502Y-60696180D01*
X185537812Y-60576482D01*
X185550072Y-60452000D01*
X185550072Y-58928000D01*
X185537812Y-58803518D01*
X185501502Y-58683820D01*
X185442537Y-58573506D01*
X185363185Y-58476815D01*
X185325234Y-58445670D01*
X185388005Y-58351727D01*
X185493314Y-58097490D01*
X185547000Y-57827592D01*
X185547000Y-57552408D01*
X185493314Y-57282510D01*
X185388005Y-57028273D01*
X185235120Y-56799465D01*
X185125655Y-56690000D01*
X185235120Y-56580535D01*
X185388005Y-56351727D01*
X185493314Y-56097490D01*
X185547000Y-55827592D01*
X185547000Y-55552408D01*
X185493314Y-55282510D01*
X185388005Y-55028273D01*
X185235120Y-54799465D01*
X185125655Y-54690000D01*
X185235120Y-54580535D01*
X185388005Y-54351727D01*
X185493314Y-54097490D01*
X185547000Y-53827592D01*
X185547000Y-53552408D01*
X185493314Y-53282510D01*
X185388005Y-53028273D01*
X185235120Y-52799465D01*
X185040535Y-52604880D01*
X184811727Y-52451995D01*
X184557490Y-52346686D01*
X184287592Y-52293000D01*
X184012408Y-52293000D01*
X183742510Y-52346686D01*
X183488273Y-52451995D01*
X183259465Y-52604880D01*
X183064880Y-52799465D01*
X182911995Y-53028273D01*
X182806686Y-53282510D01*
X182753000Y-53552408D01*
X182753000Y-53827592D01*
X182806686Y-54097490D01*
X182911995Y-54351727D01*
X183064880Y-54580535D01*
X183174345Y-54690000D01*
X183064880Y-54799465D01*
X182911995Y-55028273D01*
X182806686Y-55282510D01*
X182753000Y-55552408D01*
X182753000Y-55827592D01*
X182806686Y-56097490D01*
X182911995Y-56351727D01*
X183064880Y-56580535D01*
X183174345Y-56690000D01*
X183064880Y-56799465D01*
X182911995Y-57028273D01*
X182806686Y-57282510D01*
X182753000Y-57552408D01*
X182753000Y-57827592D01*
X182806686Y-58097490D01*
X182911995Y-58351727D01*
X182974766Y-58445670D01*
X182936815Y-58476815D01*
X182857463Y-58573506D01*
X182798498Y-58683820D01*
X182762188Y-58803518D01*
X182749928Y-58928000D01*
X180074753Y-58928000D01*
X180105000Y-58775939D01*
X180105000Y-58572061D01*
X180065226Y-58372102D01*
X179987205Y-58183744D01*
X179890490Y-58039000D01*
X179987205Y-57894256D01*
X180065226Y-57705898D01*
X180105000Y-57505939D01*
X180105000Y-57302061D01*
X180065226Y-57102102D01*
X179987205Y-56913744D01*
X179873937Y-56744226D01*
X179771711Y-56642000D01*
X179873937Y-56539774D01*
X179987205Y-56370256D01*
X180065226Y-56181898D01*
X180105000Y-55981939D01*
X180105000Y-55778061D01*
X180065226Y-55578102D01*
X179987205Y-55389744D01*
X179890490Y-55245000D01*
X179987205Y-55100256D01*
X180065226Y-54911898D01*
X180105000Y-54711939D01*
X180105000Y-54508061D01*
X180065226Y-54308102D01*
X179987205Y-54119744D01*
X179873937Y-53950226D01*
X179729774Y-53806063D01*
X179560256Y-53692795D01*
X179371898Y-53614774D01*
X179171939Y-53575000D01*
X178968061Y-53575000D01*
X178768102Y-53614774D01*
X178579744Y-53692795D01*
X178410226Y-53806063D01*
X178266063Y-53950226D01*
X178152795Y-54119744D01*
X178074774Y-54308102D01*
X178035000Y-54508061D01*
X166500011Y-54508061D01*
X166539502Y-54434180D01*
X166575812Y-54314482D01*
X166588072Y-54190000D01*
X166588072Y-52490000D01*
X166575812Y-52365518D01*
X166539502Y-52245820D01*
X166480537Y-52135506D01*
X166401185Y-52038815D01*
X166304494Y-51959463D01*
X166194180Y-51900498D01*
X166074482Y-51864188D01*
X165950000Y-51851928D01*
X164250000Y-51851928D01*
X164125518Y-51864188D01*
X164005820Y-51900498D01*
X163895506Y-51959463D01*
X163798815Y-52038815D01*
X163719463Y-52135506D01*
X163660498Y-52245820D01*
X163624188Y-52365518D01*
X163611928Y-52490000D01*
X158659291Y-52490000D01*
X158680785Y-52457833D01*
X158782928Y-52211239D01*
X158835000Y-51949456D01*
X158835000Y-51682544D01*
X158782928Y-51420761D01*
X158680785Y-51174167D01*
X158532497Y-50952238D01*
X158343762Y-50763503D01*
X158121833Y-50615215D01*
X157875239Y-50513072D01*
X157613456Y-50461000D01*
X157346544Y-50461000D01*
X157084761Y-50513072D01*
X156838167Y-50615215D01*
X156616238Y-50763503D01*
X156427503Y-50952238D01*
X156279215Y-51174167D01*
X156177072Y-51420761D01*
X156125000Y-51682544D01*
X149514434Y-51682544D01*
X149448533Y-51523446D01*
X149028839Y-50895330D01*
X148494670Y-50361161D01*
X148238510Y-50190000D01*
X206091490Y-50190000D01*
X205835330Y-50361161D01*
G37*
%TD.AperFunction*%
%TD*%
M02*
