%TF.GenerationSoftware,KiCad,Pcbnew,5.1.10-88a1d61d58~88~ubuntu20.04.1*%
%TF.CreationDate,2021-05-09T16:45:47+02:00*%
%TF.ProjectId,Control_board,436f6e74-726f-46c5-9f62-6f6172642e6b,rev?*%
%TF.SameCoordinates,Original*%
%TF.FileFunction,Legend,Top*%
%TF.FilePolarity,Positive*%
%FSLAX46Y46*%
G04 Gerber Fmt 4.6, Leading zero omitted, Abs format (unit mm)*
G04 Created by KiCad (PCBNEW 5.1.10-88a1d61d58~88~ubuntu20.04.1) date 2021-05-09 16:45:47*
%MOMM*%
%LPD*%
G01*
G04 APERTURE LIST*
%ADD10C,0.150000*%
%ADD11C,0.120000*%
G04 APERTURE END LIST*
D10*
X181570285Y-51474952D02*
X181284571Y-50713047D01*
X180998857Y-51474952D01*
X181284571Y-51951142D02*
X181284571Y-52713047D01*
X181903619Y-53951142D02*
X181094095Y-53951142D01*
X180998857Y-53998761D01*
X180951238Y-54046380D01*
X180903619Y-54141619D01*
X180903619Y-54332095D01*
X180951238Y-54427333D01*
X180998857Y-54474952D01*
X181094095Y-54522571D01*
X181903619Y-54522571D01*
X180951238Y-54951142D02*
X180903619Y-55094000D01*
X180903619Y-55332095D01*
X180951238Y-55427333D01*
X180998857Y-55474952D01*
X181094095Y-55522571D01*
X181189333Y-55522571D01*
X181284571Y-55474952D01*
X181332190Y-55427333D01*
X181379809Y-55332095D01*
X181427428Y-55141619D01*
X181475047Y-55046380D01*
X181522666Y-54998761D01*
X181617904Y-54951142D01*
X181713142Y-54951142D01*
X181808380Y-54998761D01*
X181856000Y-55046380D01*
X181903619Y-55141619D01*
X181903619Y-55379714D01*
X181856000Y-55522571D01*
X181427428Y-56284476D02*
X181379809Y-56427333D01*
X181332190Y-56474952D01*
X181236952Y-56522571D01*
X181094095Y-56522571D01*
X180998857Y-56474952D01*
X180951238Y-56427333D01*
X180903619Y-56332095D01*
X180903619Y-55951142D01*
X181903619Y-55951142D01*
X181903619Y-56284476D01*
X181856000Y-56379714D01*
X181808380Y-56427333D01*
X181713142Y-56474952D01*
X181617904Y-56474952D01*
X181522666Y-56427333D01*
X181475047Y-56379714D01*
X181427428Y-56284476D01*
X181427428Y-55951142D01*
X157411782Y-82649712D02*
X158059145Y-82347842D01*
X158208742Y-82330625D01*
X158335306Y-82376691D01*
X158438838Y-82486039D01*
X158479087Y-82572354D01*
X157915596Y-81363944D02*
X158116843Y-81795519D01*
X157210535Y-82218137D01*
X157446912Y-80584200D02*
X157510194Y-80607233D01*
X157613726Y-80716581D01*
X157653975Y-80802896D01*
X157671192Y-80952493D01*
X157625126Y-81079058D01*
X157558936Y-81162464D01*
X157406430Y-81286121D01*
X157276958Y-81346495D01*
X157084203Y-81383836D01*
X156977763Y-81380928D01*
X156851199Y-81334862D01*
X156747668Y-81225514D01*
X156707418Y-81139199D01*
X156690202Y-80989602D01*
X156713235Y-80926320D01*
X156325049Y-80319206D02*
X156972412Y-80017336D01*
X157122009Y-80000120D01*
X157248574Y-80046185D01*
X157352105Y-80155533D01*
X157392355Y-80241848D01*
X156828863Y-79033438D02*
X157030110Y-79465013D01*
X156123803Y-79887631D01*
X156360180Y-78253694D02*
X156423462Y-78276727D01*
X156526993Y-78386075D01*
X156567243Y-78472390D01*
X156584459Y-78621987D01*
X156538394Y-78748552D01*
X156472203Y-78831959D01*
X156319698Y-78955615D01*
X156190225Y-79015989D01*
X155997471Y-79053330D01*
X155891031Y-79050422D01*
X155764466Y-79004356D01*
X155660935Y-78895008D01*
X155620686Y-78808693D01*
X155603469Y-78659096D01*
X155626502Y-78595814D01*
X155238317Y-77988701D02*
X155885679Y-77686830D01*
X156035277Y-77669614D01*
X156161841Y-77715680D01*
X156265372Y-77825027D01*
X156305622Y-77911343D01*
X155742131Y-76702932D02*
X155943378Y-77134507D01*
X155037070Y-77557126D01*
X155273447Y-75923189D02*
X155336729Y-75946222D01*
X155440261Y-76055569D01*
X155480510Y-76141884D01*
X155497727Y-76291482D01*
X155451661Y-76418046D01*
X155385471Y-76501453D01*
X155232965Y-76625109D01*
X155103493Y-76685483D01*
X154910738Y-76722824D01*
X154804298Y-76719916D01*
X154677734Y-76673851D01*
X154574202Y-76564503D01*
X154533953Y-76478188D01*
X154516736Y-76328590D01*
X154539769Y-76265308D01*
X154151584Y-75658195D02*
X154798947Y-75356325D01*
X154948544Y-75339108D01*
X155075108Y-75385174D01*
X155178640Y-75494522D01*
X155218889Y-75580837D01*
X154655398Y-74372426D02*
X154856645Y-74804002D01*
X153950337Y-75226620D01*
X154186714Y-73592683D02*
X154249996Y-73615716D01*
X154353528Y-73725064D01*
X154393777Y-73811379D01*
X154410994Y-73960976D01*
X154364928Y-74087540D01*
X154298738Y-74170947D01*
X154146232Y-74294603D01*
X154016760Y-74354977D01*
X153824005Y-74392319D01*
X153717565Y-74389411D01*
X153591001Y-74343345D01*
X153487470Y-74233997D01*
X153447220Y-74147682D01*
X153430004Y-73998085D01*
X153453036Y-73934803D01*
D11*
X153466800Y-59690000D02*
G75*
G03*
X153466800Y-59690000I-50800J0D01*
G01*
%TO.C,RV1*%
X152345000Y-49471000D02*
X162615000Y-49471000D01*
X152345000Y-59241000D02*
X162615000Y-59241000D01*
X152345000Y-49471000D02*
X152345000Y-59241000D01*
X162615000Y-49471000D02*
X162615000Y-59241000D01*
X150825000Y-49647000D02*
X152344000Y-49647000D01*
X150825000Y-52076000D02*
X152344000Y-52076000D01*
X150825000Y-49647000D02*
X150825000Y-52076000D01*
X152344000Y-49647000D02*
X152344000Y-52076000D01*
X150825000Y-50861000D02*
X151584000Y-50861000D01*
%TO.C,R3*%
X198007500Y-69643258D02*
X198007500Y-69168742D01*
X196962500Y-69643258D02*
X196962500Y-69168742D01*
%TO.C,C1*%
X161578500Y-94541000D02*
X161578500Y-90591000D01*
X161578500Y-84021000D02*
X161578500Y-87971000D01*
X152122937Y-84021000D02*
X161578500Y-84021000D01*
X152122937Y-94541000D02*
X161578500Y-94541000D01*
X151058500Y-93476563D02*
X151058500Y-90591000D01*
X151058500Y-85085437D02*
X151058500Y-87971000D01*
X151058500Y-85085437D02*
X152122937Y-84021000D01*
X151058500Y-93476563D02*
X152122937Y-94541000D01*
%TO.C,C2*%
X147727580Y-68070000D02*
X147446420Y-68070000D01*
X147727580Y-69090000D02*
X147446420Y-69090000D01*
%TO.C,C3*%
X161515000Y-74036437D02*
X160450563Y-72972000D01*
X161515000Y-82427563D02*
X160450563Y-83492000D01*
X161515000Y-82427563D02*
X161515000Y-79542000D01*
X161515000Y-74036437D02*
X161515000Y-76922000D01*
X160450563Y-72972000D02*
X150995000Y-72972000D01*
X160450563Y-83492000D02*
X150995000Y-83492000D01*
X150995000Y-83492000D02*
X150995000Y-79542000D01*
X150995000Y-72972000D02*
X150995000Y-76922000D01*
%TO.C,C4*%
X170080000Y-70538748D02*
X170080000Y-71061252D01*
X171550000Y-70538748D02*
X171550000Y-71061252D01*
%TO.C,D1*%
X145670000Y-67376000D02*
X148970000Y-67376000D01*
X148970000Y-67376000D02*
X148970000Y-61976000D01*
X145670000Y-67376000D02*
X145670000Y-61976000D01*
%TO.C,D2*%
X147194000Y-87220000D02*
X150494000Y-87220000D01*
X150494000Y-87220000D02*
X150494000Y-81820000D01*
X147194000Y-87220000D02*
X147194000Y-81820000D01*
%TO.C,D3*%
X196188000Y-70243500D02*
X196188000Y-67958500D01*
X196188000Y-67958500D02*
X194718000Y-67958500D01*
X194718000Y-67958500D02*
X194718000Y-70243500D01*
%TO.C,D4*%
X206120000Y-65180000D02*
X202820000Y-65180000D01*
X202820000Y-65180000D02*
X202820000Y-70580000D01*
X206120000Y-65180000D02*
X206120000Y-70580000D01*
%TO.C,D5*%
X194718000Y-60338500D02*
X194718000Y-62623500D01*
X196188000Y-60338500D02*
X194718000Y-60338500D01*
X196188000Y-62623500D02*
X196188000Y-60338500D01*
%TO.C,D6*%
X206120000Y-57465000D02*
X206120000Y-62865000D01*
X202820000Y-57465000D02*
X202820000Y-62865000D01*
X206120000Y-57465000D02*
X202820000Y-57465000D01*
%TO.C,D7*%
X194718000Y-75578500D02*
X194718000Y-77863500D01*
X196188000Y-75578500D02*
X194718000Y-75578500D01*
X196188000Y-77863500D02*
X196188000Y-75578500D01*
%TO.C,D8*%
X206120000Y-72705000D02*
X206120000Y-78105000D01*
X202820000Y-72705000D02*
X202820000Y-78105000D01*
X206120000Y-72705000D02*
X202820000Y-72705000D01*
%TO.C,D9*%
X207775000Y-87375000D02*
X202375000Y-87375000D01*
X207775000Y-84075000D02*
X202375000Y-84075000D01*
X207775000Y-87375000D02*
X207775000Y-84075000D01*
%TO.C,F1*%
X205623752Y-80205000D02*
X202851248Y-80205000D01*
X205623752Y-83625000D02*
X202851248Y-83625000D01*
%TO.C,J10*%
X191830000Y-87630000D02*
X189170000Y-87630000D01*
X191830000Y-87630000D02*
X191830000Y-52010000D01*
X191830000Y-52010000D02*
X189170000Y-52010000D01*
X189170000Y-87630000D02*
X189170000Y-52010000D01*
X189170000Y-90230000D02*
X189170000Y-88900000D01*
X190500000Y-90230000D02*
X189170000Y-90230000D01*
%TO.C,J11*%
X165100000Y-52010000D02*
X166430000Y-52010000D01*
X166430000Y-52010000D02*
X166430000Y-53340000D01*
X166430000Y-54610000D02*
X166430000Y-90230000D01*
X163770000Y-90230000D02*
X166430000Y-90230000D01*
X163770000Y-54610000D02*
X163770000Y-90230000D01*
X163770000Y-54610000D02*
X166430000Y-54610000D01*
%TO.C,Q1*%
X202113000Y-68455000D02*
X201183000Y-68455000D01*
X198953000Y-68455000D02*
X199883000Y-68455000D01*
X198953000Y-68455000D02*
X198953000Y-70615000D01*
X202113000Y-68455000D02*
X202113000Y-69915000D01*
%TO.C,Q2*%
X202179000Y-60851000D02*
X202179000Y-62311000D01*
X199019000Y-60851000D02*
X199019000Y-63011000D01*
X199019000Y-60851000D02*
X199949000Y-60851000D01*
X202179000Y-60851000D02*
X201249000Y-60851000D01*
%TO.C,Q3*%
X202113000Y-76059000D02*
X202113000Y-77519000D01*
X198953000Y-76059000D02*
X198953000Y-78219000D01*
X198953000Y-76059000D02*
X199883000Y-76059000D01*
X202113000Y-76059000D02*
X201183000Y-76059000D01*
%TO.C,R1*%
X144700258Y-68057500D02*
X144225742Y-68057500D01*
X144700258Y-69102500D02*
X144225742Y-69102500D01*
%TO.C,R2*%
X194801258Y-66533500D02*
X194326742Y-66533500D01*
X194801258Y-67578500D02*
X194326742Y-67578500D01*
%TO.C,R4*%
X194801258Y-59958500D02*
X194326742Y-59958500D01*
X194801258Y-58913500D02*
X194326742Y-58913500D01*
%TO.C,R5*%
X198007500Y-62023258D02*
X198007500Y-61548742D01*
X196962500Y-62023258D02*
X196962500Y-61548742D01*
%TO.C,R6*%
X194801258Y-75198500D02*
X194326742Y-75198500D01*
X194801258Y-74153500D02*
X194326742Y-74153500D01*
%TO.C,R7*%
X196962500Y-77263258D02*
X196962500Y-76788742D01*
X198007500Y-77263258D02*
X198007500Y-76788742D01*
%TO.C,R8*%
X181990000Y-58573641D02*
X181990000Y-58266359D01*
X181230000Y-58573641D02*
X181230000Y-58266359D01*
%TO.C,R9*%
X181990000Y-71783641D02*
X181990000Y-71476359D01*
X181230000Y-71783641D02*
X181230000Y-71476359D01*
%TO.C,R10*%
X182625000Y-83463641D02*
X182625000Y-83156359D01*
X181865000Y-83463641D02*
X181865000Y-83156359D01*
%TO.C,R11*%
X173608000Y-81124359D02*
X173608000Y-81431641D01*
X172848000Y-81124359D02*
X172848000Y-81431641D01*
%TO.C,R12*%
X171576000Y-81128359D02*
X171576000Y-81435641D01*
X170816000Y-81128359D02*
X170816000Y-81435641D01*
%TO.C,U1*%
X148864000Y-73152000D02*
X148864000Y-69702000D01*
X148864000Y-73152000D02*
X148864000Y-75102000D01*
X143744000Y-73152000D02*
X143744000Y-71202000D01*
X143744000Y-73152000D02*
X143744000Y-75102000D01*
%TO.C,U2*%
X176745000Y-62640000D02*
X176745000Y-63740000D01*
X178555000Y-62640000D02*
X176745000Y-62640000D01*
X178555000Y-61140000D02*
X178555000Y-62640000D01*
X169965000Y-62640000D02*
X169965000Y-67765000D01*
X168155000Y-62640000D02*
X169965000Y-62640000D01*
X168155000Y-61140000D02*
X168155000Y-62640000D01*
%TO.C,C5*%
X176630000Y-70363748D02*
X176630000Y-70886252D01*
X175160000Y-70363748D02*
X175160000Y-70886252D01*
%TO.C,C6*%
X163948164Y-50440000D02*
X164163836Y-50440000D01*
X163948164Y-51160000D02*
X164163836Y-51160000D01*
%TO.C,L1*%
X161080000Y-66040000D02*
G75*
G03*
X161080000Y-66040000I-5000000J0D01*
G01*
D10*
X155913333Y-58872380D02*
X155437142Y-58872380D01*
X155437142Y-57872380D01*
X156770476Y-58872380D02*
X156199047Y-58872380D01*
X156484761Y-58872380D02*
X156484761Y-57872380D01*
X156389523Y-58015238D01*
X156294285Y-58110476D01*
X156199047Y-58158095D01*
%TD*%
M02*
