%TF.GenerationSoftware,KiCad,Pcbnew,5.1.10-88a1d61d58~88~ubuntu20.04.1*%
%TF.CreationDate,2021-05-09T16:45:47+02:00*%
%TF.ProjectId,Control_board,436f6e74-726f-46c5-9f62-6f6172642e6b,rev?*%
%TF.SameCoordinates,Original*%
%TF.FileFunction,Legend,Bot*%
%TF.FilePolarity,Positive*%
%FSLAX46Y46*%
G04 Gerber Fmt 4.6, Leading zero omitted, Abs format (unit mm)*
G04 Created by KiCad (PCBNEW 5.1.10-88a1d61d58~88~ubuntu20.04.1) date 2021-05-09 16:45:47*
%MOMM*%
%LPD*%
G01*
G04 APERTURE LIST*
%ADD10C,0.150000*%
%ADD11C,0.120000*%
%ADD12C,0.100000*%
%ADD13C,0.300000*%
G04 APERTURE END LIST*
D10*
X157614428Y-83455595D02*
X157614428Y-83122261D01*
X157090619Y-82979404D02*
X157090619Y-83455595D01*
X158090619Y-83455595D01*
X158090619Y-82979404D01*
X157138238Y-82598452D02*
X157090619Y-82455595D01*
X157090619Y-82217500D01*
X157138238Y-82122261D01*
X157185857Y-82074642D01*
X157281095Y-82027023D01*
X157376333Y-82027023D01*
X157471571Y-82074642D01*
X157519190Y-82122261D01*
X157566809Y-82217500D01*
X157614428Y-82407976D01*
X157662047Y-82503214D01*
X157709666Y-82550833D01*
X157804904Y-82598452D01*
X157900142Y-82598452D01*
X157995380Y-82550833D01*
X158043000Y-82503214D01*
X158090619Y-82407976D01*
X158090619Y-82169880D01*
X158043000Y-82027023D01*
X157090619Y-81598452D02*
X158090619Y-81598452D01*
X158090619Y-81217500D01*
X158043000Y-81122261D01*
X157995380Y-81074642D01*
X157900142Y-81027023D01*
X157757285Y-81027023D01*
X157662047Y-81074642D01*
X157614428Y-81122261D01*
X157566809Y-81217500D01*
X157566809Y-81598452D01*
X158090619Y-80693690D02*
X158090619Y-80074642D01*
X157709666Y-80407976D01*
X157709666Y-80265119D01*
X157662047Y-80169880D01*
X157614428Y-80122261D01*
X157519190Y-80074642D01*
X157281095Y-80074642D01*
X157185857Y-80122261D01*
X157138238Y-80169880D01*
X157090619Y-80265119D01*
X157090619Y-80550833D01*
X157138238Y-80646071D01*
X157185857Y-80693690D01*
X157995380Y-79693690D02*
X158043000Y-79646071D01*
X158090619Y-79550833D01*
X158090619Y-79312738D01*
X158043000Y-79217500D01*
X157995380Y-79169880D01*
X157900142Y-79122261D01*
X157804904Y-79122261D01*
X157662047Y-79169880D01*
X157090619Y-79741309D01*
X157090619Y-79122261D01*
X157090619Y-77931785D02*
X158090619Y-77931785D01*
X158090619Y-77693690D01*
X158043000Y-77550833D01*
X157947761Y-77455595D01*
X157852523Y-77407976D01*
X157662047Y-77360357D01*
X157519190Y-77360357D01*
X157328714Y-77407976D01*
X157233476Y-77455595D01*
X157138238Y-77550833D01*
X157090619Y-77693690D01*
X157090619Y-77931785D01*
X157138238Y-76550833D02*
X157090619Y-76646071D01*
X157090619Y-76836547D01*
X157138238Y-76931785D01*
X157233476Y-76979404D01*
X157614428Y-76979404D01*
X157709666Y-76931785D01*
X157757285Y-76836547D01*
X157757285Y-76646071D01*
X157709666Y-76550833D01*
X157614428Y-76503214D01*
X157519190Y-76503214D01*
X157423952Y-76979404D01*
X157757285Y-76169880D02*
X157090619Y-75931785D01*
X157757285Y-75693690D01*
X157090619Y-75312738D02*
X158090619Y-75312738D01*
X157471571Y-75217500D02*
X157090619Y-74931785D01*
X157757285Y-74931785D02*
X157376333Y-75312738D01*
X157090619Y-74503214D02*
X157757285Y-74503214D01*
X158090619Y-74503214D02*
X158043000Y-74550833D01*
X157995380Y-74503214D01*
X158043000Y-74455595D01*
X158090619Y-74503214D01*
X157995380Y-74503214D01*
X157757285Y-74169880D02*
X157757285Y-73788928D01*
X158090619Y-74027023D02*
X157233476Y-74027023D01*
X157138238Y-73979404D01*
X157090619Y-73884166D01*
X157090619Y-73788928D01*
X157757285Y-72788928D02*
X157090619Y-72550833D01*
X157757285Y-72312738D01*
X157090619Y-71407976D02*
X157090619Y-71979404D01*
X157090619Y-71693690D02*
X158090619Y-71693690D01*
X157947761Y-71788928D01*
X157852523Y-71884166D01*
X157804904Y-71979404D01*
X155964428Y-85265119D02*
X155964428Y-85598452D01*
X155440619Y-85598452D02*
X156440619Y-85598452D01*
X156440619Y-85122261D01*
X156107285Y-84312738D02*
X155440619Y-84312738D01*
X156107285Y-84741309D02*
X155583476Y-84741309D01*
X155488238Y-84693690D01*
X155440619Y-84598452D01*
X155440619Y-84455595D01*
X155488238Y-84360357D01*
X155535857Y-84312738D01*
X156107285Y-83836547D02*
X155440619Y-83836547D01*
X156012047Y-83836547D02*
X156059666Y-83788928D01*
X156107285Y-83693690D01*
X156107285Y-83550833D01*
X156059666Y-83455595D01*
X155964428Y-83407976D01*
X155440619Y-83407976D01*
X155488238Y-82503214D02*
X155440619Y-82598452D01*
X155440619Y-82788928D01*
X155488238Y-82884166D01*
X155535857Y-82931785D01*
X155631095Y-82979404D01*
X155916809Y-82979404D01*
X156012047Y-82931785D01*
X156059666Y-82884166D01*
X156107285Y-82788928D01*
X156107285Y-82598452D01*
X156059666Y-82503214D01*
X156107285Y-82217500D02*
X156107285Y-81836547D01*
X156440619Y-82074642D02*
X155583476Y-82074642D01*
X155488238Y-82027023D01*
X155440619Y-81931785D01*
X155440619Y-81836547D01*
X155440619Y-81503214D02*
X156107285Y-81503214D01*
X156440619Y-81503214D02*
X156393000Y-81550833D01*
X156345380Y-81503214D01*
X156393000Y-81455595D01*
X156440619Y-81503214D01*
X156345380Y-81503214D01*
X155440619Y-80884166D02*
X155488238Y-80979404D01*
X155535857Y-81027023D01*
X155631095Y-81074642D01*
X155916809Y-81074642D01*
X156012047Y-81027023D01*
X156059666Y-80979404D01*
X156107285Y-80884166D01*
X156107285Y-80741309D01*
X156059666Y-80646071D01*
X156012047Y-80598452D01*
X155916809Y-80550833D01*
X155631095Y-80550833D01*
X155535857Y-80598452D01*
X155488238Y-80646071D01*
X155440619Y-80741309D01*
X155440619Y-80884166D01*
X156107285Y-80122261D02*
X155440619Y-80122261D01*
X156012047Y-80122261D02*
X156059666Y-80074642D01*
X156107285Y-79979404D01*
X156107285Y-79836547D01*
X156059666Y-79741309D01*
X155964428Y-79693690D01*
X155440619Y-79693690D01*
X155440619Y-78788928D02*
X155964428Y-78788928D01*
X156059666Y-78836547D01*
X156107285Y-78931785D01*
X156107285Y-79122261D01*
X156059666Y-79217500D01*
X155488238Y-78788928D02*
X155440619Y-78884166D01*
X155440619Y-79122261D01*
X155488238Y-79217500D01*
X155583476Y-79265119D01*
X155678714Y-79265119D01*
X155773952Y-79217500D01*
X155821571Y-79122261D01*
X155821571Y-78884166D01*
X155869190Y-78788928D01*
X155440619Y-78169880D02*
X155488238Y-78265119D01*
X155583476Y-78312738D01*
X156440619Y-78312738D01*
X155440619Y-77788928D02*
X156107285Y-77788928D01*
X156440619Y-77788928D02*
X156393000Y-77836547D01*
X156345380Y-77788928D01*
X156393000Y-77741309D01*
X156440619Y-77788928D01*
X156345380Y-77788928D01*
X156107285Y-77455595D02*
X156107285Y-77074642D01*
X156440619Y-77312738D02*
X155583476Y-77312738D01*
X155488238Y-77265119D01*
X155440619Y-77169880D01*
X155440619Y-77074642D01*
X156107285Y-76836547D02*
X155440619Y-76598452D01*
X156107285Y-76360357D02*
X155440619Y-76598452D01*
X155202523Y-76693690D01*
X155154904Y-76741309D01*
X155107285Y-76836547D01*
X155440619Y-75217500D02*
X156440619Y-75217500D01*
X156059666Y-75217500D02*
X156107285Y-75122261D01*
X156107285Y-74931785D01*
X156059666Y-74836547D01*
X156012047Y-74788928D01*
X155916809Y-74741309D01*
X155631095Y-74741309D01*
X155535857Y-74788928D01*
X155488238Y-74836547D01*
X155440619Y-74931785D01*
X155440619Y-75122261D01*
X155488238Y-75217500D01*
X155440619Y-74169880D02*
X155488238Y-74265119D01*
X155535857Y-74312738D01*
X155631095Y-74360357D01*
X155916809Y-74360357D01*
X156012047Y-74312738D01*
X156059666Y-74265119D01*
X156107285Y-74169880D01*
X156107285Y-74027023D01*
X156059666Y-73931785D01*
X156012047Y-73884166D01*
X155916809Y-73836547D01*
X155631095Y-73836547D01*
X155535857Y-73884166D01*
X155488238Y-73931785D01*
X155440619Y-74027023D01*
X155440619Y-74169880D01*
X155440619Y-72979404D02*
X155964428Y-72979404D01*
X156059666Y-73027023D01*
X156107285Y-73122261D01*
X156107285Y-73312738D01*
X156059666Y-73407976D01*
X155488238Y-72979404D02*
X155440619Y-73074642D01*
X155440619Y-73312738D01*
X155488238Y-73407976D01*
X155583476Y-73455595D01*
X155678714Y-73455595D01*
X155773952Y-73407976D01*
X155821571Y-73312738D01*
X155821571Y-73074642D01*
X155869190Y-72979404D01*
X155440619Y-72503214D02*
X156107285Y-72503214D01*
X155916809Y-72503214D02*
X156012047Y-72455595D01*
X156059666Y-72407976D01*
X156107285Y-72312738D01*
X156107285Y-72217500D01*
X155440619Y-71455595D02*
X156440619Y-71455595D01*
X155488238Y-71455595D02*
X155440619Y-71550833D01*
X155440619Y-71741309D01*
X155488238Y-71836547D01*
X155535857Y-71884166D01*
X155631095Y-71931785D01*
X155916809Y-71931785D01*
X156012047Y-71884166D01*
X156059666Y-71836547D01*
X156107285Y-71741309D01*
X156107285Y-71550833D01*
X156059666Y-71455595D01*
X198941428Y-70429285D02*
X198941428Y-69500714D01*
X198370000Y-70000714D01*
X198370000Y-69786428D01*
X198298571Y-69643571D01*
X198227142Y-69572142D01*
X198084285Y-69500714D01*
X197727142Y-69500714D01*
X197584285Y-69572142D01*
X197512857Y-69643571D01*
X197441428Y-69786428D01*
X197441428Y-70215000D01*
X197512857Y-70357857D01*
X197584285Y-70429285D01*
X198941428Y-68215000D02*
X198941428Y-68500714D01*
X198870000Y-68643571D01*
X198798571Y-68715000D01*
X198584285Y-68857857D01*
X198298571Y-68929285D01*
X197727142Y-68929285D01*
X197584285Y-68857857D01*
X197512857Y-68786428D01*
X197441428Y-68643571D01*
X197441428Y-68357857D01*
X197512857Y-68215000D01*
X197584285Y-68143571D01*
X197727142Y-68072142D01*
X198084285Y-68072142D01*
X198227142Y-68143571D01*
X198298571Y-68215000D01*
X198370000Y-68357857D01*
X198370000Y-68643571D01*
X198298571Y-68786428D01*
X198227142Y-68857857D01*
X198084285Y-68929285D01*
X198941428Y-62809285D02*
X198941428Y-61880714D01*
X198370000Y-62380714D01*
X198370000Y-62166428D01*
X198298571Y-62023571D01*
X198227142Y-61952142D01*
X198084285Y-61880714D01*
X197727142Y-61880714D01*
X197584285Y-61952142D01*
X197512857Y-62023571D01*
X197441428Y-62166428D01*
X197441428Y-62595000D01*
X197512857Y-62737857D01*
X197584285Y-62809285D01*
X198441428Y-60595000D02*
X197441428Y-60595000D01*
X199012857Y-60952142D02*
X197941428Y-61309285D01*
X197941428Y-60380714D01*
X198941428Y-54554285D02*
X198941428Y-53625714D01*
X198370000Y-54125714D01*
X198370000Y-53911428D01*
X198298571Y-53768571D01*
X198227142Y-53697142D01*
X198084285Y-53625714D01*
X197727142Y-53625714D01*
X197584285Y-53697142D01*
X197512857Y-53768571D01*
X197441428Y-53911428D01*
X197441428Y-54340000D01*
X197512857Y-54482857D01*
X197584285Y-54554285D01*
X198941428Y-52268571D02*
X198941428Y-52982857D01*
X198227142Y-53054285D01*
X198298571Y-52982857D01*
X198370000Y-52840000D01*
X198370000Y-52482857D01*
X198298571Y-52340000D01*
X198227142Y-52268571D01*
X198084285Y-52197142D01*
X197727142Y-52197142D01*
X197584285Y-52268571D01*
X197512857Y-52340000D01*
X197441428Y-52482857D01*
X197441428Y-52840000D01*
X197512857Y-52982857D01*
X197584285Y-53054285D01*
X204215952Y-67381428D02*
X203454047Y-67381428D01*
X203835000Y-67762380D02*
X203835000Y-67000476D01*
X204215952Y-75001428D02*
X203454047Y-75001428D01*
X203835000Y-75382380D02*
X203835000Y-74620476D01*
X204215952Y-59761428D02*
X203454047Y-59761428D01*
X203835000Y-60142380D02*
X203835000Y-59380476D01*
X203906428Y-77089047D02*
X203906428Y-77850952D01*
X203906428Y-69469047D02*
X203906428Y-70230952D01*
X203906428Y-61849047D02*
X203906428Y-62610952D01*
X200207619Y-69834047D02*
X200207619Y-70405476D01*
X200207619Y-70119761D02*
X201207619Y-70119761D01*
X201064761Y-70215000D01*
X200969523Y-70310238D01*
X200921904Y-70405476D01*
X201112380Y-69453095D02*
X201160000Y-69405476D01*
X201207619Y-69310238D01*
X201207619Y-69072142D01*
X201160000Y-68976904D01*
X201112380Y-68929285D01*
X201017142Y-68881666D01*
X200921904Y-68881666D01*
X200779047Y-68929285D01*
X200207619Y-69500714D01*
X200207619Y-68881666D01*
X201207619Y-68595952D02*
X200207619Y-68262619D01*
X201207619Y-67929285D01*
X196032380Y-70405476D02*
X196080000Y-70357857D01*
X196127619Y-70262619D01*
X196127619Y-70024523D01*
X196080000Y-69929285D01*
X196032380Y-69881666D01*
X195937142Y-69834047D01*
X195841904Y-69834047D01*
X195699047Y-69881666D01*
X195127619Y-70453095D01*
X195127619Y-69834047D01*
X195794285Y-68976904D02*
X195127619Y-68976904D01*
X196175238Y-69215000D02*
X195460952Y-69453095D01*
X195460952Y-68834047D01*
X196127619Y-68595952D02*
X195127619Y-68262619D01*
X196127619Y-67929285D01*
X200207619Y-62214047D02*
X200207619Y-62785476D01*
X200207619Y-62499761D02*
X201207619Y-62499761D01*
X201064761Y-62595000D01*
X200969523Y-62690238D01*
X200921904Y-62785476D01*
X201112380Y-61833095D02*
X201160000Y-61785476D01*
X201207619Y-61690238D01*
X201207619Y-61452142D01*
X201160000Y-61356904D01*
X201112380Y-61309285D01*
X201017142Y-61261666D01*
X200921904Y-61261666D01*
X200779047Y-61309285D01*
X200207619Y-61880714D01*
X200207619Y-61261666D01*
X201207619Y-60975952D02*
X200207619Y-60642619D01*
X201207619Y-60309285D01*
X196032380Y-62785476D02*
X196080000Y-62737857D01*
X196127619Y-62642619D01*
X196127619Y-62404523D01*
X196080000Y-62309285D01*
X196032380Y-62261666D01*
X195937142Y-62214047D01*
X195841904Y-62214047D01*
X195699047Y-62261666D01*
X195127619Y-62833095D01*
X195127619Y-62214047D01*
X195794285Y-61356904D02*
X195127619Y-61356904D01*
X196175238Y-61595000D02*
X195460952Y-61833095D01*
X195460952Y-61214047D01*
X196127619Y-60975952D02*
X195127619Y-60642619D01*
X196127619Y-60309285D01*
X196032380Y-54530476D02*
X196080000Y-54482857D01*
X196127619Y-54387619D01*
X196127619Y-54149523D01*
X196080000Y-54054285D01*
X196032380Y-54006666D01*
X195937142Y-53959047D01*
X195841904Y-53959047D01*
X195699047Y-54006666D01*
X195127619Y-54578095D01*
X195127619Y-53959047D01*
X195794285Y-53101904D02*
X195127619Y-53101904D01*
X196175238Y-53340000D02*
X195460952Y-53578095D01*
X195460952Y-52959047D01*
X196127619Y-52720952D02*
X195127619Y-52387619D01*
X196127619Y-52054285D01*
X200207619Y-53959047D02*
X200207619Y-54530476D01*
X200207619Y-54244761D02*
X201207619Y-54244761D01*
X201064761Y-54340000D01*
X200969523Y-54435238D01*
X200921904Y-54530476D01*
X201112380Y-53578095D02*
X201160000Y-53530476D01*
X201207619Y-53435238D01*
X201207619Y-53197142D01*
X201160000Y-53101904D01*
X201112380Y-53054285D01*
X201017142Y-53006666D01*
X200921904Y-53006666D01*
X200779047Y-53054285D01*
X200207619Y-53625714D01*
X200207619Y-53006666D01*
X201207619Y-52720952D02*
X200207619Y-52387619D01*
X201207619Y-52054285D01*
X184078571Y-93090952D02*
X184078571Y-92329047D01*
X183697619Y-92710000D02*
X184459523Y-92710000D01*
X204351142Y-83367619D02*
X204351142Y-84367619D01*
X204827333Y-84034285D02*
X204827333Y-83367619D01*
X204827333Y-83939047D02*
X204874952Y-83986666D01*
X204970190Y-84034285D01*
X205113047Y-84034285D01*
X205208285Y-83986666D01*
X205255904Y-83891428D01*
X205255904Y-83367619D01*
X205732095Y-84034285D02*
X205732095Y-83034285D01*
X205732095Y-83986666D02*
X205827333Y-84034285D01*
X206017809Y-84034285D01*
X206113047Y-83986666D01*
X206160666Y-83939047D01*
X206208285Y-83843809D01*
X206208285Y-83558095D01*
X206160666Y-83462857D01*
X206113047Y-83415238D01*
X206017809Y-83367619D01*
X205827333Y-83367619D01*
X205732095Y-83415238D01*
X207065428Y-84034285D02*
X207065428Y-83367619D01*
X206636857Y-84034285D02*
X206636857Y-83510476D01*
X206684476Y-83415238D01*
X206779714Y-83367619D01*
X206922571Y-83367619D01*
X207017809Y-83415238D01*
X207065428Y-83462857D01*
X207398761Y-84034285D02*
X207779714Y-84034285D01*
X207541619Y-84367619D02*
X207541619Y-83510476D01*
X207589238Y-83415238D01*
X207684476Y-83367619D01*
X207779714Y-83367619D01*
X205882952Y-85907619D02*
X205311523Y-85907619D01*
X205597238Y-85907619D02*
X205597238Y-86907619D01*
X205502000Y-86764761D01*
X205406761Y-86669523D01*
X205311523Y-86621904D01*
X206263904Y-86812380D02*
X206311523Y-86860000D01*
X206406761Y-86907619D01*
X206644857Y-86907619D01*
X206740095Y-86860000D01*
X206787714Y-86812380D01*
X206835333Y-86717142D01*
X206835333Y-86621904D01*
X206787714Y-86479047D01*
X206216285Y-85907619D01*
X206835333Y-85907619D01*
X207121047Y-86907619D02*
X207454380Y-85907619D01*
X207787714Y-86907619D01*
X205311523Y-81732380D02*
X205359142Y-81780000D01*
X205454380Y-81827619D01*
X205692476Y-81827619D01*
X205787714Y-81780000D01*
X205835333Y-81732380D01*
X205882952Y-81637142D01*
X205882952Y-81541904D01*
X205835333Y-81399047D01*
X205263904Y-80827619D01*
X205882952Y-80827619D01*
X206740095Y-81494285D02*
X206740095Y-80827619D01*
X206502000Y-81875238D02*
X206263904Y-81160952D01*
X206882952Y-81160952D01*
X207121047Y-81827619D02*
X207454380Y-80827619D01*
X207787714Y-81827619D01*
D11*
X176276000Y-63500000D02*
X173736000Y-63500000D01*
X175514000Y-65532000D02*
G75*
G03*
X175514000Y-65532000I-508000J0D01*
G01*
X176276000Y-69088000D02*
X176276000Y-63500000D01*
X173736000Y-63500000D02*
X173736000Y-69088000D01*
X175514000Y-66802000D02*
G75*
G03*
X175514000Y-66802000I-508000J0D01*
G01*
D12*
G36*
X175514000Y-68580000D02*
G01*
X174498000Y-68580000D01*
X174498000Y-67564000D01*
X175514000Y-67564000D01*
X175514000Y-68580000D01*
G37*
X175514000Y-68580000D02*
X174498000Y-68580000D01*
X174498000Y-67564000D01*
X175514000Y-67564000D01*
X175514000Y-68580000D01*
D11*
X173736000Y-69088000D02*
X176276000Y-69088000D01*
X175514000Y-64262000D02*
G75*
G03*
X175514000Y-64262000I-508000J0D01*
G01*
X176276000Y-56896000D02*
X173736000Y-56896000D01*
X175514000Y-58928000D02*
G75*
G03*
X175514000Y-58928000I-508000J0D01*
G01*
X176276000Y-62484000D02*
X176276000Y-56896000D01*
X173736000Y-56896000D02*
X173736000Y-62484000D01*
X175514000Y-60198000D02*
G75*
G03*
X175514000Y-60198000I-508000J0D01*
G01*
D12*
G36*
X175514000Y-61976000D02*
G01*
X174498000Y-61976000D01*
X174498000Y-60960000D01*
X175514000Y-60960000D01*
X175514000Y-61976000D01*
G37*
X175514000Y-61976000D02*
X174498000Y-61976000D01*
X174498000Y-60960000D01*
X175514000Y-60960000D01*
X175514000Y-61976000D01*
D11*
X173736000Y-62484000D02*
X176276000Y-62484000D01*
X175514000Y-57658000D02*
G75*
G03*
X175514000Y-57658000I-508000J0D01*
G01*
X175514000Y-53594000D02*
G75*
G03*
X175514000Y-53594000I-508000J0D01*
G01*
X175514000Y-52324000D02*
G75*
G03*
X175514000Y-52324000I-508000J0D01*
G01*
X175514000Y-51054000D02*
G75*
G03*
X175514000Y-51054000I-508000J0D01*
G01*
D12*
G36*
X175514000Y-55372000D02*
G01*
X174498000Y-55372000D01*
X174498000Y-54356000D01*
X175514000Y-54356000D01*
X175514000Y-55372000D01*
G37*
X175514000Y-55372000D02*
X174498000Y-55372000D01*
X174498000Y-54356000D01*
X175514000Y-54356000D01*
X175514000Y-55372000D01*
D11*
X176276000Y-50292000D02*
X173736000Y-50292000D01*
X176276000Y-55880000D02*
X176276000Y-50292000D01*
X173736000Y-55880000D02*
X176276000Y-55880000D01*
X173736000Y-50292000D02*
X173736000Y-55880000D01*
D10*
X172339047Y-68508571D02*
X173100952Y-68508571D01*
X172720000Y-68127619D02*
X172720000Y-68889523D01*
X168926095Y-66603619D02*
X168354666Y-66603619D01*
X168640380Y-66603619D02*
X168640380Y-67603619D01*
X168545142Y-67460761D01*
X168449904Y-67365523D01*
X168354666Y-67317904D01*
X169259428Y-67603619D02*
X169497523Y-66603619D01*
X169688000Y-67317904D01*
X169878476Y-66603619D01*
X170116571Y-67603619D01*
X171211809Y-67651238D02*
X170354666Y-66365523D01*
X171449904Y-67603619D02*
X172068952Y-67603619D01*
X171735619Y-67222666D01*
X171878476Y-67222666D01*
X171973714Y-67175047D01*
X172021333Y-67127428D01*
X172068952Y-67032190D01*
X172068952Y-66794095D01*
X172021333Y-66698857D01*
X171973714Y-66651238D01*
X171878476Y-66603619D01*
X171592761Y-66603619D01*
X171497523Y-66651238D01*
X171449904Y-66698857D01*
X172449904Y-67508380D02*
X172497523Y-67556000D01*
X172592761Y-67603619D01*
X172830857Y-67603619D01*
X172926095Y-67556000D01*
X172973714Y-67508380D01*
X173021333Y-67413142D01*
X173021333Y-67317904D01*
X172973714Y-67175047D01*
X172402285Y-66603619D01*
X173021333Y-66603619D01*
X168481619Y-66032000D02*
X168386380Y-66079619D01*
X168243523Y-66079619D01*
X168100666Y-66032000D01*
X168005428Y-65936761D01*
X167957809Y-65841523D01*
X167910190Y-65651047D01*
X167910190Y-65508190D01*
X167957809Y-65317714D01*
X168005428Y-65222476D01*
X168100666Y-65127238D01*
X168243523Y-65079619D01*
X168338761Y-65079619D01*
X168481619Y-65127238D01*
X168529238Y-65174857D01*
X168529238Y-65508190D01*
X168338761Y-65508190D01*
X168957809Y-65079619D02*
X168957809Y-66079619D01*
X169338761Y-66079619D01*
X169434000Y-66032000D01*
X169481619Y-65984380D01*
X169529238Y-65889142D01*
X169529238Y-65746285D01*
X169481619Y-65651047D01*
X169434000Y-65603428D01*
X169338761Y-65555809D01*
X168957809Y-65555809D01*
X169957809Y-65079619D02*
X169957809Y-66079619D01*
X170624476Y-66079619D02*
X170814952Y-66079619D01*
X170910190Y-66032000D01*
X171005428Y-65936761D01*
X171053047Y-65746285D01*
X171053047Y-65412952D01*
X171005428Y-65222476D01*
X170910190Y-65127238D01*
X170814952Y-65079619D01*
X170624476Y-65079619D01*
X170529238Y-65127238D01*
X170434000Y-65222476D01*
X170386380Y-65412952D01*
X170386380Y-65746285D01*
X170434000Y-65936761D01*
X170529238Y-66032000D01*
X170624476Y-66079619D01*
X171386380Y-66079619D02*
X172005428Y-66079619D01*
X171672095Y-65698666D01*
X171814952Y-65698666D01*
X171910190Y-65651047D01*
X171957809Y-65603428D01*
X172005428Y-65508190D01*
X172005428Y-65270095D01*
X171957809Y-65174857D01*
X171910190Y-65127238D01*
X171814952Y-65079619D01*
X171529238Y-65079619D01*
X171434000Y-65127238D01*
X171386380Y-65174857D01*
X172338761Y-66079619D02*
X172957809Y-66079619D01*
X172624476Y-65698666D01*
X172767333Y-65698666D01*
X172862571Y-65651047D01*
X172910190Y-65603428D01*
X172957809Y-65508190D01*
X172957809Y-65270095D01*
X172910190Y-65174857D01*
X172862571Y-65127238D01*
X172767333Y-65079619D01*
X172481619Y-65079619D01*
X172386380Y-65127238D01*
X172338761Y-65174857D01*
X170942095Y-64508000D02*
X170846857Y-64555619D01*
X170704000Y-64555619D01*
X170561142Y-64508000D01*
X170465904Y-64412761D01*
X170418285Y-64317523D01*
X170370666Y-64127047D01*
X170370666Y-63984190D01*
X170418285Y-63793714D01*
X170465904Y-63698476D01*
X170561142Y-63603238D01*
X170704000Y-63555619D01*
X170799238Y-63555619D01*
X170942095Y-63603238D01*
X170989714Y-63650857D01*
X170989714Y-63984190D01*
X170799238Y-63984190D01*
X171418285Y-63555619D02*
X171418285Y-64555619D01*
X171989714Y-63555619D01*
X171989714Y-64555619D01*
X172465904Y-63555619D02*
X172465904Y-64555619D01*
X172704000Y-64555619D01*
X172846857Y-64508000D01*
X172942095Y-64412761D01*
X172989714Y-64317523D01*
X173037333Y-64127047D01*
X173037333Y-63984190D01*
X172989714Y-63793714D01*
X172942095Y-63698476D01*
X172846857Y-63603238D01*
X172704000Y-63555619D01*
X172465904Y-63555619D01*
X170465904Y-62523619D02*
X171084952Y-62523619D01*
X170751619Y-62142666D01*
X170894476Y-62142666D01*
X170989714Y-62095047D01*
X171037333Y-62047428D01*
X171084952Y-61952190D01*
X171084952Y-61714095D01*
X171037333Y-61618857D01*
X170989714Y-61571238D01*
X170894476Y-61523619D01*
X170608761Y-61523619D01*
X170513523Y-61571238D01*
X170465904Y-61618857D01*
X171370666Y-62523619D02*
X171704000Y-61523619D01*
X172037333Y-62523619D01*
X172275428Y-62523619D02*
X172894476Y-62523619D01*
X172561142Y-62142666D01*
X172704000Y-62142666D01*
X172799238Y-62095047D01*
X172846857Y-62047428D01*
X172894476Y-61952190D01*
X172894476Y-61714095D01*
X172846857Y-61618857D01*
X172799238Y-61571238D01*
X172704000Y-61523619D01*
X172418285Y-61523619D01*
X172323047Y-61571238D01*
X172275428Y-61618857D01*
X168926095Y-59999619D02*
X168354666Y-59999619D01*
X168640380Y-59999619D02*
X168640380Y-60999619D01*
X168545142Y-60856761D01*
X168449904Y-60761523D01*
X168354666Y-60713904D01*
X169259428Y-60999619D02*
X169497523Y-59999619D01*
X169688000Y-60713904D01*
X169878476Y-59999619D01*
X170116571Y-60999619D01*
X171211809Y-61047238D02*
X170354666Y-59761523D01*
X171497523Y-60904380D02*
X171545142Y-60952000D01*
X171640380Y-60999619D01*
X171878476Y-60999619D01*
X171973714Y-60952000D01*
X172021333Y-60904380D01*
X172068952Y-60809142D01*
X172068952Y-60713904D01*
X172021333Y-60571047D01*
X171449904Y-59999619D01*
X172068952Y-59999619D01*
X172926095Y-60999619D02*
X172735619Y-60999619D01*
X172640380Y-60952000D01*
X172592761Y-60904380D01*
X172497523Y-60761523D01*
X172449904Y-60571047D01*
X172449904Y-60190095D01*
X172497523Y-60094857D01*
X172545142Y-60047238D01*
X172640380Y-59999619D01*
X172830857Y-59999619D01*
X172926095Y-60047238D01*
X172973714Y-60094857D01*
X173021333Y-60190095D01*
X173021333Y-60428190D01*
X172973714Y-60523428D01*
X172926095Y-60571047D01*
X172830857Y-60618666D01*
X172640380Y-60618666D01*
X172545142Y-60571047D01*
X172497523Y-60523428D01*
X172449904Y-60428190D01*
X168481619Y-59428000D02*
X168386380Y-59475619D01*
X168243523Y-59475619D01*
X168100666Y-59428000D01*
X168005428Y-59332761D01*
X167957809Y-59237523D01*
X167910190Y-59047047D01*
X167910190Y-58904190D01*
X167957809Y-58713714D01*
X168005428Y-58618476D01*
X168100666Y-58523238D01*
X168243523Y-58475619D01*
X168338761Y-58475619D01*
X168481619Y-58523238D01*
X168529238Y-58570857D01*
X168529238Y-58904190D01*
X168338761Y-58904190D01*
X168957809Y-58475619D02*
X168957809Y-59475619D01*
X169338761Y-59475619D01*
X169434000Y-59428000D01*
X169481619Y-59380380D01*
X169529238Y-59285142D01*
X169529238Y-59142285D01*
X169481619Y-59047047D01*
X169434000Y-58999428D01*
X169338761Y-58951809D01*
X168957809Y-58951809D01*
X169957809Y-58475619D02*
X169957809Y-59475619D01*
X170624476Y-59475619D02*
X170814952Y-59475619D01*
X170910190Y-59428000D01*
X171005428Y-59332761D01*
X171053047Y-59142285D01*
X171053047Y-58808952D01*
X171005428Y-58618476D01*
X170910190Y-58523238D01*
X170814952Y-58475619D01*
X170624476Y-58475619D01*
X170529238Y-58523238D01*
X170434000Y-58618476D01*
X170386380Y-58808952D01*
X170386380Y-59142285D01*
X170434000Y-59332761D01*
X170529238Y-59428000D01*
X170624476Y-59475619D01*
X171434000Y-59380380D02*
X171481619Y-59428000D01*
X171576857Y-59475619D01*
X171814952Y-59475619D01*
X171910190Y-59428000D01*
X171957809Y-59380380D01*
X172005428Y-59285142D01*
X172005428Y-59189904D01*
X171957809Y-59047047D01*
X171386380Y-58475619D01*
X172005428Y-58475619D01*
X172338761Y-59475619D02*
X173005428Y-59475619D01*
X172576857Y-58475619D01*
X170942095Y-57904000D02*
X170846857Y-57951619D01*
X170704000Y-57951619D01*
X170561142Y-57904000D01*
X170465904Y-57808761D01*
X170418285Y-57713523D01*
X170370666Y-57523047D01*
X170370666Y-57380190D01*
X170418285Y-57189714D01*
X170465904Y-57094476D01*
X170561142Y-56999238D01*
X170704000Y-56951619D01*
X170799238Y-56951619D01*
X170942095Y-56999238D01*
X170989714Y-57046857D01*
X170989714Y-57380190D01*
X170799238Y-57380190D01*
X171418285Y-56951619D02*
X171418285Y-57951619D01*
X171989714Y-56951619D01*
X171989714Y-57951619D01*
X172465904Y-56951619D02*
X172465904Y-57951619D01*
X172704000Y-57951619D01*
X172846857Y-57904000D01*
X172942095Y-57808761D01*
X172989714Y-57713523D01*
X173037333Y-57523047D01*
X173037333Y-57380190D01*
X172989714Y-57189714D01*
X172942095Y-57094476D01*
X172846857Y-56999238D01*
X172704000Y-56951619D01*
X172465904Y-56951619D01*
X170465904Y-55919619D02*
X171084952Y-55919619D01*
X170751619Y-55538666D01*
X170894476Y-55538666D01*
X170989714Y-55491047D01*
X171037333Y-55443428D01*
X171084952Y-55348190D01*
X171084952Y-55110095D01*
X171037333Y-55014857D01*
X170989714Y-54967238D01*
X170894476Y-54919619D01*
X170608761Y-54919619D01*
X170513523Y-54967238D01*
X170465904Y-55014857D01*
X171370666Y-55919619D02*
X171704000Y-54919619D01*
X172037333Y-55919619D01*
X172275428Y-55919619D02*
X172894476Y-55919619D01*
X172561142Y-55538666D01*
X172704000Y-55538666D01*
X172799238Y-55491047D01*
X172846857Y-55443428D01*
X172894476Y-55348190D01*
X172894476Y-55110095D01*
X172846857Y-55014857D01*
X172799238Y-54967238D01*
X172704000Y-54919619D01*
X172418285Y-54919619D01*
X172323047Y-54967238D01*
X172275428Y-55014857D01*
X168926095Y-53395619D02*
X168354666Y-53395619D01*
X168640380Y-53395619D02*
X168640380Y-54395619D01*
X168545142Y-54252761D01*
X168449904Y-54157523D01*
X168354666Y-54109904D01*
X169259428Y-54395619D02*
X169497523Y-53395619D01*
X169688000Y-54109904D01*
X169878476Y-53395619D01*
X170116571Y-54395619D01*
X171211809Y-54443238D02*
X170354666Y-53157523D01*
X172068952Y-53395619D02*
X171497523Y-53395619D01*
X171783238Y-53395619D02*
X171783238Y-54395619D01*
X171688000Y-54252761D01*
X171592761Y-54157523D01*
X171497523Y-54109904D01*
X172449904Y-54300380D02*
X172497523Y-54348000D01*
X172592761Y-54395619D01*
X172830857Y-54395619D01*
X172926095Y-54348000D01*
X172973714Y-54300380D01*
X173021333Y-54205142D01*
X173021333Y-54109904D01*
X172973714Y-53967047D01*
X172402285Y-53395619D01*
X173021333Y-53395619D01*
X168481619Y-52824000D02*
X168386380Y-52871619D01*
X168243523Y-52871619D01*
X168100666Y-52824000D01*
X168005428Y-52728761D01*
X167957809Y-52633523D01*
X167910190Y-52443047D01*
X167910190Y-52300190D01*
X167957809Y-52109714D01*
X168005428Y-52014476D01*
X168100666Y-51919238D01*
X168243523Y-51871619D01*
X168338761Y-51871619D01*
X168481619Y-51919238D01*
X168529238Y-51966857D01*
X168529238Y-52300190D01*
X168338761Y-52300190D01*
X168957809Y-51871619D02*
X168957809Y-52871619D01*
X169338761Y-52871619D01*
X169434000Y-52824000D01*
X169481619Y-52776380D01*
X169529238Y-52681142D01*
X169529238Y-52538285D01*
X169481619Y-52443047D01*
X169434000Y-52395428D01*
X169338761Y-52347809D01*
X168957809Y-52347809D01*
X169957809Y-51871619D02*
X169957809Y-52871619D01*
X170624476Y-52871619D02*
X170814952Y-52871619D01*
X170910190Y-52824000D01*
X171005428Y-52728761D01*
X171053047Y-52538285D01*
X171053047Y-52204952D01*
X171005428Y-52014476D01*
X170910190Y-51919238D01*
X170814952Y-51871619D01*
X170624476Y-51871619D01*
X170529238Y-51919238D01*
X170434000Y-52014476D01*
X170386380Y-52204952D01*
X170386380Y-52538285D01*
X170434000Y-52728761D01*
X170529238Y-52824000D01*
X170624476Y-52871619D01*
X172005428Y-51871619D02*
X171434000Y-51871619D01*
X171719714Y-51871619D02*
X171719714Y-52871619D01*
X171624476Y-52728761D01*
X171529238Y-52633523D01*
X171434000Y-52585904D01*
X172338761Y-52871619D02*
X172957809Y-52871619D01*
X172624476Y-52490666D01*
X172767333Y-52490666D01*
X172862571Y-52443047D01*
X172910190Y-52395428D01*
X172957809Y-52300190D01*
X172957809Y-52062095D01*
X172910190Y-51966857D01*
X172862571Y-51919238D01*
X172767333Y-51871619D01*
X172481619Y-51871619D01*
X172386380Y-51919238D01*
X172338761Y-51966857D01*
X170942095Y-51300000D02*
X170846857Y-51347619D01*
X170704000Y-51347619D01*
X170561142Y-51300000D01*
X170465904Y-51204761D01*
X170418285Y-51109523D01*
X170370666Y-50919047D01*
X170370666Y-50776190D01*
X170418285Y-50585714D01*
X170465904Y-50490476D01*
X170561142Y-50395238D01*
X170704000Y-50347619D01*
X170799238Y-50347619D01*
X170942095Y-50395238D01*
X170989714Y-50442857D01*
X170989714Y-50776190D01*
X170799238Y-50776190D01*
X171418285Y-50347619D02*
X171418285Y-51347619D01*
X171989714Y-50347619D01*
X171989714Y-51347619D01*
X172465904Y-50347619D02*
X172465904Y-51347619D01*
X172704000Y-51347619D01*
X172846857Y-51300000D01*
X172942095Y-51204761D01*
X172989714Y-51109523D01*
X173037333Y-50919047D01*
X173037333Y-50776190D01*
X172989714Y-50585714D01*
X172942095Y-50490476D01*
X172846857Y-50395238D01*
X172704000Y-50347619D01*
X172465904Y-50347619D01*
X169664000Y-89915904D02*
X169711619Y-90011142D01*
X169711619Y-90154000D01*
X169664000Y-90296857D01*
X169568761Y-90392095D01*
X169473523Y-90439714D01*
X169283047Y-90487333D01*
X169140190Y-90487333D01*
X168949714Y-90439714D01*
X168854476Y-90392095D01*
X168759238Y-90296857D01*
X168711619Y-90154000D01*
X168711619Y-90058761D01*
X168759238Y-89915904D01*
X168806857Y-89868285D01*
X169140190Y-89868285D01*
X169140190Y-90058761D01*
X168711619Y-89439714D02*
X169711619Y-89439714D01*
X168711619Y-88868285D01*
X169711619Y-88868285D01*
X168711619Y-88392095D02*
X169711619Y-88392095D01*
X169711619Y-88154000D01*
X169664000Y-88011142D01*
X169568761Y-87915904D01*
X169473523Y-87868285D01*
X169283047Y-87820666D01*
X169140190Y-87820666D01*
X168949714Y-87868285D01*
X168854476Y-87915904D01*
X168759238Y-88011142D01*
X168711619Y-88154000D01*
X168711619Y-88392095D01*
X172823238Y-90368285D02*
X172775619Y-90225428D01*
X172775619Y-89987333D01*
X172823238Y-89892095D01*
X172870857Y-89844476D01*
X172966095Y-89796857D01*
X173061333Y-89796857D01*
X173156571Y-89844476D01*
X173204190Y-89892095D01*
X173251809Y-89987333D01*
X173299428Y-90177809D01*
X173347047Y-90273047D01*
X173394666Y-90320666D01*
X173489904Y-90368285D01*
X173585142Y-90368285D01*
X173680380Y-90320666D01*
X173728000Y-90273047D01*
X173775619Y-90177809D01*
X173775619Y-89939714D01*
X173728000Y-89796857D01*
X172775619Y-89368285D02*
X173775619Y-89368285D01*
X173775619Y-89130190D01*
X173728000Y-88987333D01*
X173632761Y-88892095D01*
X173537523Y-88844476D01*
X173347047Y-88796857D01*
X173204190Y-88796857D01*
X173013714Y-88844476D01*
X172918476Y-88892095D01*
X172823238Y-88987333D01*
X172775619Y-89130190D01*
X172775619Y-89368285D01*
X173061333Y-88415904D02*
X173061333Y-87939714D01*
X172775619Y-88511142D02*
X173775619Y-88177809D01*
X172775619Y-87844476D01*
X170791238Y-90344476D02*
X170743619Y-90201619D01*
X170743619Y-89963523D01*
X170791238Y-89868285D01*
X170838857Y-89820666D01*
X170934095Y-89773047D01*
X171029333Y-89773047D01*
X171124571Y-89820666D01*
X171172190Y-89868285D01*
X171219809Y-89963523D01*
X171267428Y-90154000D01*
X171315047Y-90249238D01*
X171362666Y-90296857D01*
X171457904Y-90344476D01*
X171553142Y-90344476D01*
X171648380Y-90296857D01*
X171696000Y-90249238D01*
X171743619Y-90154000D01*
X171743619Y-89915904D01*
X171696000Y-89773047D01*
X170838857Y-88773047D02*
X170791238Y-88820666D01*
X170743619Y-88963523D01*
X170743619Y-89058761D01*
X170791238Y-89201619D01*
X170886476Y-89296857D01*
X170981714Y-89344476D01*
X171172190Y-89392095D01*
X171315047Y-89392095D01*
X171505523Y-89344476D01*
X171600761Y-89296857D01*
X171696000Y-89201619D01*
X171743619Y-89058761D01*
X171743619Y-88963523D01*
X171696000Y-88820666D01*
X171648380Y-88773047D01*
X170743619Y-87868285D02*
X170743619Y-88344476D01*
X171743619Y-88344476D01*
X175807619Y-90392095D02*
X175807619Y-89773047D01*
X175426666Y-90106380D01*
X175426666Y-89963523D01*
X175379047Y-89868285D01*
X175331428Y-89820666D01*
X175236190Y-89773047D01*
X174998095Y-89773047D01*
X174902857Y-89820666D01*
X174855238Y-89868285D01*
X174807619Y-89963523D01*
X174807619Y-90249238D01*
X174855238Y-90344476D01*
X174902857Y-90392095D01*
X175807619Y-89487333D02*
X174807619Y-89154000D01*
X175807619Y-88820666D01*
X175807619Y-88582571D02*
X175807619Y-87963523D01*
X175426666Y-88296857D01*
X175426666Y-88154000D01*
X175379047Y-88058761D01*
X175331428Y-88011142D01*
X175236190Y-87963523D01*
X174998095Y-87963523D01*
X174902857Y-88011142D01*
X174855238Y-88058761D01*
X174807619Y-88154000D01*
X174807619Y-88439714D01*
X174855238Y-88534952D01*
X174902857Y-88582571D01*
X187237619Y-92900476D02*
X187237619Y-93376666D01*
X186761428Y-93424285D01*
X186809047Y-93376666D01*
X186856666Y-93281428D01*
X186856666Y-93043333D01*
X186809047Y-92948095D01*
X186761428Y-92900476D01*
X186666190Y-92852857D01*
X186428095Y-92852857D01*
X186332857Y-92900476D01*
X186285238Y-92948095D01*
X186237619Y-93043333D01*
X186237619Y-93281428D01*
X186285238Y-93376666D01*
X186332857Y-93424285D01*
X187237619Y-92567142D02*
X186237619Y-92233809D01*
X187237619Y-91900476D01*
X182157619Y-94583095D02*
X182157619Y-93964047D01*
X181776666Y-94297380D01*
X181776666Y-94154523D01*
X181729047Y-94059285D01*
X181681428Y-94011666D01*
X181586190Y-93964047D01*
X181348095Y-93964047D01*
X181252857Y-94011666D01*
X181205238Y-94059285D01*
X181157619Y-94154523D01*
X181157619Y-94440238D01*
X181205238Y-94535476D01*
X181252857Y-94583095D01*
X182157619Y-93678333D02*
X181157619Y-93345000D01*
X182157619Y-93011666D01*
X182157619Y-92773571D02*
X182157619Y-92154523D01*
X181776666Y-92487857D01*
X181776666Y-92345000D01*
X181729047Y-92249761D01*
X181681428Y-92202142D01*
X181586190Y-92154523D01*
X181348095Y-92154523D01*
X181252857Y-92202142D01*
X181205238Y-92249761D01*
X181157619Y-92345000D01*
X181157619Y-92630714D01*
X181205238Y-92725952D01*
X181252857Y-92773571D01*
X173029619Y-72072476D02*
X173029619Y-72643904D01*
X173029619Y-72358190D02*
X174029619Y-72358190D01*
X173886761Y-72453428D01*
X173791523Y-72548666D01*
X173743904Y-72643904D01*
X174029619Y-71215333D02*
X174029619Y-71405809D01*
X173982000Y-71501047D01*
X173934380Y-71548666D01*
X173791523Y-71643904D01*
X173601047Y-71691523D01*
X173220095Y-71691523D01*
X173124857Y-71643904D01*
X173077238Y-71596285D01*
X173029619Y-71501047D01*
X173029619Y-71310571D01*
X173077238Y-71215333D01*
X173124857Y-71167714D01*
X173220095Y-71120095D01*
X173458190Y-71120095D01*
X173553428Y-71167714D01*
X173601047Y-71215333D01*
X173648666Y-71310571D01*
X173648666Y-71501047D01*
X173601047Y-71596285D01*
X173553428Y-71643904D01*
X173458190Y-71691523D01*
X170997619Y-72072476D02*
X170997619Y-72643904D01*
X170997619Y-72358190D02*
X171997619Y-72358190D01*
X171854761Y-72453428D01*
X171759523Y-72548666D01*
X171711904Y-72643904D01*
X171997619Y-71739142D02*
X171997619Y-71072476D01*
X170997619Y-71501047D01*
X169664000Y-72135904D02*
X169711619Y-72231142D01*
X169711619Y-72374000D01*
X169664000Y-72516857D01*
X169568761Y-72612095D01*
X169473523Y-72659714D01*
X169283047Y-72707333D01*
X169140190Y-72707333D01*
X168949714Y-72659714D01*
X168854476Y-72612095D01*
X168759238Y-72516857D01*
X168711619Y-72374000D01*
X168711619Y-72278761D01*
X168759238Y-72135904D01*
X168806857Y-72088285D01*
X169140190Y-72088285D01*
X169140190Y-72278761D01*
X168711619Y-71659714D02*
X169711619Y-71659714D01*
X168711619Y-71088285D01*
X169711619Y-71088285D01*
X168711619Y-70612095D02*
X169711619Y-70612095D01*
X169711619Y-70374000D01*
X169664000Y-70231142D01*
X169568761Y-70135904D01*
X169473523Y-70088285D01*
X169283047Y-70040666D01*
X169140190Y-70040666D01*
X168949714Y-70088285D01*
X168854476Y-70135904D01*
X168759238Y-70231142D01*
X168711619Y-70374000D01*
X168711619Y-70612095D01*
X176061619Y-72072476D02*
X176061619Y-72548666D01*
X175585428Y-72596285D01*
X175633047Y-72548666D01*
X175680666Y-72453428D01*
X175680666Y-72215333D01*
X175633047Y-72120095D01*
X175585428Y-72072476D01*
X175490190Y-72024857D01*
X175252095Y-72024857D01*
X175156857Y-72072476D01*
X175109238Y-72120095D01*
X175061619Y-72215333D01*
X175061619Y-72453428D01*
X175109238Y-72548666D01*
X175156857Y-72596285D01*
X176061619Y-71739142D02*
X175061619Y-71405809D01*
X176061619Y-71072476D01*
D13*
X161369238Y-85358952D02*
X161369238Y-84216095D01*
X159369238Y-84787523D02*
X161369238Y-84787523D01*
X159940666Y-83644666D02*
X159940666Y-82692285D01*
X159369238Y-83835142D02*
X161369238Y-83168476D01*
X159369238Y-82501809D01*
X162035904Y-83549428D02*
X161940666Y-83454190D01*
X161845428Y-83549428D01*
X161940666Y-83644666D01*
X162035904Y-83549428D01*
X161845428Y-83549428D01*
X162035904Y-82787523D02*
X161940666Y-82692285D01*
X161845428Y-82787523D01*
X161940666Y-82882761D01*
X162035904Y-82787523D01*
X161845428Y-82787523D01*
X159369238Y-81835142D02*
X161369238Y-81835142D01*
X159369238Y-80692285D01*
X161369238Y-80692285D01*
X161274000Y-78692285D02*
X161369238Y-78882761D01*
X161369238Y-79168476D01*
X161274000Y-79454190D01*
X161083523Y-79644666D01*
X160893047Y-79739904D01*
X160512095Y-79835142D01*
X160226380Y-79835142D01*
X159845428Y-79739904D01*
X159654952Y-79644666D01*
X159464476Y-79454190D01*
X159369238Y-79168476D01*
X159369238Y-78978000D01*
X159464476Y-78692285D01*
X159559714Y-78597047D01*
X160226380Y-78597047D01*
X160226380Y-78978000D01*
X160702571Y-76406571D02*
X159369238Y-75930380D01*
X160702571Y-75454190D01*
X159369238Y-73644666D02*
X159369238Y-74787523D01*
X159369238Y-74216095D02*
X161369238Y-74216095D01*
X161083523Y-74406571D01*
X160893047Y-74597047D01*
X160797809Y-74787523D01*
X159559714Y-72787523D02*
X159464476Y-72692285D01*
X159369238Y-72787523D01*
X159464476Y-72882761D01*
X159559714Y-72787523D01*
X159369238Y-72787523D01*
X161369238Y-71454190D02*
X161369238Y-71263714D01*
X161274000Y-71073238D01*
X161178761Y-70978000D01*
X160988285Y-70882761D01*
X160607333Y-70787523D01*
X160131142Y-70787523D01*
X159750190Y-70882761D01*
X159559714Y-70978000D01*
X159464476Y-71073238D01*
X159369238Y-71263714D01*
X159369238Y-71454190D01*
X159464476Y-71644666D01*
X159559714Y-71739904D01*
X159750190Y-71835142D01*
X160131142Y-71930380D01*
X160607333Y-71930380D01*
X160988285Y-71835142D01*
X161178761Y-71739904D01*
X161274000Y-71644666D01*
X161369238Y-71454190D01*
D11*
%TO.C,J1*%
X178450000Y-73200000D02*
X175450000Y-73200000D01*
X178450000Y-76200000D02*
X178450000Y-73200000D01*
X170450000Y-79500000D02*
X169850000Y-79500000D01*
X175050000Y-79500000D02*
X174450000Y-79500000D01*
X177950000Y-73650000D02*
X166900000Y-73650000D01*
X177950000Y-79500000D02*
X177950000Y-73650000D01*
X174200000Y-79500000D02*
X170700000Y-79500000D01*
X166900000Y-79500000D02*
X166900000Y-73650000D01*
X177950000Y-79500000D02*
X175300000Y-79500000D01*
X169550000Y-79500000D02*
X166900000Y-79500000D01*
%TO.C,J2*%
X180850000Y-53790000D02*
X180850000Y-51140000D01*
X180850000Y-62190000D02*
X180850000Y-59540000D01*
X180850000Y-51140000D02*
X186700000Y-51140000D01*
X180850000Y-58440000D02*
X180850000Y-54940000D01*
X180850000Y-62190000D02*
X186700000Y-62190000D01*
X186700000Y-62190000D02*
X186700000Y-51140000D01*
X180850000Y-59290000D02*
X180850000Y-58690000D01*
X180850000Y-54690000D02*
X180850000Y-54090000D01*
X184150000Y-62690000D02*
X187150000Y-62690000D01*
X187150000Y-62690000D02*
X187150000Y-59690000D01*
%TO.C,J3*%
X180850000Y-66490000D02*
X180850000Y-63840000D01*
X180850000Y-74890000D02*
X180850000Y-72240000D01*
X180850000Y-63840000D02*
X186700000Y-63840000D01*
X180850000Y-71140000D02*
X180850000Y-67640000D01*
X180850000Y-74890000D02*
X186700000Y-74890000D01*
X186700000Y-74890000D02*
X186700000Y-63840000D01*
X180850000Y-71990000D02*
X180850000Y-71390000D01*
X180850000Y-67390000D02*
X180850000Y-66790000D01*
X184150000Y-75390000D02*
X187150000Y-75390000D01*
X187150000Y-75390000D02*
X187150000Y-72390000D01*
%TO.C,J4*%
X187150000Y-88090000D02*
X187150000Y-85090000D01*
X184150000Y-88090000D02*
X187150000Y-88090000D01*
X180850000Y-80090000D02*
X180850000Y-79490000D01*
X180850000Y-84690000D02*
X180850000Y-84090000D01*
X186700000Y-87590000D02*
X186700000Y-76540000D01*
X180850000Y-87590000D02*
X186700000Y-87590000D01*
X180850000Y-83840000D02*
X180850000Y-80340000D01*
X180850000Y-76540000D02*
X186700000Y-76540000D01*
X180850000Y-87590000D02*
X180850000Y-84940000D01*
X180850000Y-79190000D02*
X180850000Y-76540000D01*
%TO.C,J5*%
X169360000Y-87120000D02*
X166710000Y-87120000D01*
X177760000Y-87120000D02*
X175110000Y-87120000D01*
X166710000Y-87120000D02*
X166710000Y-81270000D01*
X174010000Y-87120000D02*
X170510000Y-87120000D01*
X177760000Y-87120000D02*
X177760000Y-81270000D01*
X177760000Y-81270000D02*
X166710000Y-81270000D01*
X174860000Y-87120000D02*
X174260000Y-87120000D01*
X170260000Y-87120000D02*
X169660000Y-87120000D01*
X178260000Y-83820000D02*
X178260000Y-80820000D01*
X178260000Y-80820000D02*
X175260000Y-80820000D01*
%TO.C,J6*%
X203355000Y-80380000D02*
X200755000Y-80380000D01*
X203355000Y-95080000D02*
X203355000Y-80380000D01*
X194155000Y-80380000D02*
X194155000Y-82280000D01*
X196855000Y-80380000D02*
X194155000Y-80380000D01*
X194155000Y-95080000D02*
X203355000Y-95080000D01*
X194155000Y-86280000D02*
X194155000Y-95080000D01*
X203555000Y-81230000D02*
X203555000Y-80180000D01*
X202505000Y-80180000D02*
X203555000Y-80180000D01*
%TO.C,J7*%
X211680000Y-65510000D02*
X211680000Y-66010000D01*
X210940000Y-65510000D02*
X211680000Y-65510000D01*
X205120000Y-71410000D02*
X211440000Y-71410000D01*
X205120000Y-65750000D02*
X211440000Y-65750000D01*
X211440000Y-70640000D02*
X211440000Y-71410000D01*
X211440000Y-68100000D02*
X211440000Y-69060000D01*
X211440000Y-65750000D02*
X211440000Y-66520000D01*
X205120000Y-65750000D02*
X205120000Y-71410000D01*
X205580000Y-65750000D02*
X205580000Y-71410000D01*
X210880000Y-70640000D02*
X210880000Y-71410000D01*
X210880000Y-68100000D02*
X210880000Y-69060000D01*
X210880000Y-65750000D02*
X210880000Y-66520000D01*
%TO.C,J8*%
X210880000Y-58130000D02*
X210880000Y-58900000D01*
X210880000Y-60480000D02*
X210880000Y-61440000D01*
X210880000Y-63020000D02*
X210880000Y-63790000D01*
X205580000Y-58130000D02*
X205580000Y-63790000D01*
X205120000Y-58130000D02*
X205120000Y-63790000D01*
X211440000Y-58130000D02*
X211440000Y-58900000D01*
X211440000Y-60480000D02*
X211440000Y-61440000D01*
X211440000Y-63020000D02*
X211440000Y-63790000D01*
X205120000Y-58130000D02*
X211440000Y-58130000D01*
X205120000Y-63790000D02*
X211440000Y-63790000D01*
X210940000Y-57890000D02*
X211680000Y-57890000D01*
X211680000Y-57890000D02*
X211680000Y-58390000D01*
%TO.C,J9*%
X211680000Y-73130000D02*
X211680000Y-73630000D01*
X210940000Y-73130000D02*
X211680000Y-73130000D01*
X205120000Y-79030000D02*
X211440000Y-79030000D01*
X205120000Y-73370000D02*
X211440000Y-73370000D01*
X211440000Y-78260000D02*
X211440000Y-79030000D01*
X211440000Y-75720000D02*
X211440000Y-76680000D01*
X211440000Y-73370000D02*
X211440000Y-74140000D01*
X205120000Y-73370000D02*
X205120000Y-79030000D01*
X205580000Y-73370000D02*
X205580000Y-79030000D01*
X210880000Y-78260000D02*
X210880000Y-79030000D01*
X210880000Y-75720000D02*
X210880000Y-76680000D01*
X210880000Y-73370000D02*
X210880000Y-74140000D01*
%TO.C,JP1*%
X194250000Y-63440000D02*
X194250000Y-64770000D01*
X195580000Y-63440000D02*
X194250000Y-63440000D01*
X196850000Y-63440000D02*
X196850000Y-66100000D01*
X196850000Y-66100000D02*
X201990000Y-66100000D01*
X196850000Y-63440000D02*
X201990000Y-63440000D01*
X201990000Y-63440000D02*
X201990000Y-66100000D01*
%TO.C,JP2*%
X201990000Y-55185000D02*
X201990000Y-57845000D01*
X196850000Y-55185000D02*
X201990000Y-55185000D01*
X196850000Y-57845000D02*
X201990000Y-57845000D01*
X196850000Y-55185000D02*
X196850000Y-57845000D01*
X195580000Y-55185000D02*
X194250000Y-55185000D01*
X194250000Y-55185000D02*
X194250000Y-56515000D01*
%TO.C,JP3*%
X194250000Y-71060000D02*
X194250000Y-72390000D01*
X195580000Y-71060000D02*
X194250000Y-71060000D01*
X196850000Y-71060000D02*
X196850000Y-73720000D01*
X196850000Y-73720000D02*
X201990000Y-73720000D01*
X196850000Y-71060000D02*
X201990000Y-71060000D01*
X201990000Y-71060000D02*
X201990000Y-73720000D01*
%TO.C,JP4*%
X180280000Y-88840000D02*
X180280000Y-90170000D01*
X181610000Y-88840000D02*
X180280000Y-88840000D01*
X182880000Y-88840000D02*
X182880000Y-91500000D01*
X182880000Y-91500000D02*
X188020000Y-91500000D01*
X182880000Y-88840000D02*
X188020000Y-88840000D01*
X188020000Y-88840000D02*
X188020000Y-91500000D01*
%TO.C,JP5*%
X210880000Y-87690000D02*
X208220000Y-87690000D01*
X210880000Y-82550000D02*
X210880000Y-87690000D01*
X208220000Y-82550000D02*
X208220000Y-87690000D01*
X210880000Y-82550000D02*
X208220000Y-82550000D01*
X210880000Y-81280000D02*
X210880000Y-79950000D01*
X210880000Y-79950000D02*
X209550000Y-79950000D01*
%TD*%
M02*
