%TF.GenerationSoftware,KiCad,Pcbnew,5.1.10-88a1d61d58~88~ubuntu20.04.1*%
%TF.CreationDate,2021-05-09T16:45:47+02:00*%
%TF.ProjectId,Control_board,436f6e74-726f-46c5-9f62-6f6172642e6b,rev?*%
%TF.SameCoordinates,Original*%
%TF.FileFunction,Soldermask,Bot*%
%TF.FilePolarity,Negative*%
%FSLAX46Y46*%
G04 Gerber Fmt 4.6, Leading zero omitted, Abs format (unit mm)*
G04 Created by KiCad (PCBNEW 5.1.10-88a1d61d58~88~ubuntu20.04.1) date 2021-05-09 16:45:47*
%MOMM*%
%LPD*%
G01*
G04 APERTURE LIST*
%ADD10C,1.524000*%
%ADD11R,1.524000X1.524000*%
%ADD12C,1.440000*%
%ADD13C,6.400000*%
%ADD14C,0.800000*%
%ADD15R,3.500000X3.500000*%
%ADD16R,2.200000X2.200000*%
%ADD17C,1.100000*%
%ADD18C,2.200000*%
%ADD19O,1.700000X1.700000*%
%ADD20R,1.700000X1.700000*%
%ADD21C,2.250000*%
G04 APERTURE END LIST*
D10*
%TO.C,J1*%
X169450000Y-76200000D03*
X171450000Y-76200000D03*
X173450000Y-76200000D03*
D11*
X175450000Y-76200000D03*
%TD*%
D12*
%TO.C,RV1*%
X157480000Y-56896000D03*
X154940000Y-54356000D03*
X157480000Y-51816000D03*
%TD*%
D13*
%TO.C,H1*%
X208280000Y-91440000D03*
D14*
X210680000Y-91440000D03*
X209977056Y-93137056D03*
X208280000Y-93840000D03*
X206582944Y-93137056D03*
X205880000Y-91440000D03*
X206582944Y-89742944D03*
X208280000Y-89040000D03*
X209977056Y-89742944D03*
%TD*%
%TO.C,H2*%
X209977056Y-51642944D03*
X208280000Y-50940000D03*
X206582944Y-51642944D03*
X205880000Y-53340000D03*
X206582944Y-55037056D03*
X208280000Y-55740000D03*
X209977056Y-55037056D03*
X210680000Y-53340000D03*
D13*
X208280000Y-53340000D03*
%TD*%
%TO.C,H3*%
X146050000Y-53340000D03*
D14*
X148450000Y-53340000D03*
X147747056Y-55037056D03*
X146050000Y-55740000D03*
X144352944Y-55037056D03*
X143650000Y-53340000D03*
X144352944Y-51642944D03*
X146050000Y-50940000D03*
X147747056Y-51642944D03*
%TD*%
%TO.C,H4*%
X147747056Y-89742944D03*
X146050000Y-89040000D03*
X144352944Y-89742944D03*
X143650000Y-91440000D03*
X144352944Y-93137056D03*
X146050000Y-93840000D03*
X147747056Y-93137056D03*
X148450000Y-91440000D03*
D13*
X146050000Y-91440000D03*
%TD*%
D11*
%TO.C,J2*%
X184150000Y-59690000D03*
D10*
X184150000Y-57690000D03*
X184150000Y-55690000D03*
X184150000Y-53690000D03*
%TD*%
D11*
%TO.C,J3*%
X184150000Y-72390000D03*
D10*
X184150000Y-70390000D03*
X184150000Y-68390000D03*
X184150000Y-66390000D03*
%TD*%
%TO.C,J4*%
X184150000Y-79090000D03*
X184150000Y-81090000D03*
X184150000Y-83090000D03*
D11*
X184150000Y-85090000D03*
%TD*%
%TO.C,J5*%
X175260000Y-83820000D03*
D10*
X173260000Y-83820000D03*
X171260000Y-83820000D03*
X169260000Y-83820000D03*
%TD*%
D15*
%TO.C,J6*%
X198755000Y-81280000D03*
G36*
G01*
X199755000Y-88780000D02*
X197755000Y-88780000D01*
G75*
G02*
X197005000Y-88030000I0J750000D01*
G01*
X197005000Y-86530000D01*
G75*
G02*
X197755000Y-85780000I750000J0D01*
G01*
X199755000Y-85780000D01*
G75*
G02*
X200505000Y-86530000I0J-750000D01*
G01*
X200505000Y-88030000D01*
G75*
G02*
X199755000Y-88780000I-750000J0D01*
G01*
G37*
G36*
G01*
X194930000Y-86030000D02*
X193180000Y-86030000D01*
G75*
G02*
X192305000Y-85155000I0J875000D01*
G01*
X192305000Y-83405000D01*
G75*
G02*
X193180000Y-82530000I875000J0D01*
G01*
X194930000Y-82530000D01*
G75*
G02*
X195805000Y-83405000I0J-875000D01*
G01*
X195805000Y-85155000D01*
G75*
G02*
X194930000Y-86030000I-875000J0D01*
G01*
G37*
%TD*%
D16*
%TO.C,J7*%
X208280000Y-67310000D03*
D17*
X210820000Y-67310000D03*
D18*
X208280000Y-69850000D03*
D17*
X210820000Y-69850000D03*
%TD*%
%TO.C,J8*%
X210820000Y-62230000D03*
D18*
X208280000Y-62230000D03*
D17*
X210820000Y-59690000D03*
D16*
X208280000Y-59690000D03*
%TD*%
%TO.C,J9*%
X208280000Y-74930000D03*
D17*
X210820000Y-74930000D03*
D18*
X208280000Y-77470000D03*
D17*
X210820000Y-77470000D03*
%TD*%
D19*
%TO.C,J10*%
X190500000Y-53340000D03*
X190500000Y-55880000D03*
X190500000Y-58420000D03*
X190500000Y-60960000D03*
X190500000Y-63500000D03*
X190500000Y-66040000D03*
X190500000Y-68580000D03*
X190500000Y-71120000D03*
X190500000Y-73660000D03*
X190500000Y-76200000D03*
X190500000Y-78740000D03*
X190500000Y-81280000D03*
X190500000Y-83820000D03*
X190500000Y-86360000D03*
D20*
X190500000Y-88900000D03*
%TD*%
%TO.C,J11*%
X165100000Y-53340000D03*
D19*
X165100000Y-55880000D03*
X165100000Y-58420000D03*
X165100000Y-60960000D03*
X165100000Y-63500000D03*
X165100000Y-66040000D03*
X165100000Y-68580000D03*
X165100000Y-71120000D03*
X165100000Y-73660000D03*
X165100000Y-76200000D03*
X165100000Y-78740000D03*
X165100000Y-81280000D03*
X165100000Y-83820000D03*
X165100000Y-86360000D03*
X165100000Y-88900000D03*
%TD*%
D20*
%TO.C,JP1*%
X195580000Y-64770000D03*
D19*
X198120000Y-64770000D03*
X200660000Y-64770000D03*
%TD*%
%TO.C,JP2*%
X200660000Y-56515000D03*
X198120000Y-56515000D03*
D20*
X195580000Y-56515000D03*
%TD*%
%TO.C,JP3*%
X195580000Y-72390000D03*
D19*
X198120000Y-72390000D03*
X200660000Y-72390000D03*
%TD*%
D20*
%TO.C,JP4*%
X181610000Y-90170000D03*
D19*
X184150000Y-90170000D03*
X186690000Y-90170000D03*
%TD*%
%TO.C,JP5*%
X209550000Y-86360000D03*
X209550000Y-83820000D03*
D20*
X209550000Y-81280000D03*
%TD*%
D21*
%TO.C,L1*%
X153580000Y-64040000D03*
X153580000Y-68040000D03*
X158580000Y-68040000D03*
X158580000Y-64040000D03*
%TD*%
M02*
