%TF.GenerationSoftware,KiCad,Pcbnew,5.1.10-88a1d61d58~88~ubuntu20.04.1*%
%TF.CreationDate,2021-05-09T16:45:47+02:00*%
%TF.ProjectId,Control_board,436f6e74-726f-46c5-9f62-6f6172642e6b,rev?*%
%TF.SameCoordinates,Original*%
%TF.FileFunction,Copper,L1,Top*%
%TF.FilePolarity,Positive*%
%FSLAX46Y46*%
G04 Gerber Fmt 4.6, Leading zero omitted, Abs format (unit mm)*
G04 Created by KiCad (PCBNEW 5.1.10-88a1d61d58~88~ubuntu20.04.1) date 2021-05-09 16:45:47*
%MOMM*%
%LPD*%
G01*
G04 APERTURE LIST*
%TA.AperFunction,ComponentPad*%
%ADD10C,1.524000*%
%TD*%
%TA.AperFunction,ComponentPad*%
%ADD11R,1.524000X1.524000*%
%TD*%
%TA.AperFunction,ComponentPad*%
%ADD12C,1.440000*%
%TD*%
%TA.AperFunction,SMDPad,CuDef*%
%ADD13R,1.800000X2.500000*%
%TD*%
%TA.AperFunction,SMDPad,CuDef*%
%ADD14R,2.500000X1.800000*%
%TD*%
%TA.AperFunction,ComponentPad*%
%ADD15C,6.400000*%
%TD*%
%TA.AperFunction,ComponentPad*%
%ADD16C,0.800000*%
%TD*%
%TA.AperFunction,ComponentPad*%
%ADD17R,3.500000X3.500000*%
%TD*%
%TA.AperFunction,ComponentPad*%
%ADD18R,2.200000X2.200000*%
%TD*%
%TA.AperFunction,ComponentPad*%
%ADD19C,2.200000*%
%TD*%
%TA.AperFunction,ComponentPad*%
%ADD20O,1.700000X1.700000*%
%TD*%
%TA.AperFunction,ComponentPad*%
%ADD21R,1.700000X1.700000*%
%TD*%
%TA.AperFunction,SMDPad,CuDef*%
%ADD22R,0.800000X0.900000*%
%TD*%
%TA.AperFunction,SMDPad,CuDef*%
%ADD23R,1.100000X4.600000*%
%TD*%
%TA.AperFunction,SMDPad,CuDef*%
%ADD24R,10.800000X9.400000*%
%TD*%
%TA.AperFunction,ComponentPad*%
%ADD25C,2.250000*%
%TD*%
%TA.AperFunction,ViaPad*%
%ADD26C,0.800000*%
%TD*%
%TA.AperFunction,Conductor*%
%ADD27C,1.500000*%
%TD*%
%TA.AperFunction,Conductor*%
%ADD28C,1.000000*%
%TD*%
%TA.AperFunction,Conductor*%
%ADD29C,0.500000*%
%TD*%
%TA.AperFunction,Conductor*%
%ADD30C,0.250000*%
%TD*%
G04 APERTURE END LIST*
D10*
%TO.P,J1,4*%
%TO.N,GND*%
X169450000Y-76200000D03*
%TO.P,J1,3*%
%TO.N,CONN1_B*%
X171450000Y-76200000D03*
%TO.P,J1,2*%
%TO.N,CONN1_A*%
X173450000Y-76200000D03*
D11*
%TO.P,J1,1*%
%TO.N,+5V*%
X175450000Y-76200000D03*
%TD*%
D12*
%TO.P,RV1,3*%
%TO.N,GND*%
X157480000Y-56896000D03*
%TO.P,RV1,2*%
%TO.N,BUCK_FB*%
X154940000Y-54356000D03*
%TO.P,RV1,1*%
%TO.N,+12V*%
X157480000Y-51816000D03*
%TD*%
%TO.P,R3,1*%
%TO.N,GPIO34*%
%TA.AperFunction,SMDPad,CuDef*%
G36*
G01*
X197760000Y-70631000D02*
X197210000Y-70631000D01*
G75*
G02*
X197010000Y-70431000I0J200000D01*
G01*
X197010000Y-70031000D01*
G75*
G02*
X197210000Y-69831000I200000J0D01*
G01*
X197760000Y-69831000D01*
G75*
G02*
X197960000Y-70031000I0J-200000D01*
G01*
X197960000Y-70431000D01*
G75*
G02*
X197760000Y-70631000I-200000J0D01*
G01*
G37*
%TD.AperFunction*%
%TO.P,R3,2*%
%TO.N,GND*%
%TA.AperFunction,SMDPad,CuDef*%
G36*
G01*
X197760000Y-68981000D02*
X197210000Y-68981000D01*
G75*
G02*
X197010000Y-68781000I0J200000D01*
G01*
X197010000Y-68381000D01*
G75*
G02*
X197210000Y-68181000I200000J0D01*
G01*
X197760000Y-68181000D01*
G75*
G02*
X197960000Y-68381000I0J-200000D01*
G01*
X197960000Y-68781000D01*
G75*
G02*
X197760000Y-68981000I-200000J0D01*
G01*
G37*
%TD.AperFunction*%
%TD*%
%TO.P,C1,2*%
%TO.N,GND*%
%TA.AperFunction,SMDPad,CuDef*%
G36*
G01*
X158418500Y-90081001D02*
X158418500Y-88480999D01*
G75*
G02*
X158668499Y-88231000I249999J0D01*
G01*
X162768501Y-88231000D01*
G75*
G02*
X163018500Y-88480999I0J-249999D01*
G01*
X163018500Y-90081001D01*
G75*
G02*
X162768501Y-90331000I-249999J0D01*
G01*
X158668499Y-90331000D01*
G75*
G02*
X158418500Y-90081001I0J249999D01*
G01*
G37*
%TD.AperFunction*%
%TO.P,C1,1*%
%TO.N,+24V*%
%TA.AperFunction,SMDPad,CuDef*%
G36*
G01*
X149618500Y-90081001D02*
X149618500Y-88480999D01*
G75*
G02*
X149868499Y-88231000I249999J0D01*
G01*
X153968501Y-88231000D01*
G75*
G02*
X154218500Y-88480999I0J-249999D01*
G01*
X154218500Y-90081001D01*
G75*
G02*
X153968501Y-90331000I-249999J0D01*
G01*
X149868499Y-90331000D01*
G75*
G02*
X149618500Y-90081001I0J249999D01*
G01*
G37*
%TD.AperFunction*%
%TD*%
%TO.P,C2,1*%
%TO.N,+24V*%
%TA.AperFunction,SMDPad,CuDef*%
G36*
G01*
X148812000Y-68330000D02*
X148812000Y-68830000D01*
G75*
G02*
X148587000Y-69055000I-225000J0D01*
G01*
X148137000Y-69055000D01*
G75*
G02*
X147912000Y-68830000I0J225000D01*
G01*
X147912000Y-68330000D01*
G75*
G02*
X148137000Y-68105000I225000J0D01*
G01*
X148587000Y-68105000D01*
G75*
G02*
X148812000Y-68330000I0J-225000D01*
G01*
G37*
%TD.AperFunction*%
%TO.P,C2,2*%
%TO.N,GND*%
%TA.AperFunction,SMDPad,CuDef*%
G36*
G01*
X147262000Y-68330000D02*
X147262000Y-68830000D01*
G75*
G02*
X147037000Y-69055000I-225000J0D01*
G01*
X146587000Y-69055000D01*
G75*
G02*
X146362000Y-68830000I0J225000D01*
G01*
X146362000Y-68330000D01*
G75*
G02*
X146587000Y-68105000I225000J0D01*
G01*
X147037000Y-68105000D01*
G75*
G02*
X147262000Y-68330000I0J-225000D01*
G01*
G37*
%TD.AperFunction*%
%TD*%
%TO.P,C3,1*%
%TO.N,Net-(C3-Pad1)*%
%TA.AperFunction,SMDPad,CuDef*%
G36*
G01*
X162955000Y-77431999D02*
X162955000Y-79032001D01*
G75*
G02*
X162705001Y-79282000I-249999J0D01*
G01*
X158604999Y-79282000D01*
G75*
G02*
X158355000Y-79032001I0J249999D01*
G01*
X158355000Y-77431999D01*
G75*
G02*
X158604999Y-77182000I249999J0D01*
G01*
X162705001Y-77182000D01*
G75*
G02*
X162955000Y-77431999I0J-249999D01*
G01*
G37*
%TD.AperFunction*%
%TO.P,C3,2*%
%TO.N,GND*%
%TA.AperFunction,SMDPad,CuDef*%
G36*
G01*
X154155000Y-77431999D02*
X154155000Y-79032001D01*
G75*
G02*
X153905001Y-79282000I-249999J0D01*
G01*
X149804999Y-79282000D01*
G75*
G02*
X149555000Y-79032001I0J249999D01*
G01*
X149555000Y-77431999D01*
G75*
G02*
X149804999Y-77182000I249999J0D01*
G01*
X153905001Y-77182000D01*
G75*
G02*
X154155000Y-77431999I0J-249999D01*
G01*
G37*
%TD.AperFunction*%
%TD*%
%TO.P,C4,1*%
%TO.N,+12V*%
%TA.AperFunction,SMDPad,CuDef*%
G36*
G01*
X170340000Y-69350000D02*
X171290000Y-69350000D01*
G75*
G02*
X171540000Y-69600000I0J-250000D01*
G01*
X171540000Y-70100000D01*
G75*
G02*
X171290000Y-70350000I-250000J0D01*
G01*
X170340000Y-70350000D01*
G75*
G02*
X170090000Y-70100000I0J250000D01*
G01*
X170090000Y-69600000D01*
G75*
G02*
X170340000Y-69350000I250000J0D01*
G01*
G37*
%TD.AperFunction*%
%TO.P,C4,2*%
%TO.N,GND*%
%TA.AperFunction,SMDPad,CuDef*%
G36*
G01*
X170340000Y-71250000D02*
X171290000Y-71250000D01*
G75*
G02*
X171540000Y-71500000I0J-250000D01*
G01*
X171540000Y-72000000D01*
G75*
G02*
X171290000Y-72250000I-250000J0D01*
G01*
X170340000Y-72250000D01*
G75*
G02*
X170090000Y-72000000I0J250000D01*
G01*
X170090000Y-71500000D01*
G75*
G02*
X170340000Y-71250000I250000J0D01*
G01*
G37*
%TD.AperFunction*%
%TD*%
D13*
%TO.P,D1,2*%
%TO.N,GND*%
X147320000Y-61976000D03*
%TO.P,D1,1*%
%TO.N,BUCK_OUT*%
X147320000Y-65976000D03*
%TD*%
%TO.P,D2,2*%
%TO.N,Net-(C3-Pad1)*%
X148844000Y-81820000D03*
%TO.P,D2,1*%
%TO.N,+12V*%
X148844000Y-85820000D03*
%TD*%
%TO.P,D3,2*%
%TO.N,GPIO34*%
%TA.AperFunction,SMDPad,CuDef*%
G36*
G01*
X195196750Y-69793500D02*
X195709250Y-69793500D01*
G75*
G02*
X195928000Y-70012250I0J-218750D01*
G01*
X195928000Y-70449750D01*
G75*
G02*
X195709250Y-70668500I-218750J0D01*
G01*
X195196750Y-70668500D01*
G75*
G02*
X194978000Y-70449750I0J218750D01*
G01*
X194978000Y-70012250D01*
G75*
G02*
X195196750Y-69793500I218750J0D01*
G01*
G37*
%TD.AperFunction*%
%TO.P,D3,1*%
%TO.N,Net-(D3-Pad1)*%
%TA.AperFunction,SMDPad,CuDef*%
G36*
G01*
X195196750Y-68218500D02*
X195709250Y-68218500D01*
G75*
G02*
X195928000Y-68437250I0J-218750D01*
G01*
X195928000Y-68874750D01*
G75*
G02*
X195709250Y-69093500I-218750J0D01*
G01*
X195196750Y-69093500D01*
G75*
G02*
X194978000Y-68874750I0J218750D01*
G01*
X194978000Y-68437250D01*
G75*
G02*
X195196750Y-68218500I218750J0D01*
G01*
G37*
%TD.AperFunction*%
%TD*%
%TO.P,D4,2*%
%TO.N,LOAD2_NEG*%
X204470000Y-70580000D03*
%TO.P,D4,1*%
%TO.N,LOAD2_POS*%
X204470000Y-66580000D03*
%TD*%
%TO.P,D5,1*%
%TO.N,Net-(D5-Pad1)*%
%TA.AperFunction,SMDPad,CuDef*%
G36*
G01*
X195196750Y-60598500D02*
X195709250Y-60598500D01*
G75*
G02*
X195928000Y-60817250I0J-218750D01*
G01*
X195928000Y-61254750D01*
G75*
G02*
X195709250Y-61473500I-218750J0D01*
G01*
X195196750Y-61473500D01*
G75*
G02*
X194978000Y-61254750I0J218750D01*
G01*
X194978000Y-60817250D01*
G75*
G02*
X195196750Y-60598500I218750J0D01*
G01*
G37*
%TD.AperFunction*%
%TO.P,D5,2*%
%TO.N,GPIO35*%
%TA.AperFunction,SMDPad,CuDef*%
G36*
G01*
X195196750Y-62173500D02*
X195709250Y-62173500D01*
G75*
G02*
X195928000Y-62392250I0J-218750D01*
G01*
X195928000Y-62829750D01*
G75*
G02*
X195709250Y-63048500I-218750J0D01*
G01*
X195196750Y-63048500D01*
G75*
G02*
X194978000Y-62829750I0J218750D01*
G01*
X194978000Y-62392250D01*
G75*
G02*
X195196750Y-62173500I218750J0D01*
G01*
G37*
%TD.AperFunction*%
%TD*%
%TO.P,D6,1*%
%TO.N,LOAD1_POS*%
X204470000Y-58865000D03*
%TO.P,D6,2*%
%TO.N,LOAD1_NEG*%
X204470000Y-62865000D03*
%TD*%
%TO.P,D7,1*%
%TO.N,Net-(D7-Pad1)*%
%TA.AperFunction,SMDPad,CuDef*%
G36*
G01*
X195196750Y-75838500D02*
X195709250Y-75838500D01*
G75*
G02*
X195928000Y-76057250I0J-218750D01*
G01*
X195928000Y-76494750D01*
G75*
G02*
X195709250Y-76713500I-218750J0D01*
G01*
X195196750Y-76713500D01*
G75*
G02*
X194978000Y-76494750I0J218750D01*
G01*
X194978000Y-76057250D01*
G75*
G02*
X195196750Y-75838500I218750J0D01*
G01*
G37*
%TD.AperFunction*%
%TO.P,D7,2*%
%TO.N,GPIO36*%
%TA.AperFunction,SMDPad,CuDef*%
G36*
G01*
X195196750Y-77413500D02*
X195709250Y-77413500D01*
G75*
G02*
X195928000Y-77632250I0J-218750D01*
G01*
X195928000Y-78069750D01*
G75*
G02*
X195709250Y-78288500I-218750J0D01*
G01*
X195196750Y-78288500D01*
G75*
G02*
X194978000Y-78069750I0J218750D01*
G01*
X194978000Y-77632250D01*
G75*
G02*
X195196750Y-77413500I218750J0D01*
G01*
G37*
%TD.AperFunction*%
%TD*%
%TO.P,D8,1*%
%TO.N,LOAD3_POS*%
X204470000Y-74105000D03*
%TO.P,D8,2*%
%TO.N,LOAD3_NEG*%
X204470000Y-78105000D03*
%TD*%
D14*
%TO.P,D9,1*%
%TO.N,Net-(D9-Pad1)*%
X206375000Y-85725000D03*
%TO.P,D9,2*%
%TO.N,Net-(D9-Pad2)*%
X202375000Y-85725000D03*
%TD*%
%TO.P,F1,1*%
%TO.N,Net-(D9-Pad2)*%
%TA.AperFunction,SMDPad,CuDef*%
G36*
G01*
X206937500Y-80464998D02*
X206937500Y-83365002D01*
G75*
G02*
X206687502Y-83615000I-249998J0D01*
G01*
X206062498Y-83615000D01*
G75*
G02*
X205812500Y-83365002I0J249998D01*
G01*
X205812500Y-80464998D01*
G75*
G02*
X206062498Y-80215000I249998J0D01*
G01*
X206687502Y-80215000D01*
G75*
G02*
X206937500Y-80464998I0J-249998D01*
G01*
G37*
%TD.AperFunction*%
%TO.P,F1,2*%
%TO.N,Net-(F1-Pad2)*%
%TA.AperFunction,SMDPad,CuDef*%
G36*
G01*
X202662500Y-80464998D02*
X202662500Y-83365002D01*
G75*
G02*
X202412502Y-83615000I-249998J0D01*
G01*
X201787498Y-83615000D01*
G75*
G02*
X201537500Y-83365002I0J249998D01*
G01*
X201537500Y-80464998D01*
G75*
G02*
X201787498Y-80215000I249998J0D01*
G01*
X202412502Y-80215000D01*
G75*
G02*
X202662500Y-80464998I0J-249998D01*
G01*
G37*
%TD.AperFunction*%
%TD*%
D15*
%TO.P,H1,1*%
%TO.N,GND*%
X208280000Y-91440000D03*
D16*
X210680000Y-91440000D03*
X209977056Y-93137056D03*
X208280000Y-93840000D03*
X206582944Y-93137056D03*
X205880000Y-91440000D03*
X206582944Y-89742944D03*
X208280000Y-89040000D03*
X209977056Y-89742944D03*
%TD*%
%TO.P,H2,1*%
%TO.N,GND*%
X209977056Y-51642944D03*
X208280000Y-50940000D03*
X206582944Y-51642944D03*
X205880000Y-53340000D03*
X206582944Y-55037056D03*
X208280000Y-55740000D03*
X209977056Y-55037056D03*
X210680000Y-53340000D03*
D15*
X208280000Y-53340000D03*
%TD*%
%TO.P,H3,1*%
%TO.N,GND*%
X146050000Y-53340000D03*
D16*
X148450000Y-53340000D03*
X147747056Y-55037056D03*
X146050000Y-55740000D03*
X144352944Y-55037056D03*
X143650000Y-53340000D03*
X144352944Y-51642944D03*
X146050000Y-50940000D03*
X147747056Y-51642944D03*
%TD*%
%TO.P,H4,1*%
%TO.N,GND*%
X147747056Y-89742944D03*
X146050000Y-89040000D03*
X144352944Y-89742944D03*
X143650000Y-91440000D03*
X144352944Y-93137056D03*
X146050000Y-93840000D03*
X147747056Y-93137056D03*
X148450000Y-91440000D03*
D15*
X146050000Y-91440000D03*
%TD*%
D11*
%TO.P,J2,1*%
%TO.N,+3V3*%
X184150000Y-59690000D03*
D10*
%TO.P,J2,2*%
%TO.N,CONN2_A*%
X184150000Y-57690000D03*
%TO.P,J2,3*%
%TO.N,CONN2_B*%
X184150000Y-55690000D03*
%TO.P,J2,4*%
%TO.N,GND*%
X184150000Y-53690000D03*
%TD*%
D11*
%TO.P,J3,1*%
%TO.N,+3V3*%
X184150000Y-72390000D03*
D10*
%TO.P,J3,2*%
%TO.N,CONN3_A*%
X184150000Y-70390000D03*
%TO.P,J3,3*%
%TO.N,CONN3_B*%
X184150000Y-68390000D03*
%TO.P,J3,4*%
%TO.N,GND*%
X184150000Y-66390000D03*
%TD*%
%TO.P,J4,4*%
%TO.N,GND*%
X184150000Y-79090000D03*
%TO.P,J4,3*%
%TO.N,CONN4_B*%
X184150000Y-81090000D03*
%TO.P,J4,2*%
%TO.N,CONN4_A*%
X184150000Y-83090000D03*
D11*
%TO.P,J4,1*%
%TO.N,Net-(J4-Pad1)*%
X184150000Y-85090000D03*
%TD*%
%TO.P,J5,1*%
%TO.N,+3V3*%
X175260000Y-83820000D03*
D10*
%TO.P,J5,2*%
%TO.N,GPIO21*%
X173260000Y-83820000D03*
%TO.P,J5,3*%
%TO.N,GPIO22*%
X171260000Y-83820000D03*
%TO.P,J5,4*%
%TO.N,GND*%
X169260000Y-83820000D03*
%TD*%
D17*
%TO.P,J6,1*%
%TO.N,Net-(F1-Pad2)*%
X198755000Y-81280000D03*
%TO.P,J6,2*%
%TO.N,GND*%
%TA.AperFunction,ComponentPad*%
G36*
G01*
X199755000Y-88780000D02*
X197755000Y-88780000D01*
G75*
G02*
X197005000Y-88030000I0J750000D01*
G01*
X197005000Y-86530000D01*
G75*
G02*
X197755000Y-85780000I750000J0D01*
G01*
X199755000Y-85780000D01*
G75*
G02*
X200505000Y-86530000I0J-750000D01*
G01*
X200505000Y-88030000D01*
G75*
G02*
X199755000Y-88780000I-750000J0D01*
G01*
G37*
%TD.AperFunction*%
%TO.P,J6,3*%
%TO.N,N/C*%
%TA.AperFunction,ComponentPad*%
G36*
G01*
X194930000Y-86030000D02*
X193180000Y-86030000D01*
G75*
G02*
X192305000Y-85155000I0J875000D01*
G01*
X192305000Y-83405000D01*
G75*
G02*
X193180000Y-82530000I875000J0D01*
G01*
X194930000Y-82530000D01*
G75*
G02*
X195805000Y-83405000I0J-875000D01*
G01*
X195805000Y-85155000D01*
G75*
G02*
X194930000Y-86030000I-875000J0D01*
G01*
G37*
%TD.AperFunction*%
%TD*%
D18*
%TO.P,J7,1*%
%TO.N,LOAD2_POS*%
X208280000Y-67310000D03*
D19*
%TO.P,J7,2*%
%TO.N,LOAD2_NEG*%
X208280000Y-69850000D03*
%TD*%
%TO.P,J8,2*%
%TO.N,LOAD1_NEG*%
X208280000Y-62230000D03*
D18*
%TO.P,J8,1*%
%TO.N,LOAD1_POS*%
X208280000Y-59690000D03*
%TD*%
%TO.P,J9,1*%
%TO.N,LOAD3_POS*%
X208280000Y-74930000D03*
D19*
%TO.P,J9,2*%
%TO.N,LOAD3_NEG*%
X208280000Y-77470000D03*
%TD*%
D20*
%TO.P,J10,15*%
%TO.N,+5V*%
X190500000Y-53340000D03*
%TO.P,J10,14*%
%TO.N,GND*%
X190500000Y-55880000D03*
%TO.P,J10,13*%
%TO.N,CONN2_B*%
X190500000Y-58420000D03*
%TO.P,J10,12*%
%TO.N,CONN2_A*%
X190500000Y-60960000D03*
%TO.P,J10,11*%
%TO.N,GPIO14*%
X190500000Y-63500000D03*
%TO.P,J10,10*%
%TO.N,CONN3_B*%
X190500000Y-66040000D03*
%TO.P,J10,9*%
%TO.N,CONN3_A*%
X190500000Y-68580000D03*
%TO.P,J10,8*%
%TO.N,GPIO25*%
X190500000Y-71120000D03*
%TO.P,J10,7*%
%TO.N,CONN4_B*%
X190500000Y-73660000D03*
%TO.P,J10,6*%
%TO.N,CONN4_A*%
X190500000Y-76200000D03*
%TO.P,J10,5*%
%TO.N,GPIO35*%
X190500000Y-78740000D03*
%TO.P,J10,4*%
%TO.N,GPIO34*%
X190500000Y-81280000D03*
%TO.P,J10,3*%
%TO.N,GPIO39*%
X190500000Y-83820000D03*
%TO.P,J10,2*%
%TO.N,GPIO36*%
X190500000Y-86360000D03*
D21*
%TO.P,J10,1*%
%TO.N,EN*%
X190500000Y-88900000D03*
%TD*%
%TO.P,J11,1*%
%TO.N,+3V3*%
X165100000Y-53340000D03*
D20*
%TO.P,J11,2*%
%TO.N,GND*%
X165100000Y-55880000D03*
%TO.P,J11,3*%
%TO.N,GPIO15*%
X165100000Y-58420000D03*
%TO.P,J11,4*%
%TO.N,GPIO2*%
X165100000Y-60960000D03*
%TO.P,J11,5*%
%TO.N,GPIO4*%
X165100000Y-63500000D03*
%TO.P,J11,6*%
%TO.N,CONN1_A*%
X165100000Y-66040000D03*
%TO.P,J11,7*%
%TO.N,CONN1_B*%
X165100000Y-68580000D03*
%TO.P,J11,8*%
%TO.N,GPIO5*%
X165100000Y-71120000D03*
%TO.P,J11,9*%
%TO.N,GPIO18*%
X165100000Y-73660000D03*
%TO.P,J11,10*%
%TO.N,GPIO19*%
X165100000Y-76200000D03*
%TO.P,J11,11*%
%TO.N,GPIO21*%
X165100000Y-78740000D03*
%TO.P,J11,12*%
%TO.N,GPIO3*%
X165100000Y-81280000D03*
%TO.P,J11,13*%
%TO.N,GPIO1*%
X165100000Y-83820000D03*
%TO.P,J11,14*%
%TO.N,GPIO22*%
X165100000Y-86360000D03*
%TO.P,J11,15*%
%TO.N,GPIO23*%
X165100000Y-88900000D03*
%TD*%
D21*
%TO.P,JP1,1*%
%TO.N,+24V*%
X195580000Y-64770000D03*
D20*
%TO.P,JP1,2*%
%TO.N,LOAD2_POS*%
X198120000Y-64770000D03*
%TO.P,JP1,3*%
%TO.N,+12V*%
X200660000Y-64770000D03*
%TD*%
%TO.P,JP2,3*%
%TO.N,+12V*%
X200660000Y-56515000D03*
%TO.P,JP2,2*%
%TO.N,LOAD1_POS*%
X198120000Y-56515000D03*
D21*
%TO.P,JP2,1*%
%TO.N,+24V*%
X195580000Y-56515000D03*
%TD*%
%TO.P,JP3,1*%
%TO.N,+24V*%
X195580000Y-72390000D03*
D20*
%TO.P,JP3,2*%
%TO.N,LOAD3_POS*%
X198120000Y-72390000D03*
%TO.P,JP3,3*%
%TO.N,+12V*%
X200660000Y-72390000D03*
%TD*%
D21*
%TO.P,JP4,1*%
%TO.N,+3V3*%
X181610000Y-90170000D03*
D20*
%TO.P,JP4,2*%
%TO.N,Net-(J4-Pad1)*%
X184150000Y-90170000D03*
%TO.P,JP4,3*%
%TO.N,+5V*%
X186690000Y-90170000D03*
%TD*%
%TO.P,JP5,3*%
%TO.N,+12V*%
X209550000Y-86360000D03*
%TO.P,JP5,2*%
%TO.N,Net-(D9-Pad1)*%
X209550000Y-83820000D03*
D21*
%TO.P,JP5,1*%
%TO.N,+24V*%
X209550000Y-81280000D03*
%TD*%
D22*
%TO.P,Q1,3*%
%TO.N,LOAD2_NEG*%
X200533000Y-68215000D03*
%TO.P,Q1,2*%
%TO.N,GND*%
X201483000Y-70215000D03*
%TO.P,Q1,1*%
%TO.N,GPIO34*%
X199583000Y-70215000D03*
%TD*%
%TO.P,Q2,1*%
%TO.N,GPIO35*%
X199649000Y-62611000D03*
%TO.P,Q2,2*%
%TO.N,GND*%
X201549000Y-62611000D03*
%TO.P,Q2,3*%
%TO.N,LOAD1_NEG*%
X200599000Y-60611000D03*
%TD*%
%TO.P,Q3,1*%
%TO.N,GPIO36*%
X199583000Y-77819000D03*
%TO.P,Q3,2*%
%TO.N,GND*%
X201483000Y-77819000D03*
%TO.P,Q3,3*%
%TO.N,LOAD3_NEG*%
X200533000Y-75819000D03*
%TD*%
%TO.P,R1,1*%
%TO.N,BUCK_FB*%
%TA.AperFunction,SMDPad,CuDef*%
G36*
G01*
X145688000Y-68305000D02*
X145688000Y-68855000D01*
G75*
G02*
X145488000Y-69055000I-200000J0D01*
G01*
X145088000Y-69055000D01*
G75*
G02*
X144888000Y-68855000I0J200000D01*
G01*
X144888000Y-68305000D01*
G75*
G02*
X145088000Y-68105000I200000J0D01*
G01*
X145488000Y-68105000D01*
G75*
G02*
X145688000Y-68305000I0J-200000D01*
G01*
G37*
%TD.AperFunction*%
%TO.P,R1,2*%
%TO.N,GND*%
%TA.AperFunction,SMDPad,CuDef*%
G36*
G01*
X144038000Y-68305000D02*
X144038000Y-68855000D01*
G75*
G02*
X143838000Y-69055000I-200000J0D01*
G01*
X143438000Y-69055000D01*
G75*
G02*
X143238000Y-68855000I0J200000D01*
G01*
X143238000Y-68305000D01*
G75*
G02*
X143438000Y-68105000I200000J0D01*
G01*
X143838000Y-68105000D01*
G75*
G02*
X144038000Y-68305000I0J-200000D01*
G01*
G37*
%TD.AperFunction*%
%TD*%
%TO.P,R2,1*%
%TO.N,Net-(D3-Pad1)*%
%TA.AperFunction,SMDPad,CuDef*%
G36*
G01*
X195789000Y-66781000D02*
X195789000Y-67331000D01*
G75*
G02*
X195589000Y-67531000I-200000J0D01*
G01*
X195189000Y-67531000D01*
G75*
G02*
X194989000Y-67331000I0J200000D01*
G01*
X194989000Y-66781000D01*
G75*
G02*
X195189000Y-66581000I200000J0D01*
G01*
X195589000Y-66581000D01*
G75*
G02*
X195789000Y-66781000I0J-200000D01*
G01*
G37*
%TD.AperFunction*%
%TO.P,R2,2*%
%TO.N,GND*%
%TA.AperFunction,SMDPad,CuDef*%
G36*
G01*
X194139000Y-66781000D02*
X194139000Y-67331000D01*
G75*
G02*
X193939000Y-67531000I-200000J0D01*
G01*
X193539000Y-67531000D01*
G75*
G02*
X193339000Y-67331000I0J200000D01*
G01*
X193339000Y-66781000D01*
G75*
G02*
X193539000Y-66581000I200000J0D01*
G01*
X193939000Y-66581000D01*
G75*
G02*
X194139000Y-66781000I0J-200000D01*
G01*
G37*
%TD.AperFunction*%
%TD*%
%TO.P,R4,2*%
%TO.N,GND*%
%TA.AperFunction,SMDPad,CuDef*%
G36*
G01*
X194139000Y-59161000D02*
X194139000Y-59711000D01*
G75*
G02*
X193939000Y-59911000I-200000J0D01*
G01*
X193539000Y-59911000D01*
G75*
G02*
X193339000Y-59711000I0J200000D01*
G01*
X193339000Y-59161000D01*
G75*
G02*
X193539000Y-58961000I200000J0D01*
G01*
X193939000Y-58961000D01*
G75*
G02*
X194139000Y-59161000I0J-200000D01*
G01*
G37*
%TD.AperFunction*%
%TO.P,R4,1*%
%TO.N,Net-(D5-Pad1)*%
%TA.AperFunction,SMDPad,CuDef*%
G36*
G01*
X195789000Y-59161000D02*
X195789000Y-59711000D01*
G75*
G02*
X195589000Y-59911000I-200000J0D01*
G01*
X195189000Y-59911000D01*
G75*
G02*
X194989000Y-59711000I0J200000D01*
G01*
X194989000Y-59161000D01*
G75*
G02*
X195189000Y-58961000I200000J0D01*
G01*
X195589000Y-58961000D01*
G75*
G02*
X195789000Y-59161000I0J-200000D01*
G01*
G37*
%TD.AperFunction*%
%TD*%
%TO.P,R5,1*%
%TO.N,GPIO35*%
%TA.AperFunction,SMDPad,CuDef*%
G36*
G01*
X197760000Y-63011000D02*
X197210000Y-63011000D01*
G75*
G02*
X197010000Y-62811000I0J200000D01*
G01*
X197010000Y-62411000D01*
G75*
G02*
X197210000Y-62211000I200000J0D01*
G01*
X197760000Y-62211000D01*
G75*
G02*
X197960000Y-62411000I0J-200000D01*
G01*
X197960000Y-62811000D01*
G75*
G02*
X197760000Y-63011000I-200000J0D01*
G01*
G37*
%TD.AperFunction*%
%TO.P,R5,2*%
%TO.N,GND*%
%TA.AperFunction,SMDPad,CuDef*%
G36*
G01*
X197760000Y-61361000D02*
X197210000Y-61361000D01*
G75*
G02*
X197010000Y-61161000I0J200000D01*
G01*
X197010000Y-60761000D01*
G75*
G02*
X197210000Y-60561000I200000J0D01*
G01*
X197760000Y-60561000D01*
G75*
G02*
X197960000Y-60761000I0J-200000D01*
G01*
X197960000Y-61161000D01*
G75*
G02*
X197760000Y-61361000I-200000J0D01*
G01*
G37*
%TD.AperFunction*%
%TD*%
%TO.P,R6,2*%
%TO.N,GND*%
%TA.AperFunction,SMDPad,CuDef*%
G36*
G01*
X194139000Y-74401000D02*
X194139000Y-74951000D01*
G75*
G02*
X193939000Y-75151000I-200000J0D01*
G01*
X193539000Y-75151000D01*
G75*
G02*
X193339000Y-74951000I0J200000D01*
G01*
X193339000Y-74401000D01*
G75*
G02*
X193539000Y-74201000I200000J0D01*
G01*
X193939000Y-74201000D01*
G75*
G02*
X194139000Y-74401000I0J-200000D01*
G01*
G37*
%TD.AperFunction*%
%TO.P,R6,1*%
%TO.N,Net-(D7-Pad1)*%
%TA.AperFunction,SMDPad,CuDef*%
G36*
G01*
X195789000Y-74401000D02*
X195789000Y-74951000D01*
G75*
G02*
X195589000Y-75151000I-200000J0D01*
G01*
X195189000Y-75151000D01*
G75*
G02*
X194989000Y-74951000I0J200000D01*
G01*
X194989000Y-74401000D01*
G75*
G02*
X195189000Y-74201000I200000J0D01*
G01*
X195589000Y-74201000D01*
G75*
G02*
X195789000Y-74401000I0J-200000D01*
G01*
G37*
%TD.AperFunction*%
%TD*%
%TO.P,R7,2*%
%TO.N,GND*%
%TA.AperFunction,SMDPad,CuDef*%
G36*
G01*
X197760000Y-76601000D02*
X197210000Y-76601000D01*
G75*
G02*
X197010000Y-76401000I0J200000D01*
G01*
X197010000Y-76001000D01*
G75*
G02*
X197210000Y-75801000I200000J0D01*
G01*
X197760000Y-75801000D01*
G75*
G02*
X197960000Y-76001000I0J-200000D01*
G01*
X197960000Y-76401000D01*
G75*
G02*
X197760000Y-76601000I-200000J0D01*
G01*
G37*
%TD.AperFunction*%
%TO.P,R7,1*%
%TO.N,GPIO36*%
%TA.AperFunction,SMDPad,CuDef*%
G36*
G01*
X197760000Y-78251000D02*
X197210000Y-78251000D01*
G75*
G02*
X197010000Y-78051000I0J200000D01*
G01*
X197010000Y-77651000D01*
G75*
G02*
X197210000Y-77451000I200000J0D01*
G01*
X197760000Y-77451000D01*
G75*
G02*
X197960000Y-77651000I0J-200000D01*
G01*
X197960000Y-78051000D01*
G75*
G02*
X197760000Y-78251000I-200000J0D01*
G01*
G37*
%TD.AperFunction*%
%TD*%
%TO.P,R8,1*%
%TO.N,+3V3*%
%TA.AperFunction,SMDPad,CuDef*%
G36*
G01*
X181795000Y-59200000D02*
X181425000Y-59200000D01*
G75*
G02*
X181290000Y-59065000I0J135000D01*
G01*
X181290000Y-58795000D01*
G75*
G02*
X181425000Y-58660000I135000J0D01*
G01*
X181795000Y-58660000D01*
G75*
G02*
X181930000Y-58795000I0J-135000D01*
G01*
X181930000Y-59065000D01*
G75*
G02*
X181795000Y-59200000I-135000J0D01*
G01*
G37*
%TD.AperFunction*%
%TO.P,R8,2*%
%TO.N,CONN2_A*%
%TA.AperFunction,SMDPad,CuDef*%
G36*
G01*
X181795000Y-58180000D02*
X181425000Y-58180000D01*
G75*
G02*
X181290000Y-58045000I0J135000D01*
G01*
X181290000Y-57775000D01*
G75*
G02*
X181425000Y-57640000I135000J0D01*
G01*
X181795000Y-57640000D01*
G75*
G02*
X181930000Y-57775000I0J-135000D01*
G01*
X181930000Y-58045000D01*
G75*
G02*
X181795000Y-58180000I-135000J0D01*
G01*
G37*
%TD.AperFunction*%
%TD*%
%TO.P,R9,1*%
%TO.N,+3V3*%
%TA.AperFunction,SMDPad,CuDef*%
G36*
G01*
X181795000Y-72410000D02*
X181425000Y-72410000D01*
G75*
G02*
X181290000Y-72275000I0J135000D01*
G01*
X181290000Y-72005000D01*
G75*
G02*
X181425000Y-71870000I135000J0D01*
G01*
X181795000Y-71870000D01*
G75*
G02*
X181930000Y-72005000I0J-135000D01*
G01*
X181930000Y-72275000D01*
G75*
G02*
X181795000Y-72410000I-135000J0D01*
G01*
G37*
%TD.AperFunction*%
%TO.P,R9,2*%
%TO.N,CONN3_A*%
%TA.AperFunction,SMDPad,CuDef*%
G36*
G01*
X181795000Y-71390000D02*
X181425000Y-71390000D01*
G75*
G02*
X181290000Y-71255000I0J135000D01*
G01*
X181290000Y-70985000D01*
G75*
G02*
X181425000Y-70850000I135000J0D01*
G01*
X181795000Y-70850000D01*
G75*
G02*
X181930000Y-70985000I0J-135000D01*
G01*
X181930000Y-71255000D01*
G75*
G02*
X181795000Y-71390000I-135000J0D01*
G01*
G37*
%TD.AperFunction*%
%TD*%
%TO.P,R10,1*%
%TO.N,+3V3*%
%TA.AperFunction,SMDPad,CuDef*%
G36*
G01*
X182430000Y-84090000D02*
X182060000Y-84090000D01*
G75*
G02*
X181925000Y-83955000I0J135000D01*
G01*
X181925000Y-83685000D01*
G75*
G02*
X182060000Y-83550000I135000J0D01*
G01*
X182430000Y-83550000D01*
G75*
G02*
X182565000Y-83685000I0J-135000D01*
G01*
X182565000Y-83955000D01*
G75*
G02*
X182430000Y-84090000I-135000J0D01*
G01*
G37*
%TD.AperFunction*%
%TO.P,R10,2*%
%TO.N,CONN4_A*%
%TA.AperFunction,SMDPad,CuDef*%
G36*
G01*
X182430000Y-83070000D02*
X182060000Y-83070000D01*
G75*
G02*
X181925000Y-82935000I0J135000D01*
G01*
X181925000Y-82665000D01*
G75*
G02*
X182060000Y-82530000I135000J0D01*
G01*
X182430000Y-82530000D01*
G75*
G02*
X182565000Y-82665000I0J-135000D01*
G01*
X182565000Y-82935000D01*
G75*
G02*
X182430000Y-83070000I-135000J0D01*
G01*
G37*
%TD.AperFunction*%
%TD*%
%TO.P,R11,2*%
%TO.N,GPIO21*%
%TA.AperFunction,SMDPad,CuDef*%
G36*
G01*
X173043000Y-81518000D02*
X173413000Y-81518000D01*
G75*
G02*
X173548000Y-81653000I0J-135000D01*
G01*
X173548000Y-81923000D01*
G75*
G02*
X173413000Y-82058000I-135000J0D01*
G01*
X173043000Y-82058000D01*
G75*
G02*
X172908000Y-81923000I0J135000D01*
G01*
X172908000Y-81653000D01*
G75*
G02*
X173043000Y-81518000I135000J0D01*
G01*
G37*
%TD.AperFunction*%
%TO.P,R11,1*%
%TO.N,+3V3*%
%TA.AperFunction,SMDPad,CuDef*%
G36*
G01*
X173043000Y-80498000D02*
X173413000Y-80498000D01*
G75*
G02*
X173548000Y-80633000I0J-135000D01*
G01*
X173548000Y-80903000D01*
G75*
G02*
X173413000Y-81038000I-135000J0D01*
G01*
X173043000Y-81038000D01*
G75*
G02*
X172908000Y-80903000I0J135000D01*
G01*
X172908000Y-80633000D01*
G75*
G02*
X173043000Y-80498000I135000J0D01*
G01*
G37*
%TD.AperFunction*%
%TD*%
%TO.P,R12,2*%
%TO.N,GPIO22*%
%TA.AperFunction,SMDPad,CuDef*%
G36*
G01*
X171011000Y-81522000D02*
X171381000Y-81522000D01*
G75*
G02*
X171516000Y-81657000I0J-135000D01*
G01*
X171516000Y-81927000D01*
G75*
G02*
X171381000Y-82062000I-135000J0D01*
G01*
X171011000Y-82062000D01*
G75*
G02*
X170876000Y-81927000I0J135000D01*
G01*
X170876000Y-81657000D01*
G75*
G02*
X171011000Y-81522000I135000J0D01*
G01*
G37*
%TD.AperFunction*%
%TO.P,R12,1*%
%TO.N,+3V3*%
%TA.AperFunction,SMDPad,CuDef*%
G36*
G01*
X171011000Y-80502000D02*
X171381000Y-80502000D01*
G75*
G02*
X171516000Y-80637000I0J-135000D01*
G01*
X171516000Y-80907000D01*
G75*
G02*
X171381000Y-81042000I-135000J0D01*
G01*
X171011000Y-81042000D01*
G75*
G02*
X170876000Y-80907000I0J135000D01*
G01*
X170876000Y-80637000D01*
G75*
G02*
X171011000Y-80502000I135000J0D01*
G01*
G37*
%TD.AperFunction*%
%TD*%
%TO.P,U1,1*%
%TO.N,+24V*%
%TA.AperFunction,SMDPad,CuDef*%
G36*
G01*
X148059000Y-69702000D02*
X148359000Y-69702000D01*
G75*
G02*
X148509000Y-69852000I0J-150000D01*
G01*
X148509000Y-71202000D01*
G75*
G02*
X148359000Y-71352000I-150000J0D01*
G01*
X148059000Y-71352000D01*
G75*
G02*
X147909000Y-71202000I0J150000D01*
G01*
X147909000Y-69852000D01*
G75*
G02*
X148059000Y-69702000I150000J0D01*
G01*
G37*
%TD.AperFunction*%
%TO.P,U1,2*%
%TO.N,BUCK_OUT*%
%TA.AperFunction,SMDPad,CuDef*%
G36*
G01*
X146789000Y-69702000D02*
X147089000Y-69702000D01*
G75*
G02*
X147239000Y-69852000I0J-150000D01*
G01*
X147239000Y-71202000D01*
G75*
G02*
X147089000Y-71352000I-150000J0D01*
G01*
X146789000Y-71352000D01*
G75*
G02*
X146639000Y-71202000I0J150000D01*
G01*
X146639000Y-69852000D01*
G75*
G02*
X146789000Y-69702000I150000J0D01*
G01*
G37*
%TD.AperFunction*%
%TO.P,U1,3*%
%TO.N,BUCK_FB*%
%TA.AperFunction,SMDPad,CuDef*%
G36*
G01*
X145519000Y-69702000D02*
X145819000Y-69702000D01*
G75*
G02*
X145969000Y-69852000I0J-150000D01*
G01*
X145969000Y-71202000D01*
G75*
G02*
X145819000Y-71352000I-150000J0D01*
G01*
X145519000Y-71352000D01*
G75*
G02*
X145369000Y-71202000I0J150000D01*
G01*
X145369000Y-69852000D01*
G75*
G02*
X145519000Y-69702000I150000J0D01*
G01*
G37*
%TD.AperFunction*%
%TO.P,U1,4*%
%TO.N,Net-(U1-Pad4)*%
%TA.AperFunction,SMDPad,CuDef*%
G36*
G01*
X144249000Y-69702000D02*
X144549000Y-69702000D01*
G75*
G02*
X144699000Y-69852000I0J-150000D01*
G01*
X144699000Y-71202000D01*
G75*
G02*
X144549000Y-71352000I-150000J0D01*
G01*
X144249000Y-71352000D01*
G75*
G02*
X144099000Y-71202000I0J150000D01*
G01*
X144099000Y-69852000D01*
G75*
G02*
X144249000Y-69702000I150000J0D01*
G01*
G37*
%TD.AperFunction*%
%TO.P,U1,5*%
%TO.N,GND*%
%TA.AperFunction,SMDPad,CuDef*%
G36*
G01*
X144249000Y-74952000D02*
X144549000Y-74952000D01*
G75*
G02*
X144699000Y-75102000I0J-150000D01*
G01*
X144699000Y-76452000D01*
G75*
G02*
X144549000Y-76602000I-150000J0D01*
G01*
X144249000Y-76602000D01*
G75*
G02*
X144099000Y-76452000I0J150000D01*
G01*
X144099000Y-75102000D01*
G75*
G02*
X144249000Y-74952000I150000J0D01*
G01*
G37*
%TD.AperFunction*%
%TO.P,U1,6*%
%TA.AperFunction,SMDPad,CuDef*%
G36*
G01*
X145519000Y-74952000D02*
X145819000Y-74952000D01*
G75*
G02*
X145969000Y-75102000I0J-150000D01*
G01*
X145969000Y-76452000D01*
G75*
G02*
X145819000Y-76602000I-150000J0D01*
G01*
X145519000Y-76602000D01*
G75*
G02*
X145369000Y-76452000I0J150000D01*
G01*
X145369000Y-75102000D01*
G75*
G02*
X145519000Y-74952000I150000J0D01*
G01*
G37*
%TD.AperFunction*%
%TO.P,U1,7*%
%TA.AperFunction,SMDPad,CuDef*%
G36*
G01*
X146789000Y-74952000D02*
X147089000Y-74952000D01*
G75*
G02*
X147239000Y-75102000I0J-150000D01*
G01*
X147239000Y-76452000D01*
G75*
G02*
X147089000Y-76602000I-150000J0D01*
G01*
X146789000Y-76602000D01*
G75*
G02*
X146639000Y-76452000I0J150000D01*
G01*
X146639000Y-75102000D01*
G75*
G02*
X146789000Y-74952000I150000J0D01*
G01*
G37*
%TD.AperFunction*%
%TO.P,U1,8*%
%TA.AperFunction,SMDPad,CuDef*%
G36*
G01*
X148059000Y-74952000D02*
X148359000Y-74952000D01*
G75*
G02*
X148509000Y-75102000I0J-150000D01*
G01*
X148509000Y-76452000D01*
G75*
G02*
X148359000Y-76602000I-150000J0D01*
G01*
X148059000Y-76602000D01*
G75*
G02*
X147909000Y-76452000I0J150000D01*
G01*
X147909000Y-75102000D01*
G75*
G02*
X148059000Y-74952000I150000J0D01*
G01*
G37*
%TD.AperFunction*%
%TD*%
D23*
%TO.P,U2,1*%
%TO.N,+12V*%
X170815000Y-65465000D03*
%TO.P,U2,3*%
%TO.N,+5V*%
X175895000Y-65465000D03*
D24*
%TO.P,U2,2*%
%TO.N,GND*%
X173355000Y-56315000D03*
%TD*%
%TO.P,C5,1*%
%TO.N,+5V*%
%TA.AperFunction,SMDPad,CuDef*%
G36*
G01*
X175420000Y-69175000D02*
X176370000Y-69175000D01*
G75*
G02*
X176620000Y-69425000I0J-250000D01*
G01*
X176620000Y-69925000D01*
G75*
G02*
X176370000Y-70175000I-250000J0D01*
G01*
X175420000Y-70175000D01*
G75*
G02*
X175170000Y-69925000I0J250000D01*
G01*
X175170000Y-69425000D01*
G75*
G02*
X175420000Y-69175000I250000J0D01*
G01*
G37*
%TD.AperFunction*%
%TO.P,C5,2*%
%TO.N,GND*%
%TA.AperFunction,SMDPad,CuDef*%
G36*
G01*
X175420000Y-71075000D02*
X176370000Y-71075000D01*
G75*
G02*
X176620000Y-71325000I0J-250000D01*
G01*
X176620000Y-71825000D01*
G75*
G02*
X176370000Y-72075000I-250000J0D01*
G01*
X175420000Y-72075000D01*
G75*
G02*
X175170000Y-71825000I0J250000D01*
G01*
X175170000Y-71325000D01*
G75*
G02*
X175420000Y-71075000I250000J0D01*
G01*
G37*
%TD.AperFunction*%
%TD*%
%TO.P,C6,1*%
%TO.N,+12V*%
%TA.AperFunction,SMDPad,CuDef*%
G36*
G01*
X163296000Y-50970000D02*
X163296000Y-50630000D01*
G75*
G02*
X163436000Y-50490000I140000J0D01*
G01*
X163716000Y-50490000D01*
G75*
G02*
X163856000Y-50630000I0J-140000D01*
G01*
X163856000Y-50970000D01*
G75*
G02*
X163716000Y-51110000I-140000J0D01*
G01*
X163436000Y-51110000D01*
G75*
G02*
X163296000Y-50970000I0J140000D01*
G01*
G37*
%TD.AperFunction*%
%TO.P,C6,2*%
%TO.N,GND*%
%TA.AperFunction,SMDPad,CuDef*%
G36*
G01*
X164256000Y-50970000D02*
X164256000Y-50630000D01*
G75*
G02*
X164396000Y-50490000I140000J0D01*
G01*
X164676000Y-50490000D01*
G75*
G02*
X164816000Y-50630000I0J-140000D01*
G01*
X164816000Y-50970000D01*
G75*
G02*
X164676000Y-51110000I-140000J0D01*
G01*
X164396000Y-51110000D01*
G75*
G02*
X164256000Y-50970000I0J140000D01*
G01*
G37*
%TD.AperFunction*%
%TD*%
D25*
%TO.P,L1,3*%
%TO.N,BUCK_OUT*%
X153580000Y-64040000D03*
%TO.P,L1,1*%
%TO.N,N/C*%
X153580000Y-68040000D03*
%TO.P,L1,2*%
%TO.N,Net-(C3-Pad1)*%
X158580000Y-68040000D03*
%TO.P,L1,4*%
%TO.N,N/C*%
X158580000Y-64040000D03*
%TD*%
D26*
%TO.N,GND*%
X202619999Y-71301999D03*
X202692000Y-72390000D03*
X202438000Y-63500000D03*
X202692000Y-64770000D03*
X201422000Y-78994000D03*
X202438000Y-78740000D03*
X179070000Y-58674000D03*
X179070000Y-57404000D03*
X179070000Y-55880000D03*
X179070000Y-54610000D03*
X193802000Y-68326000D03*
X197358000Y-67310000D03*
X197358000Y-74930000D03*
X193802000Y-75946000D03*
X193802000Y-60706000D03*
X197358000Y-59944000D03*
X144145000Y-67310000D03*
X144780000Y-66675000D03*
X161290000Y-87122000D03*
X162306000Y-86360000D03*
X144526000Y-64770000D03*
X145542000Y-63754000D03*
X152400000Y-76708000D03*
X151638000Y-75946000D03*
X150876000Y-75184000D03*
X148209000Y-77343000D03*
X146939000Y-77343000D03*
X145669000Y-77343000D03*
X144399000Y-77343000D03*
X172212000Y-70104000D03*
X174498000Y-70104000D03*
X146294253Y-67812677D03*
%TO.N,+5V*%
X179324000Y-63500000D03*
X177581762Y-78232000D03*
%TO.N,GPIO35*%
X192278000Y-71374000D03*
%TO.N,+24V*%
X155448000Y-89408000D03*
X155448000Y-87884000D03*
X155448000Y-90932000D03*
X153924000Y-90932000D03*
X153924000Y-87884000D03*
X149352000Y-69596000D03*
X149352000Y-70612000D03*
X149352000Y-68580000D03*
X149352000Y-67564000D03*
%TO.N,+12V*%
X150876000Y-85852000D03*
X146812000Y-85852000D03*
X169164000Y-62230000D03*
%TD*%
D27*
%TO.N,GND*%
X201533000Y-70215000D02*
X202619999Y-71301999D01*
X201483000Y-70215000D02*
X201533000Y-70215000D01*
X202619999Y-71374000D02*
X202619999Y-71301999D01*
X202619999Y-72317999D02*
X202692000Y-72390000D01*
X202619999Y-71301999D02*
X202619999Y-72317999D01*
X201549000Y-62611000D02*
X202438000Y-63500000D01*
X202460001Y-64538001D02*
X202692000Y-64770000D01*
X202460001Y-63522001D02*
X202460001Y-64538001D01*
X202438000Y-63500000D02*
X202460001Y-63522001D01*
D28*
X201483000Y-78933000D02*
X201422000Y-78994000D01*
X201483000Y-77819000D02*
X201483000Y-78933000D01*
X201517000Y-77819000D02*
X202438000Y-78740000D01*
X201483000Y-77819000D02*
X201517000Y-77819000D01*
D29*
X175545000Y-71750000D02*
X175895000Y-71400000D01*
D27*
X176711000Y-56315000D02*
X179070000Y-58674000D01*
X173355000Y-56315000D02*
X176711000Y-56315000D01*
X177981000Y-56315000D02*
X179070000Y-57404000D01*
X173355000Y-56315000D02*
X177981000Y-56315000D01*
X178635000Y-56315000D02*
X179070000Y-55880000D01*
X173355000Y-56315000D02*
X178635000Y-56315000D01*
X177365000Y-56315000D02*
X179070000Y-54610000D01*
X173355000Y-56315000D02*
X177365000Y-56315000D01*
D29*
X193739000Y-68263000D02*
X193802000Y-68326000D01*
X193739000Y-67056000D02*
X193739000Y-68263000D01*
X197485000Y-67437000D02*
X197358000Y-67310000D01*
X197485000Y-68581000D02*
X197485000Y-67437000D01*
X197485000Y-75057000D02*
X197358000Y-74930000D01*
X197485000Y-76201000D02*
X197485000Y-75057000D01*
X193739000Y-75883000D02*
X193802000Y-75946000D01*
X193739000Y-74676000D02*
X193739000Y-75883000D01*
X193739000Y-60643000D02*
X193802000Y-60706000D01*
X193739000Y-59436000D02*
X193739000Y-60643000D01*
X197485000Y-60071000D02*
X197358000Y-59944000D01*
X197485000Y-60961000D02*
X197485000Y-60071000D01*
D30*
X144438010Y-67779990D02*
X143638000Y-68580000D01*
X144438010Y-67603010D02*
X144145000Y-67310000D01*
X144438010Y-67779990D02*
X144438010Y-67603010D01*
X144945010Y-66840010D02*
X144780000Y-66675000D01*
X144945010Y-67779990D02*
X144945010Y-66840010D01*
X144945010Y-67779990D02*
X144438010Y-67779990D01*
D27*
X149945000Y-75777000D02*
X152400000Y-78232000D01*
X144399000Y-75777000D02*
X149945000Y-75777000D01*
X161200000Y-87212000D02*
X161290000Y-87122000D01*
X161200000Y-89408000D02*
X161200000Y-87212000D01*
X161544000Y-87122000D02*
X162306000Y-86360000D01*
X161290000Y-87122000D02*
X161544000Y-87122000D01*
X144526000Y-67056000D02*
X144526000Y-64770000D01*
X145415000Y-63881000D02*
X145542000Y-63754000D01*
X147320000Y-61976000D02*
X145415000Y-63881000D01*
X145415000Y-63881000D02*
X144526000Y-64770000D01*
X152400000Y-78232000D02*
X152400000Y-76708000D01*
X152400000Y-76708000D02*
X151638000Y-75946000D01*
X152400000Y-76708000D02*
X150876000Y-75184000D01*
D28*
X148209000Y-75777000D02*
X148209000Y-77343000D01*
X146939000Y-75777000D02*
X146939000Y-77343000D01*
X145669000Y-75777000D02*
X145669000Y-77343000D01*
X144399000Y-75777000D02*
X144399000Y-77343000D01*
X143638000Y-67817000D02*
X144145000Y-67310000D01*
X143638000Y-68580000D02*
X143638000Y-67817000D01*
X172240010Y-71049990D02*
X172240010Y-70104000D01*
X171540000Y-71750000D02*
X172240010Y-71049990D01*
X170815000Y-71750000D02*
X171540000Y-71750000D01*
X174219990Y-70624990D02*
X174219990Y-70104000D01*
X175170000Y-71575000D02*
X174219990Y-70624990D01*
X175895000Y-71575000D02*
X175170000Y-71575000D01*
D29*
X146812000Y-68330424D02*
X146294253Y-67812677D01*
X146812000Y-68580000D02*
X146812000Y-68330424D01*
X164536000Y-50984402D02*
X164536000Y-50800000D01*
X158624402Y-56896000D02*
X164536000Y-50984402D01*
X157480000Y-56896000D02*
X158624402Y-56896000D01*
D27*
%TO.N,Net-(C3-Pad1)*%
X161030000Y-78062000D02*
X161200000Y-78232000D01*
X157612000Y-81820000D02*
X161200000Y-78232000D01*
X148844000Y-81820000D02*
X157612000Y-81820000D01*
X161544000Y-71004000D02*
X158580000Y-68040000D01*
X161544000Y-77343000D02*
X161544000Y-71004000D01*
X160655000Y-78232000D02*
X161544000Y-77343000D01*
D28*
%TO.N,+5V*%
X175895000Y-68453000D02*
X177800000Y-70358000D01*
X175895000Y-68453000D02*
X175895000Y-69675000D01*
X175895000Y-65465000D02*
X175895000Y-65913000D01*
X175895000Y-65913000D02*
X175895000Y-68453000D01*
X177359000Y-65465000D02*
X179324000Y-63500000D01*
X175895000Y-65465000D02*
X177359000Y-65465000D01*
X177800000Y-73850000D02*
X177800000Y-70358000D01*
X175450000Y-76200000D02*
X177800000Y-73850000D01*
D29*
X175549762Y-76200000D02*
X177581762Y-78232000D01*
X175450000Y-76200000D02*
X175549762Y-76200000D01*
%TO.N,BUCK_OUT*%
X146939000Y-72136000D02*
X146685000Y-72390000D01*
X146939000Y-70527000D02*
X146939000Y-72136000D01*
D27*
X151066000Y-65976000D02*
X147320000Y-65976000D01*
X151066000Y-70948622D02*
X151066000Y-65976000D01*
X149624622Y-72390000D02*
X151066000Y-70948622D01*
X146685000Y-72390000D02*
X149624622Y-72390000D01*
X151644000Y-65976000D02*
X153580000Y-64040000D01*
X151066000Y-65976000D02*
X151644000Y-65976000D01*
%TO.N,LOAD1_NEG*%
X205105000Y-62230000D02*
X204470000Y-62865000D01*
X208280000Y-62230000D02*
X205105000Y-62230000D01*
X202216000Y-60611000D02*
X200599000Y-60611000D01*
X204470000Y-62865000D02*
X202216000Y-60611000D01*
%TO.N,LOAD1_POS*%
X205295000Y-59690000D02*
X204470000Y-58865000D01*
X208280000Y-59690000D02*
X205295000Y-59690000D01*
X198120000Y-57717081D02*
X198120000Y-56515000D01*
X199267919Y-58865000D02*
X198120000Y-57717081D01*
X204470000Y-58865000D02*
X199267919Y-58865000D01*
%TO.N,LOAD2_POS*%
X205200000Y-67310000D02*
X204470000Y-66580000D01*
X208280000Y-67310000D02*
X205200000Y-67310000D01*
X198120000Y-65972081D02*
X198120000Y-64770000D01*
X198727919Y-66580000D02*
X198120000Y-65972081D01*
X204470000Y-66580000D02*
X198727919Y-66580000D01*
%TO.N,LOAD2_NEG*%
X205200000Y-69850000D02*
X204470000Y-70580000D01*
X208280000Y-69850000D02*
X205200000Y-69850000D01*
X202170010Y-68280010D02*
X200533000Y-68280010D01*
X204470000Y-70580000D02*
X202170010Y-68280010D01*
%TO.N,LOAD3_POS*%
X205295000Y-74930000D02*
X204470000Y-74105000D01*
X208280000Y-74930000D02*
X205295000Y-74930000D01*
X198120000Y-73592081D02*
X198120000Y-72390000D01*
X198946918Y-74418999D02*
X198120000Y-73592081D01*
X201171001Y-74418999D02*
X198946918Y-74418999D01*
X201485000Y-74105000D02*
X201171001Y-74418999D01*
X204470000Y-74105000D02*
X201485000Y-74105000D01*
%TO.N,LOAD3_NEG*%
X205105000Y-77470000D02*
X204470000Y-78105000D01*
X208280000Y-77470000D02*
X205105000Y-77470000D01*
X202484009Y-76119009D02*
X200533000Y-76119009D01*
X204470000Y-78105000D02*
X202484009Y-76119009D01*
%TO.N,Net-(D9-Pad1)*%
X208280000Y-83820000D02*
X209550000Y-83820000D01*
X206375000Y-85725000D02*
X208280000Y-83820000D01*
%TO.N,Net-(D9-Pad2)*%
X206185000Y-81915000D02*
X202375000Y-85725000D01*
X206375000Y-81915000D02*
X206185000Y-81915000D01*
%TO.N,Net-(F1-Pad2)*%
X201465000Y-81280000D02*
X202100000Y-81915000D01*
X198755000Y-81280000D02*
X201465000Y-81280000D01*
D29*
%TO.N,CONN1_B*%
X171450000Y-76200000D02*
X169926000Y-77724000D01*
X169180238Y-77724000D02*
X166624000Y-75167762D01*
X169926000Y-77724000D02*
X169180238Y-77724000D01*
X165100000Y-68739928D02*
X165100000Y-68580000D01*
X166624000Y-70263928D02*
X165100000Y-68739928D01*
X166624000Y-75167762D02*
X166624000Y-70263928D01*
%TO.N,CONN1_A*%
X166400001Y-67340001D02*
X165100000Y-66040000D01*
X166400001Y-69049967D02*
X166400001Y-67340001D01*
X173450000Y-76099966D02*
X166400001Y-69049967D01*
X173450000Y-76200000D02*
X173450000Y-76099966D01*
%TO.N,CONN2_A*%
X184484002Y-57690000D02*
X184150000Y-57690000D01*
X187754002Y-60960000D02*
X184484002Y-57690000D01*
X190500000Y-60960000D02*
X187754002Y-60960000D01*
X183930000Y-57910000D02*
X184150000Y-57690000D01*
X181610000Y-57910000D02*
X183930000Y-57910000D01*
%TO.N,CONN2_B*%
X186880000Y-58420000D02*
X184150000Y-55690000D01*
X190500000Y-58420000D02*
X186880000Y-58420000D01*
%TO.N,CONN3_A*%
X185960000Y-68580000D02*
X184150000Y-70390000D01*
X190500000Y-68580000D02*
X185960000Y-68580000D01*
X182340000Y-70390000D02*
X181610000Y-71120000D01*
X184150000Y-70390000D02*
X182340000Y-70390000D01*
%TO.N,CONN3_B*%
X186500000Y-66040000D02*
X184150000Y-68390000D01*
X190500000Y-66040000D02*
X186500000Y-66040000D01*
%TO.N,CONN4_B*%
X189199999Y-76040001D02*
X184150000Y-81090000D01*
X189199999Y-74960001D02*
X189199999Y-76040001D01*
X190500000Y-73660000D02*
X189199999Y-74960001D01*
%TO.N,CONN4_A*%
X183860000Y-82800000D02*
X184150000Y-83090000D01*
X182245000Y-82800000D02*
X183860000Y-82800000D01*
X190500000Y-76740000D02*
X184150000Y-83090000D01*
X190500000Y-76200000D02*
X190500000Y-76740000D01*
%TO.N,Net-(J4-Pad1)*%
X184150000Y-90170000D02*
X184150000Y-85090000D01*
%TO.N,GPIO21*%
X173260000Y-81820000D02*
X173228000Y-81788000D01*
X173260000Y-83820000D02*
X173260000Y-81820000D01*
%TO.N,GPIO22*%
X171260000Y-81856000D02*
X171196000Y-81792000D01*
X171260000Y-83820000D02*
X171260000Y-81856000D01*
X171260000Y-83820000D02*
X168720000Y-86360000D01*
X168720000Y-86360000D02*
X166370000Y-86360000D01*
X166370000Y-86360000D02*
X165100000Y-86360000D01*
%TO.N,GPIO35*%
X195228998Y-62611000D02*
X195453000Y-62611000D01*
X192278000Y-65561998D02*
X195228998Y-62611000D01*
X192278000Y-71374000D02*
X192278000Y-65561998D01*
X195453000Y-62611000D02*
X197485000Y-62611000D01*
X197485000Y-62611000D02*
X199649000Y-62611000D01*
%TO.N,GPIO34*%
X194978000Y-70231000D02*
X195453000Y-70231000D01*
X191800001Y-73408999D02*
X194978000Y-70231000D01*
X191800001Y-79979999D02*
X191800001Y-73408999D01*
X190500000Y-81280000D02*
X191800001Y-79979999D01*
X195453000Y-70231000D02*
X197485000Y-70231000D01*
X199567000Y-70231000D02*
X199583000Y-70215000D01*
X197485000Y-70231000D02*
X199567000Y-70231000D01*
%TO.N,GPIO36*%
X191854990Y-81449010D02*
X195453000Y-77851000D01*
X191854990Y-85005010D02*
X191854990Y-81449010D01*
X190500000Y-86360000D02*
X191854990Y-85005010D01*
X195453000Y-77851000D02*
X197485000Y-77851000D01*
X199551000Y-77851000D02*
X199583000Y-77819000D01*
X197485000Y-77851000D02*
X199551000Y-77851000D01*
%TO.N,+3V3*%
X184150000Y-59690000D02*
X182370000Y-59690000D01*
X181860000Y-72390000D02*
X181610000Y-72140000D01*
X184150000Y-72390000D02*
X181860000Y-72390000D01*
X181610000Y-84455000D02*
X182245000Y-83820000D01*
X181610000Y-90170000D02*
X181610000Y-84455000D01*
X181474990Y-72275010D02*
X181610000Y-72140000D01*
X181610000Y-90170000D02*
X181474990Y-90034990D01*
X181610000Y-88015000D02*
X181610000Y-90170000D01*
X180839990Y-71689990D02*
X180839990Y-60968010D01*
X180839990Y-60968010D02*
X182244000Y-59564000D01*
X181610000Y-72140000D02*
X181290000Y-72140000D01*
X181290000Y-72140000D02*
X180839990Y-71689990D01*
X182244000Y-59564000D02*
X181610000Y-58930000D01*
X182370000Y-59690000D02*
X182244000Y-59564000D01*
X173224000Y-80772000D02*
X173228000Y-80768000D01*
X171196000Y-80772000D02*
X173224000Y-80772000D01*
X175260000Y-82480000D02*
X175260000Y-83820000D01*
X173548000Y-80768000D02*
X175260000Y-82480000D01*
X173228000Y-80768000D02*
X173548000Y-80768000D01*
X179434980Y-83820000D02*
X181474990Y-81779990D01*
X175260000Y-83820000D02*
X179434980Y-83820000D01*
X181474990Y-81779990D02*
X181474990Y-72275010D01*
X181474990Y-90034990D02*
X181474990Y-81779990D01*
D30*
%TO.N,BUCK_FB*%
X145669000Y-70527000D02*
X145609990Y-70586010D01*
D29*
X145669000Y-68961000D02*
X145288000Y-68580000D01*
X145669000Y-70527000D02*
X145669000Y-68961000D01*
X154940000Y-59690000D02*
X154940000Y-54356000D01*
X155956000Y-60706000D02*
X154940000Y-59690000D01*
X151973675Y-73770017D02*
X155956000Y-69787692D01*
X146367947Y-73770017D02*
X151973675Y-73770017D01*
X155956000Y-69787692D02*
X155956000Y-60706000D01*
X145369000Y-72771070D02*
X146367947Y-73770017D01*
X145369000Y-70827000D02*
X145369000Y-72771070D01*
X145669000Y-70527000D02*
X145369000Y-70827000D01*
D30*
%TO.N,+24V*%
X148362000Y-70374000D02*
X148209000Y-70527000D01*
D27*
X152400000Y-89408000D02*
X155448000Y-89408000D01*
X153924000Y-89408000D02*
X155448000Y-87884000D01*
X152400000Y-89408000D02*
X153924000Y-89408000D01*
X153924000Y-89408000D02*
X155448000Y-90932000D01*
X152400000Y-89408000D02*
X153924000Y-90932000D01*
X152400000Y-89408000D02*
X153924000Y-87884000D01*
D28*
X148209000Y-70527000D02*
X148421000Y-70527000D01*
X149267000Y-70527000D02*
X149352000Y-70612000D01*
X148209000Y-70527000D02*
X149267000Y-70527000D01*
D29*
X148209000Y-68733000D02*
X148362000Y-68580000D01*
X148209000Y-70527000D02*
X148209000Y-68733000D01*
D28*
X148996400Y-69951600D02*
X149352000Y-69596000D01*
X148421000Y-70527000D02*
X148996400Y-69951600D01*
D29*
X149352000Y-69596000D02*
X149352000Y-69570000D01*
X148362000Y-69317200D02*
X148564600Y-69519800D01*
X148362000Y-68580000D02*
X148362000Y-69317200D01*
X148564600Y-69519800D02*
X148996400Y-69951600D01*
X148907800Y-69176600D02*
X148564600Y-69519800D01*
X148907800Y-69125800D02*
X148907800Y-69176600D01*
X149352000Y-69570000D02*
X148907800Y-69125800D01*
X148907800Y-69125800D02*
X148362000Y-68580000D01*
D27*
X148362000Y-68580000D02*
X149352000Y-68580000D01*
D28*
X149352000Y-67564000D02*
X149352000Y-68580000D01*
%TO.N,+12V*%
X170815000Y-68453000D02*
X170688000Y-68580000D01*
X170815000Y-65465000D02*
X170815000Y-68453000D01*
X170688000Y-69723000D02*
X170815000Y-69850000D01*
X170688000Y-68580000D02*
X170688000Y-69723000D01*
D27*
X150844000Y-85820000D02*
X150876000Y-85852000D01*
X148844000Y-85820000D02*
X150844000Y-85820000D01*
X146844000Y-85820000D02*
X146812000Y-85852000D01*
X148844000Y-85820000D02*
X146844000Y-85820000D01*
D28*
X170815000Y-63881000D02*
X169164000Y-62230000D01*
X170815000Y-65465000D02*
X170815000Y-63881000D01*
D29*
X158496000Y-50800000D02*
X157480000Y-51816000D01*
X163576000Y-50800000D02*
X158496000Y-50800000D01*
%TO.N,Net-(D3-Pad1)*%
X195389000Y-68592000D02*
X195453000Y-68656000D01*
X195389000Y-67056000D02*
X195389000Y-68592000D01*
%TO.N,Net-(D5-Pad1)*%
X195389000Y-60972000D02*
X195453000Y-61036000D01*
X195389000Y-59436000D02*
X195389000Y-60972000D01*
%TO.N,Net-(D7-Pad1)*%
X195389000Y-76212000D02*
X195453000Y-76276000D01*
X195389000Y-74676000D02*
X195389000Y-76212000D01*
%TD*%
M02*
